ply
format ascii 1.0
comment VCGLIB generated
element vertex 24
property float x
property float y
property float z
property float nx
property float ny
property float nz
element face 44
property list uchar int vertex_indices
end_header
29.0003 -20.00086 5 1.570796 1.570796 1.570796 
27.0003 -20.00086 5 -1.570796 1.570796 1.570796 
29.0003 -50.00079 5 1.570796 -1.570796 1.570796 
27.0003 -48.00079 5 -1.570796 1.570796 4.712389 
10.00045 -50.00079 5 -1.570796 -1.570796 1.570797 
12.00045 -48.00079 5 1.570796 1.570796 4.712387 
10.00045 47.99921 5 -1.570796 -1.570796 4.712387 
12.00045 49.99921 5 1.570796 1.570797 1.570797 
-26.9997 47.99921 5 1.570796 -1.570796 4.71239 
-28.9997 49.99921 5 -1.570796 1.570796 1.570797 
-26.9997 19.99914 5 1.570796 -1.570796 1.570797 
-28.9997 19.99914 5 -1.570796 -1.570796 1.570796 
27.0003 -48.00079 -5 -1.570796 1.570796 -4.71239 
27.0003 -20.00086 -5 -1.570796 1.570796 -1.570796 
29.0003 -20.00086 -5 1.570796 1.570796 -1.570797 
29.0003 -50.00079 -5 1.570796 -1.570796 -1.570797 
12.00045 -48.00079 -5 1.570796 1.570796 -4.71239 
10.00045 -50.00079 -5 -1.570796 -1.570796 -1.570795 
12.00045 49.99921 -5 1.570796 1.570796 -1.570795 
10.00045 47.99921 -5 -1.570796 -1.570796 -4.71239 
-28.9997 49.99921 -5 -1.570796 1.570797 -1.570797 
-26.9997 47.99921 -5 1.570796 -1.570796 -4.712389 
-28.9997 19.99914 -5 -1.570796 -1.570796 -1.570796 
-26.9997 19.99914 -5 1.570796 -1.570796 -1.570796 
3 0 1 2 
3 1 3 2 
3 2 3 4 
3 3 5 4 
3 4 5 6 
3 5 7 6 
3 6 7 8 
3 7 9 8 
3 8 9 10 
3 9 11 10 
3 3 1 12 
3 1 13 12 
3 13 14 12 
3 14 15 12 
3 12 15 16 
3 15 17 16 
3 16 17 18 
3 17 19 18 
3 18 19 20 
3 19 21 20 
3 20 21 22 
3 21 23 22 
3 15 14 2 
3 14 0 2 
3 5 3 16 
3 3 12 16 
3 17 15 4 
3 15 2 4 
3 7 5 18 
3 5 16 18 
3 19 17 6 
3 17 4 6 
3 14 13 0 
3 13 1 0 
3 22 23 11 
3 23 10 11 
3 22 11 20 
3 11 9 20 
3 10 23 8 
3 23 21 8 
3 21 19 8 
3 19 6 8 
3 9 7 20 
3 7 18 20 
