ply
format ascii 1.0
comment VCGLIB generated
element vertex 502
property float x
property float y
property float z
property float nx
property float ny
property float nz
element face 1000
property list uchar int vertex_indices
end_header
29 -50 -7.347881e-16 0.8319098 -0.5548418 0.008744042 
28.99328 2.351211e-05 0.2463051 0.9981397 0.01429971 0.05926857 
28.99126 -50 0.2770748 0.8289949 -0.5549629 0.06916421 
28.95662 -5.225588e-05 0.5933889 0.9902687 0.008965828 0.1388792 
28.95193 -50 0.6238486 0.8207926 -0.5549468 0.1354015 
28.90519 3.539864e-15 0.8657585 0.9777907 0.007814379 0.2094381 
28.90519 -50 0.8657585 0.8102992 -0.5548421 0.1885879 
28.84533 -1.349361e-05 1.104728 0.9617013 0.01033051 0.2739049 
28.8367 -50 1.134313 0.7943762 -0.554963 0.2469464 
28.73439 -2.473188e-05 1.435718 0.9366385 0.01724655 0.3498726 
28.72322 -50 1.464439 0.7720266 -0.5549467 0.3098533 
28.62523 3.50558e-15 1.690473 0.9112396 0.02292227 0.4112385 
28.62523 -50 1.690473 0.7492555 -0.5548748 0.3615662 
28.51505 3.74699e-05 1.910853 0.8776086 0.008624962 0.4793003 
28.45523 -50 2.020113 0.7147551 -0.5551135 0.4254106 
28.29109 8.577402e-05 2.277771 0.8240788 0.004626031 0.5664562 
28.21735 -50 2.378156 0.6653946 -0.5550349 0.4991857 
28.01816 -4.28505e-06 2.626343 0.7611802 0.007786707 0.6484936 
27.99783 -50 2.64952 0.6166524 -0.5550038 0.5583104 
27.77775 7.508854e-05 2.879423 0.6975016 0.01778012 0.7163626 
27.75549 -50 2.900733 0.5626346 -0.5550625 0.6126564 
27.41917 -50 3.188595 0.4923583 -0.5552397 0.6702926 
27.45383 0.0002184707 3.161997 0.6293303 0.02140029 0.7768433 
27.0887 0.0001121349 3.412373 0.5320384 0.006459213 0.8466956 
27.06236 -50 3.428358 0.4217525 -0.5550524 0.716967 
26.78333 0.0001537765 3.581437 0.4521583 0.0055263 0.8919206 
26.75568 -50 3.59507 0.3560585 -0.5550047 0.7517926 
26.46443 0.0002064929 3.723223 0.3748635 0.008151238 0.9270442 
26.43571 -50 3.734394 0.2931306 -0.5549466 0.7785299 
26.20282 3.20892e-15 3.814868 0.3022566 0.01673399 0.9530797 
26.20282 -50 3.814868 0.2418178 -0.5548404 0.7960379 
25.96591 0.0005112374 3.882521 0.2436541 0.006811573 0.9698383 
25.93597 -50 3.889847 0.1833222 -0.5549629 0.8114242 
25.62383 0.001093723 3.951934 0.1823813 -0.0006606198 0.9832276 
25.59336 -50 3.956623 0.1081084 -0.7073579 0.6985394 
25.34925 -49.99997 3.984749 0.1076703 -0.5556072 0.8244439 
25.17492 -49.99999 3.996187 0.0283304 -0.7074638 0.7061816 
24.91294 -50 4 -0.01801353 -0.7074797 0.7065041 
24.56446 -49.99997 3.977149 -0.07454672 -0.7071406 0.7031323 
24.305 -49.99993 3.939117 -0.07692575 -0.7052678 0.704755 
24.06403 0.0001393028 3.889848 -0.2033572 0.0003625816 0.9791046 
24.03409 -50 3.882521 -0.2080019 -0.5549491 0.8054605 
23.79718 -50 3.814868 -0.2613013 -0.5548813 0.789828 
23.56428 1.563115e-06 3.73439 -0.369655 0.005475801 0.9291529 
23.44817 -50 3.689354 -0.3284779 -0.5551136 0.764167 
23.17129 0.0001047338 3.56024 -0.4425947 0.002123822 0.8967192 
23.06213 -50 3.50023 -0.4043897 -0.5549766 0.7269594 
22.8508 2.798416e-15 3.373566 -0.5284069 -0.01090511 0.8489213 
22.8508 -50 3.373566 -0.4543574 -0.5548418 0.6969289 
22.6467 -2.655889e-05 3.235573 -0.5862899 -0.0129091 0.8099985 
22.62185 -50 3.217348 -0.5037485 -0.5549629 0.6620073 
22.37366 -4.983956e-05 3.018154 -0.6509684 -0.01056788 0.7590313 
22.35048 -50 2.997833 -0.558309 -0.5550037 0.6166537 
22.1206 -6.805913e-05 2.777772 -0.7164848 -0.002184597 0.6975992 
22.09929 -50 2.755507 -0.6126516 -0.5550625 0.5626397 
21.83801 -5.96041e-05 2.453835 -0.7640526 -0.01922274 0.6448676 
21.81141 -50 2.419173 -0.6678597 -0.5551647 0.4957373 
21.62643 2.648474e-15 2.149199 -0.8367699 -0.02559068 0.5469564 
21.62643 -50 2.149199 -0.7065942 -0.5549087 0.4390912 
21.49978 -5.325482e-05 1.937883 -0.8755863 -0.02255251 0.4825349 
21.43975 -50 1.828694 -0.7428269 -0.5551135 0.3742423 
21.31064 -5.590061e-05 1.55182 -0.924359 -0.01642547 0.3811702 
21.26558 -50 1.435642 -0.7785265 -0.5550349 0.2929723 
21.16332 -3.36072e-05 1.134381 -0.9558035 -0.01694595 0.2935175 
21.15469 -50 1.104789 -0.8022009 -0.5550037 0.2201015 
21.07904 -2.500445e-05 0.795626 -0.9781793 -0.02813037 0.2058492 
21.07303 -50 0.7654077 -0.8183316 -0.5550038 0.1493461 
21.02462 -9.631314e-05 0.4508691 -0.9919755 -0.0328094 0.1220989 
21.02126 -50 0.4202296 -0.8278698 -0.5549469 0.08164239 
21.00381 2.572225e-15 0.1744775 -0.998176 -0.03272289 0.05073326 
21.00381 -50 0.1744775 -0.9481269 -0.3163357 0.03141823 
20.99978 1.759357e-05 -0.07186169 -0.9994648 -0.0287219 -0.01566256 
21.02126 5.964062e-06 -0.420246 -0.9950117 -0.0192996 -0.09787297 
21.02462 -50 -0.4508926 -0.9412158 -0.3164563 -0.1181877 
21.07302 5.220058e-05 -0.7653847 -0.9828724 -0.00375299 -0.1842492 
21.07903 -50 -0.7956098 -0.8131921 -0.5550038 -0.175184 
21.15469 -2.584799e-06 -1.104773 -0.9708726 -0.02849303 -0.2378964 
21.16331 -50 -1.134358 -0.7948298 -0.5550037 -0.2453904 
21.26559 -3.292798e-06 -1.435663 -0.9362378 -0.03389834 -0.349728 
21.27676 -50 -1.464384 -0.7720295 -0.5549469 -0.3098457 
21.37477 2.617654e-15 -1.690473 -0.9004707 -0.02675601 -0.4340928 
21.37477 -50 -1.690473 -0.750271 -0.5548418 -0.359505 
21.48495 5.072684e-06 -1.910856 -0.878346 -0.01450252 -0.4778054 
21.49978 -50 -1.937883 -0.7212003 -0.5549737 -0.4145773 
21.7089 2.714668e-05 -2.277752 -0.8242648 -0.01503814 -0.5660048 
21.68196 -50 -2.235529 -0.5861354 -0.7074523 -0.3949133 
21.88947 -50 -2.51626 -0.6480684 -0.555022 -0.5214958 
21.98182 6.58336e-05 -2.626321 -0.7526391 -0.0154946 -0.658251 
22.18536 -50 -2.845573 -0.591842 -0.5550984 -0.584456 
22.27993 0.0001673589 -2.936106 -0.6712909 -0.008257635 -0.741148 
22.42885 -50 -3.064178 -0.5299166 -0.5548819 -0.6413224 
22.68643 0.0002494038 -3.266025 -0.5869855 -0.01123689 -0.8095195 
22.72222 -50 -3.291083 -0.4613024 -0.5551835 -0.6920776 
23.06213 0.0001315475 -3.500232 -0.4945506 -0.01592836 -0.8690028 
23.08915 -50 -3.515055 -0.3900775 -0.5550523 -0.7346812 
23.37458 0.0001753577 -3.655814 -0.4127891 -0.01256797 -0.91074 
23.4028 -50 -3.668228 -0.3229223 -0.5550038 -0.7666107 
23.69939 0.0003126345 -3.783564 -0.3340716 -0.003847856 -0.9425399 
23.72858 -50 -3.793473 -0.2588913 -0.5549468 -0.7905753 
23.96472 2.934832e-15 -3.863703 -0.2657346 0.007299388 -0.9640186 
23.96472 -50 -3.863703 -0.2068737 -0.5548396 -0.8058264 
24.20435 0.0006736115 -3.920956 -0.2206233 0.001080766 -0.9753585 
24.23458 -50 -3.92697 -0.1487023 -0.554969 -0.8184723 
24.4779 2.997678e-15 -3.96578 -0.2633755 -0.006675244 -0.9646703 
24.5916 -49.99999 -3.979651 -0.1259944 -0.8893301 -0.4395649 
24.82595 -49.99999 -3.996199 -0.02803004 -0.5549147 -0.8314349 
25.10269 -50 -3.999551 0.02019867 -0.7074046 -0.7065202 
25.15274 -0.0498898 -3.999521 0.05206366 0.006022018 -0.9986256 
25.45089 -50 -3.97538 0.09161399 -0.555022 -0.8267754 
25.59336 0.0005554649 -3.956623 0.1358516 0.003845204 -0.9907217 
25.8876 -50 -3.902776 0.2016717 -0.4477072 -0.871141 
26.27143 1.318766e-05 -3.793472 0.3054558 0.002011677 -0.9522042 
26.30061 -50 -3.783565 0.2782677 -0.5550531 -0.7838898 
26.62544 -50 -3.655804 0.350845 -0.5550643 -0.7541959 
26.98228 0.0001059038 -3.477081 0.5005714 0.005791285 -0.8656759 
27.02011 -50 -3.455237 0.432827 -0.5552723 -0.7101644 
27.36468 3.351206e-15 -3.225011 0.5830565 0.01695033 -0.8122548 
27.36468 -50 -3.225011 0.5013178 -0.5550445 -0.6637816 
27.62634 -2.409514e-05 -3.018165 0.6415005 0.00794439 -0.7670815 
27.72005 -50 -2.936128 0.5674736 -0.5552148 -0.6080378 
27.93421 1.302624 -2.722077 0.7158621 0.03110456 -0.6975486 
28.01816 -50 -2.626343 0.6313393 -0.5550337 -0.5416163 
28.21735 -6.729358e-06 -2.378156 0.8108968 0.01662678 -0.5849529 
28.23557 -50 -2.353295 0.6785448 -0.5550037 -0.4811943 
28.41236 -3.161053e-07 -2.088711 0.8490637 0.01297127 -0.5281312 
28.42835 -50 -2.062364 0.7179018 -0.5550038 -0.4202235 
28.58144 -3.323949e-06 -1.783318 0.890858 0.006192737 -0.4542396 
28.59507 -50 -1.755678 0.7500185 -0.5549468 -0.3598697 
28.69552 3.514187e-15 -1.530734 0.9211051 0.005064712 -0.389281 
28.69552 -50 -1.530734 0.7719292 -0.5548418 -0.3102835 
28.78355 -5.100059e-05 -1.300654 0.9457989 0.008685858 -0.3246366 
28.79346 -50 -1.271475 0.7932156 -0.5549918 -0.2505859 
28.88445 3.537324e-15 -0.9505173 0.9693279 0.01623615 -0.2452342 
28.88445 -50 -0.9505173 0.8106486 -0.5549443 -0.1867772 
28.95193 1.001037e-07 -0.6238554 0.9838216 0.006017225 -0.1790498 
28.95662 -50 -0.5933818 0.8237591 -0.5550549 -0.1154777 
28.991 1.301406 -0.2799763 0.9936478 0.03850606 -0.1057423 
28.99328 -50 -0.2463051 0.8306362 -0.554945 -0.04560304 
29 3.551476e-15 5.224851e-16 0.9997744 0.01408128 0.01590565 
21.63909 2.718015 -2.392684 -0.784081 -0.08255835 -0.6151432 
22.99693 2.142576 -3.561642 -0.4468146 -0.02934118 -0.8941453 
28.64089 1.830555 -1.601624 0.9090102 0.04856513 -0.4139345 
28.24974 2.165037 2.293602 0.805851 0.05408473 0.5896431 
25.28769 1.361234 4.024062 0.07988547 0.008048185 0.9967716 
23.78588 0.8795297 3.811567 -0.3105677 -0.01636195 0.9504104 
22.57835 2.176593 3.272575 -0.6034986 -0.03782848 0.7964661 
20.83347 2.175896 0.3566941 -0.9936913 -0.07525725 0.08315085 
20.75767 4.167237 -1.097509 -0.945937 -0.1594821 -0.2824334 
25.90575 1.926298 -3.89711 0.188701 0.01285132 -0.9819505 
28.87696 2.237275 0.7905277 0.9787822 0.06570728 0.1940823 
26.84762 3.35552 3.497674 0.5066434 0.05553484 0.8603653 
24.20985 4.509797 -3.981867 -0.1257832 -0.02579227 -0.9917225 
26.60131 2.234315 -3.666386 0.4557795 0.03156792 -0.8895327 
27.6794 4.872216 -2.64835 0.7403373 0.1367667 -0.6581759 
28.53964 4.682778 -0.9919474 0.958744 0.152054 -0.2401862 
28.16803 5.277098 1.731578 0.8711765 0.1641257 0.4627248 
26.86554 6.814923 2.993783 0.6422531 0.147186 0.7522281 
25.23841 6.797823 3.890628 0.3531322 0.09608942 0.9306259 
20.60499 7.480606 -2.609427 -0.7692327 -0.2878225 -0.570473 
25.47029 6.04223 -3.883069 0.3331766 0.07278269 -0.9400511 
25.86198 10.1331 -2.997959 0.625321 0.2451466 -0.7408623 
27.19094 9.503253 -1.451568 0.8912421 0.2958817 -0.3437173 
28.34334 6.529359 -0.0971431 0.9759721 0.2176868 0.009541865 
21.54958 4.149215 2.520413 -0.8133782 -0.1207838 0.5690581 
20.15758 6.340417 1.008779 -0.9209983 -0.3010836 0.2472063 
19.321 8.346065 -0.6757253 -0.9010441 -0.4133163 -0.1314887 
27.20922 7.887182 2.304794 0.7980142 0.2486316 0.5489588 
20.91268 11.30618 -3.819057 -0.1699686 -0.08628003 -0.9816652 
25.21313 14.14399 -1.268993 0.8131276 0.4722649 -0.3402784 
27.39123 9.581836 0.6694728 0.9292739 0.3409358 0.1421716 
25.81573 9.623045 3.129569 0.5763614 0.2295341 0.7842969 
22.77594 12.20172 4.002956 0.1124373 0.07362418 0.9909275 
22.25766 6.737923 3.593825 -0.4480887 -0.1196803 0.8859419 
19.88346 9.401203 2.700214 -0.6233065 -0.2935766 0.724777 
21.67179 7.719549 -3.457177 -0.4584162 -0.166094 -0.8730793 
18.1389 11.57865 2.064156 -0.7640578 -0.4638651 0.4483802 
18.68075 10.92277 -2.106386 -0.7242206 -0.4464366 -0.5255463 
25.6973 12.46291 1.944175 0.7961935 0.3834921 0.4679848 
24.2184 8.914199 -4.013172 0.1821201 0.07760366 -0.9802092 
25.19483 14.49038 0.1698115 0.8613335 0.5006706 0.08621728 
17.68336 15.93742 -3.816362 -0.347412 -0.2713702 -0.8975874 
23.28606 14.6778 -3.197367 0.50195 0.3241734 -0.8018464 
16.84029 14.56874 -2.914904 -0.5285161 -0.5288182 -0.6640948 
23.7148 14.7594 2.835933 0.5649126 0.3522109 0.7462046 
20.16815 13.99573 3.970271 -0.1870459 -0.1372156 0.9727207 
17.90153 11.03448 -0.5445207 -0.8370092 -0.5158687 -0.1824695 
18.59455 18.18507 -3.979218 0.09497325 0.08986996 -0.9914148 
21.73346 18.98334 -1.284581 0.6865365 0.6437824 -0.3379523 
23.10114 17.16998 1.571983 0.7366515 0.5456859 0.3994638 
21.78864 19.21752 0.2463344 0.763337 0.6456044 0.02261944 
15.85709 13.97448 -1.113931 -0.7448657 -0.6300841 -0.2194747 
20.37485 18.88789 2.941019 0.5134395 0.4900852 0.704412 
19.63857 21.03708 1.491741 0.626507 0.6800401 0.380834 
17.90982 14.17178 3.391041 -0.4520553 -0.3638732 0.8143969 
16.92183 12.66824 0.8522907 -0.7913418 -0.5857261 0.1752224 
19.26367 19.19721 -3.414943 0.3909913 0.4090014 -0.8245264 
20.75366 18.91031 -2.643624 0.5930203 0.5202178 -0.6145733 
15.39818 15.67492 2.609052 -0.5637139 -0.5510438 0.6152865 
16.08644 23.43033 -2.270457 0.4758941 0.6783723 -0.5597641 
17.1034 23.26855 -1.289478 0.5730918 0.7647223 -0.2945599 
13.5358 16.23997 1.024129 -0.6134064 -0.7401601 0.2754918 
11.86435 20.54921 -3.806669 -0.1495846 -0.2544406 -0.9554498 
18.25757 22.62327 -0.03612447 0.6306742 0.7760209 0.006449539 
16.16627 21.721 3.508904 0.3096337 0.4245113 0.8508332 
19.80184 17.32624 3.873348 0.2214174 0.203116 0.9537915 
12.41763 16.9805 -0.0345268 -0.5828127 -0.8071654 -0.09387886 
10.72313 18.63952 -1.921468 -0.4267539 -0.7825326 -0.4533474 
13.72799 17.86601 -3.132702 -0.3541477 -0.4774851 -0.8041066 
15.80841 23.44964 2.432608 0.4478659 0.660884 0.602203 
14.57907 18.36983 3.701572 -0.2732842 -0.3694733 0.8881471 
15.42955 24.28324 1.522338 0.5110996 0.7975454 0.3204662 
12.96651 21.34093 4.016438 -0.03748256 -0.0741065 0.9965456 
8.625351 21.04382 -3.289006 -0.2197205 -0.566675 -0.7941048 
12.15047 25.01016 2.913956 0.2890171 0.6129436 0.7353701 
11.38787 19.19778 3.013239 -0.4080555 -0.6726143 0.6173174 
10.32101 26.74014 -1.788308 0.3181099 0.8220311 -0.4723038 
13.09866 25.98925 -0.1055647 0.4582283 0.8864465 -0.0651114 
12.94199 23.6271 -3.630877 0.253909 0.4694616 -0.8456572 
10.88738 26.63412 1.479072 0.3664803 0.8437769 0.3920876 
9.409068 22.15043 3.883823 -0.1098263 -0.2814819 0.9532608 
7.232622 21.24549 3.102126 -0.230995 -0.589203 0.7742617 
5.501438 20.29065 -0.5884966 -0.2713946 -0.955117 -0.1187294 
10.16148 24.04058 3.898328 0.1179063 0.2612458 0.9580443 
9.53639 19.02602 1.39368 -0.4077885 -0.8200104 0.4016112 
7.742508 19.55279 0.3984021 -0.3568293 -0.9247217 0.1325238 
8.291146 27.14264 2.24862 0.2447302 0.8022454 0.5445269 
6.671024 20.55365 -2.11946 -0.2372036 -0.8524011 -0.46599 
7.220005 28.1681 0.1803821 0.2484492 0.9667847 0.06000438 
4.433106 28.00125 2.315087 0.1414103 0.7961243 0.5883785 
-0.0988536 25.61587 3.997718 -0.02056859 0.04576389 0.9987406 
6.365125 26.85038 -3.171231 0.1381454 0.6022283 -0.7862804 
4.60668 28.18962 -2.051395 0.129682 0.8760501 -0.4644554 
7.112057 26.24249 3.419289 0.1540885 0.5557697 0.8169313 
3.030272 21.05446 1.449187 -0.1427443 -0.9469343 0.287992 
2.342827 23.154 -3.625072 0.00445086 -0.5469904 -0.837127 
8.023771 24.64218 -3.967164 0.05130237 0.2004557 -0.9783586 
2.753314 28.81046 1.005691 0.07927551 0.9607477 0.2658557 
3.529318 23.7346 3.877126 -0.06046548 -0.343641 0.9371525 
2.263759 20.84142 -0.28435 -0.08970919 -0.9955679 -0.02822804 
1.917279 25.30774 -4.020669 -0.02318802 -0.06145984 -0.9978402 
-0.3226157 26.83191 -3.601456 0.002072406 0.4240924 -0.9056165 
2.216843 28.87601 -0.8060029 0.08114694 0.9838771 -0.1593773 
1.852596 28.01618 2.649116 0.03154553 0.7608181 0.648198 
-1.235689 27.87573 -2.846608 -0.01910344 0.7188668 -0.6948854 
-0.596133 29.0312 0.2914562 -0.03786657 0.9982682 0.04501673 
2.18765 26.42892 3.777282 0.04716854 0.4457267 0.8939255 
-1.630616 21.52531 2.064608 0.08438151 -0.9013025 0.4248925 
1.472663 21.16964 -1.354317 -0.072799 -0.8565603 -0.5108863 
-0.02396144 22.14404 -2.795618 0.05957007 -0.8202139 -0.568947 
-3.230535 27.23127 3.270025 -0.07179681 0.5870171 0.8063846 
3.531091 21.85863 2.785133 -0.1295861 -0.7579443 0.6393183 
-2.390574 28.75142 -1.356021 -0.05168533 0.9319361 -0.3589203 
-3.332249 28.51253 1.760176 -0.1011594 0.908191 0.4061478 
-5.602671 22.98621 -3.765497 0.08345725 -0.35236 -0.9321359 
-3.315523 20.73047 -0.3771956 0.1343961 -0.9699002 -0.2030547 
-5.983625 26.90069 -3.15065 -0.1358765 0.585337 -0.7993235 
-5.668374 27.71589 -2.392214 -0.1620889 0.8172288 -0.55305 
-4.571226 22.93143 3.721361 0.06204703 -0.4288083 0.9012622 
-5.598215 25.01521 -4.008698 0.000303343 0.08986338 -0.9959541 
-5.546544 28.46689 -0.7575344 -0.193647 0.9710172 -0.1400948 
-7.375834 28.00232 0.9127324 -0.2524085 0.9463422 0.201808 
-6.661547 25.86891 3.681594 -0.1211593 0.4401398 0.8897176 
-4.272126 21.80611 -2.916262 0.1341814 -0.7257743 -0.67472 
-11.45484 25.02769 -3.235578 -0.2474564 0.5104129 -0.8235558 
-9.404513 26.95087 -1.937068 -0.293034 0.8210027 -0.4899853 
-10.53068 27.03577 -0.5386531 -0.3306731 0.9358467 -0.1218452 
-9.871671 21.18874 3.662884 0.1582016 -0.3146285 0.9359387 
-10.46026 27.02155 0.7959879 -0.3715056 0.9073592 0.1966796 
-12.20426 22.8865 3.965398 -0.05637987 0.1065753 0.9927049 
-14.61862 20.4075 3.990926 0.09323616 -0.06480734 0.9935327 
-7.079607 19.77825 0.2978075 0.3286386 -0.9387519 0.1036412 
-13.04076 22.34097 -3.956624 -0.1232167 0.2025493 -0.9714893 
-12.93555 25.95677 -0.7411104 -0.4636771 0.8730628 -0.1508807 
-9.733473 26.51967 2.458569 -0.268764 0.7636461 0.5870353 
-8.170205 20.62818 2.792023 0.2570115 -0.7120103 0.653442 
-6.027483 20.72104 2.0677 0.2443715 -0.8829916 0.4007598 
-7.327327 21.19269 -3.030713 0.2374835 -0.6441779 -0.7270739 
-8.824605 19.43903 -1.577417 0.3708487 -0.8332345 -0.4101113 
-12.49 19.09923 -3.393608 0.3327402 -0.5289235 -0.7807202 
-11.67883 24.99271 3.130657 -0.2583761 0.5349182 0.804428 
-9.389967 18.92514 1.008229 0.4235123 -0.8453164 0.3256954 
-10.86368 17.99332 -0.5349148 0.5075157 -0.8615514 -0.01253249 
-13.98723 24.65804 -2.334125 -0.4198651 0.7333837 -0.5346603 
-15.02304 24.02242 2.330179 -0.4246743 0.6509362 0.6292328 
-12.98996 16.67417 1.018669 0.6227179 -0.7227271 0.2998133 
-18.46769 15.96694 -3.958463 0.1483518 -0.1614011 -0.9756749 
-14.47265 24.93167 1.408619 -0.4761238 0.8165302 0.326473 
-16.16082 21.15318 3.76596 -0.2506543 0.3161873 0.9149852 
-15.07841 18.65602 3.872934 0.2354303 -0.2692529 0.9338498 
-13.27128 17.60489 2.761512 0.4092303 -0.6050711 0.6829491 
-14.47504 15.51665 -1.312483 0.6268983 -0.6967744 -0.348574 
-18.12881 21.24098 -2.856012 -0.4461378 0.5388646 -0.714553 
-19.69351 20.82641 1.799255 -0.6158918 0.6581202 0.4330766 
-18.11189 22.73952 0.5769171 -0.6084691 0.7862839 0.1073448 
-17.48433 11.87623 -0.7391783 0.8353872 -0.5344866 -0.1282662 
-23.11245 11.24082 -4.020238 -0.07880984 0.03051533 -0.9964225 
-16.98811 14.94938 3.212238 0.4532075 -0.4290431 0.781361 
-18.6405 22.13534 -1.195953 -0.6163749 0.7159228 -0.3279276 
-21.72856 19.32671 0.250561 -0.7508481 0.6571468 0.06622104 
-22.03875 15.37487 3.618676 -0.3974701 0.2658029 0.8782746 
-19.24357 14.06216 3.838659 0.4788463 -0.3592916 0.8010092 
-18.65798 12.70961 3.190792 0.4979293 -0.3438689 0.7961285 
-23.1501 17.24073 -1.274402 -0.7470696 0.5425384 -0.3841081 
-20.68309 18.72582 2.895439 -0.531735 0.4772352 0.6996461 
-16.53739 13.39143 1.532258 0.7318639 -0.5494783 0.4030493 
-18.39598 12.07432 -2.718958 0.6412989 -0.4148794 -0.6454539 
-16.2641 15.21148 -2.937366 0.4634202 -0.4180295 -0.7813405 
-18.74737 18.8118 -3.758888 -0.2597526 0.2664157 -0.9281979 
-21.95546 17.21213 -2.873845 -0.5757332 0.4776124 -0.6636397 
-19.01701 9.503932 1.472353 0.8473029 -0.404607 0.344051 
-19.24436 13.48869 -3.662664 0.3251562 -0.2129995 -0.9213602 
-23.93486 13.25319 -3.341877 -0.5533534 0.3141346 -0.7714399 
-26.81137 11.19506 0.7274914 -0.8965645 0.392551 0.2051242 
-24.17963 15.43581 1.712211 -0.7656138 0.5178928 0.3816053 
-22.23887 12.97771 3.967761 -0.1322486 0.07633254 0.9882731 
-26.42244 11.55999 -1.468724 -0.8544689 0.3737386 -0.3608356 
-24.65569 15.35414 -0.3707463 -0.8496696 0.5261322 -0.03530666 
-25.11523 12.75957 2.532278 -0.6770612 0.3559078 0.6441411 
-25.71679 8.620204 3.500297 -0.4860613 0.1587347 0.8593879 
-27.0339 8.413968 2.41273 -0.7945223 0.2472302 0.5546274 
-20.12213 6.291193 0.5239142 0.9362836 -0.3123609 0.1606355 
-20.42571 7.140187 -2.116472 0.8047075 -0.2768884 -0.5251462 
-26.34698 8.533155 -3.065559 -0.6220505 0.1929514 -0.75883 
-21.51975 7.723311 3.399662 0.5943743 -0.2391058 0.76782 
-20.09019 6.434405 -0.8211637 0.938805 -0.2899194 -0.1859891 
-21.87035 6.941104 -3.447816 0.4607417 -0.1462822 -0.8753963 
-21.20368 4.593032 2.298335 0.8354025 -0.1895638 0.515915 
-28.09667 6.13463 -1.573349 -0.9052576 0.1898418 -0.3800907 
-25.53562 4.21342 3.931252 -0.2319925 0.03167713 0.9722016 
-23.03118 8.119155 3.958581 0.3207064 -0.1390261 0.93692 
-28.34167 6.572933 0.4781742 -0.9664599 0.2194674 0.133376 
-28.02211 3.471312 2.471328 -0.7808911 0.08366444 0.6190391 
-24.44742 2.258362 -3.962209 0.1634909 -0.004807142 -0.9865332 
-25.65597 1.611712 -3.972614 -0.1979857 0.01206907 -0.9801306 
-22.38414 2.427452 3.157842 0.5574834 -0.04794054 0.8288026 
-20.87811 2.327996 0.5604873 0.9825058 -0.08424883 0.1660859 
-28.93407 2.438957 -0.08983929 -0.9975479 0.06540719 -0.0249026 
-28.69159 1.486945 1.546482 -0.9431852 0.04757838 0.3288435 
-26.78723 1.962845 3.580903 -0.4921646 0.03514067 0.8697926 
-24.21635 0.8172007 3.922981 0.2377289 0.005771752 0.9713144 
-21.1201 2.392222 -1.4115 0.9376843 -0.08146989 -0.3378029 
-22.09228 2.25905 -2.899158 0.7049769 -0.05480599 -0.7071095 
-26.31484 3.908462 -3.72514 -0.4286474 0.06130269 -0.9013897 
-27.80886 2.819615 -2.766611 -0.6998082 0.05787192 -0.7119828 
-28.66459 1.885544 -1.538463 -0.9245184 0.05352066 -0.3773611 
-21.66552 1.395883 2.31199 0.8191273 -0.03991983 0.5722209 
-21.00045 -2.586073e-05 -0.1026777 0.9993715 -0.01843091 -0.03028213 
-21.02462 -1.221522e-05 -0.4508926 0.992689 -0.01088397 -0.1202083 
-21.07903 -1.125833e-05 -0.7956099 0.9794819 -0.01326562 -0.2010948 
-21.1363 0 -1.035276 0.9632809 -0.01924144 -0.2678051 
-21.24645 -8.193967e-05 -1.389385 0.9393155 -0.02106549 -0.3424069 
-21.37477 0 -1.690473 0.9077752 -0.01920718 -0.4190171 
-21.45196 0 -1.846995 0.8848795 -0.01558673 -0.4655593 
-21.5359 0 -2 0.8574567 -0.007614239 -0.5144999 
-21.68196 -5.367945e-05 -2.235529 0.8213549 -0.006361925 -0.5703821 
-21.94803 -5.151063e-05 -2.5894 0.7565756 -0.01594525 -0.6537119 
-22.24451 -1.756265e-05 -2.900725 0.6888117 -0.01850015 -0.7247041 
-22.42885 0 -3.064178 0.6372086 -0.01577259 -0.7705299 
-22.64669 -2.148711e-05 -3.235568 0.5787289 -0.008745199 -0.8154732 
-23.01773 7.798806e-05 -3.477082 0.5068761 0.002925737 -0.8620139 
-23.40679 0.902043 -3.670017 0.4075986 -0.01428118 -0.9130495 
-23.72858 -9.846932e-06 -3.793473 0.2983006 0.007493202 -0.9544425 
-24.15505 0.001200869 -3.912233 0.2331843 0.003376365 -0.9724267 
-25.08738 -50 -3.999364 -0.006997012 -0.8945372 -0.446939 
-25.3706 0.007205399 -3.985243 -0.1040432 -0.0003505031 -0.9945727 
-25.6956 -49.99991 -3.939104 -0.149776 -0.4486916 -0.8810465 
-25.96591 0.000435974 -3.882521 -0.2596321 -0.000271297 -0.9657077 
-26.20282 0 -3.814868 -0.3027826 0.003088045 -0.9530547 
-26.36808 0 -3.75877 -0.3549951 0.01222638 -0.9347882 
-26.71127 0.000425617 -3.618158 -0.4199781 0.01281188 -0.9074438 
-27.0887 0.0001093078 -3.412373 -0.5287017 0.02005251 -0.8485708 
-27.29431 0 -3.276608 -0.5752791 0.01765749 -0.8177666 
-27.43505 0 -3.173414 -0.6121616 0.01349536 -0.7906175 
-27.57115 0 -3.064178 -0.6498759 0.01040554 -0.7599691 
-27.77775 0.0001096842 -2.879417 -0.6975921 0.008476224 -0.716445 
-27.94911 0 -2.702361 -0.7387221 0.008454393 -0.6739571 
-28.06418 0 -2.571151 -0.774856 0.01032737 -0.6320534 
-28.2911 3.790937e-05 -2.27776 -0.8277624 0.01947681 -0.5607406 
-28.4641 0 -2 -0.8705483 0.01178658 -0.4919418 
-28.63663 9.992467e-06 -1.671643 -0.9132803 0.006351252 -0.4072822 
-28.79346 1.541505e-05 -1.271475 -0.9480411 0.007427359 -0.3180611 
-28.8637 0 -1.035276 -0.9676632 0.01340989 -0.2518892 
-28.92696 1.829971e-05 -0.7654734 -0.9816505 0.0226422 -0.1893394 
-28.96578 0 -0.5221048 -0.9922521 0.01425757 -0.1234205 
-28.99328 2.195844e-05 -0.2463051 -0.9983141 0.01131069 -0.05693125 
-29 0 5.224851e-16 -0.9999396 0.01076875 0.002181646 
-28.99619 0 0.1744775 -0.9987758 0.01206445 0.04797361 
-28.98478 0 0.348623 -0.9952271 0.01489096 0.09644363 
-28.95193 -2.218932e-05 0.6238486 -0.9861478 0.02602134 0.163815 
-28.90519 0 0.8657585 -0.974596 0.01604876 0.2233942 
-28.8367 -9.695812e-06 1.134313 -0.957676 0.006530331 0.2877743 
-28.50023 -3.703033e-05 1.937872 -0.8619346 0.01412531 0.5068228 
-28.31801 2.941883e-05 2.235569 -0.8272403 0.0129379 0.5616993 
-28.05195 -0.0001055702 2.589428 -0.7601079 0.009523617 0.6497271 
-27.75549 -9.649136e-05 2.900733 -0.6744307 0.02230778 0.7380011 
-27.41917 6.461512e-05 3.188595 -0.5935034 0.01364359 0.8047158 
-26.98228 8.336403e-05 3.477081 -0.5079913 0.002629743 0.8613582 
-26.43571 1.156383e-05 3.734394 -0.3375938 0.009173013 0.9412472 
-26.20282 0 3.814868 -0.2938634 0.008376441 0.9558107 
-25.93597 0.0001068742 3.889847 -0.2294294 0.005134656 0.9733118 
-25.69459 0 3.939231 -0.1666054 0.00333955 0.9860179 
-25.42025 0.00133246 3.978736 -0.09549663 0.003207334 0.9954246 
-25.03317 -50 4.001694 -0.01407523 -0.5550774 0.8316796 
-24.83309 4.558576 3.996676 0.0008464929 0.003783759 0.9999925 
-24.65196 -49.99997 3.984806 0.07710706 -0.5548652 0.8283592 
-24.41837 -49.99998 3.958038 0.1070826 -0.7073206 0.6987352 
-24.03409 0.0004894519 3.882521 0.2650972 0.003946593 0.9642137 
-23.69938 0.0002928609 3.783563 0.3318096 0.01770632 0.9431801 
-23.37458 0.0001892412 3.655814 0.3981874 0.02159558 0.9170499 
-23.15301 0 3.548043 0.4636826 -0.001080689 0.8860006 
-23 0 3.464102 0.5099585 -0.008038691 0.8601614 
-22.68644 0.0002186109 3.266029 0.5739204 -0.01410771 0.8187895 
-22.42885 0 3.064178 0.6397113 -0.01656745 0.7684366 
-22.29764 0 2.949109 0.6928784 -0.01031405 0.7209807 
-22.09929 2.549899e-05 2.755507 0.7282004 -0.002278031 0.6853605 
-21.93582 0 2.571151 0.7713565 -0.01182288 0.6362935 
-21.76443 8.684168e-05 2.353306 0.8075356 -0.01986781 0.5894841 
-21.62643 0 2.149199 0.8452497 -0.01551207 0.5341463 
-21.48495 1.47724e-05 1.910856 0.8807386 -0.009652229 0.4735043 
-21.37477 0 1.690473 0.9095695 -0.001955362 0.4155473 
-21.26558 4.948987e-05 1.435642 0.9367379 -0.008652654 0.3499244 
-21.15469 -2.398765e-05 1.104789 0.9628903 -0.01982177 0.2691641 
-21.07303 4.800638e-05 0.7654077 0.9833712 -0.02624849 0.1797002 
-21.01095 -4.405811e-05 0.327068 0.9970148 -0.02600101 0.07270114 
-28.99619 -50 0.1744775 -0.9480363 -0.316288 0.0344847 
-28.98478 -50 0.348623 -0.829199 -0.5548031 0.06798986 
-28.95662 -50 0.5933889 -0.8237727 -0.5549097 0.1160768 
-28.90519 -50 0.8657585 -0.8140834 -0.5548419 0.1715188 
-28.84533 -50 1.104728 -0.8006022 -0.5549912 0.2258781 
-28.70607 -50 1.511471 -0.7749708 -0.5552435 0.301869 
-28.51505 -50 1.910853 -0.7382634 -0.5550187 0.3833033 
-28.37357 -50 2.149199 -0.704964 -0.5548257 0.4418077 
-28.23557 -50 2.353295 -0.6686509 -0.5549036 0.4949626 
-28.01816 -50 2.626343 -0.5331628 -0.7074523 0.4639489 
-27.77775 -50 2.879423 -0.5846459 -0.5550666 0.5916842 
-27.45383 -50 3.161998 -0.5185727 -0.5553052 0.650168 
-27.02011 -50 3.455237 -0.43572 -0.5552562 0.7084057 
-26.69047 -50 3.625231 -0.3676464 -0.5549554 0.7462309 
-26.46443 -50 3.723223 -0.3130936 -0.5549212 0.7707366 
-26.20282 -50 3.814868 -0.258498 -0.5548418 0.7907776 
-25.96591 -50 3.882521 -0.2080016 -0.5549098 0.8054878 
-25.69459 -50 3.939231 -0.1530702 -0.5548418 0.8177531 
-25.45089 -50 3.97538 -0.09771179 -0.554992 0.826097 
-24.06403 -50 3.889848 0.1891907 -0.5549786 0.8100652 
-23.72858 -50 3.793472 0.2548802 -0.5550037 0.7918377 
-23.4028 -50 3.668228 0.3214385 -0.5549629 0.7672637 
-23.15301 -50 3.548043 0.3750365 -0.5548167 0.742648 
-23 -50 3.464102 0.4107461 -0.5547814 0.7235366 
-22.8508 -50 3.373566 0.4488464 -0.554806 0.7005193 
-22.58084 -50 3.188603 0.5072249 -0.5550482 0.6592757 
-22.29764 -50 2.949109 0.5549914 -0.5548666 0.6197642 
-22.1206 -50 2.777772 0.5935695 -0.5549097 0.5828812 
-21.93582 -50 2.571151 0.632757 -0.5548735 0.5401241 
-21.73396 -50 2.31355 0.7273718 -0.4476113 0.5201678 
-21.49978 -50 1.937883 0.7217584 -0.5549963 0.4135746 
-21.37477 -50 1.690473 0.7502714 -0.5548419 0.3595042 
-21.27675 -50 1.464369 0.7720301 -0.5549468 0.3098445 
-21.16332 -50 1.134381 0.7948291 -0.5550037 0.2453926 
-21.07904 -50 0.7956259 0.8135353 -0.5550524 0.173428 
-21.01476 -50 0.3705883 0.8268241 -0.5552397 0.08983699 
-20.99978 -50 -0.07186169 0.8318081 -0.5550625 -0.000915141 
-21.02126 -50 -0.420246 0.8282341 -0.5550037 -0.07745435 
-21.07302 -50 -0.7653846 0.8186482 -0.5549629 -0.1477537 
-21.1363 -50 -1.035276 0.8062173 -0.5548167 -0.2054075 
-21.18513 -50 -1.202823 0.7928206 -0.5548061 -0.2522415 
-21.29392 -50 -1.511453 0.7680909 -0.5550482 -0.3193085 
-21.45196 -50 -1.846995 0.7429864 -0.5548407 -0.37433 
-21.5359 -50 -2 0.7227789 -0.554803 -0.412049 
-21.66484 -50 -2.209905 0.695628 -0.5549913 -0.4561647 
-21.91996 -50 -2.555943 0.6481781 -0.5552398 -0.5211276 
-22.22224 -50 -2.879412 0.5886967 -0.5550181 -0.5876999 
-22.42885 -50 -3.064178 0.5414379 -0.5548418 -0.631661 
-22.62184 -50 -3.217341 0.5004175 -0.5549098 -0.6645731 
-22.8508 -50 -3.373566 0.4488434 -0.5548439 -0.7004912 
-23.13253 -50 -3.540066 0.3777539 -0.5551472 -0.741022 
-23.61057 -50 -3.753529 0.2949868 -0.5551686 -0.77767 
-23.96472 -50 -3.863703 0.2196359 -0.5548853 -0.8024104 
-24.28348 -50 -3.937779 0.1448608 -0.5550411 -0.8191121 
-24.65129 -49.99998 -3.984751 0.06616476 -0.7072812 -0.7038292 
-24.88558 -50 -3.998926 0.01967178 -0.5545759 -0.8319006 
-25.42025 -50 -3.978736 -0.07239068 -0.7073418 -0.7031551 
-25.93597 -50 -3.889847 -0.1665229 -0.7074145 -0.6869023 
-26.20282 -50 -3.814868 -0.2403781 -0.5548167 -0.7964903 
-26.36808 -50 -3.75877 -0.2818949 -0.5548306 -0.7827505 
-26.67168 -50 -3.636619 -0.3394302 -0.5551647 -0.7593282 
-27.06236 -50 -3.428358 -0.4153086 -0.5550181 -0.7207453 
-27.29431 -50 -3.276608 -0.4687625 -0.5548167 -0.6873428 
-27.43505 -50 -3.173414 -0.5016723 -0.5547814 -0.6637337 
-27.57115 -50 -3.064178 -0.5313016 -0.5548031 -0.6402439 
-27.75548 -50 -2.900737 -0.5675805 -0.5549097 -0.6082168 
-27.94911 -50 -2.702361 -0.6064166 -0.5548167 -0.569594 
-28.06418 -50 -2.571151 -0.6355036 -0.5548306 -0.536934 
-28.26604 -50 -2.313548 -0.6726813 -0.5551122 -0.4892343 
-28.4641 -50 -2 -0.7148691 -0.5549191 -0.4254725 
-28.61817 -50 -1.711237 -0.7481077 -0.5551646 -0.363493 
-28.78355 -50 -1.300654 -0.78143 -0.5550179 -0.2851704 
-28.8637 -50 -1.035276 -0.8012984 -0.5548418 -0.2237661 
-28.92095 -50 -0.7957028 -0.8137929 -0.5549098 -0.1726737 
-28.96578 -50 -0.5221048 -0.8236513 -0.5548418 -0.1172568 
-28.99126 -50 -0.2770748 -0.9457335 -0.3163832 -0.074094 
-29 -50 -6.286366e-16 -0.03745857 -0.999298 -0.0004611865 
21.00045 -50 -0.1026777 -0.04100081 -0.9991578 -0.001624739 
3 0 1 2 
3 1 3 2 
3 2 3 4 
3 3 5 4 
3 4 5 6 
3 5 7 6 
3 6 7 8 
3 7 9 8 
3 8 9 10 
3 9 11 10 
3 10 11 12 
3 11 13 12 
3 12 13 14 
3 13 15 14 
3 14 15 16 
3 15 17 16 
3 16 17 18 
3 17 19 18 
3 18 19 20 
3 19 22 20 
3 20 22 21 
3 22 23 21 
3 21 23 24 
3 23 25 24 
3 24 25 26 
3 25 27 26 
3 26 27 28 
3 27 29 28 
3 28 29 30 
3 29 31 30 
3 30 31 32 
3 31 33 32 
3 32 33 34 
3 33 35 34 
3 39 40 41 
3 40 144 41 
3 41 144 42 
3 144 43 42 
3 42 43 44 
3 43 45 44 
3 44 45 46 
3 45 47 46 
3 46 47 48 
3 47 49 48 
3 48 49 50 
3 49 51 50 
3 50 51 52 
3 51 53 52 
3 52 53 54 
3 53 55 54 
3 54 55 56 
3 55 57 56 
3 56 57 58 
3 57 59 58 
3 58 59 60 
3 59 61 60 
3 60 61 62 
3 61 63 62 
3 62 63 64 
3 63 65 64 
3 64 65 66 
3 65 67 66 
3 66 67 68 
3 67 69 68 
3 68 69 70 
3 69 71 70 
3 70 71 501 
3 71 72 501 
3 501 72 73 
3 72 74 73 
3 73 74 75 
3 74 76 75 
3 75 76 77 
3 76 78 77 
3 77 78 79 
3 78 80 79 
3 79 80 81 
3 80 82 81 
3 81 82 83 
3 82 84 83 
3 83 84 85 
3 85 84 86 
3 84 87 86 
3 86 87 88 
3 87 89 88 
3 88 89 90 
3 89 91 90 
3 90 91 92 
3 91 93 92 
3 92 93 94 
3 93 95 94 
3 94 95 96 
3 95 97 96 
3 96 97 98 
3 97 99 98 
3 98 99 100 
3 99 101 100 
3 100 101 102 
3 101 103 102 
3 102 103 104 
3 105 107 106 
3 106 107 108 
3 107 109 108 
3 108 109 110 
3 109 148 110 
3 148 111 110 
3 110 111 112 
3 111 152 112 
3 112 152 113 
3 152 114 113 
3 113 114 115 
3 114 116 115 
3 115 116 117 
3 116 118 117 
3 117 118 119 
3 118 120 119 
3 119 120 121 
3 120 122 121 
3 121 122 123 
3 122 124 123 
3 123 124 125 
3 124 126 125 
3 125 126 127 
3 126 128 127 
3 127 128 129 
3 128 130 129 
3 129 130 131 
3 130 132 131 
3 131 132 133 
3 132 134 133 
3 133 134 135 
3 134 136 135 
3 135 136 137 
3 136 138 137 
3 137 138 0 
3 138 1 0 
3 71 146 72 
3 72 146 74 
3 74 146 76 
3 146 147 76 
3 76 147 78 
3 78 147 80 
3 147 139 80 
3 80 139 82 
3 82 139 84 
3 84 139 87 
3 87 139 89 
3 139 140 89 
3 89 140 91 
3 91 140 93 
3 93 140 95 
3 95 140 97 
3 97 140 99 
3 99 140 101 
3 140 151 101 
3 101 151 103 
3 103 151 104 
3 104 151 105 
3 105 151 107 
3 107 148 109 
3 148 152 111 
3 114 152 116 
3 152 120 116 
3 116 120 118 
3 120 141 122 
3 122 141 124 
3 124 141 126 
3 126 141 128 
3 128 141 130 
3 130 141 132 
3 141 136 132 
3 132 136 134 
3 136 149 138 
3 138 149 1 
3 1 149 3 
3 3 149 5 
3 5 149 7 
3 7 149 9 
3 9 149 11 
3 149 142 11 
3 11 142 13 
3 13 142 15 
3 15 142 17 
3 17 142 19 
3 19 142 22 
3 142 150 22 
3 22 150 23 
3 23 150 25 
3 25 150 27 
3 27 150 29 
3 150 143 29 
3 29 143 31 
3 31 143 33 
3 33 143 35 
3 35 143 36 
3 36 143 37 
3 37 143 38 
3 38 143 39 
3 143 144 39 
3 39 144 40 
3 43 144 45 
3 144 145 45 
3 45 145 47 
3 47 145 49 
3 49 145 51 
3 51 145 53 
3 53 145 55 
3 145 163 55 
3 55 163 57 
3 57 163 59 
3 59 163 61 
3 163 146 61 
3 61 146 63 
3 63 146 65 
3 65 146 67 
3 67 146 69 
3 69 146 71 
3 120 153 141 
3 152 153 120 
3 153 154 141 
3 141 154 136 
3 136 154 149 
3 154 162 149 
3 149 155 142 
3 107 151 148 
3 148 159 152 
3 162 155 149 
3 142 155 150 
3 155 156 150 
3 150 157 143 
3 157 171 143 
3 143 171 144 
3 171 172 144 
3 144 172 145 
3 172 163 145 
3 139 174 140 
3 140 174 151 
3 151 159 148 
3 152 159 153 
3 155 166 156 
3 156 157 150 
3 163 164 146 
3 164 147 146 
3 147 158 139 
3 139 158 174 
3 159 160 153 
3 160 161 153 
3 153 161 154 
3 161 162 154 
3 162 169 155 
3 169 166 155 
3 151 178 159 
3 178 160 159 
3 165 158 147 
3 151 167 178 
3 161 169 162 
3 166 170 156 
3 156 170 157 
3 170 171 157 
3 171 184 172 
3 172 173 163 
3 163 173 164 
3 164 165 147 
3 174 167 151 
3 169 177 166 
3 166 177 170 
3 164 175 165 
3 165 176 158 
3 160 168 161 
3 161 168 169 
3 168 179 169 
3 179 177 169 
3 177 183 170 
3 183 171 170 
3 173 175 164 
3 165 185 176 
3 176 180 158 
3 158 180 174 
3 172 184 173 
3 194 185 165 
3 180 167 174 
3 186 181 178 
3 178 181 160 
3 181 168 160 
3 179 188 177 
3 184 193 173 
3 193 175 173 
3 175 194 165 
3 177 188 183 
3 183 204 171 
3 185 190 176 
3 176 182 180 
3 167 186 178 
3 180 186 167 
3 181 196 168 
3 196 187 168 
3 187 189 168 
3 168 189 179 
3 179 189 188 
3 183 191 204 
3 193 197 175 
3 197 194 175 
3 176 190 182 
3 186 195 181 
3 181 195 196 
3 188 191 183 
3 171 204 184 
3 185 194 190 
3 189 192 188 
3 188 192 191 
3 191 203 204 
3 184 209 193 
3 200 190 194 
3 200 205 190 
3 182 207 180 
3 180 201 186 
3 196 198 187 
3 198 199 187 
3 199 202 187 
3 187 202 189 
3 202 192 189 
3 197 200 194 
3 205 182 190 
3 195 198 196 
3 192 208 191 
3 191 208 203 
3 209 197 193 
3 205 206 182 
3 182 206 207 
3 186 217 195 
3 217 198 195 
3 202 210 192 
3 210 208 192 
3 184 211 209 
3 197 214 200 
3 207 201 180 
3 201 235 186 
3 209 214 197 
3 235 217 186 
3 199 216 202 
3 202 216 210 
3 203 222 204 
3 222 211 204 
3 204 211 184 
3 214 223 200 
3 200 223 205 
3 206 212 207 
3 207 212 201 
3 208 213 203 
3 211 219 209 
3 205 224 206 
3 201 239 235 
3 198 216 199 
3 219 220 209 
3 209 220 214 
3 214 220 223 
3 223 224 205 
3 217 215 198 
3 198 215 216 
3 216 218 210 
3 210 218 208 
3 208 218 213 
3 213 222 203 
3 213 232 222 
3 224 221 206 
3 206 226 212 
3 212 239 201 
3 235 230 217 
3 217 230 215 
3 218 225 213 
3 225 232 213 
3 222 229 211 
3 206 221 226 
3 215 227 216 
3 216 227 218 
3 218 227 225 
3 211 229 219 
3 219 237 220 
3 220 250 223 
3 223 250 224 
3 226 247 212 
3 230 231 215 
3 215 231 227 
3 247 234 212 
3 212 234 239 
3 227 228 225 
3 222 245 229 
3 229 237 219 
3 233 224 250 
3 224 233 221 
3 221 238 226 
3 238 247 226 
3 227 236 228 
3 225 228 232 
3 232 245 222 
3 247 248 234 
3 231 241 227 
3 241 236 227 
3 236 242 228 
3 228 245 232 
3 237 250 220 
3 233 238 221 
3 239 240 235 
3 235 240 230 
3 246 233 250 
3 240 243 230 
3 230 243 231 
3 241 244 236 
3 228 242 245 
3 246 238 233 
3 243 251 231 
3 231 251 241 
3 236 252 242 
3 229 257 237 
3 246 254 238 
3 254 247 238 
3 248 262 234 
3 241 251 244 
3 244 252 236 
3 252 249 242 
3 242 249 245 
3 257 250 237 
3 250 257 246 
3 254 248 247 
3 262 253 234 
3 253 239 234 
3 249 229 245 
3 239 258 240 
3 240 255 243 
3 255 256 243 
3 256 251 243 
3 251 259 244 
3 259 252 244 
3 249 261 229 
3 229 268 257 
3 258 255 240 
3 254 262 248 
3 276 253 262 
3 256 259 251 
3 259 260 252 
3 268 266 257 
3 257 274 246 
3 246 274 275 
3 239 253 258 
3 260 273 252 
3 252 273 249 
3 273 261 249 
3 275 270 246 
3 246 270 254 
3 254 277 262 
3 258 263 255 
3 263 264 255 
3 255 264 256 
3 256 264 259 
3 264 265 259 
3 259 265 260 
3 267 273 260 
3 261 268 229 
3 269 266 268 
3 257 266 274 
3 270 277 254 
3 265 267 260 
3 273 279 261 
3 279 268 261 
3 277 276 262 
3 271 263 258 
3 264 272 265 
3 275 280 270 
3 276 278 253 
3 253 278 258 
3 263 282 264 
3 264 282 272 
3 267 286 273 
3 274 280 275 
3 270 281 277 
3 265 272 267 
3 272 286 267 
3 286 283 273 
3 273 283 279 
3 280 281 270 
3 276 277 278 
3 269 288 266 
3 278 285 258 
3 282 297 272 
3 297 293 272 
3 272 293 286 
3 283 287 279 
3 279 287 268 
3 266 289 274 
3 274 289 280 
3 289 284 280 
3 280 284 281 
3 281 290 277 
3 290 278 277 
3 285 271 258 
3 271 307 263 
3 307 291 263 
3 263 291 282 
3 288 289 266 
3 291 297 282 
3 293 292 286 
3 286 292 283 
3 284 290 281 
3 292 303 283 
3 283 303 287 
3 288 296 289 
3 296 284 289 
3 290 306 278 
3 278 306 285 
3 285 307 271 
3 268 287 269 
3 306 310 285 
3 285 295 307 
3 297 298 293 
3 296 301 284 
3 284 294 290 
3 307 308 291 
3 291 308 297 
3 298 292 293 
3 303 299 287 
3 287 314 269 
3 314 329 269 
3 269 300 288 
3 288 300 296 
3 301 304 284 
3 304 294 284 
3 308 302 297 
3 297 302 298 
3 299 314 287 
3 294 305 290 
3 290 305 306 
3 298 313 292 
3 313 303 292 
3 306 305 310 
3 302 316 298 
3 316 313 298 
3 329 300 269 
3 304 309 294 
3 295 311 307 
3 307 311 308 
3 313 317 303 
3 303 317 299 
3 300 301 296 
3 301 323 304 
3 323 309 304 
3 308 311 302 
3 311 315 302 
3 302 315 316 
3 316 312 313 
3 317 318 299 
3 329 301 300 
3 294 321 305 
3 321 325 305 
3 305 325 310 
3 310 295 285 
3 322 315 311 
3 316 315 312 
3 312 317 313 
3 299 318 314 
3 309 320 294 
3 320 324 294 
3 324 321 294 
3 295 322 311 
3 312 319 317 
3 329 323 301 
3 317 319 318 
3 314 403 329 
3 310 325 295 
3 322 327 315 
3 327 330 315 
3 315 330 312 
3 318 328 314 
3 328 403 314 
3 309 326 320 
3 325 332 295 
3 295 342 322 
3 323 326 309 
3 324 340 321 
3 312 330 319 
3 330 331 319 
3 320 335 324 
3 335 340 324 
3 321 341 325 
3 295 333 342 
3 322 343 327 
3 319 331 318 
3 329 334 323 
3 323 334 326 
3 340 341 321 
3 341 360 325 
3 325 360 332 
3 295 332 333 
3 342 343 322 
3 327 336 330 
3 331 338 318 
3 318 338 328 
3 345 335 326 
3 326 335 320 
3 343 344 327 
3 327 344 336 
3 336 337 330 
3 330 337 331 
3 339 334 329 
3 334 345 326 
3 403 339 329 
3 346 347 335 
3 335 347 340 
3 347 348 340 
3 348 349 340 
3 349 350 340 
3 350 351 340 
3 351 352 340 
3 352 353 340 
3 340 353 341 
3 353 354 341 
3 354 355 341 
3 355 356 341 
3 356 357 341 
3 357 358 341 
3 358 359 341 
3 341 359 360 
3 360 361 332 
3 361 362 332 
3 478 479 332 
3 332 479 333 
3 479 363 333 
3 363 364 333 
3 364 365 333 
3 365 366 333 
3 366 367 333 
3 367 368 333 
3 368 369 333 
3 333 369 342 
3 369 370 342 
3 342 370 343 
3 370 371 343 
3 371 372 343 
3 372 373 343 
3 373 374 343 
3 374 375 343 
3 375 376 343 
3 376 377 343 
3 343 377 344 
3 377 378 344 
3 378 379 344 
3 379 380 344 
3 380 381 344 
3 381 382 344 
3 344 382 336 
3 382 383 336 
3 383 384 336 
3 384 385 336 
3 385 386 336 
3 386 387 336 
3 387 388 336 
3 336 388 337 
3 388 389 337 
3 389 390 337 
3 337 391 331 
3 391 392 331 
3 392 393 331 
3 393 394 331 
3 331 394 338 
3 394 395 338 
3 395 396 338 
3 338 397 328 
3 397 398 328 
3 398 399 328 
3 399 400 328 
3 400 401 328 
3 328 401 403 
3 401 402 403 
3 403 404 339 
3 404 405 339 
3 406 407 339 
3 407 408 339 
3 339 408 334 
3 408 409 334 
3 409 410 334 
3 410 411 334 
3 411 412 334 
3 412 413 334 
3 334 413 345 
3 413 414 345 
3 414 415 345 
3 415 416 345 
3 416 417 345 
3 417 418 345 
3 418 419 345 
3 345 419 335 
3 419 420 335 
3 420 421 335 
3 421 422 335 
3 422 423 335 
3 423 346 335 
3 385 424 386 
3 424 425 386 
3 386 425 387 
3 425 426 387 
3 387 426 388 
3 426 427 388 
3 388 427 389 
3 427 428 389 
3 389 428 390 
3 428 429 390 
3 390 429 337 
3 429 430 337 
3 337 430 391 
3 430 431 391 
3 391 431 392 
3 431 432 392 
3 392 432 393 
3 432 433 393 
3 433 434 393 
3 393 434 394 
3 434 435 394 
3 394 435 395 
3 435 436 395 
3 395 436 396 
3 436 437 396 
3 396 437 338 
3 437 438 338 
3 338 438 397 
3 438 439 397 
3 397 439 398 
3 439 440 398 
3 398 440 399 
3 440 441 399 
3 399 441 400 
3 441 442 400 
3 400 442 401 
3 442 402 401 
3 402 404 403 
3 405 443 339 
3 339 443 406 
3 443 444 406 
3 406 444 407 
3 444 445 407 
3 407 445 408 
3 445 446 408 
3 408 446 409 
3 446 447 409 
3 409 447 410 
3 447 448 410 
3 410 448 411 
3 448 449 411 
3 411 449 412 
3 449 450 412 
3 412 450 413 
3 450 451 413 
3 413 451 414 
3 451 452 414 
3 414 452 415 
3 452 453 415 
3 415 453 416 
3 416 453 417 
3 453 454 417 
3 417 454 418 
3 454 455 418 
3 418 455 419 
3 455 456 419 
3 419 456 420 
3 456 457 420 
3 420 457 421 
3 457 458 421 
3 421 458 422 
3 458 459 422 
3 422 459 423 
3 459 460 423 
3 423 460 346 
3 460 461 346 
3 346 461 347 
3 461 462 347 
3 347 462 348 
3 462 463 348 
3 348 463 349 
3 463 464 349 
3 349 464 350 
3 464 465 350 
3 350 465 351 
3 465 466 351 
3 351 466 352 
3 466 467 352 
3 352 467 353 
3 467 468 353 
3 353 468 354 
3 468 469 354 
3 354 469 355 
3 469 470 355 
3 355 470 356 
3 470 471 356 
3 356 471 357 
3 471 472 357 
3 357 472 358 
3 472 473 358 
3 358 473 359 
3 473 474 359 
3 359 474 360 
3 474 475 360 
3 360 475 361 
3 475 476 361 
3 361 476 362 
3 476 477 362 
3 362 477 332 
3 477 478 332 
3 363 480 364 
3 480 365 364 
3 365 481 366 
3 481 482 366 
3 366 482 367 
3 482 483 367 
3 367 483 368 
3 483 484 368 
3 368 484 369 
3 484 485 369 
3 369 485 370 
3 485 486 370 
3 370 486 371 
3 486 487 371 
3 371 487 372 
3 487 488 372 
3 372 488 373 
3 488 489 373 
3 373 489 374 
3 489 490 374 
3 374 490 375 
3 490 491 375 
3 375 491 376 
3 491 492 376 
3 376 492 377 
3 492 493 377 
3 377 493 378 
3 493 494 378 
3 378 494 379 
3 494 495 379 
3 379 495 380 
3 495 496 380 
3 380 496 381 
3 496 497 381 
3 381 497 382 
3 497 498 382 
3 382 498 383 
3 498 499 383 
3 383 499 384 
3 499 500 384 
3 384 500 385 
3 500 424 385 
3 480 363 500 
3 363 479 500 
3 481 365 500 
3 365 480 500 
3 483 482 500 
3 482 481 500 
3 500 484 483 
3 486 485 500 
3 500 485 484 
3 489 488 500 
3 488 487 500 
3 500 487 486 
3 491 490 500 
3 490 489 500 
3 500 492 491 
3 494 493 500 
3 500 493 492 
3 495 494 500 
3 497 496 500 
3 500 496 495 
3 499 498 500 
3 500 498 497 
3 425 424 500 
3 427 426 500 
3 500 426 425 
3 429 428 500 
3 500 428 427 
3 430 429 500 
3 432 431 500 
3 431 430 500 
3 433 432 500 
3 435 434 500 
3 500 434 433 
3 436 435 500 
3 437 436 500 
3 439 438 500 
3 500 438 437 
3 441 440 500 
3 500 440 439 
3 402 442 500 
3 500 442 441 
3 404 402 500 
3 443 405 500 
3 500 405 404 
3 444 443 500 
3 446 445 500 
3 500 445 444 
3 449 448 500 
3 448 447 500 
3 500 447 446 
3 450 449 500 
3 452 451 500 
3 500 451 450 
3 500 453 452 
3 455 454 500 
3 500 454 453 
3 457 456 500 
3 500 456 455 
3 458 457 500 
3 500 459 458 
3 461 460 500 
3 500 460 459 
3 462 461 500 
3 465 464 500 
3 464 463 500 
3 500 463 462 
3 466 465 500 
3 468 467 500 
3 500 467 466 
3 500 469 468 
3 471 470 500 
3 500 470 469 
3 473 472 500 
3 500 472 471 
3 500 474 473 
3 500 475 474 
3 477 476 500 
3 500 476 475 
3 479 478 500 
3 478 477 500 
3 104 105 501 
3 105 106 501 
3 102 104 501 
3 98 100 501 
3 501 100 102 
3 94 96 501 
3 501 96 98 
3 92 94 501 
3 88 90 501 
3 90 92 501 
3 86 88 501 
3 85 86 501 
3 81 83 501 
3 501 83 85 
3 77 79 501 
3 501 79 81 
3 75 77 501 
3 501 73 75 
3 68 70 501 
3 66 68 501 
3 62 64 501 
3 501 64 66 
3 60 62 501 
3 56 58 501 
3 58 60 501 
3 54 56 501 
3 52 54 501 
3 48 50 501 
3 501 50 52 
3 44 46 501 
3 501 46 48 
3 42 44 501 
3 39 41 501 
3 501 41 42 
3 37 38 501 
3 501 38 39 
3 35 36 501 
3 36 37 501 
3 32 34 501 
3 501 34 35 
3 28 30 501 
3 30 32 501 
3 26 28 501 
3 21 24 501 
3 501 24 26 
3 20 21 501 
3 18 20 501 
3 14 16 501 
3 501 16 18 
3 12 14 501 
3 8 10 501 
3 501 10 12 
3 4 6 501 
3 6 8 501 
3 2 4 501 
3 137 0 501 
3 501 0 2 
3 133 135 501 
3 501 135 137 
3 131 133 501 
3 127 129 501 
3 501 129 131 
3 123 125 501 
3 501 125 127 
3 121 123 501 
3 501 119 121 
3 115 117 501 
3 501 117 119 
3 113 115 501 
3 112 113 501 
3 501 110 112 
3 106 108 501 
3 501 108 110 
