ply
format ascii 1.0
comment VCGLIB generated
element vertex 496
property float x
property float y
property float z
property float nx
property float ny
property float nz
element face 1000
property list uchar int vertex_indices
end_header
20.56305 -7.6896 -2.779722 0.6964371 -0.2555074 -0.6705905 
-2.673064 -23.65081 2.976084 -0.820779 -0.01981479 0.5709022 
0.8925754 -20.4112 3.902749 0.142435 -0.05031121 0.9885247 
2.671738 -22.81552 -3.060137 0.6236417 -0.09568827 -0.7758318 
-0.726347 -19.94233 3.921028 -0.1272656 -0.08877944 0.9878875 
1.803879 -21.62371 3.600194 0.3442063 -0.1089675 0.9325492 
10.45853 -14.55874 -3.857546 -0.1369247 0.1890912 -0.9723663 
-3.869293 -25.06485 1.105305 -0.9479523 -0.1314047 0.2900333 
3.869293 -25.06485 -1.105305 0.9445103 -0.1589997 -0.2874361 
-3.644228 14.62906 -0.03032659 0.2240524 -0.974573 0.002815697 
0.6486993 -19.90188 -3.924159 0.05969509 -0.07229944 -0.9955949 
10.10287 -17.38129 3.876427 0.1592954 -0.2650402 0.9509883 
2.671402 -23.59241 2.980249 0.7407346 -0.08368958 0.6665645 
-0.5635199 -15.35612 1.797406 0.02470638 0.8949099 0.4455625 
3.55655 -24.9049 -1.844525 0.8651015 -0.1233243 -0.4862 
14.89782 2.46725 -0.7704017 -0.9731826 -0.1383223 -0.1838007 
3.943008 -25.70347 -0.6712346 0.9843379 -0.07092497 -0.1613956 
17.16005 6.906986 3.981824 -0.1660651 -0.07480769 0.9832733 
-3.728273 -15.38875 -2.391608 0.15671 0.7912832 -0.5910271 
3.966659 -23.02227 -1.970374 0.6587395 -0.3266561 -0.6777596 
2.673064 -23.65081 -2.976084 0.820779 -0.01981479 -0.5709022 
2.101923 -22.64053 -3.404453 0.5240435 -0.002692398 -0.8516873 
2.801893 -20.16682 3.787323 0.1070276 -0.2135533 0.971051 
0.694257 -19.8989 3.923741 0.05989631 -0.07582523 0.9953206 
3.061368 -21.15007 3.334473 0.3156531 -0.3914827 0.864352 
4.924488 -15.97617 -3.253349 -0.1849363 0.5671805 -0.8025615 
-2.671402 -23.59241 -2.980249 -0.6852013 -0.1092754 -0.7201097 
0.890699 -20.38605 -3.903946 0.1734851 -0.03845121 -0.9840856 
1.771513 -21.59461 -3.613376 0.3501147 -0.1019024 -0.9311475 
3.876677 -25.06464 1.088554 0.9456066 -0.1379586 0.2946111 
3.41052 -21.40756 -3.108411 0.3257653 -0.3832748 -0.8642785 
3.939099 -25.69769 0.6938699 0.9951823 0.01889198 0.09620488 
-1.936525 -14.90066 0.5236456 0.1397959 0.9838393 0.1118813 
3.532357 -24.86233 1.891234 0.8344113 -0.09129628 0.5435282 
3.150829 -23.96141 -2.500554 0.6789369 -0.1180573 -0.7246429 
3.339545 -24.67835 -2.203146 0.797074 -0.07062987 -0.5997371 
3.985356 -25.766 0.01647785 0.9956146 -0.06718445 0.06509805 
5.129364 -21.85888 -2.145602 0.375727 -0.7038982 -0.6027907 
22.33557 3.577721 1.868208 0.8963636 0.1423717 0.4198363 
20.68973 3.003216 3.533328 0.47106 0.07116976 0.8792255 
6.234237 -22.16605 -0.6347745 0.5151762 -0.8482985 -0.1224057 
4.462317 -23.74671 0.05885869 0.9073372 -0.4182934 -0.04206771 
4.549646 -23.23175 -1.080238 0.745694 -0.5115374 -0.426931 
-8.157957 -16.90474 -3.995374 0.07763527 0.1796283 -0.9806663 
4.729534 -23.08177 1.014181 0.722828 -0.6070892 0.3300948 
-5.936966 -13.85464 0.7052339 0.4057105 0.910354 0.08157617 
6.001132 -21.94185 1.586178 0.4075863 -0.772103 0.4875759 
17.375 -1.44752 3.689751 -0.409009 0.06292993 0.9103579 
3.150644 -23.97316 2.500162 0.7089684 -0.09510888 0.6987976 
-0.639016 -19.34287 -3.997537 -0.07183625 -0.07081562 -0.9948994 
7.56032 -13.82953 -2.32177 -0.3847118 0.7058945 -0.5947351 
4.575491 20.87999 -3.279304 0.1271172 0.6049588 -0.7860445 
-3.551487 -18.38617 -4.001842 -0.006564646 0.03785523 -0.9992617 
-0.7953897 -19.93893 -3.922354 -0.1035342 -0.07650449 -0.9916793 
7.38428 -18.71997 3.85269 0.1110101 -0.2726403 0.9556903 
13.43369 -13.20941 4.027113 -0.051568 0.05388793 0.9972146 
2.653625 -22.77557 3.076995 0.5811791 -0.08860701 0.8089374 
2.116473 -22.65453 3.395754 0.5211657 -0.006115036 0.8534336 
12.19416 8.838924 -0.0008078428 -0.824308 -0.5661251 0.004331264 
3.814155 -22.61921 2.384849 0.6132766 -0.3109058 0.7261057 
-0.4221453 -17.86377 3.833201 0.00289512 0.2636276 0.9646202 
0.3153643 -19.36788 3.998042 0.03705204 -0.0429339 0.9983907 
-0.6132083 -19.37938 3.997462 -0.06380545 -0.0371515 0.9972706 
-6.001137 -21.94189 -1.586125 -0.3868387 -0.8166245 -0.4283459 
-17.66841 -13.62713 -2.285869 -0.6493532 -0.4946913 -0.5775993 
18.62113 -12.52839 2.218802 0.6862636 -0.4748702 0.5509452 
-16.85871 -15.70814 -0.3122063 -0.735095 -0.6658608 -0.1275338 
-3.031652 -21.12131 3.375725 -0.2135312 -0.284838 0.9344901 
0.8293146 -15.38134 -1.838463 -0.02943641 0.9381933 -0.3448577 
8.919072 -20.91446 -1.60313 0.3597045 -0.8266751 -0.4326905 
20.55054 9.910745 1.348358 0.8455631 0.4157735 0.3348965 
1.455162 -14.96132 0.3839777 -0.07128719 0.9955513 0.06160892 
15.70234 2.318352 -2.422736 -0.7902498 -0.1361134 -0.5974767 
17.06763 -9.249596 4.0047 0.1726182 -0.09405452 0.980488 
-6.174047 -22.19299 0.02623775 -0.5097403 -0.8593088 -0.04187265 
-16.40941 -8.368161 3.985348 0.1549795 0.09313387 0.9835179 
3.419098 -14.95909 1.467795 -0.1941168 0.9233501 0.3312751 
14.47606 -5.151332 1.757529 -0.817104 0.2458826 0.5214239 
6.873272 -20.57961 -2.99526 0.2301045 -0.6302553 -0.7415054 
2.141832 -20.13463 -3.84069 0.1038626 -0.1818971 -0.977817 
15.78023 -5.973623 -3.40184 -0.4702832 0.1499139 -0.8696893 
18.51811 -6.04178 4.005829 0.1189508 -0.04490447 0.9918842 
20.94308 -4.150899 -3.300886 0.5959857 -0.1278284 -0.7927553 
15.15155 -1.376315 -1.208163 -0.9647483 0.07730355 -0.251565 
-3.150829 -23.96141 2.500554 -0.7099371 -0.1373987 0.6907322 
15.85077 -1.531928 -2.543913 -0.7905586 0.07766277 -0.6074419 
-3.55655 -24.9049 1.844525 -0.8802367 -0.09452644 0.4650249 
16.77006 -2.082674 -3.337069 -0.5323541 0.0430829 -0.8454247 
9.891888 -11.59837 -1.214317 -0.6219943 0.7309373 -0.2808094 
-3.876677 -25.06464 -1.088554 -0.9530992 -0.1330294 -0.2718549 
20.63076 -5.147313 3.35187 0.5426367 -0.1183511 0.8315879 
15.81597 -2.028923 2.506517 -0.7465721 0.05390397 0.6631172 
22.1847 -4.667475 1.741586 0.8718837 -0.1900944 0.4513126 
19.03361 1.163879 3.966923 0.01096554 0.01142003 0.9998747 
1.567477 16.78651 3.334466 -0.05834347 -0.5842981 0.8094392 
22.95704 -0.9999686 0.7965864 0.9788188 -0.04373151 0.2000033 
-2.617223 -20.0079 -3.835497 -0.1252263 -0.2154691 -0.968448 
22.93196 2.189741 -0.05518467 0.9953061 0.09647483 -0.007635368 
-5.978619 14.0371 1.213458 0.3660732 -0.8899025 0.2721469 
-3.532357 -24.86233 -1.891234 -0.8394178 -0.1029331 -0.5336503 
15.49559 -8.892471 -3.825812 -0.2827494 0.1615244 -0.945496 
-4.309472 15.89168 3.09101 0.1810349 -0.6208943 0.7627035 
21.99975 -0.1494919 2.825965 0.7235515 -0.01724742 0.6900549 
22.43071 -5.173207 0.08308078 0.9726496 -0.2304643 0.02896439 
13.82353 5.884747 0.5978762 -0.911042 -0.3788217 0.1627779 
14.241 5.708649 -1.319467 -0.8677799 -0.3881568 -0.3103101 
22.80107 -1.373749 -1.131927 0.9679995 -0.05954732 -0.243785 
21.95928 -0.7474323 -2.830676 0.7233053 -0.03290296 -0.689744 
20.1349 -2.484912 -3.788642 0.3151807 -0.02503708 -0.9487014 
17.83746 -2.747968 -3.859542 -0.27979 0.01860536 -0.9598809 
18.84534 -3.388952 -3.993314 -0.05190605 0.01160237 -0.9985846 
18.80787 -7.167327 -3.843918 0.3225742 -0.1136659 -0.9396946 
15.14967 -0.8371639 0.9770643 -0.977019 0.0869242 0.1946233 
1.851008 17.98493 3.859019 -0.01306214 -0.2100283 0.9776081 
-2.101923 -22.64053 3.404453 -0.5240435 -0.002692398 0.8516873 
22.08143 -5.740815 -1.349394 0.8887821 -0.2119029 -0.4064033 
13.93264 -5.670371 -0.5962534 -0.9178241 0.3679256 -0.1490959 
-2.116473 -22.65453 -3.395754 -0.5211657 -0.006115036 -0.8534336 
9.884921 -14.65145 3.752189 -0.2185965 0.2904558 0.9315852 
15.02527 -4.533459 -2.214613 -0.8039843 0.2363372 -0.5456684 
-4.440938 -21.95574 2.336773 -0.4725637 -0.4919969 0.7311789 
4.834311 -15.05031 -2.385732 -0.2285105 0.8007895 -0.5536417 
20.7529 -9.516549 1.230462 0.8777582 -0.3905099 0.2775654 
20.98944 -9.38849 -0.6201217 0.9071161 -0.3824359 -0.1757366 
12.67562 -8.445335 -1.203545 -0.7444959 0.5615782 -0.3610483 
-3.196168 -14.72028 -0.623255 0.2401384 0.9382914 -0.2488828 
20.35512 -8.106603 2.938107 0.5955908 -0.2521628 0.7626832 
14.79107 -14.0298 3.782029 0.2543499 -0.2575658 0.9321834 
-10.32725 -20.61867 -0.4862085 -0.4351244 -0.8886372 -0.1448818 
19.55292 -11.0708 -2.145595 0.7384276 -0.4204721 -0.5271888 
16.81273 -15.74675 -0.03572272 0.7469525 -0.6648492 -0.006122442 
18.88348 -12.79958 1.235335 0.7971362 -0.5541138 0.2398578 
13.51748 -18.63589 0.5210952 0.5790155 -0.8009837 0.1522046 
19.88443 -11.57607 0.04051122 0.85031 -0.5246637 -0.04124261 
-11.57037 -17.85569 3.326039 -0.3180864 -0.4949242 0.808623 
16.89629 -9.234918 -4.015059 0.09372472 -0.0586143 -0.9938713 
-17.64753 -13.65655 2.285139 -0.6287773 -0.4884953 0.6049888 
18.99304 -9.498654 -3.351541 0.4547646 -0.2405877 -0.8575003 
13.18541 -7.858748 1.655168 -0.7987466 0.4729594 0.371905 
3.80129 -80 -1.195045 0.8590533 -0.4501462 -0.2437126 
13.53992 -9.039088 -2.934434 -0.6083145 0.3801717 -0.6967231 
17.05358 -12.66646 3.337213 0.4371838 -0.3118558 0.8435735 
-6.273894 14.7019 -2.696171 0.2576891 -0.6697639 -0.6964285 
-13.52625 18.3834 -1.268912 -0.5313805 0.7854332 -0.3173792 
-12.32947 11.42132 3.291628 0.4118404 -0.4001304 0.8187082 
11.85551 -9.291932 0.02565673 -0.7880113 0.6151842 0.02421851 
16.71396 -7.860384 3.932535 -0.1834062 0.09395539 0.978537 
15.50071 -6.798127 3.368616 -0.5627635 0.2841963 0.7762279 
15.069 -12.59504 -3.984111 0.101261 -0.08980744 -0.9907981 
10.98314 -16.41735 -3.968694 0.08779038 -0.1127471 -0.9897378 
12.79467 -11.80712 -3.704149 -0.2730339 0.2620879 -0.9256147 
11.90592 -9.79926 1.884409 -0.6370929 0.5635619 0.5258427 
12.59393 -11.57764 3.511742 -0.3632404 0.3230305 0.8739038 
14.84558 -15.89437 2.942276 0.4910939 -0.4859071 0.7229946 
-13.00917 9.680698 -2.94376 0.5673375 -0.3997408 -0.7199553 
18.02472 -13.70208 -1.848291 0.7091559 -0.5534518 -0.4367941 
16.61093 -13.08599 -3.401168 0.4337737 -0.3201309 -0.8422332 
3.984573 -80 0.003224923 0.8296242 -0.5580689 -0.01681796 
16.17242 -16.04573 1.4216 0.6557451 -0.6502296 0.3836665 
15.85248 -16.40136 -1.328462 0.6406263 -0.70028 -0.3149699 
10.19364 -12.09048 -2.393698 -0.5227609 0.5813318 -0.6235176 
3.506072 -80 1.923497 0.7427422 -0.5567039 0.3720416 
14.23489 -16.47836 -3.024901 0.4310179 -0.4848927 -0.7609879 
3.5093 -80 -1.917612 0.7252174 -0.5564632 -0.4054731 
9.076632 -11.97855 0.688455 -0.614484 0.7790339 0.1245617 
9.868789 -12.30525 2.321807 -0.5094558 0.6737863 0.5352259 
10.67455 -12.81798 3.221016 -0.385783 0.5092068 0.7693373 
-11.35755 -19.32618 -2.149967 -0.4431853 -0.7326229 -0.5165759 
5.199112 -18.10705 -3.991584 0.002613669 0.03817786 -0.9992676 
8.519467 -14.41659 -3.256011 -0.296744 0.4827771 -0.8239353 
6.132876 -16.7625 -3.778291 -0.101948 0.3357904 -0.9364035 
12.28301 -19.0866 -1.66578 0.5013583 -0.7780213 -0.3785799 
19.06937 6.998729 -3.774505 0.2840623 0.09449678 -0.9541379 
10.91989 -18.36728 -3.282753 0.29907 -0.5396917 -0.7869499 
6.444625 -14.30812 2.13661 -0.3381284 0.7479898 0.5711222 
12.82606 -17.77288 2.856052 0.4227432 -0.578057 0.6979529 
9.205913 -16.193 4.006844 -0.0623447 0.1049461 0.9925218 
17.70835 2.767226 -3.815226 -0.2863674 -0.0338415 -0.9575221 
19.07459 5.593901 3.931233 0.1740466 0.0538034 0.9832665 
16.74004 2.036183 -3.353162 -0.5479164 -0.07457799 -0.8332021 
3.443711 -14.6382 -0.6221361 -0.2413171 0.9629498 -0.1203904 
6.286157 -13.67035 0.5853496 -0.4149655 0.8902877 0.1875941 
9.513888 -19.8344 2.735119 0.3405584 -0.6542238 0.675286 
21.46856 5.895417 -2.355319 0.8266252 0.2079718 -0.5229135 
6.233793 -15.73044 3.37856 -0.2025774 0.4538026 0.8677705 
9.641064 -20.91545 0.552151 0.4160123 -0.8958384 0.156228 
6.668619 18.281 -4.036365 0.03260994 0.1099346 -0.9934037 
7.05161 -18.97006 -3.831378 0.1160068 -0.3241547 -0.9388644 
-3.150645 -23.97317 -2.500161 -0.7220302 -0.1315582 -0.6792385 
6.392718 -13.83112 -1.264726 -0.4239643 0.8621534 -0.277391 
4.556497 15.87247 3.124572 -0.1923466 -0.6258661 0.7558402 
-2.470931 22.69436 1.194938 -0.08337519 0.9439926 0.3192594 
-18.44833 5.125857 -4.039822 -0.05442171 0.01619639 -0.9983867 
7.652653 -20.42888 2.936421 0.2353931 -0.6396688 0.7317198 
2.706412 -16.15 3.009392 -0.1027261 0.6448002 0.7574167 
-0.4429376 -17.16966 -3.528317 0.01327512 0.4078246 -0.9129638 
-0.8925754 -20.4112 -3.902749 -0.1610823 -0.05451027 -0.9854345 
-14.59238 3.643215 -0.7316495 0.9507336 -0.2247229 -0.213554 
-0.890699 -20.38605 3.903946 -0.2434654 -0.004328107 0.9699 
3.932614 -17.96541 3.989068 -0.03574906 0.1542651 0.9873825 
-22.59227 3.232186 -1.193307 -0.9523789 0.1373907 -0.2722101 
-20.12352 2.891969 -3.785263 -0.3408359 0.05361248 -0.9385929 
9.449332 14.97854 -3.767948 -0.1784686 -0.2432478 -0.9534042 
0.319508 -19.34928 -3.998096 0.02680913 -0.05700161 -0.9980141 
-1.290454 -16.40881 3.055175 0.06948547 0.6016994 0.7956944 
0.3949393 -16.45846 -3.042924 -0.0262124 0.6468139 -0.7621973 
-5.460435 -14.84678 2.326942 0.2871118 0.7971004 0.5312229 
-5.442434 -22.30059 1.234571 -0.4902916 -0.7667459 0.414385 
-4.78676 -17.36527 3.878339 0.06873889 0.2820724 0.9569275 
-6.143074 -19.4452 3.749249 -0.1132778 -0.3523717 0.9289792 
-6.105592 -15.76616 3.391519 0.1779433 0.4373865 0.8814926 
-4.53647 -18.83616 3.982823 -0.0213835 -0.10037 0.9947204 
-20.75291 -9.51652 -1.230466 -0.8929275 -0.3669042 -0.2608865 
-8.919082 -20.91445 1.603139 -0.3732179 -0.8666024 0.3312231 
-8.480186 -20.02192 2.977618 -0.2609712 -0.6284438 0.7327704 
1.767212 -80 3.567251 0.4286303 -0.4495962 0.7836704 
-13.91352 -8.79108 3.080908 0.5345078 0.3222784 0.7813054 
-16.52561 -11.03911 3.911031 -0.1851632 -0.1221613 0.9750853 
-16.49671 7.700224 -3.921551 0.2393711 -0.11343 -0.9642796 
-8.723439 15.36319 -3.752362 0.1803513 -0.326388 -0.9278709 
1.760271 -80 -3.569439 0.3823997 -0.450234 -0.8068829 
-13.88057 -15.10048 3.735766 -0.2417247 -0.2540991 0.9364843 
3.116568 -80 2.48956 0.6655601 -0.5563903 0.4974532 
-9.180832 -17.96617 -3.872099 -0.1187924 -0.2376399 -0.9640621 
-9.487136 -16.55964 4.03422 0.01796429 0.04029006 0.9990265 
-7.607846 -20.46933 -2.904886 -0.2627097 -0.6485339 -0.7144141 
2.569519 -80 -3.062233 0.6609612 -0.4778191 -0.5786357 
-4.405224 -16.12115 -3.240841 0.1374381 0.5430827 -0.8283551 
-8.389851 -18.19887 3.864031 -0.1379138 -0.2812475 0.9496734 
-9.084601 -11.97255 -0.6892348 0.6002882 0.7840454 -0.1578827 
-7.427271 -15.46652 -3.539963 0.2394127 0.4207639 -0.8750082 
-14.10231 -8.974788 -3.268454 0.4843249 0.351564 -0.8011443 
-18.74242 -10.09313 3.3348 -0.4622942 -0.28543 0.8395319 
-12.283 -19.08661 1.665776 -0.4974068 -0.760629 0.4171692 
3.800358 -80 1.198248 0.8766056 -0.4503334 0.169595 
-11.54406 -18.01338 -3.247679 -0.322072 -0.4987175 -0.8047053 
0.08723877 -80 -3.998096 0.08957238 -0.5564704 -0.8260251 
-9.736638 -11.75063 1.232722 0.6019462 0.7554887 0.2586459 
-7.376299 -13.96774 -2.342648 0.3239194 0.717466 -0.6166999 
-13.18541 -7.858747 -1.655156 0.7585661 0.4410214 -0.4796641 
-9.535893 -15.32309 3.863854 0.209533 0.2691145 0.940039 
-1.760271 -80 3.569439 -0.3823997 -0.4502338 0.8068829 
-1.767212 -80 -3.567251 -0.4286303 -0.4495962 -0.7836705 
-11.6159 -13.23743 -3.722432 0.2407242 0.2659238 -0.933454 
-19.5607 -12.11645 -0.6606742 -0.834451 -0.5152379 -0.1955031 
2.569605 -80 3.062336 0.6823987 -0.4642493 0.5646279 
-7.353026 -13.5251 -1.61883 0.4528624 0.800235 -0.3931154 
-3.5093 -80 1.917612 -0.7252174 -0.5564632 0.4054731 
-3.984573 -80 -0.003224923 -0.8296242 -0.5580689 0.01681796 
-3.80129 -80 1.195045 -0.8590533 -0.4501462 0.2437126 
-14.38354 -17.95277 -0.5914537 -0.6088082 -0.7824112 -0.1310928 
-10.67451 -12.81801 -3.221016 0.4193079 0.532034 -0.735609 
-11.36058 -10.98194 -2.327357 0.6116307 0.5956658 -0.5206631 
-12.1488 -11.93141 3.475904 0.375737 0.3353232 0.8639329 
-10.03718 -12.53788 2.753006 0.4517682 0.5584534 0.6957265 
-0.6932711 -80 -3.931735 -0.2589775 -0.373891 -0.890582 
-15.0024 -16.06441 2.774526 -0.4923517 -0.5184675 0.6991289 
-15.8525 -16.40133 1.328469 -0.6616325 -0.6815817 0.312552 
-14.84089 -16.34225 -2.648205 -0.5426077 -0.5981609 -0.5897291 
-0.7187148 -80 3.927249 -0.1542524 -0.5567848 0.8162088 
-13.43368 -13.20941 -4.027113 0.001996923 0.002152865 -0.9999957 
-15.53061 -13.80302 -3.65846 -0.3240619 -0.2977039 -0.8979734 
-14.36114 -12.30124 4.016913 0.04044265 0.04310755 0.9982516 
-12.85514 -9.29717 2.392236 0.6329875 0.4514112 0.6289315 
2.512928 22.59204 -1.543442 0.09820358 0.8934739 -0.438247 
-17.58351 -11.74817 -3.376817 -0.4662335 -0.3000166 -0.8322358 
-11.71679 -9.454421 -0.622273 0.7808051 0.6111105 -0.1299512 
-19.03361 1.163943 -3.966923 -0.004561697 -0.004866176 -0.9999778 
3.324263 14.73348 -0.7098222 -0.1788399 -0.9775831 -0.1111193 
5.069338 15.02037 -2.368275 -0.2221591 -0.8006212 -0.5564631 
-20.47175 -8.413525 -2.67538 -0.7142474 -0.3243001 -0.6202258 
-19.95961 9.44991 2.614764 -0.7261664 0.3269789 0.604787 
1.22555 16.73481 -3.279105 -0.0451426 -0.5476578 -0.8354838 
-18.9036 -12.76336 1.411958 -0.7891989 -0.5364866 0.2989102 
-16.74005 2.036159 3.353167 0.4873989 -0.07290556 0.8701305 
-20.38996 5.518696 3.452335 -0.4749981 0.1358853 0.869432 
-17.73019 3.141513 -3.854176 0.3049468 -0.06268445 -0.9503043 
-12.67559 -8.445379 1.203542 0.7845374 0.5413193 0.3024475 
-22.80427 3.056911 0.5369574 -0.9802964 0.1143683 0.1610557 
-19.57525 -10.13473 2.668267 -0.7077468 -0.373315 0.5997754 
-21.47944 -8.202233 0.8345759 -0.9026265 -0.3655856 0.2271839 
10.97888 19.82097 1.807075 0.4500475 0.7768343 0.4404382 
-17.75667 -2.133369 -3.814743 0.3054728 0.03761533 -0.9514576 
-0.4034797 15.83033 -2.347687 -0.001400483 -0.7815117 -0.623889 
2.848998 15.19445 1.896306 -0.1688476 -0.8856717 0.432523 
-19.65619 -7.985145 -3.438755 -0.4545452 -0.1701338 -0.8743244 
-14.97208 3.046484 1.194815 0.9249377 -0.1807945 0.3343703 
-18.80786 -7.167309 3.843922 -0.2776905 -0.09731392 0.9557291 
-22.99906 -0.8684638 -0.0009518017 -0.9976033 -0.05924545 -0.03574584 
-22.82353 -0.5670956 -1.242701 -0.965159 -0.005386493 -0.2616087 
-20.15019 -2.079296 -3.793999 -0.3287169 -0.03594042 -0.9437444 
-2.653625 -22.77557 -3.076995 -0.5213205 -0.09499625 -0.848057 
-17.03956 -7.883715 -3.999248 0.1928176 0.1060997 -0.9754816 
-14.53842 -5.15873 1.826079 0.822319 0.3060476 0.4797148 
-15.78023 -5.973689 3.401851 0.4790815 0.1527588 0.8643759 
-22.18469 -4.66748 -1.741608 -0.8986548 -0.1792641 -0.4003549 
-14.47609 -5.151253 -1.757537 0.8464572 0.2494633 -0.4704023 
-13.46015 7.144443 -1.189618 0.8321991 -0.4718799 -0.2911597 
-21.17325 -3.489406 -3.160849 -0.6185605 -0.1049892 -0.7786914 
-14.31509 -4.861594 0.0007588193 0.9371296 0.3482543 -0.02252022 
-19.03347 -2.473013 3.971431 0.05049834 0.004692858 0.9987131 
-2.479645 17.7768 -3.821789 0.05494635 -0.3106792 -0.9489254 
-16.77006 -2.082666 3.337065 0.5550292 0.05585285 0.8299537 
-20.27617 -1.109494 3.795789 -0.3222409 -0.01008377 0.946604 
-20.66013 -7.218349 2.84389 -0.6752024 -0.2342186 0.6994594 
7.806264 20.88057 2.352454 0.2722453 0.7631998 0.5860108 
-22.43069 -5.173251 -0.08307339 -0.9769326 -0.2135461 0.0008528858 
-18.11814 -7.681237 -3.995656 -0.1314675 -0.06560896 -0.989147 
-20.9431 -4.150783 3.300881 -0.6284782 -0.1053585 0.7706587 
-16.14521 -5.223808 -3.433656 0.5444881 0.1834494 -0.8184615 
-22.21756 -4.644165 1.577075 -0.8871837 -0.1830024 0.4235744 
-22.80216 -0.5129682 1.406213 -0.929517 -0.05134023 0.3651883 
-2.671738 -22.81552 3.060137 -0.6022021 -0.122956 0.7888184 
-15.85076 -1.5319 2.543901 0.7913936 0.07487054 0.6067047 
-16.09353 -2.083932 -2.9113 0.6874814 0.09091142 -0.720489 
-17.89373 -1.400603 3.808658 0.3166088 0.01371916 0.948457 
-15.06522 -0.8720084 0.7531457 0.9835667 0.05522902 0.1718906 
-1.011559 22.13059 2.542763 -0.04532091 0.7970655 0.6021898 
-22.19669 -0.2814746 -2.528486 -0.8112749 -0.005296236 -0.5846409 
-15.24616 -0.4682497 -1.240304 0.9456424 0.05967923 -0.3196856 
-21.79421 1.316083 2.983363 -0.7215974 0.05231966 0.6903331 
-0.3643358 20.7796 3.628671 0.000777464 0.4535878 0.8912113 
-17.34705 5.585363 3.980205 0.2182105 -0.06729415 0.9735788 
-16.02919 2.113205 -2.834402 0.7075546 -0.0753656 -0.7026283 
-21.46854 5.895555 2.355294 -0.8079707 0.2028544 0.5532029 
-18.26009 7.373798 3.985489 -0.1494179 0.07279649 0.9860908 
1.476665 20.20443 -3.797871 0.01976826 0.27879 -0.9601486 
-21.47896 0.8651415 -3.168931 -0.5758125 0.03674665 -0.8167556 
-22.09637 6.411477 0.7058771 -0.9453386 0.2769067 0.1722142 
-14.55735 5.813878 2.196539 0.7940729 -0.318944 0.5174196 
-21.89591 3.895575 -2.390809 -0.8057274 0.141275 -0.5751911 
-15.70231 2.318414 2.422719 0.7608571 -0.1149413 0.6386588 
-18.86669 4.476008 4.013892 -0.09765222 0.009868707 0.9951717 
8.225168 14.53656 3.279066 -0.2794354 -0.5233049 0.8050267 
-17.85184 3.361438 3.893821 0.2163882 -0.04252106 0.975381 
-13.37843 6.899659 0.7329071 0.8946503 -0.423509 0.1422709 
-21.88437 6.659934 -1.103659 -0.9190887 0.2845037 -0.2726421 
-20.72274 7.170589 -2.849411 -0.681972 0.2309919 -0.693943 
-4.336443 17.90821 3.969513 -0.01355446 -0.1654625 0.9861229 
-16.29706 7.593513 3.864832 0.2132742 -0.1120009 0.9705514 
-4.611814 20.87132 3.27667 -0.1337076 0.5653032 0.8139746 
-20.55051 9.910812 -1.348341 -0.8497019 0.4312043 -0.3034297 
-15.00468 6.048899 -2.869075 0.6571081 -0.2606922 -0.7072825 
-0.5970352 15.83545 2.393581 0.04660787 -0.7655143 0.6417287 
-20.64088 10.1699 0.6766456 -0.8884991 0.42585 0.1709416 
-6.882225 18.54931 3.955327 -0.05941875 0.1087437 0.9922924 
-17.64684 11.71389 3.408445 -0.4727732 0.3129652 0.8237344 
-16.28053 15.78979 1.791276 -0.6489389 0.6270611 0.4308976 
-9.841152 20.80679 -0.5904142 -0.4513069 0.8763355 -0.1683988 
-16.21203 11.57879 3.953137 -0.1586478 0.1319642 0.9784766 
-18.61454 12.21638 2.324652 -0.7065138 0.4635111 0.5347856 
-19.01423 8.641479 -3.609729 -0.4178108 0.1988248 -0.8865116 
-17.19011 10.02639 -3.906617 -0.1324247 0.08984798 -0.9871125 
-3.131724 19.09866 -3.991709 -0.02303401 0.1077497 -0.9939112 
-6.852497 21.97593 -0.532311 -0.2971811 0.9486752 -0.1081606 
-7.924472 20.8055 2.370327 -0.2836785 0.7442775 0.6046301 
-19.03977 12.92546 0.5640468 -0.8204658 0.5595404 0.1172622 
-18.469 13.45619 -1.172191 -0.7664332 0.5756009 -0.2850683 
-18.6502 12.19627 -2.284849 -0.6681187 0.4201749 -0.6140606 
-9.178685 20.90883 1.247578 -0.3833305 0.8773571 0.2886214 
-13.50447 18.62972 0.0508722 -0.6086534 0.793286 0.01544309 
-15.2666 6.701018 3.193783 0.563906 -0.2393684 0.7903878 
-3.123158 -80 2.480833 -0.6951733 -0.4492206 0.5611907 
-2.569519 -80 3.062233 -0.6609613 -0.4778191 0.5786356 
-16.87674 15.66564 -0.001527453 -0.7252557 0.6883352 -0.0141006 
-12.19416 8.838916 0.0008097066 0.798148 -0.6024169 0.007324274 
-3.116568 -80 -2.48956 -0.7595033 -0.31766 -0.567668 
-2.569605 -80 -3.062336 -0.6823987 -0.4642493 -0.5646279 
-16.68635 13.125 -3.357043 -0.4295694 0.3345686 -0.8387694 
-12.3639 9.306312 1.876957 0.7305105 -0.5289707 0.431908 
-12.78697 13.83388 4.036897 0.01304507 -0.008562124 0.9998783 
-14.18716 16.25469 3.183747 -0.3885908 0.4477302 0.8053167 
-10.62943 10.90098 -1.198815 0.6791765 -0.6418421 -0.3560311 
-9.319401 12.18579 1.61595 0.5517773 -0.7484059 0.3680088 
-12.76272 18.89898 1.335961 -0.5230449 0.7834831 0.3355271 
-16.2392 15.37554 -2.260829 -0.6029197 0.5407863 -0.5865476 
16.42137 16.1202 -0.4511839 0.706254 0.6988989 -0.1128966 
-15.00413 17.06392 -1.667239 -0.61547 0.6880763 -0.3843797 
-13.48475 16.59817 -3.286347 -0.3724178 0.4407455 -0.8167304 
-13.27123 12.43393 -3.916847 0.1698865 -0.1575783 -0.9727835 
-10.87946 16.68441 3.950726 -0.1337906 0.1860341 0.9733917 
-13.94878 14.2315 -3.917302 -0.1631049 0.1618482 -0.973243 
-0.1744775 -80 3.996193 -0.1922006 -0.5671603 0.8008671 
-11.15817 11.63129 -2.771018 0.4464246 -0.4978658 -0.7435285 
-10.7539 18.54178 3.263019 -0.259849 0.5029722 0.8243164 
-11.20324 19.15335 2.461803 -0.414292 0.7061207 0.5742437 
-8.137556 13.89622 -2.820633 0.4506145 -0.6735607 -0.5858861 
-9.538329 17.03186 -3.997131 -0.07407147 0.1222768 -0.9897282 
-9.608214 11.56483 -0.3685979 0.654368 -0.751604 -0.08303028 
-11.36801 18.57133 -3.033734 -0.3634864 0.6044883 -0.7088524 
-7.793916 16.51831 3.937539 0.1076144 -0.1769782 0.9783138 
-6.836898 13.39673 -0.6633758 0.4303456 -0.886753 -0.168736 
-6.902902 14.7894 3.039876 0.2943881 -0.6237264 0.7240863 
-7.193125 18.89504 -3.820961 -0.1215101 0.3104601 -0.9427884 
-8.364766 20.39818 -2.671211 -0.2819658 0.7233617 -0.6302722 
3.943724 22.65754 -0.006633195 0.1666025 0.9857482 -0.02332537 
-4.173919 14.73492 -1.477771 0.2225802 -0.8748719 -0.4301828 
-4.284408 16.94801 3.651803 0.06890808 -0.4025099 0.9128184 
-5.25672 22.12723 1.503914 -0.2133734 0.8992463 0.3818744 
-3.881834 19.11268 3.981003 -0.02252498 0.1292544 0.9913557 
-5.007559 20.52803 -3.407897 -0.1316362 0.5064822 -0.852143 
-2.825706 15.04062 1.62543 0.1839339 -0.8837938 0.4302056 
-1.810526 21.89648 -2.847811 -0.04903717 0.7469653 -0.6630523 
-4.282598 22.27489 -1.78257 -0.1662135 0.8780618 -0.4487545 
-6.285468 17.5141 -3.981401 0.0138414 -0.04192756 -0.9990248 
6.884781 21.95672 -0.1235445 0.2984001 0.953382 -0.04494743 
-2.886069 22.87408 0.02719608 -0.1198282 0.9923877 0.02842418 
6.456666 16.70958 3.846722 -0.1212863 -0.3335077 0.934913 
-2.398714 20.14303 -3.776463 -0.04046134 0.3769532 -0.9253481 
-2.60305 16.56154 -3.308222 0.09934792 -0.6336969 -0.7671756 
-0.01558533 15.26118 -1.310995 0.001395144 -0.9634188 -0.2679967 
0.9701205 21.57147 -3.122088 0.03437714 0.6098081 -0.7918032 
6.482779 15.85462 -3.534349 -0.1582736 -0.4216053 -0.8928598 
9.748837 19.04607 3.230857 0.2920454 0.5322334 0.7946302 
0.7025979 22.98049 -0.6107727 0.01292279 0.9834485 -0.1807266 
17.31187 1.495834 3.669458 -0.4118285 -0.04950992 0.9099154 
0.2719237 15.02465 0.7237447 0.009218925 -0.9839408 0.1782572 
2.536708 19.09314 3.984354 0.01287097 0.1010099 0.9948022 
10.17111 17.08986 -3.972691 0.1104082 0.1992244 -0.9737144 
1.610293 22.7782 1.169073 0.05151923 0.9627694 0.2653691 
2.356827 18.38825 -3.985339 -0.01833762 -0.147107 -0.9889506 
5.990693 13.82104 -0.6853776 -0.4128689 -0.9009139 -0.1337662 
22.66556 2.752908 -1.216247 0.9248576 0.1017813 -0.3664411 
4.809323 20.3353 3.586746 0.116321 0.4735644 0.8730442 
2.746495 22.05152 2.420406 0.1053905 0.7658752 0.6342934 
5.676681 22.10877 1.363826 0.2320376 0.9238536 0.3043897 
5.268912 22.13091 -1.496117 0.2262708 0.8937289 -0.3873631 
9.178455 13.06259 -2.633425 -0.4375709 -0.6358443 -0.6357939 
5.44673 14.4232 1.84903 -0.3570614 -0.8146039 0.4570861 
7.305715 18.63666 3.874859 0.1010753 0.253439 0.9620564 
9.835509 20.81024 0.5825982 0.4109113 0.898748 0.1529833 
8.21479 20.30753 -2.892458 0.244401 0.6208298 -0.7448748 
9.804155 20.64916 -1.264928 0.4163497 0.858053 -0.3006626 
7.65208 17.50228 3.992038 -0.008174201 -0.02319366 0.9996976 
10.51889 17.39344 3.780863 0.1814104 0.2849594 0.9412165 
7.482184 13.0741 0.6463495 -0.5161602 -0.8413448 0.160367 
10.34716 10.89794 0.6361513 -0.6848944 -0.7212156 0.1037676 
12.67781 8.823348 1.802961 -0.7285677 -0.5232966 0.4419841 
11.64059 18.60889 -2.82295 0.3949071 0.6028285 -0.6932865 
9.878052 12.73219 2.774614 -0.4745827 -0.6101652 0.634405 
-0.1744775 -80 -3.996193 -0.0364099 -0.5554985 -0.8307201 
11.93503 14.13189 3.967863 -0.08113408 -0.09269616 0.9923834 
16.21201 11.5788 -3.953135 0.1437305 0.1061035 -0.9839124 
13.68604 18.20935 -1.372355 0.5633934 0.7538216 -0.3381436 
17.86074 8.824895 -3.988752 0.2281817 0.110516 -0.9673259 
13.64302 14.62731 3.901624 0.1372183 0.1460571 0.9797134 
13.16085 10.46701 -3.312328 -0.4661255 -0.3680508 -0.8045283 
14.17207 11.18371 -3.830928 -0.142981 -0.1185621 -0.9825984 
13.50448 18.62972 -0.05086622 0.5740634 0.8185839 0.01927688 
15.92981 15.75667 -2.215374 0.5689434 0.5800155 -0.582997 
3.123158 -80 -2.480833 0.6951733 -0.4492206 -0.5611907 
13.97733 15.10826 -3.746899 0.2853059 0.3079485 -0.9076169 
17.67791 10.75934 3.7154 0.3105554 0.1959787 0.9301332 
9.29711 12.01783 -1.181867 -0.5774665 -0.7839621 -0.2278945 
14.43083 11.48606 3.96726 -0.08845595 -0.07891905 0.9929488 
14.94874 17.04122 1.861867 0.5966159 0.6744328 0.4349598 
20.64086 10.16994 -0.67664 0.8912721 0.4319834 -0.1379292 
12.33815 14.10847 -3.979906 -0.0144875 -0.01661598 -0.999757 
10.77908 13.69653 3.641895 -0.2308944 -0.2998873 0.9256108 
14.7403 15.59959 3.206078 0.3972635 0.4314776 0.8099437 
13.79594 9.955115 3.46264 -0.4216887 -0.3171539 0.8494658 
16.94574 12.93707 -3.272759 0.4736969 0.3455518 -0.810065 
12.80403 9.339633 -2.40484 -0.6757509 -0.3922971 -0.6240704 
18.28138 13.24148 -1.948146 0.7357028 0.5207781 -0.4330492 
11.40809 10.28536 -1.599686 -0.6977232 -0.5960971 -0.3973042 
18.93085 4.250845 -4.007986 0.077464 0.01593644 -0.9968678 
15.26657 6.701106 -3.193789 -0.5492736 -0.2211072 -0.8058599 
17.97178 13.29748 2.280669 0.6580623 0.4642454 0.5928155 
18.72742 13.37398 0.6130534 0.8029234 0.5846654 0.1161054 
17.40155 5.938259 -3.97761 -0.1534992 -0.07754043 -0.9851018 
15.0047 6.048877 2.869081 -0.6632407 -0.2674257 0.6989959 
20.72275 7.170593 2.849401 0.6694664 0.245794 0.7009993 
15.26638 2.527595 1.863149 -0.9113007 -0.1245674 0.3924463 
21.88435 6.66 1.103646 0.9232356 0.2967986 0.2440221 
22.09635 6.411551 -0.7058647 0.9525101 0.2595344 -0.1592683 
14.55734 5.813908 -2.19654 -0.7789255 -0.3165418 -0.5413653 
20.34409 8.253689 -2.841484 0.6537863 0.2672314 -0.7079201 
20.18447 3.498733 -3.733655 0.4103621 0.06255711 -0.9097745 
21.77411 2.185376 -2.900915 0.7014353 0.1020617 -0.7053879 
20.19177 -1.527744 3.802163 0.3343345 -0.01915209 0.9422599 
15.05971 -0.2899037 -0.001441914 -0.9970021 -0.04723407 0.06128418 
-1.803879 -21.62371 -3.600194 -0.3404107 -0.07762459 -0.9370673 
-1.771513 -21.59461 3.613376 -0.3725779 -0.06472236 0.9257412 
-3.339545 -24.67835 2.203146 -0.8141254 -0.05307312 0.5782588 
-3.943008 -25.70347 0.6712346 -0.9862284 -0.06341372 0.1527492 
-3.985356 -25.766 -0.01647785 -0.9946616 -0.07509139 -0.07077785 
-3.939099 -25.69769 -0.6938699 -0.9951823 0.01889198 -0.09620488 
-4.470768 -23.77431 -0.4210965 -0.901799 -0.4317235 0.01932408 
-4.255487 -23.57854 1.320858 -0.801728 -0.3570322 0.4793333 
-4.615 -23.05242 -1.228165 -0.7272215 -0.4876393 -0.4830702 
-3.811683 -21.73322 -2.867818 -0.3999696 -0.4221324 -0.8135285 
-3.800358 -80 -1.198248 -0.9518878 -0.2449382 -0.1841598 
-3.506072 -80 -1.923497 -0.09479672 -0.9943635 -0.04748394 
0.6932711 -80 3.931735 0.1944154 -0.3731397 0.9071767 
0.08723877 -80 3.998096 0.02802514 -0.5553388 0.8311519 
0.7187148 -80 -3.927249 0.1448058 -0.5570964 -0.8177255 
3 76 181 180 
3 44 46 59 
3 16 8 41 
3 255 440 492 
3 434 433 445 
3 130 131 158 
3 46 40 185 
3 36 16 41 
3 243 292 231 
3 34 3 30 
3 305 424 423 
3 446 469 466 
3 83 85 119 
3 64 258 66 
3 29 31 36 
3 257 136 273 
3 29 36 41 
3 313 316 286 
3 311 288 306 
3 29 33 161 
3 79 10 168 
3 364 356 347 
3 37 30 78 
3 233 256 257 
3 194 204 60 
3 34 30 19 
3 387 404 219 
3 297 342 154 
3 141 126 73 
3 40 42 37 
3 173 187 149 
3 73 126 81 
3 321 424 317 
3 37 42 19 
3 40 46 44 
3 321 399 417 
3 42 40 41 
3 286 316 197 
3 44 41 40 
3 285 270 298 
3 406 403 354 
3 232 217 287 
3 28 21 220 
3 133 130 155 
3 8 42 41 
3 90 102 479 
3 55 73 146 
3 205 25 170 
3 107 106 115 
3 42 8 14 
3 79 27 10 
3 79 30 28 
3 55 11 127 
3 37 19 30 
3 44 29 41 
3 177 110 109 
3 413 455 281 
3 383 379 219 
3 203 53 49 
3 47 147 146 
3 106 97 95 
3 345 397 338 
3 394 348 354 
3 339 370 349 
3 125 18 238 
3 63 225 490 
3 261 235 258 
3 93 81 479 
3 28 30 3 
3 52 223 43 
3 21 28 3 
3 174 166 165 
3 381 378 387 
3 29 44 59 
3 42 14 19 
3 108 477 107 
3 33 29 59 
3 12 48 59 
3 56 12 59 
3 27 79 28 
3 121 50 25 
3 34 20 3 
3 58 464 105 
3 35 34 19 
3 175 158 153 
3 187 79 168 
3 14 35 19 
3 135 111 137 
3 48 33 59 
3 55 176 11 
3 71 76 180 
3 214 67 209 
3 56 5 57 
3 60 61 199 
3 5 56 24 
3 221 262 217 
3 10 53 49 
3 57 5 215 
3 410 269 268 
3 111 82 0 
3 46 24 59 
3 155 156 129 
3 2 22 23 
3 95 102 92 
3 5 24 22 
3 440 203 236 
3 2 5 22 
3 373 388 391 
3 487 488 207 
3 465 477 108 
3 167 250 258 
3 56 59 24 
3 175 132 158 
3 143 360 348 
3 47 415 91 
3 318 295 289 
3 104 58 105 
3 23 61 4 
3 465 110 177 
3 4 61 62 
3 126 122 92 
3 317 191 398 
3 260 243 43 
3 40 69 185 
3 129 123 133 
3 282 267 276 
3 24 46 193 
3 290 201 267 
3 47 146 81 
3 207 213 74 
3 213 128 74 
3 138 77 116 
3 74 128 63 
3 284 428 190 
3 6 148 149 
3 30 187 78 
3 30 79 187 
3 71 180 68 
3 308 320 311 
3 153 127 175 
3 465 108 110 
3 313 286 331 
3 202 186 418 
3 92 102 90 
3 290 298 327 
3 116 119 140 
3 433 113 407 
3 311 320 278 
3 125 68 18 
3 156 135 137 
3 45 229 237 
3 203 49 52 
3 115 106 103 
3 294 313 302 
3 80 109 110 
3 254 253 240 
3 1 362 363 
3 100 80 110 
3 232 221 217 
3 327 318 330 
3 168 10 203 
3 62 4 382 
3 265 270 285 
3 87 177 109 
3 68 180 121 
3 112 83 116 
3 229 45 246 
3 377 357 364 
3 347 371 374 
3 140 80 100 
3 402 414 264 
3 351 337 358 
3 96 225 223 
3 128 213 233 
3 162 156 155 
3 95 92 103 
3 144 339 361 
3 452 445 454 
3 227 205 195 
3 480 83 112 
3 191 406 398 
3 387 389 393 
3 4 62 211 
3 159 130 132 
3 216 263 293 
3 189 181 164 
3 377 364 360 
3 457 442 447 
3 211 60 208 
3 354 359 398 
3 419 317 424 
3 106 95 103 
3 310 308 311 
3 108 107 82 
3 111 110 108 
3 85 87 80 
3 389 348 394 
3 25 169 170 
3 3 20 226 
3 174 181 76 
3 81 93 47 
3 126 90 81 
3 82 107 115 
3 383 219 386 
3 184 199 176 
3 340 317 398 
3 45 206 32 
3 359 355 398 
3 485 484 487 
3 119 85 80 
3 473 38 474 
3 103 122 123 
3 91 112 77 
3 151 145 164 
3 55 152 118 
3 90 479 81 
3 299 319 316 
3 135 100 110 
3 133 122 131 
3 64 265 261 
3 253 254 263 
3 492 382 259 
3 176 55 118 
3 131 130 133 
3 159 162 155 
3 376 468 463 
3 47 91 77 
3 140 100 150 
3 147 47 77 
3 65 126 141 
3 32 68 125 
3 111 108 82 
3 92 90 126 
3 82 115 0 
3 319 296 314 
3 87 109 80 
3 392 390 144 
3 184 194 199 
3 83 119 116 
3 77 112 116 
3 141 153 65 
3 135 110 111 
3 198 482 241 
3 43 223 260 
3 50 121 189 
3 81 146 73 
3 111 0 137 
3 485 491 248 
3 368 375 378 
3 289 278 200 
3 180 181 189 
3 60 204 208 
3 160 150 169 
3 0 115 123 
3 140 119 80 
3 492 220 226 
3 266 229 252 
3 329 361 331 
3 203 52 168 
3 122 103 92 
3 115 103 123 
3 122 126 65 
3 464 58 436 
3 127 153 141 
3 6 150 148 
3 156 162 148 
3 371 384 385 
3 352 192 351 
3 124 116 140 
3 488 84 120 
3 152 151 166 
3 328 271 344 
3 147 77 138 
3 323 282 276 
3 228 221 134 
3 129 137 0 
3 292 309 231 
3 218 352 379 
3 133 123 122 
3 123 129 0 
3 352 368 381 
3 7 488 487 
3 399 338 113 
3 159 132 171 
3 457 418 451 
3 122 65 131 
3 207 120 214 
3 62 60 211 
3 328 324 271 
3 61 22 199 
3 323 314 282 
3 6 170 169 
3 427 202 446 
3 261 265 307 
3 124 160 88 
3 116 124 145 
3 138 116 145 
3 262 75 217 
3 470 460 437 
3 459 445 452 
3 72 466 179 
3 129 133 155 
3 151 165 166 
3 468 70 456 
3 129 156 137 
3 258 64 261 
3 141 73 127 
3 150 100 135 
3 325 339 349 
3 151 138 145 
3 329 335 369 
3 298 318 327 
3 135 156 148 
3 439 435 436 
3 339 144 370 
3 306 212 280 
3 52 43 195 
3 147 152 146 
3 148 162 149 
3 220 21 226 
3 168 170 149 
3 150 135 148 
3 49 440 255 
3 225 63 128 
3 160 124 140 
3 169 150 6 
3 147 138 151 
3 152 147 151 
3 187 173 78 
3 55 146 152 
3 121 205 68 
3 127 73 55 
3 131 65 158 
3 478 183 422 
3 23 61 62 
3 145 124 88 
3 286 329 331 
3 51 264 426 
3 401 343 101 
3 159 155 130 
3 206 204 13 
3 35 14 163 
3 150 160 140 
3 95 38 102 
3 164 165 151 
3 162 171 173 
3 251 243 231 
3 145 88 164 
3 158 65 153 
3 269 272 412 
3 288 311 278 
3 237 206 45 
3 128 233 250 
3 384 345 340 
3 378 377 389 
3 223 261 260 
3 45 125 246 
3 296 239 309 
3 152 166 118 
3 347 346 371 
3 393 389 394 
3 177 87 179 
3 132 130 158 
3 199 54 176 
3 159 171 162 
3 381 368 378 
3 76 13 194 
3 455 413 459 
3 127 11 175 
3 149 162 173 
3 221 228 224 
3 481 242 117 
3 184 118 166 
3 164 181 165 
3 160 50 88 
3 50 189 88 
3 88 189 164 
3 358 341 357 
3 181 174 165 
3 356 344 350 
3 361 329 369 
3 175 182 132 
3 420 326 186 
3 182 185 132 
3 149 170 6 
3 120 67 214 
3 169 50 160 
3 489 188 99 
3 464 462 105 
3 349 370 371 
3 174 184 166 
3 118 184 176 
3 488 120 207 
3 193 182 54 
3 176 54 11 
3 11 182 175 
3 23 22 61 
3 470 104 472 
3 132 185 171 
3 455 467 468 
3 185 69 171 
3 438 418 431 
3 25 50 169 
3 11 54 182 
3 210 204 206 
3 304 310 280 
3 365 297 372 
3 347 374 360 
3 69 173 171 
3 212 306 295 
3 168 149 187 
3 12 56 245 
3 185 182 193 
3 359 354 348 
3 46 185 193 
3 423 429 413 
3 414 403 406 
3 269 421 268 
3 318 289 200 
3 113 433 417 
3 78 173 69 
3 14 139 163 
3 4 67 198 
3 224 228 211 
3 275 271 324 
3 69 37 78 
3 273 136 279 
3 22 193 54 
3 69 40 37 
3 492 362 247 
3 32 71 68 
3 180 189 121 
3 194 174 76 
3 184 174 194 
3 22 54 199 
3 24 193 22 
3 251 238 230 
3 254 237 277 
3 39 93 479 
3 168 195 170 
3 121 25 205 
3 308 304 287 
3 226 20 450 
3 205 227 18 
3 195 205 170 
3 487 489 89 
3 60 199 194 
3 452 471 467 
3 400 403 402 
3 14 8 139 
3 204 194 13 
3 13 76 71 
3 489 487 74 
3 430 305 281 
3 315 302 274 
3 195 168 52 
3 369 144 361 
3 235 167 258 
3 10 53 203 
3 438 432 443 
3 205 18 68 
3 32 13 71 
3 489 490 188 
3 214 209 228 
3 62 61 60 
3 4 23 62 
3 253 216 75 
3 53 96 49 
3 49 96 52 
3 303 287 300 
3 211 208 224 
3 43 227 195 
3 206 13 32 
3 67 211 209 
3 204 210 208 
3 492 89 99 
3 105 72 15 
3 125 45 32 
3 490 225 96 
3 223 52 96 
3 296 309 314 
3 449 376 463 
3 275 303 332 
3 433 441 445 
3 391 388 386 
3 196 53 255 
3 142 386 219 
3 227 43 230 
3 9 396 410 
3 224 208 210 
3 337 201 327 
3 211 228 209 
3 253 75 262 
3 213 207 214 
3 460 470 17 
3 233 214 134 
3 223 225 235 
3 74 487 207 
3 432 405 430 
3 89 489 99 
3 18 227 238 
3 125 238 246 
3 319 323 197 
3 245 492 222 
3 256 136 257 
3 213 214 233 
3 238 227 230 
3 167 225 128 
3 347 350 346 
3 235 225 167 
3 287 304 232 
3 380 390 345 
3 224 210 240 
3 214 228 134 
3 70 468 467 
3 442 461 444 
3 278 328 200 
3 9 391 396 
3 254 210 206 
3 240 210 254 
3 243 251 230 
3 254 206 237 
3 230 43 243 
3 224 240 262 
3 167 128 250 
3 325 322 339 
3 246 238 251 
3 275 325 346 
3 134 256 233 
3 261 223 235 
3 346 325 349 
3 267 192 276 
3 246 252 229 
3 256 134 221 
3 262 240 253 
3 356 350 347 
3 250 233 257 
3 250 257 66 
3 339 322 361 
3 192 352 218 
3 252 246 251 
3 237 229 266 
3 402 411 408 
3 467 459 452 
3 250 66 258 
3 10 27 495 
3 263 277 293 
3 262 221 224 
3 66 244 64 
3 36 234 157 
3 237 266 277 
3 66 257 273 
3 252 251 231 
3 263 254 277 
3 438 443 449 
3 253 263 216 
3 256 221 232 
3 256 232 136 
3 307 260 261 
3 260 307 292 
3 243 260 292 
3 481 96 196 
3 252 231 239 
3 333 428 439 
3 343 397 101 
3 273 244 66 
3 316 313 293 
3 283 409 272 
3 353 420 301 
3 379 381 387 
3 252 239 266 
3 279 136 232 
3 265 64 270 
3 277 266 299 
3 142 219 301 
3 412 420 186 
3 64 244 270 
3 231 309 239 
3 266 239 299 
3 287 217 75 
3 244 212 270 
3 303 308 287 
3 265 285 307 
3 423 417 429 
3 472 104 15 
3 75 216 294 
3 399 113 417 
3 186 51 431 
3 264 395 426 
3 273 279 280 
3 244 273 280 
3 212 244 280 
3 186 431 418 
3 370 390 380 
3 188 366 99 
3 299 239 296 
3 293 277 299 
3 89 485 487 
3 280 279 304 
3 5 2 493 
3 75 294 300 
3 232 304 279 
3 274 361 322 
3 139 16 157 
3 293 294 216 
3 287 75 300 
3 270 212 295 
3 376 455 468 
3 293 299 316 
3 329 286 335 
3 294 302 315 
3 300 294 315 
3 84 483 362 
3 412 186 202 
3 397 390 392 
3 96 53 196 
3 308 310 304 
3 310 306 280 
3 270 295 298 
3 242 291 117 
3 307 282 292 
3 282 309 292 
3 313 294 293 
3 447 444 469 
3 290 285 298 
3 307 285 290 
3 320 303 275 
3 299 296 319 
3 350 271 346 
3 310 311 306 
3 288 295 306 
3 295 288 289 
3 318 298 295 
3 290 267 307 
3 282 307 267 
3 314 309 282 
3 358 357 375 
3 477 172 476 
3 320 308 303 
3 427 269 412 
3 361 274 331 
3 409 301 272 
3 323 276 342 
3 302 313 331 
3 355 384 340 
3 302 331 274 
3 86 249 247 
3 290 327 201 
3 112 91 472 
3 323 319 314 
3 143 377 360 
3 318 200 330 
3 70 471 473 
3 367 492 366 
3 289 288 278 
3 203 10 236 
3 419 424 425 
3 397 343 94 
3 316 319 197 
3 334 315 274 
3 300 315 334 
3 303 300 332 
3 320 324 278 
3 337 327 330 
3 192 267 201 
3 334 274 322 
3 300 334 332 
3 324 328 278 
3 328 336 200 
3 336 330 200 
3 439 436 437 
3 324 320 275 
3 330 336 337 
3 201 337 351 
3 201 351 192 
3 197 323 342 
3 472 91 415 
3 4 198 259 
3 312 482 67 
3 332 334 322 
3 275 332 325 
3 286 197 335 
3 332 322 325 
3 492 249 248 
3 344 336 328 
3 192 218 276 
3 197 342 297 
3 335 197 297 
3 372 383 386 
3 341 336 344 
3 337 336 341 
3 276 218 342 
3 271 275 346 
3 218 154 342 
3 38 97 474 
3 344 271 350 
3 337 341 358 
3 403 414 402 
3 365 335 297 
3 341 344 356 
3 341 356 357 
3 144 369 373 
3 360 374 348 
3 335 365 369 
3 368 358 375 
3 392 98 401 
3 351 358 368 
3 362 492 363 
3 351 368 352 
3 402 408 400 
3 364 347 360 
3 356 364 357 
3 379 352 381 
3 312 1 363 
3 154 218 379 
3 444 447 442 
3 383 154 379 
3 142 301 409 
3 372 297 154 
3 346 349 371 
3 375 357 377 
3 383 372 154 
3 365 388 369 
3 388 373 369 
3 144 390 370 
3 98 391 9 
3 413 434 459 
3 388 365 372 
3 186 326 51 
3 7 484 249 
3 470 472 415 
3 370 380 371 
3 380 384 371 
3 375 377 378 
3 443 448 376 
3 371 385 374 
3 408 353 400 
3 378 389 387 
3 388 372 386 
3 392 144 373 
3 377 143 389 
3 379 387 219 
3 373 391 98 
3 34 35 450 
3 348 389 143 
3 373 98 392 
3 359 374 385 
3 348 374 359 
3 142 391 386 
3 380 345 384 
3 384 355 385 
3 355 359 385 
3 387 393 404 
3 390 397 345 
3 396 391 142 
3 411 326 408 
3 392 101 397 
3 457 451 442 
3 114 312 363 
3 403 394 354 
3 394 403 400 
3 393 394 400 
3 219 404 301 
3 399 345 338 
3 340 345 399 
3 398 406 354 
3 483 86 247 
3 142 409 396 
3 401 98 9 
3 355 340 398 
3 353 393 400 
3 404 393 353 
3 491 89 492 
3 101 392 401 
3 301 404 353 
3 492 236 495 
3 340 399 321 
3 340 321 317 
3 396 409 283 
3 396 283 410 
3 338 397 113 
3 382 4 259 
3 416 410 268 
3 401 9 416 
3 343 401 416 
3 113 397 94 
3 473 474 456 
3 326 353 408 
3 326 420 353 
3 362 483 247 
3 70 473 456 
3 416 9 410 
3 317 419 191 
3 191 419 406 
3 406 419 414 
3 402 264 411 
3 472 15 480 
3 458 439 460 
3 493 492 215 
3 343 416 284 
3 94 343 284 
3 26 490 291 
3 423 321 417 
3 420 272 301 
3 284 190 94 
3 414 419 395 
3 264 414 395 
3 486 485 89 
3 268 284 416 
3 424 321 423 
3 395 419 425 
3 411 264 51 
3 326 411 51 
3 283 272 269 
3 410 283 269 
3 425 424 305 
3 272 420 412 
3 284 268 421 
3 407 113 94 
3 405 395 425 
3 395 405 426 
3 431 51 426 
3 48 245 222 
3 190 407 94 
3 429 417 433 
3 428 284 421 
3 407 190 333 
3 405 425 430 
3 426 405 432 
3 431 426 432 
3 428 421 435 
3 333 190 428 
3 415 17 470 
3 305 423 413 
3 425 305 430 
3 413 281 305 
3 431 432 438 
3 120 312 67 
3 428 435 439 
3 407 333 458 
3 433 407 458 
3 434 413 429 
3 4 211 67 
3 421 269 427 
3 457 202 418 
3 95 97 38 
3 434 429 433 
3 430 281 448 
3 432 430 448 
3 443 432 448 
3 421 427 453 
3 435 421 453 
3 458 333 439 
3 433 458 441 
3 412 202 427 
3 1 312 84 
3 455 448 281 
3 8 16 139 
3 16 36 157 
3 457 447 202 
3 459 434 445 
3 451 418 438 
3 436 435 453 
3 97 106 422 
3 449 443 376 
3 438 449 451 
3 202 447 446 
3 453 427 464 
3 441 458 454 
3 448 455 376 
3 427 446 464 
3 436 58 437 
3 439 437 460 
3 441 454 445 
3 455 459 467 
3 48 12 245 
3 446 462 464 
3 453 464 436 
3 451 449 461 
3 442 451 461 
3 454 458 460 
3 449 463 461 
3 446 466 462 
3 468 456 463 
3 17 454 460 
3 452 454 17 
3 476 461 463 
3 475 462 466 
3 462 475 105 
3 437 58 104 
3 471 70 467 
3 456 476 463 
3 461 476 444 
3 446 447 469 
3 470 437 104 
3 452 17 178 
3 471 452 178 
3 493 494 492 
3 476 456 474 
3 172 444 476 
3 183 476 474 
3 444 172 469 
3 177 466 469 
3 469 172 465 
3 15 104 105 
3 178 17 415 
3 465 172 477 
3 469 465 177 
3 39 471 178 
3 471 38 473 
3 183 478 476 
3 478 477 476 
3 177 179 466 
3 475 466 72 
3 105 475 72 
3 422 474 97 
3 474 422 183 
3 178 415 93 
3 39 178 93 
3 471 39 38 
3 112 472 480 
3 38 39 102 
3 67 482 198 
3 86 7 249 
3 422 107 478 
3 53 49 255 
3 415 47 93 
3 479 102 39 
3 422 106 107 
3 478 107 477 
3 179 87 72 
3 87 85 72 
3 85 15 72 
3 85 83 15 
3 15 83 480 
3 484 7 487 
3 74 63 489 
3 5 493 215 
3 114 482 312 
3 84 312 120 
3 7 86 488 
3 490 26 188 
3 483 84 488 
3 86 483 488 
3 291 481 117 
3 96 481 291 
3 63 490 489 
3 490 96 291 
3 203 10 49 
3 492 440 236 
3 255 492 242 
3 492 367 242 
3 491 492 248 
3 249 492 247 
3 492 241 363 
3 241 492 259 
3 494 382 492 
3 215 492 245 
3 492 234 161 
3 222 492 161 
3 234 492 157 
3 492 139 157 
3 139 492 163 
3 163 492 450 
3 492 226 450 
3 220 492 495 
3 56 215 245 
3 56 57 215 
3 33 222 161 
3 33 48 222 
3 234 29 161 
3 31 29 234 
3 36 31 234 
3 35 163 450 
3 20 34 450 
3 21 3 226 
3 27 220 495 
3 27 28 220 
3 481 255 242 
3 481 196 255 
3 367 291 242 
3 367 26 291 
3 367 366 188 
3 26 367 188 
3 366 492 99 
3 486 89 491 
3 485 486 491 
3 484 485 248 
3 249 484 248 
3 1 84 362 
3 241 114 363 
3 482 114 241 
3 198 241 259 
3 236 10 495 
3 49 203 440 
3 62 382 494 
3 61 62 494 
3 493 61 494 
3 23 61 493 
3 2 23 493 
