ply
format ascii 1.0
comment VCGLIB generated
element vertex 24
property float x
property float y
property float z
property float nx
property float ny
property float nz
element face 44
property list uchar int vertex_indices
end_header
-26 1 -10 -1.570796 1.570796 -4.712389 
-50 1 -10 -1.570796 1.570796 -1.570796 
-26 1 10 -1.570796 1.570796 4.712389 
-50 1 10 -1.570796 1.570796 1.570796 
-50 -1 10 -1.570796 -1.570796 1.570796 
-24 -1 10 1.570796 -1.570796 1.570796 
-26 31 10 -1.570796 1.570796 1.570796 
-24 29 10 1.570796 -1.570796 4.712389 
26 31 10 1.570796 1.570796 1.570797 
24 29 10 -1.570796 -1.570796 4.712389 
26 1 10 1.570796 1.570796 4.712388 
24 -1 10 -1.570796 -1.570796 1.570796 
50 1 10 1.570796 1.570796 1.570796 
50 -1 10 1.570796 -1.570796 1.570796 
-24 -1 -10 1.570796 -1.570796 -1.570796 
-50 -1 -10 -1.570796 -1.570796 -1.570796 
-24 29 -10 1.570796 -1.570796 -4.712388 
-26 31 -10 -1.570796 1.570796 -1.570797 
24 29 -10 -1.570796 -1.570796 -4.712389 
26 31 -10 1.570796 1.570796 -1.570796 
24 -1 -10 -1.570796 -1.570796 -1.570796 
26 1 -10 1.570796 1.570796 -4.712389 
50 -1 -10 1.570796 -1.570796 -1.570796 
50 1 -10 1.570796 1.570796 -1.570796 
3 0 1 2 
3 1 3 2 
3 3 4 2 
3 4 5 2 
3 2 5 6 
3 5 7 6 
3 6 7 8 
3 7 9 8 
3 8 9 10 
3 9 11 10 
3 10 11 12 
3 11 13 12 
3 5 4 14 
3 4 15 14 
3 15 1 14 
3 1 0 14 
3 14 0 16 
3 0 17 16 
3 16 17 18 
3 17 19 18 
3 18 19 20 
3 19 21 20 
3 20 21 22 
3 21 23 22 
3 17 0 6 
3 0 2 6 
3 7 5 16 
3 5 14 16 
3 19 17 8 
3 17 6 8 
3 9 7 18 
3 7 16 18 
3 15 4 1 
3 4 3 1 
3 13 22 12 
3 22 23 12 
3 12 23 10 
3 23 21 10 
3 22 13 20 
3 13 11 20 
3 11 9 20 
3 9 18 20 
3 21 19 10 
3 19 8 10 
