ply
format ascii 1.0
comment VCGLIB generated
element vertex 502
property float x
property float y
property float z
property float nx
property float ny
property float nz
element face 1000
property list uchar int vertex_indices
end_header
-17.13127 -20.23865 -3.487216 0.07475486 -0.05265625 -0.9958107 
18.63321 19.10271 -3.124317 0.3450615 -0.2729408 -0.8980178 
-15.76115 -20.99544 -2.984061 0.3651112 -0.2691078 -0.891221 
19.04255 18.80565 -2.812895 0.4652078 -0.3333366 -0.8200418 
-15.30809 -20.83824 -2.824086 0.5009177 -0.3822733 -0.7764977 
7.025948 4.086162 -2.303731 0.5784093 -0.4991365 -0.6452174 
8.144731 5.163713 -2.131319 0.5988557 -0.5164784 -0.6120637 
19.91312 18.26138 -1.629069 0.6838437 -0.5195686 -0.5122562 
-14.89389 -21.65973 -1.928241 0.6484698 -0.465889 -0.6020252 
10.60157 7.661432 -1.8076 0.6524404 -0.5649995 -0.5050713 
3.169581 -1.36243 -1.202508 0.6955733 -0.601815 -0.3924238 
20.23439 18.13334 -0.7234623 0.813651 -0.5503272 -0.187382 
19.80811 17.7316 -0.9668816 0.7279939 -0.6299763 -0.2704714 
-3.787016 -9.600755 -0.7326556 0.7403505 -0.6412704 -0.2016265 
19.92551 17.70284 -0.444068 0.7498474 -0.6487945 -0.1295942 
20.12432 17.90345 0.2463392 0.794072 -0.6043693 0.06471122 
19.97157 17.84058 0.7579336 0.7713348 -0.5923257 0.2327933 
19.93673 18.16633 1.466747 0.7560851 -0.5406955 0.3687597 
19.76216 18.19199 1.752909 0.689733 -0.5096347 0.5143354 
19.28359 17.88567 2.006024 0.6148964 -0.5321192 0.5820239 
19.57014 18.53795 2.279235 0.6243524 -0.4366589 0.6476983 
10.77955 9.260496 2.811349 -0.6285362 0.5522139 0.5477244 
18.30887 19.31491 3.290007 0.2744263 -0.2043525 0.9396437 
-17.34278 -20.4039 3.491617 0.1152277 -0.07967684 0.9901385 
16.73381 20.44345 -3.422544 -0.1678763 0.1268103 -0.9776178 
-13.18626 -13.6532 -3.345527 -0.2070585 0.179699 -0.9616835 
-9.793157 -8.333242 -2.910288 -0.4180351 0.3609946 -0.8336244 
-19.45332 -22.25224 3.497664 -0.02912511 0.02500931 0.9992629 
17.46687 20.61794 3.487485 -0.09150578 0.04712638 0.9946888 
16.92661 20.35321 3.460386 -0.1478709 0.1115901 0.9826912 
-18.05465 -19.68613 3.417093 -0.2093318 0.146639 0.9667871 
-0.4833393 0.8596506 3.374881 -0.2011382 0.1745252 0.9638902 
16.20043 20.70435 3.247477 -0.3113132 0.2247928 0.9233376 
15.59278 21.07724 2.871809 -0.4505933 0.4254419 0.7848344 
-5.906681 -3.7491 2.865077 -0.426745 0.3690938 0.8256261 
-13.19065 -11.64587 2.596954 -0.5190553 0.4489558 0.7273377 
6.130455 10.8462 2.484274 -0.5050381 0.4376487 0.7439087 
15.04956 21.31886 2.365028 -0.4468861 0.6047713 0.6592 
14.94314 21.34211 2.256185 -0.5566289 0.5536937 0.6193444 
-4.614048 -0.9700353 2.028432 -0.6280645 0.5436104 0.556797 
-5.783313 -2.089913 1.80116 -0.6481379 0.560407 0.5156174 
-4.975252 -0.9136733 1.500024 -0.6812122 0.5882742 0.4357561 
14.54589 21.88727 1.320755 -0.6751267 0.6287822 0.3857939 
14.27017 21.61868 0.9669719 -0.7232754 0.6245986 0.2945325 
14.37916 21.88991 0.5262381 -0.7473212 0.6496956 0.1393078 
13.27597 20.65783 0.2964098 -0.7491609 0.6578054 0.07778016 
14.20117 21.73935 0.1526695 -0.7008064 0.7111351 0.0561888 
14.19766 21.74113 -0.009662871 -0.7371789 0.6755283 0.0151278 
14.85747 22.75529 -0.5931031 -0.8511673 0.5200759 -0.07095957 
14.19109 21.71912 -0.2615888 -0.8044369 0.5892773 -0.07505703 
14.22526 21.72662 -0.456428 -0.7868638 0.6167992 0.02010144 
12.13287 19.25066 -0.6995714 -0.7671986 0.6330389 -0.1032865 
14.31201 21.68008 -0.9314462 -0.7389469 0.6263936 -0.2481701 
-15.50836 -12.90939 -1.245532 -0.7228402 0.6207778 -0.3035405 
14.7663 22.02733 -1.280568 -0.6969328 0.6027291 -0.3885902 
-19.88501 -18.10276 -1.461794 -0.6992193 0.5439623 -0.4638937 
-3.16094 1.081848 -1.631905 -0.6567847 0.5695313 -0.4942349 
15.16758 21.47751 -2.405082 -0.5916381 0.4321652 -0.6805863 
14.92913 21.34972 -2.23754 -0.5751685 0.4965456 -0.650095 
-8.124738 -5.434964 -2.362105 -0.5962697 0.5155981 -0.6153218 
-9.419408 -7.605539 -2.768891 -0.4655688 0.4025361 -0.788169 
-12.59056 -12.02495 -3.090458 -0.3777671 0.3279237 -0.8658857 
16.12979 20.67028 -3.23382 -0.3449673 0.223927 -0.9115121 
-0.9841035 0.6790028 -3.292236 0.1852801 -0.1613829 0.9693436 
-19.01553 30.00171 -3.334388 0.2628677 -0.4817659 -0.8359439 
-23.41964 30 0.9392904 -0.794693 -0.5674375 0.2155867 
-22.05634 29.99998 2.916008 -0.4888411 -0.5742417 0.6567198 
-19.83058 30 3.526144 0.006625861 -0.3441637 0.9388863 
-16.54709 30.00208 0.0273286 0.9187757 -0.3946755 -0.009077629 
-17.51745 30.00012 2.56819 0.3101541 -0.8931404 0.325737 
-17.61265 30.00002 -2.756183 0.4801246 -0.7419118 -0.4680248 
17.898 20.61469 3.500124 0.05040875 -0.02491535 0.9984178 
18.93668 19.03276 2.969248 0.4566278 -0.3372308 0.8232657 
-10.95012 -13.71209 -3.43158 0.1458316 -0.1271775 -0.9811009 
18.1907 19.67414 -3.391421 0.2106906 -0.1740926 -0.9619259 
-16.67567 -20.88841 -3.332944 0.2481288 -0.1697288 -0.9537422 
-0.159883 -2.165733 -3.251872 0.2890004 -0.2503905 -0.924004 
19.28986 18.67138 -2.586523 0.5702261 -0.3978399 -0.718725 
-8.147926 -13.25554 -2.431085 0.5445334 -0.4734691 -0.6923224 
-1.892676 -6.986063 -1.543079 0.6815726 -0.5911322 -0.4313023 
-14.158 -21.65117 -0.4518316 0.7491081 -0.6495905 -0.1298816 
5.724592 1.273884 -0.210141 0.7392278 -0.639389 0.2114807 
4.461531 -0.1947989 0.005208499 0.75547 -0.6541278 -0.03717316 
-14.49202 -21.90074 -0.90026 0.7811025 -0.5606518 -0.2748609 
-14.20633 -21.73751 0.2554579 0.7822075 -0.6230043 0.004127869 
12.21003 8.797804 0.4551821 0.7484007 -0.647965 0.1415548 
-14.42645 -21.87719 0.7604699 0.6881672 -0.6971418 0.2010455 
5.497265 1.191408 0.9254244 0.7250579 -0.6280559 0.282554 
6.088757 1.974918 1.140323 0.7165964 -0.6202679 0.3189944 
-14.49362 -21.67759 1.33492 0.7408075 -0.5568809 0.3756165 
-0.4613022 -5.341421 1.53181 0.6766696 -0.5861181 0.4456275 
-12.76888 -19.38158 1.742271 0.6511657 -0.5656304 0.5060095 
-5.195343 -10.45383 1.935605 0.6144244 -0.534004 0.5807946 
-3.679666 -8.498534 2.12368 0.6003994 -0.5199385 0.6076056 
11.25261 9.289676 2.526641 0.5064422 -0.4375147 0.7430324 
18.54125 19.22045 3.193579 0.3480263 -0.2057915 0.9146188 
-15.42764 -21.23389 2.690315 0.5401118 -0.3735525 0.754147 
18.18594 19.85307 3.419131 0.2259836 -0.1121648 0.9676521 
-15.46053 -20.30338 3.110998 0.3442172 -0.2432067 0.9068434 
-16.80865 -20.3096 3.4502 0.1575579 -0.1136745 0.9809453 
-5.210402 -7.516383 3.359743 0.1857332 -0.1623803 0.9690902 
21.09584 -29.99999 -3.378166 0.2188025 0.7119305 -0.6672933 
22.33586 -30.00011 3.108017 0.5891829 0.2395744 0.7716655 
17.8462 -30.00115 2.749982 -0.6782191 0.3874328 0.6244315 
20.6943 20.15338 -2.013392 0.7662815 -0.3584221 -0.5332414 
17.69466 19.78641 -3.474738 0.09963161 -0.05537599 -0.9934822 
22.60675 23.76394 0.9296382 0.9311106 -0.2521228 0.2635664 
21.30759 20.51378 1.262932 0.8190454 -0.381229 0.428753 
21.46506 20.1919 0.07237212 0.9013274 -0.4318017 0.03400342 
18.50455 25.02343 -3.378998 -0.2261298 0.05942513 -0.9722828 
15.72662 24.52555 0.8810692 -0.9233018 0.3336749 0.1901972 
17.2622 19.75339 -3.49854 -0.002275382 0.0204625 -0.999788 
23.57306 28.47457 0.0110923 0.9957052 -0.07066115 -0.05981709 
22.49751 23.37245 -0.9447863 0.9220983 -0.2607416 -0.2859172 
20.16597 30.53648 -3.522857 -0.03664671 -0.00709833 -0.9993031 
23.22608 34.47927 -0.1758804 0.9850667 0.1710487 -0.01964759 
23.04521 32.32494 -1.694137 0.8635315 0.07675322 -0.4984199 
22.19772 37.48681 1.059215 0.9050502 0.2972643 0.3041677 
16.63216 33.69404 -1.815687 -0.8162027 -0.1629731 -0.5543041 
16.55623 29.29254 -0.8293135 -0.9456915 0.01623109 -0.32466 
16.01038 25.31545 -1.239829 -0.9240125 0.2758158 -0.264814 
16.28639 32.39771 0.3578224 -0.9743102 -0.1854381 0.1277979 
16.77902 29.47488 1.349711 -0.9319238 0.07945472 0.353843 
15.22044 37.25161 -1.613396 -0.7726607 -0.387376 -0.5029266 
17.48168 22.72046 3.338698 -0.3403617 0.1169467 0.9329938 
18.11758 35.40695 3.3188 -0.3949055 -0.1270452 0.9098952 
19.47289 36.19301 3.509756 0.06909211 0.02157038 0.997377 
19.05277 28.12953 3.405491 -0.2805879 0.01613366 0.9596927 
23.00946 28.19357 1.868021 0.8724452 -0.05547125 0.4855536 
18.19983 31.51015 -3.079409 -0.5637316 -0.0252962 -0.8255706 
17.74894 35.5054 -3.161924 -0.4694592 -0.1501693 -0.8700903 
17.44461 25.96305 -2.74031 -0.6458091 0.1705509 -0.7442062 
16.55337 24.50975 2.428554 -0.670716 0.2357216 0.7032605 
17.72973 31.45337 2.79356 -0.6933046 -0.06879806 0.7173532 
17.84472 28.50235 2.814264 -0.6124276 0.072621 0.787184 
20.16937 25.38071 3.484348 0.1583982 -0.03970981 0.9865764 
17.74391 19.80421 3.471341 0.09900916 -0.07362953 0.9923587 
21.89705 28.52597 3.007623 0.5805608 -0.04291499 0.8130851 
21.38241 31.51247 3.286453 0.4292906 0.04616744 0.9019856 
20.92911 21.84801 2.64947 0.5989911 -0.2153208 0.771263 
21.15617 36.92093 2.762219 0.593217 0.1957201 0.7808889 
22.6159 33.68118 2.052611 0.8040332 0.112557 0.5838335 
21.71205 36.44301 -2.37757 0.7750229 0.2062583 -0.597325 
22.5377 27.2456 -2.410287 0.7628059 -0.07676838 -0.6420544 
21.52646 32.89939 -3.107137 0.4964309 0.06621571 -0.8655471 
20.74775 27.9283 -3.47431 0.2359371 -0.02618623 -0.9714154 
21.394 23.28324 -2.68774 0.6415933 -0.200727 -0.7403153 
19.17748 20.65047 -3.335698 0.3601991 -0.1685562 -0.9175213 
17.22991 40.59048 -3.515339 -0.003231369 0.01344076 -0.9999045 
20.21364 -42.26738 0.04663425 0.848079 -0.5294863 -0.02015606 
19.70421 -30.00001 3.49255 -0.081875 0.8318331 0.5489536 
-18.1332 -22.35027 3.495445 0.1833073 -0.07019208 0.9805466 
-20.25644 -18.0424 0.00369088 -0.8274022 0.5615875 0.005000698 
-18.61515 -19.19964 3.161673 -0.3467745 0.2498858 0.904049 
22.7659 -30.00144 -2.320137 0.7027969 0.3992997 -0.5887581 
23.70509 -30.00258 0.4109844 0.9074396 0.3744374 0.1906568 
17.35723 -30.00012 -2.332609 -0.5989647 0.6364967 -0.4859148 
16.74287 -31.44966 -1.530338 -0.9141631 0.1298884 -0.3839725 
16.50151 -30.00108 0.4285566 -0.7505969 0.6605735 0.01570922 
21.09064 -33.61272 -3.311641 0.3625849 -0.06237125 -0.9298613 
22.91996 -35.35543 -0.7825559 0.9486017 -0.2620645 -0.1774177 
17.99101 -33.59075 -3.097476 -0.5866753 0.1239111 -0.8002862 
19.48244 -30.00011 -3.488473 -0.1722861 0.413455 -0.8940763 
21.40048 -37.08394 -2.567736 0.6526387 -0.1934683 -0.7325523 
16.2668 -33.3394 1.154191 -0.9634404 0.2262783 0.1434591 
18.61754 -38.55408 -3.516963 0.1412803 -0.0592034 -0.9881977 
17.85545 -36.83057 -3.380631 -0.2789405 0.09491517 -0.9556063 
20.80183 -34.22745 3.371573 0.4332832 -0.1178074 0.8935251 
15.79236 -36.16999 -1.67304 -0.8240871 0.3414973 -0.4519514 
15.7071 -36.50958 1.766521 -0.7860829 0.3106946 0.5343618 
14.71159 -37.35245 -0.04601496 -0.8902803 0.4540134 0.03567608 
20.78442 -40.24841 -1.603558 0.7987132 -0.3950779 -0.4538398 
15.97274 -38.46262 -2.929717 -0.4805689 0.2495195 -0.8407101 
20.58005 -41.32259 0.9736866 0.8321611 -0.4462453 0.3292005 
19.49807 -40.11623 -3.022011 0.5179883 -0.2853717 -0.8063814 
15.01809 -39.9917 2.896614 -0.4506865 0.2891994 0.8445385 
14.32632 -41.86468 -3.215223 -0.382496 0.3106731 -0.8701603 
12.72887 -41.04542 1.544654 -0.7116141 0.5597114 0.4246509 
12.56875 -41.18204 -1.466025 -0.6868668 0.601531 -0.4078905 
17.61356 -45.04005 -1.772354 0.6619626 -0.5684163 -0.4885779 
22.20814 -31.83875 2.759949 0.7691643 -0.1530041 0.6204644 
20.26374 -39.72983 2.64425 0.6043203 -0.272386 0.7487342 
14.93004 -42.74157 -3.47093 -0.1546616 0.1340261 -0.9788344 
9.920374 -47.55696 -3.542574 0.01770711 -0.009975716 -0.9997935 
16.53083 -46.80139 0.1530197 0.6957367 -0.7180967 0.01695874 
15.88947 -44.54794 -3.29974 0.2817489 -0.2767214 -0.918718 
11.17698 -43.59943 -2.580158 -0.3858114 0.5172054 -0.7639687 
12.7557 -49.75622 -0.9557943 0.5380093 -0.7934842 -0.2844796 
22.3423 -36.21283 1.650985 0.8475647 -0.2254514 0.4804225 
17.89927 -43.23061 2.837206 0.5066171 -0.3952891 0.7662152 
13.39164 -48.33641 -2.328238 0.4378859 -0.6120698 -0.6585031 
12.35517 -49.96058 0.8374869 0.5330527 -0.8062341 0.2565956 
12.24766 -44.15014 3.287048 -0.273245 0.3518756 0.895277 
7.975996 -46.56396 -3.102149 -0.2123357 0.4287698 -0.8781059 
14.29957 -47.75568 2.274292 0.4619215 -0.5873056 0.6646056 
7.212765 -47.54795 3.345737 -0.08736075 0.2129831 0.9731425 
7.132176 -46.48581 2.789482 -0.2572515 0.6158986 0.7446411 
8.381709 -44.40358 1.138253 -0.509819 0.7871016 0.3472112 
6.098021 -46.29665 -2.254993 -0.2956754 0.7318687 -0.6139579 
8.07909 -49.44821 3.437869 0.0791205 -0.2298955 0.9699939 
5.763903 -45.7654 1.472466 -0.2850086 0.8624122 0.4183483 
16.45313 -46.43515 1.447184 0.6756068 -0.6344492 0.3755392 
9.637937 -49.77413 -2.954141 0.220009 -0.4410544 -0.870096 
8.537651 -44.4534 -1.462264 -0.4617786 0.8258777 -0.323553 
8.372896 -51.12636 -2.28551 0.3091945 -0.7555404 -0.5775443 
9.114539 -51.83652 -0.2166852 0.3655074 -0.9305225 0.02306755 
2.914134 -50.70266 3.453691 0.02984149 -0.1976176 0.9798248 
3.85049 -53.0293 -1.253518 0.1741648 -0.9154346 -0.3628307 
1.457142 -48.66677 3.282679 -0.05053151 0.4213804 0.9054751 
3.797029 -46.03893 -0.2456058 -0.2474562 0.9494727 -0.1930463 
4.218723 -51.78569 -2.842816 0.1355419 -0.6004222 -0.7881127 
1.436095 -52.36048 -2.647449 0.01794166 -0.6643326 -0.7472217 
6.753637 -51.87234 2.158863 0.2048954 -0.7186868 0.6644599 
-1.854458 -46.51552 -0.8211417 0.0778317 0.9916396 -0.1029219 
6.682421 -45.56359 -1.67415 -0.3867369 0.7449632 -0.5435663 
5.02089 -49.95332 -3.515721 0.03293597 -0.1830146 -0.9825583 
0.494352 -47.13422 -2.018769 -0.009823529 0.7954516 -0.6059374 
2.031507 -48.44241 -3.192298 -0.05853178 0.4071516 -0.9114832 
0.1312263 -53.52526 -0.7775975 -0.02109312 -0.9860179 -0.1652992 
1.412191 -47.03513 1.966206 -0.05795072 0.8777025 0.4756891 
0.1572328 -52.0416 2.92626 0.01538584 -0.6409206 0.767453 
-4.877164 -51.07327 -3.251286 -0.08936314 -0.4112177 -0.9071462 
3.820555 -53.07116 1.28151 0.1455906 -0.9447513 0.2936807 
18.36204 -39.49878 3.490674 0.1638718 -0.08892161 0.9824657 
9.608397 -50.56388 2.387895 0.3380387 -0.6789576 0.6517256 
-5.712564 -49.26913 3.530377 -0.01269299 -0.007120169 0.9998941 
-4.584266 -52.29961 -2.298553 -0.1509231 -0.7814527 -0.605437 
-5.766768 -47.89557 3.247512 0.1234819 0.4694257 0.874295 
-1.785811 -46.77398 1.62902 0.1531921 0.8931543 0.4228564 
-5.464332 -48.14683 -3.302725 0.1031862 0.3650161 -0.9252653 
-4.252755 -52.72815 1.836262 -0.1515783 -0.8635269 0.4809837 
-4.583601 -53.15987 -0.4156667 -0.2283348 -0.9727386 -0.04053322 
-4.504323 -45.82473 0.3070321 0.2996134 0.9532889 0.03836668 
-4.903821 -49.69736 -3.540428 0.0005970327 0.0289418 -0.9995809 
-4.975535 -46.6334 -2.351348 0.2261709 0.7811177 -0.581981 
-4.982251 -50.56132 3.359439 -0.09920006 -0.4030296 0.9097947 
-5.748366 -46.43339 2.389832 0.2888063 0.7350278 0.6134533 
-1.133124 -53.24001 1.464729 -0.02996673 -0.9244009 0.3802433 
17.1813 -35.83943 2.986588 -0.5194211 0.1673857 0.8379641 
17.18086 -38.43866 3.407188 -0.2709377 0.1246565 0.9544912 
11.49506 -47.24992 3.536484 0.08142271 -0.1314108 0.9879785 
-10.52894 -51.17713 0.2919689 -0.4523607 -0.8917494 0.01235875 
-10.85307 -44.17506 2.72622 0.3997916 0.5080053 0.762953 
-7.687193 -51.88038 -1.550216 -0.3185679 -0.8543251 -0.410662 
-9.366744 -50.81666 2.28326 -0.3237205 -0.774584 0.5433457 
-7.947892 -44.51402 0.7984148 0.4571927 0.8481823 0.2675103 
-11.37291 -46.22251 3.575649 0.01526368 0.04114765 0.9990364 
-15.59592 -46.91506 1.945588 -0.5713261 -0.6034483 0.5562704 
-11.89031 -49.96085 -1.536155 -0.4802981 -0.7809428 -0.3993019 
-14.28137 -48.62566 0.9278193 -0.5771272 -0.7516186 0.3193648 
-16.42462 -46.92987 -0.4585867 -0.6607031 -0.7290425 -0.1787975 
-11.40279 -42.04771 0.9330279 0.7027556 0.685989 0.1885571 
-13.90551 -39.79136 1.775585 0.7046216 0.5047646 0.4987195 
-18.39902 -43.85393 -1.948063 -0.7149642 -0.5411713 -0.4426736 
-16.76818 -41.19594 3.567199 -0.03488968 -0.001253995 0.9993904 
-18.6183 -41.90935 -2.906333 -0.5261686 -0.3336226 -0.7822036 
-14.81231 -37.46026 -0.07602495 0.9000435 0.4276954 0.08365545 
-10.55946 -49.89454 -2.572387 -0.2948606 -0.6042739 -0.7402096 
-18.89324 -43.9611 0.9384463 -0.7672185 -0.5854754 0.2619052 
-20.89822 -40.6872 -1.044435 -0.8499924 -0.4635132 -0.2503365 
-15.24398 -39.80279 2.962511 0.4413276 0.2803493 0.8524284 
-14.14186 -39.06778 -1.224061 0.7611372 0.5190004 -0.3889842 
-16.06269 -35.99113 2.215653 0.6865044 0.2531656 0.6816296 
-22.07327 -38.26539 0.08844584 -0.9421408 -0.3324513 -0.04297606 
-21.10646 -38.94498 -2.135971 -0.7710235 -0.2869598 -0.5684865 
-22.94883 -34.83191 0.9838344 -0.9205992 -0.2180232 0.3239797 
-11.57121 -48.91034 2.940683 -0.2936429 -0.4519141 0.8423464 
-17.06081 -43.84749 3.004963 -0.4097011 -0.3541453 0.84067 
-15.77396 -43.85865 -3.396513 -0.1904816 -0.1637568 -0.9679362 
-19.57343 -34.38102 3.542382 0.08282098 0.02199535 0.9963217 
-18.2593 -33.13825 3.209136 0.43286 0.03811741 0.900655 
-21.05486 -36.6666 2.943888 -0.5544025 -0.1694734 0.8148108 
-18.96486 -41.6176 2.801827 -0.5498596 -0.3270615 0.7685605 
-16.32449 -32.28861 0.2794706 0.9884496 0.1437555 -0.04797629 
-16.945 -32.29181 1.852857 0.85323 0.1017211 0.5115186 
-20.2441 -31.91363 -3.523599 0.006084736 -0.01348721 -0.9998906 
-22.35943 -33.89599 -2.416907 -0.6989645 -0.1297425 -0.703289 
-22.98344 -29.24251 -2.019219 -0.8320394 0.0297221 -0.5539197 
-21.55488 -30.14739 3.208291 -0.4430142 0.003904165 0.8965061 
-21.05517 -39.84511 1.48142 -0.8352904 -0.3889612 0.388586 
-23.01386 -31.53253 1.961028 -0.8617303 -0.04581461 0.5052938 
-19.6199 -37.56636 -3.386499 -0.3090096 -0.1150061 -0.9440798 
-18.40093 -28.02117 3.198367 0.4837705 -0.05109167 0.8737023 
-16.38541 -29.13436 -0.1394128 0.9971858 -0.07418515 -0.01081821 
-23.27406 -33.49648 -0.74997 -0.9763231 -0.1395175 -0.1653123 
-22.29629 -25.73159 2.318045 -0.7238793 0.1222134 0.6790159 
-20.04584 -26.21833 3.520618 -0.01994752 0.0123967 0.9997241 
-17.40414 -24.43976 3.031327 0.5611765 -0.2262966 0.79616 
-10.3906 -47.78676 -3.510592 -0.08244725 -0.1298956 -0.9880939 
-22.70699 -23.69794 -0.336174 -0.9577498 0.2857593 -0.03250992 
-21.64937 -25.5139 -2.87624 -0.59987 0.1262094 -0.7900805 
-19.91674 -22.64252 -3.347643 -0.3050264 0.1142254 -0.9454689 
-22.55722 -24.97141 -1.753829 -0.8722015 0.2033305 -0.4448835 
-14.40117 -43.63099 -3.519918 0.08122618 0.06692587 -0.9944462 
-10.82731 -45.60769 -3.348568 0.2102522 0.2631081 -0.9415775 
-21.59514 -20.70949 -0.6307384 -0.8987663 0.3920781 -0.1961986 
-16.27019 -25.4347 1.55983 0.8510475 -0.2210184 0.4763077 
-23.42348 -26.94251 0.5110121 -0.9909611 0.1035338 0.0853044 
-20.44074 -23.13215 3.21714 -0.406087 0.1424206 0.9026681 
-15.28269 -21.63294 2.345562 0.6246055 -0.439908 0.645251 
-22.33623 -23.68044 1.673151 -0.8778438 0.263379 0.4000273 
-18.11397 -37.5984 -3.490691 0.1959926 0.08001319 -0.9773356 
-17.88832 -20.19646 -3.487146 -0.08739626 0.05103622 -0.9948654 
-20.77548 -20.46944 -2.165895 -0.7215657 0.3508341 -0.5968738 
-21.02394 -19.60353 0.8255251 -0.8768551 0.4107471 0.249824 
-20.90927 -21.23851 2.35593 -0.7034024 0.3048001 0.642123 
-9.320247 -44.13492 -1.592738 0.5078161 0.771868 -0.3825474 
-18.19084 -19.67349 -3.390109 -0.232572 0.1470648 -0.961396 
-18.66558 -19.32822 -3.183022 -0.398438 0.2681764 -0.8771138 
-18.02292 -20.32202 3.485444 -0.1027613 0.05871377 0.9929717 
-15.75522 -24.74211 -0.7298398 0.937165 -0.3275398 -0.1201642 
-17.17755 -29.45795 -2.032848 0.8659834 -0.04497732 -0.498046 
-16.65357 -34.28383 -2.207585 0.7840939 0.220975 -0.5799716 
-12.53792 -42.48386 -2.608527 0.4797193 0.4597838 -0.7473074 
-9.643178 -45.19302 -2.888907 0.3011087 0.5156901 -0.8021204 
-15.90885 -38.11293 -2.770471 0.5115237 0.2982803 -0.8058364 
-16.33106 -24.69299 -2.024535 0.7642753 -0.2589484 -0.5906174 
-16.79593 -22.92598 -3.03164 0.4738353 -0.2090695 -0.8554356 
-18.52346 -28.20788 -3.176119 0.4842663 -0.03544053 -0.8742025 
-15.61785 -39.76244 -3.087085 0.3401393 0.2607951 -0.9034883 
-15.01453 -46.76212 -2.626296 -0.4519458 -0.5082655 -0.7330834 
-21.20612 -31.23339 -3.363585 -0.3569945 -0.006969057 -0.9340804 
-18.58782 -23.53317 -3.490804 0.09586632 -0.03772192 -0.9946792 
-6.220611 -3.651413 -2.629397 -0.4859358 0.4203565 -0.7662681 
16.67687 19.38013 -3.500333 -0.04027076 0.04219078 -0.9982977 
-6.618422 -6.860341 -3.463356 -0.1342368 0.1158106 -0.9841587 
-18.36754 -17.01402 -2.170834 -0.6389918 0.5043386 -0.580803 
-7.083697 -3.800015 -2.007824 -0.6326249 0.5470641 -0.5481849 
-4.804945 -0.9777185 -1.819135 -0.6452885 0.5588059 -0.5209019 
-19.83232 -17.80057 -1.052516 -0.7163584 0.6172656 -0.3252905 
-20.15894 -18.03264 -0.6924272 -0.7926407 0.5670739 -0.2239372 
-20.50768 -18.34723 0.2604225 -0.75402 0.6501368 0.09368019 
-19.97213 -17.7271 -0.2539255 -0.7587252 0.6462105 -0.08214734 
-18.68483 -16.28928 0.531737 0.05261134 -0.1078716 0.9927718 
-9.77589 -6.078953 0.7935088 -0.7228262 0.6223972 0.30024 
-20.07679 -18.08617 1.060535 -0.7484775 0.5864623 0.309586 
-7.040381 -3.120141 1.224315 -0.723146 0.6246504 0.2947402 
-6.484569 -2.559219 1.357652 -0.6923068 0.597317 0.404875 
-19.91926 -18.26281 1.622129 -0.7343109 0.4952287 0.4642587 
-19.65629 -18.47026 2.143847 -0.6267508 0.4620114 0.6274782 
-19.36937 -18.42093 2.362874 -0.5574023 0.4825204 0.6756306 
-14.44534 -14.06505 3.054154 -0.3873622 0.334548 0.8590856 
-15.42021 -16.05648 3.308662 -0.2440387 0.2096216 0.9468389 
-19.42472 -18.7045 -2.511043 -0.5529405 0.4331354 -0.7117938 
-19.1832 -18.77241 2.712406 -0.4954835 0.3534411 0.7934579 
20.74621 37.98017 -2.7892 0.5955467 0.2426121 -0.7658091 
21.71653 38.70845 -1.119258 0.8912561 0.3629949 -0.2718406 
21.25809 39.45856 1.473274 0.8445039 0.3897402 0.3673089 
19.89698 36.7485 -3.406971 0.2813491 0.0983216 -0.9545552 
19.69273 41.89897 -1.893054 0.7287176 0.4230736 -0.5384973 
20.54042 41.56702 -0.2525921 0.8726519 0.4829958 -0.07206684 
15.61819 39.6837 3.107472 -0.419539 -0.2650093 0.8681918 
15.73662 37.19792 2.197111 -0.7071764 -0.3244144 0.6282172 
15.03154 40.58283 -3.133995 -0.3645267 -0.24628 -0.8980348 
18.8914 43.82634 1.215046 0.7703274 0.5491418 0.3240969 
19.31846 41.02735 2.74521 0.5864123 0.3407996 0.7348307 
18.41025 40.30075 3.363276 0.2995189 0.1652076 0.9396781 
15.05222 36.93778 0.5814216 -0.887983 -0.435274 0.1484011 
18.11467 41.85363 -3.145882 0.4184613 0.2627962 -0.8693839 
17.6405 44.66034 -2.071246 0.6125025 0.5475019 -0.57016 
13.0676 41.90652 -2.716616 -0.4997628 -0.4581774 -0.7350583 
18.92015 43.8801 -0.861632 0.7876073 0.5795379 -0.2093099 
18.14765 44.08644 1.962504 0.6110248 0.4742177 0.6338504 
15.72488 44.99446 3.124767 0.3604831 0.3403545 0.868453 
13.39724 39.82395 0.9641271 -0.7341164 -0.5704687 0.3682915 
12.31557 41.12898 -0.7665242 -0.7563471 -0.6264036 -0.1885673 
11.24746 42.08044 0.4609939 -0.6791866 -0.7269439 0.1012827 
15.80255 44.74593 -3.182518 0.31233 0.2940536 -0.9033174 
14.86977 42.40641 3.445853 -0.1981052 -0.1185843 0.972981 
9.551285 43.91524 -1.496091 -0.5117859 -0.8106188 -0.2845566 
16.92701 46.47208 0.1319456 0.7030404 0.7107746 0.02309992 
12.42832 43.84775 3.220376 -0.3555568 -0.3334604 0.8731458 
14.28446 44.54951 3.503585 0.01447776 0.01506772 0.9997817 
9.703766 44.81043 -2.678969 -0.319549 -0.5193879 -0.7925431 
13.17199 45.3215 -3.560635 -0.04276737 -0.03692365 -0.9984025 
15.94333 46.56115 1.947809 0.5813463 0.6141239 0.5337494 
12.49841 48.41053 2.752961 0.3619269 0.5243129 0.7707819 
9.243377 48.69332 3.455807 0.08157016 0.1525407 0.9849253 
11.52499 42.79202 2.02744 -0.4900468 -0.6323447 0.5999954 
12.61519 48.46119 -2.741159 0.3744004 0.5438434 -0.7510384 
13.93439 48.93301 -0.8165184 0.5796809 0.7718695 -0.2611277 
12.08718 50.034 1.254148 0.5010198 0.7972153 0.3367891 
8.819659 43.95928 0.6418204 -0.526983 -0.8288804 0.1877396 
5.201504 48.40634 -3.383076 -0.09491179 -0.3490686 -0.9322783 
9.196976 48.705 -3.452179 0.1281886 0.2463717 -0.9606605 
10.86463 45.11132 3.274159 -0.2025596 -0.3172252 0.9264653 
10.1914 51.12363 -0.9605057 0.4173245 0.8818084 -0.2196686 
9.019985 50.40632 2.718864 0.2853317 0.6117686 0.7377838 
6.670013 47.75557 3.371123 -0.1304622 -0.3402527 0.9312398 
5.732001 45.56068 0.6959627 -0.3535998 -0.902339 0.2464783 
8.362411 51.18495 -2.270172 0.2890444 0.6806742 -0.6731538 
6.894712 45.93616 2.340452 -0.3348225 -0.6942583 0.6371024 
5.045506 46.32565 -2.014303 -0.2436446 -0.7757924 -0.582051 
6.400085 52.40365 -1.340914 0.2285139 0.8829341 -0.4101327 
8.213699 51.82123 1.373434 0.3258184 0.8760768 0.3554322 
3.822821 46.04316 0.1455019 -0.2363493 -0.9716049 0.01108696 
4.042471 49.61053 -3.51221 0.0262698 -0.06320133 -0.997655 
6.180453 51.58298 2.613941 0.1728036 0.6207681 0.7647129 
6.758706 50.99495 -2.930807 0.155842 0.5466426 -0.8227364 
5.890321 52.79923 0.03989642 0.2606677 0.9654229 0.003322784 
1.540035 47.26316 -2.34132 -0.1053689 -0.7252472 -0.6803777 
3.682456 50.86863 3.34071 0.07014329 0.3023375 0.9506167 
3.025541 51.37016 -3.192276 0.05039088 0.4162824 -0.9078379 
2.161002 52.76967 -2.110621 0.08804103 0.7731062 -0.6281366 
3.565635 53.06573 1.271247 0.1433989 0.9093004 0.3906526 
0.2374831 53.49807 0.7290195 -0.007203397 0.9755782 0.2195339 
3.008152 47.02339 2.2589 -0.1562273 -0.7961797 0.5845434 
3.19827 48.46296 3.288083 -0.04527763 -0.3834814 0.9224381 
0.1809601 52.9713 1.923158 0.0100272 0.8195264 0.5729536 
0.6953729 46.78688 -1.333526 -0.06300519 -0.9131432 -0.4027404 
1.597775 53.50286 -0.5135682 0.08026396 0.9831722 -0.1641038 
2.292952 51.66214 3.135504 0.04377681 0.5112258 0.8583308 
-0.7238497 52.93843 -1.99062 -0.04369067 0.8551958 -0.5164604 
-3.68681 52.88501 1.63814 -0.1399316 0.879716 0.4544435 
-2.004447 49.85506 3.525822 0.01264095 -0.06694346 0.9976767 
-0.7374176 48.01742 -2.891386 0.006323083 -0.6127633 -0.7902412 
-1.910236 51.95672 2.908339 -0.05914814 0.5908915 0.8045799 
-1.218818 48.52158 3.171648 0.02944892 -0.4192267 0.9074039 
-1.959534 51.855 -2.980216 -0.04675952 0.5646365 -0.824014 
-1.219808 47.30424 2.321905 0.05441988 -0.7660434 0.640481 
-0.7295329 46.51015 0.169915 0.06493255 -0.9953449 0.07121934 
-4.766267 46.52916 -2.082819 0.1984615 -0.7731346 -0.6023919 
-2.709483 50.52925 -3.450859 -0.02208094 0.2204559 -0.9751469 
-5.640807 52.31373 -1.95728 -0.188219 0.7986243 -0.5716406 
-3.07583 53.33653 -0.379223 -0.1367454 0.9853485 -0.1019262 
-7.855443 52.21817 0.5036866 -0.3391084 0.9302229 0.1403242 
-5.799003 47.2479 3.045116 0.144849 -0.5224437 0.8402805 
-7.466125 52.28666 -0.7972921 -0.3259836 0.9178131 -0.2266136 
-6.023965 51.23891 2.880639 -0.1523121 0.5854124 0.7962997 
-3.36855 46.36048 1.188382 0.2286438 -0.8918716 0.3902396 
-4.414208 47.87988 -3.140379 0.0965552 -0.4862974 -0.8684422 
-7.110278 51.90582 1.878332 -0.2683443 0.773623 0.5740198 
-7.939789 46.85961 -3.233627 0.2039523 -0.4174616 -0.8855107 
-7.480721 50.19247 -3.255217 -0.1519428 0.4246349 -0.8925238 
-8.909024 49.83891 3.091686 -0.2139023 0.4725221 0.854967 
-5.291853 50.10839 3.442315 -0.04592644 0.2242417 0.9734508 
-7.82768 48.45406 -3.519113 0.01712924 -0.05566926 -0.9983023 
-10.00833 50.67552 -2.000066 -0.3534594 0.716562 -0.6013363 
-8.579021 47.25352 3.44372 0.1025498 -0.2150234 0.9712098 
-6.317918 45.3794 1.00009 0.409785 -0.8745484 0.2593094 
-12.97799 49.6023 -0.6932104 -0.5374755 0.8280926 -0.1593195 
-12.17703 50.16702 0.3895949 -0.505246 0.8472422 0.164034 
-6.473056 45.34602 -0.9789969 0.3579313 -0.9090216 -0.2134591 
-10.85726 50.1917 1.990329 -0.3909069 0.7384999 0.5493721 
-12.42085 48.10191 2.958686 -0.3162986 0.4576891 0.8309488 
-10.75497 42.55738 -0.551614 0.6250576 -0.7759816 -0.0845909 
-8.808384 45.05326 -2.390743 0.4146995 -0.6445706 -0.6423029 
-14.63079 47.99529 1.645146 -0.5672096 0.7047657 0.4261205 
-8.799222 45.46874 2.747486 0.3332115 -0.614888 0.7147607 
-13.1994 43.64182 -3.3204 0.2483241 -0.2866344 -0.9252977 
-15.05588 43.42845 -3.525374 0.04774593 -0.02246203 -0.9986069 
-12.0686 41.7059 -1.448358 0.6601459 -0.6260018 -0.4151253 
-12.08308 43.96557 3.155125 0.2843639 -0.3339334 0.8986799 
-9.594196 43.73854 1.276094 0.5325644 -0.7331941 0.4228492 
-12.71521 47.31065 -3.233359 -0.2333949 0.3418913 -0.9102951 
-10.04212 47.52742 3.527731 -0.02375318 0.05523211 0.998191 
-13.71566 48.16845 -2.24335 -0.4798802 0.6127976 -0.6278489 
-16.16535 46.93676 -1.06207 -0.6607259 0.6932138 -0.2879165 
-12.87417 40.95129 1.624995 0.6728103 -0.5968212 0.4371848 
-17.01545 45.54417 -1.781108 -0.6268283 0.5667833 -0.5346427 
-11.27993 43.18896 2.304108 0.4960832 -0.5583246 0.6649625 
-18.68673 42.93434 -2.336987 -0.6729191 0.4582852 -0.58065 
-16.36839 46.89698 0.2997527 -0.6880064 0.7202654 0.08868425 
-15.78269 45.55438 2.830701 -0.4649952 0.4607469 0.7559707 
-19.14722 43.7641 -0.2274272 -0.797269 0.5949202 -0.1021371 
-17.6814 45.02024 1.5716 -0.6827837 0.5761314 0.4493096 
-14.83134 45.4248 3.269816 -0.266449 0.2718472 0.9247183 
-14.35524 40.72617 2.838865 0.4916042 -0.3796887 0.7836848 
-18.36032 42.33023 2.824684 -0.4916847 0.3322337 0.8049018 
-12.92024 42.17745 -2.641538 0.4953275 -0.4454476 -0.7458064 
-15.79515 39.0611 -3.025204 0.4697824 -0.2696999 -0.840575 
-16.4264 44.2581 -3.127949 -0.3822549 0.3275717 -0.8640473 
-16.20963 42.77384 3.4912 -0.1266099 0.0953731 0.9873571 
-15.62024 41.15863 3.406344 0.230845 -0.1668471 0.9585785 
-15.04049 38.37493 2.145636 0.7191148 -0.3877336 0.5766597 
-14.70986 38.28623 -1.665802 0.778801 -0.4525322 -0.4343772 
-20.26007 41.54591 1.436803 -0.8369871 0.4500311 0.3113273 
-20.93484 40.56209 -0.8675337 -0.860127 0.439378 -0.2590916 
-18.96388 35.19518 3.48726 0.1672868 -0.05957848 0.9841064 
-13.39979 39.51009 0.1284517 0.7990976 -0.6000545 0.03711463 
-21.03896 38.53423 2.364934 -0.6810672 0.2810789 0.676123 
-19.1841 38.64603 3.39344 -0.3070856 0.1417322 0.9410687 
-20.49542 38.92684 -2.697824 -0.6152232 0.277333 -0.7379613 
-14.80539 37.29801 0.2502771 0.9000999 -0.4261214 0.09077884 
-16.33332 35.53794 -2.202971 0.7447777 -0.2812863 -0.6051316 
-17.24838 36.24516 -3.102627 0.4420292 -0.1593245 -0.8827378 
-22.4366 36.98227 0.6386706 -0.9291407 0.3020779 0.2131819 
-17.1026 37.068 3.15114 0.4413413 -0.2298464 0.8674033 
-21.94804 34.36766 -2.718752 -0.7142631 0.1472376 -0.6842144 
-22.16604 37.60956 -0.9859253 -0.9138067 0.318521 -0.2519956 
-22.34475 35.18692 2.037559 -0.8049209 0.1743319 0.5671955 
-20.86304 36.02242 3.101825 -0.5285196 0.1581683 0.8340563 
-16.58148 33.5351 1.62011 0.8899318 -0.2342108 0.3913651 
-15.80756 34.75667 -0.1248088 0.950184 -0.2861601 -0.1235428 
-23.38347 33.05485 -0.299804 -0.988276 0.1495182 -0.03090005 
-16.98679 35.13514 2.662749 0.5802302 -0.1712345 0.7962485 
-16.77814 33.13408 -1.926916 0.7848138 -0.1308976 -0.6057501 
-22.90787 32.00471 1.977826 -0.8317955 0.08015808 0.5492639 
-20.94578 34.11195 3.319047 -0.3969718 0.0662394 0.9154375 
-19.30085 37.10037 -3.527387 -0.1596671 0.05459395 -0.9856601 
-22.12767 30.00011 -2.95585 -0.3622873 -0.5550727 -0.7487604 
-23.25503 30.00113 -1.599618 -0.7792267 -0.5285551 -0.3368016 
3 72 96 94 
3 111 105 0 
3 105 74 73 
3 75 74 76 
3 74 1 76 
3 1 3 2 
3 3 77 4 
3 78 77 5 
3 77 104 7 
3 77 7 5 
3 5 7 6 
3 6 7 8 
3 8 7 9 
3 79 7 10 
3 7 11 10 
3 10 11 12 
3 13 11 14 
3 14 11 81 
3 81 11 82 
3 82 11 15 
3 85 15 16 
3 87 16 88 
3 16 17 88 
3 17 18 90 
3 92 18 19 
3 19 18 93 
3 93 18 20 
3 20 72 94 
3 96 72 21 
3 98 72 95 
3 22 97 100 
3 97 136 99 
3 136 71 23 
3 72 20 139 
3 105 111 147 
3 11 108 15 
3 108 16 15 
3 16 108 17 
3 108 107 17 
3 107 18 17 
3 107 20 18 
3 302 325 324 
3 307 25 24 
3 61 26 57 
3 28 27 71 
3 309 28 29 
3 32 31 29 
3 31 30 29 
3 342 31 32 
3 341 153 32 
3 32 33 341 
3 35 344 33 
3 35 33 36 
3 33 37 36 
3 37 42 38 
3 38 42 339 
3 339 42 39 
3 39 42 40 
3 40 42 41 
3 41 42 337 
3 337 42 336 
3 336 42 43 
3 43 42 334 
3 334 42 44 
3 44 42 45 
3 45 42 46 
3 46 42 47 
3 42 48 47 
3 47 48 49 
3 49 48 50 
3 50 48 51 
3 51 48 52 
3 52 48 53 
3 53 48 54 
3 54 48 55 
3 55 48 56 
3 48 57 56 
3 56 57 328 
3 328 57 327 
3 327 57 326 
3 326 57 58 
3 58 57 59 
3 323 343 57 
3 57 343 59 
3 323 57 60 
3 60 57 26 
3 57 62 61 
3 61 62 308 
3 33 42 37 
3 63 62 25 
3 24 25 62 
3 325 24 324 
3 500 64 69 
3 501 500 69 
3 69 65 501 
3 66 65 69 
3 67 66 69 
3 70 68 69 
3 69 64 70 
3 95 22 98 
3 21 72 96 
3 324 111 0 
3 105 73 0 
3 0 73 75 
3 73 74 75 
3 75 76 2 
3 76 1 2 
3 77 78 4 
3 4 78 8 
3 78 5 8 
3 5 6 8 
3 9 79 8 
3 8 79 83 
3 79 10 83 
3 13 80 83 
3 80 81 83 
3 81 82 83 
3 82 84 83 
3 85 86 84 
3 84 86 89 
3 86 87 89 
3 87 88 89 
3 90 91 89 
3 91 92 89 
3 89 92 299 
3 92 93 299 
3 93 20 299 
3 299 20 94 
3 316 8 83 
3 83 84 310 
3 84 89 310 
3 4 8 317 
3 310 89 296 
3 2 4 317 
3 89 299 296 
3 96 299 94 
3 96 98 287 
3 72 98 96 
3 97 99 98 
3 100 97 98 
3 22 100 98 
3 136 23 99 
3 151 99 23 
3 101 162 150 
3 154 101 150 
3 150 155 154 
3 102 155 150 
3 158 103 150 
3 156 158 150 
3 162 156 150 
3 77 3 147 
3 3 1 147 
3 1 74 147 
3 57 48 120 
3 42 33 132 
3 7 104 11 
3 104 108 11 
3 57 120 131 
3 62 57 131 
3 108 104 113 
3 139 107 106 
3 104 146 113 
3 62 131 109 
3 106 112 128 
3 24 62 109 
3 114 109 129 
3 132 122 110 
3 24 109 111 
3 106 113 112 
3 112 143 116 
3 324 24 111 
3 111 109 145 
3 109 114 145 
3 128 112 115 
3 112 116 115 
3 128 115 141 
3 112 113 143 
3 117 141 115 
3 113 106 108 
3 108 106 107 
3 115 116 142 
3 146 143 113 
3 122 133 121 
3 133 352 121 
3 346 115 142 
3 129 109 131 
3 129 119 118 
3 120 119 131 
3 131 119 129 
3 118 121 123 
3 119 121 118 
3 121 357 123 
3 119 122 121 
3 48 110 120 
3 110 122 120 
3 42 110 48 
3 122 119 120 
3 357 121 352 
3 132 134 122 
3 132 32 124 
3 127 125 133 
3 28 71 135 
3 127 135 126 
3 141 117 140 
3 20 107 139 
3 139 106 128 
3 117 115 346 
3 148 114 130 
3 114 129 130 
3 130 129 118 
3 42 132 110 
3 134 133 122 
3 134 132 124 
3 133 125 352 
3 133 134 127 
3 32 132 33 
3 32 29 124 
3 124 127 134 
3 29 28 124 
3 28 127 124 
3 127 126 125 
3 135 127 28 
3 135 71 97 
3 97 71 136 
3 135 138 126 
3 356 126 140 
3 137 138 135 
3 139 135 97 
3 139 97 95 
3 97 22 95 
3 126 138 140 
3 135 139 137 
3 139 95 72 
3 141 140 138 
3 141 138 137 
3 128 141 137 
3 137 139 128 
3 117 347 140 
3 143 144 116 
3 142 116 144 
3 147 104 77 
3 345 142 144 
3 104 147 146 
3 143 146 145 
3 144 143 145 
3 345 144 348 
3 145 146 147 
3 145 114 144 
3 144 114 348 
3 74 105 147 
3 147 111 145 
3 348 114 148 
3 263 259 279 
3 241 250 248 
3 96 287 299 
3 23 71 151 
3 0 302 324 
3 153 344 298 
3 344 339 305 
3 30 153 298 
3 71 27 151 
3 158 156 157 
3 162 161 156 
3 162 101 159 
3 101 154 159 
3 154 155 160 
3 159 154 163 
3 164 158 157 
3 160 155 188 
3 163 154 160 
3 150 167 102 
3 103 164 169 
3 168 164 157 
3 165 162 159 
3 103 169 238 
3 169 164 170 
3 166 172 161 
3 160 188 173 
3 160 171 163 
3 171 174 163 
3 163 165 159 
3 173 149 160 
3 180 102 167 
3 149 171 160 
3 163 174 165 
3 172 168 161 
3 181 167 223 
3 103 158 164 
3 157 156 161 
3 168 170 164 
3 169 175 238 
3 238 175 239 
3 168 157 161 
3 161 162 166 
3 166 162 165 
3 169 170 177 
3 168 172 178 
3 172 166 182 
3 166 165 182 
3 239 175 240 
3 174 179 185 
3 177 170 178 
3 165 174 185 
3 178 172 176 
3 182 165 185 
3 149 184 179 
3 167 181 188 
3 240 175 192 
3 192 175 177 
3 183 182 185 
3 176 186 178 
3 184 187 179 
3 190 185 179 
3 180 167 188 
3 182 186 176 
3 184 201 191 
3 197 177 178 
3 187 190 179 
3 187 184 191 
3 183 193 182 
3 182 193 186 
3 203 197 178 
3 197 192 177 
3 175 169 177 
3 170 168 178 
3 172 182 176 
3 174 171 179 
3 171 149 179 
3 197 203 200 
3 192 197 196 
3 203 178 186 
3 185 190 202 
3 149 201 184 
3 187 191 205 
3 201 189 194 
3 196 197 200 
3 214 203 198 
3 203 186 198 
3 198 186 193 
3 102 180 155 
3 202 190 204 
3 190 187 204 
3 155 180 188 
3 188 181 173 
3 191 194 224 
3 181 189 173 
3 173 189 201 
3 187 205 204 
3 202 215 183 
3 199 192 195 
3 191 224 205 
3 205 224 212 
3 205 212 222 
3 201 194 191 
3 195 196 208 
3 209 200 203 
3 217 193 183 
3 217 183 215 
3 215 202 210 
3 202 204 210 
3 204 205 207 
3 199 195 206 
3 219 200 209 
3 207 210 204 
3 217 198 193 
3 149 173 201 
3 212 199 206 
3 203 214 209 
3 207 205 222 
3 206 195 208 
3 208 196 200 
3 217 216 198 
3 199 240 192 
3 192 196 195 
3 185 202 183 
3 208 200 219 
3 207 211 210 
3 206 220 212 
3 213 219 209 
3 225 206 208 
3 215 210 211 
3 218 207 222 
3 189 181 223 
3 167 150 223 
3 216 209 198 
3 209 214 198 
3 228 219 213 
3 215 211 221 
3 211 207 218 
3 222 237 218 
3 217 215 233 
3 217 233 229 
3 233 215 221 
3 221 211 226 
3 194 189 240 
3 220 206 235 
3 206 225 235 
3 218 226 211 
3 217 229 216 
3 230 237 220 
3 225 208 227 
3 208 219 227 
3 231 226 218 
3 227 219 228 
3 224 194 240 
3 239 223 150 
3 230 220 235 
3 229 234 216 
3 234 213 216 
3 236 227 228 
3 212 224 199 
3 189 223 240 
3 238 150 103 
3 228 213 232 
3 213 209 216 
3 244 230 235 
3 236 228 232 
3 221 226 257 
3 226 231 243 
3 230 218 237 
3 239 150 238 
3 224 240 199 
3 230 244 231 
3 244 241 231 
3 222 220 237 
3 266 235 225 
3 232 213 234 
3 257 226 243 
3 231 218 230 
3 236 232 245 
3 242 227 236 
3 232 306 245 
3 243 241 248 
3 246 225 227 
3 236 245 242 
3 244 249 241 
3 227 242 246 
3 242 245 251 
3 257 248 320 
3 257 243 248 
3 241 249 250 
3 267 246 254 
3 250 249 258 
3 254 246 242 
3 261 251 306 
3 247 258 249 
3 242 251 252 
3 254 242 260 
3 242 252 260 
3 247 249 266 
3 272 267 254 
3 252 251 256 
3 254 260 269 
3 245 306 251 
3 251 261 256 
3 320 253 255 
3 259 253 258 
3 253 250 258 
3 272 254 271 
3 271 254 269 
3 252 256 262 
3 269 260 262 
3 260 252 262 
3 221 257 288 
3 257 320 288 
3 320 255 268 
3 255 264 281 
3 244 266 249 
3 264 259 263 
3 270 269 262 
3 258 247 267 
3 259 258 279 
3 274 262 256 
3 284 264 263 
3 258 272 279 
3 279 265 263 
3 274 256 273 
3 284 263 265 
3 272 258 267 
3 267 247 266 
3 262 274 270 
3 288 320 268 
3 280 271 278 
3 271 269 278 
3 268 255 281 
3 281 321 275 
3 286 269 270 
3 233 221 288 
3 321 276 277 
3 288 268 293 
3 271 265 279 
3 274 273 283 
3 301 268 281 
3 276 284 277 
3 246 266 225 
3 278 269 286 
3 293 268 301 
3 280 265 271 
3 279 272 271 
3 270 282 286 
3 282 270 274 
3 296 274 283 
3 273 312 311 
3 312 273 256 
3 281 275 301 
3 321 277 290 
3 284 280 297 
3 280 278 285 
3 282 274 296 
3 275 321 322 
3 277 284 297 
3 297 280 285 
3 277 292 290 
3 277 297 292 
3 265 280 284 
3 285 278 298 
3 300 297 285 
3 278 286 298 
3 282 296 287 
3 292 297 289 
3 321 290 291 
3 297 300 289 
3 301 275 318 
3 300 285 305 
3 285 298 305 
3 309 286 151 
3 286 282 151 
3 151 282 287 
3 288 294 229 
3 294 288 293 
3 291 290 303 
3 290 292 303 
3 292 289 295 
3 276 264 284 
3 303 292 295 
3 319 293 301 
3 246 267 266 
3 289 304 295 
3 289 300 304 
3 298 286 309 
3 287 296 299 
3 294 293 319 
3 275 322 318 
3 318 322 317 
3 322 75 317 
3 302 291 307 
3 307 291 308 
3 304 300 305 
3 229 294 314 
3 308 291 303 
3 287 98 151 
3 309 30 298 
3 296 283 310 
3 310 316 83 
3 273 311 283 
3 283 311 310 
3 311 316 310 
3 261 312 256 
3 261 315 312 
3 313 261 306 
3 306 314 313 
3 261 313 315 
3 316 317 8 
3 306 234 314 
3 312 318 311 
3 311 318 316 
3 313 319 315 
3 312 301 318 
3 316 318 317 
3 313 314 294 
3 234 229 314 
3 294 319 313 
3 315 301 312 
3 317 75 2 
3 315 319 301 
3 321 281 276 
3 308 303 343 
3 303 295 330 
3 330 295 152 
3 295 304 152 
3 304 305 338 
3 338 305 339 
3 305 298 344 
3 99 151 98 
3 302 322 291 
3 322 321 291 
3 281 264 276 
3 320 248 250 
3 264 255 259 
3 75 322 0 
3 250 253 320 
3 253 259 255 
3 244 235 266 
3 232 234 306 
3 229 233 288 
3 231 241 243 
3 322 302 0 
3 222 212 220 
3 223 239 240 
3 59 326 58 
3 55 53 54 
3 53 329 52 
3 329 330 52 
3 52 330 51 
3 51 330 50 
3 50 330 332 
3 44 45 331 
3 45 46 331 
3 331 46 152 
3 46 47 152 
3 152 47 332 
3 47 49 332 
3 49 50 332 
3 331 333 44 
3 44 333 334 
3 334 335 43 
3 43 335 336 
3 41 338 40 
3 339 340 38 
3 38 340 37 
3 37 340 36 
3 33 344 34 
3 341 33 34 
3 153 342 32 
3 92 19 93 
3 92 91 18 
3 18 91 90 
3 90 89 17 
3 17 89 88 
3 87 86 16 
3 16 86 85 
3 85 84 15 
3 13 14 80 
3 80 14 81 
3 82 15 84 
3 11 13 12 
3 13 83 12 
3 83 10 12 
3 7 79 9 
3 4 2 3 
3 151 27 28 
3 28 309 151 
3 309 29 30 
3 31 342 30 
3 30 342 153 
3 153 341 344 
3 341 34 344 
3 344 35 339 
3 35 36 339 
3 36 340 339 
3 39 40 339 
3 339 40 338 
3 338 41 335 
3 41 337 335 
3 337 336 335 
3 335 334 152 
3 334 333 152 
3 333 331 152 
3 152 332 330 
3 329 53 330 
3 330 53 55 
3 56 328 55 
3 328 327 55 
3 55 327 326 
3 326 59 343 
3 338 335 304 
3 335 152 304 
3 330 55 303 
3 323 60 343 
3 60 26 343 
3 343 26 308 
3 26 61 308 
3 308 62 307 
3 62 63 307 
3 63 25 307 
3 307 24 302 
3 24 325 302 
3 55 326 303 
3 303 326 343 
3 346 142 345 
3 347 346 350 
3 347 117 346 
3 355 140 347 
3 356 140 355 
3 130 353 148 
3 345 349 346 
3 349 350 346 
3 351 352 125 
3 118 123 130 
3 123 353 130 
3 148 358 348 
3 348 358 345 
3 345 358 349 
3 350 354 347 
3 354 355 347 
3 353 374 148 
3 358 359 349 
3 349 361 350 
3 126 368 125 
3 125 368 351 
3 352 364 357 
3 357 365 123 
3 360 353 123 
3 361 354 350 
3 354 362 355 
3 355 363 356 
3 372 368 126 
3 351 371 352 
3 371 364 352 
3 123 365 360 
3 359 361 349 
3 362 363 355 
3 356 372 126 
3 364 365 357 
3 148 367 358 
3 361 370 354 
3 368 371 351 
3 371 378 364 
3 360 374 353 
3 358 367 359 
3 354 375 362 
3 363 372 356 
3 385 378 371 
3 378 366 364 
3 364 366 365 
3 359 370 361 
3 354 370 375 
3 375 363 362 
3 369 360 365 
3 367 379 359 
3 369 373 360 
3 148 374 367 
3 367 374 379 
3 379 380 359 
3 359 380 370 
3 372 371 368 
3 365 366 369 
3 380 381 370 
3 370 381 375 
3 375 376 363 
3 383 384 374 
3 381 376 375 
3 376 377 363 
3 363 377 372 
3 372 385 371 
3 378 382 366 
3 360 373 374 
3 382 369 366 
3 373 383 374 
3 374 384 379 
3 379 386 380 
3 387 377 376 
3 385 391 378 
3 391 382 378 
3 382 389 369 
3 386 381 380 
3 381 387 376 
3 372 377 385 
3 388 391 385 
3 391 389 382 
3 369 392 373 
3 384 390 379 
3 379 390 386 
3 386 394 381 
3 389 395 369 
3 395 392 369 
3 392 383 373 
3 384 398 390 
3 390 393 386 
3 381 394 387 
3 387 397 377 
3 383 396 384 
3 393 399 386 
3 386 399 394 
3 377 388 385 
3 398 393 390 
3 397 401 377 
3 388 406 391 
3 391 406 389 
3 392 400 383 
3 384 396 398 
3 399 404 394 
3 404 397 394 
3 394 397 387 
3 395 409 392 
3 396 402 398 
3 402 403 398 
3 398 403 393 
3 407 406 388 
3 406 395 389 
3 403 410 393 
3 393 410 399 
3 410 404 399 
3 404 411 397 
3 411 401 397 
3 401 414 377 
3 420 409 395 
3 409 400 392 
3 410 405 404 
3 400 415 383 
3 405 408 404 
3 404 408 411 
3 388 377 407 
3 417 419 407 
3 407 419 406 
3 406 420 395 
3 415 396 383 
3 402 418 403 
3 403 412 410 
3 408 416 411 
3 377 414 407 
3 406 419 420 
3 409 415 400 
3 436 422 396 
3 396 422 402 
3 422 418 402 
3 418 412 403 
3 411 414 401 
3 407 414 417 
3 412 424 410 
3 424 405 410 
3 413 408 405 
3 415 430 396 
3 423 424 412 
3 424 413 405 
3 408 413 416 
3 416 435 411 
3 411 435 414 
3 414 426 417 
3 409 421 415 
3 430 436 396 
3 418 423 412 
3 419 429 420 
3 420 421 409 
3 421 430 415 
3 422 433 418 
3 423 427 424 
3 428 435 416 
3 442 421 420 
3 433 423 418 
3 427 425 424 
3 424 425 413 
3 425 431 413 
3 431 428 413 
3 413 428 416 
3 414 438 426 
3 417 426 419 
3 426 429 419 
3 436 433 422 
3 439 442 429 
3 429 442 420 
3 430 432 436 
3 414 435 438 
3 423 437 427 
3 431 434 428 
3 428 434 435 
3 430 421 432 
3 435 455 438 
3 442 446 421 
3 421 446 432 
3 433 437 423 
3 441 443 425 
3 425 443 431 
3 431 443 434 
3 434 455 435 
3 438 448 426 
3 426 448 429 
3 429 448 439 
3 437 440 427 
3 427 440 425 
3 440 441 425 
3 448 453 439 
3 433 454 437 
3 443 444 434 
3 434 444 455 
3 439 445 442 
3 445 446 442 
3 446 449 432 
3 449 436 432 
3 433 436 454 
3 454 456 437 
3 437 456 440 
3 441 447 443 
3 443 447 444 
3 444 466 455 
3 453 445 439 
3 446 469 449 
3 449 450 436 
3 438 452 448 
3 448 460 453 
3 445 451 446 
3 451 469 446 
3 450 454 436 
3 456 457 440 
3 440 447 441 
3 455 452 438 
3 448 452 460 
3 457 462 440 
3 440 462 447 
3 447 463 444 
3 444 463 466 
3 466 472 455 
3 454 471 456 
3 456 459 457 
3 460 458 453 
3 453 458 445 
3 450 471 454 
3 456 471 459 
3 462 465 447 
3 472 473 455 
3 455 473 452 
3 445 479 451 
3 461 459 471 
3 447 465 463 
3 473 467 452 
3 467 460 452 
3 460 467 458 
3 459 464 457 
3 457 464 462 
3 464 465 462 
3 461 464 459 
3 464 476 465 
3 465 468 463 
3 463 468 466 
3 466 468 472 
3 479 475 451 
3 451 475 469 
3 450 499 471 
3 476 468 465 
3 474 458 467 
3 458 479 445 
3 483 475 479 
3 469 470 449 
3 470 450 449 
3 468 481 472 
3 474 479 458 
3 469 475 470 
3 499 482 471 
3 471 482 461 
3 461 477 464 
3 477 476 464 
3 473 487 467 
3 467 487 474 
3 482 477 461 
3 476 480 468 
3 468 480 481 
3 472 478 473 
3 473 478 487 
3 483 493 475 
3 470 485 450 
3 487 495 474 
3 474 483 479 
3 493 484 475 
3 475 484 470 
3 470 484 485 
3 450 485 499 
3 482 489 477 
3 477 489 476 
3 489 486 476 
3 486 480 476 
3 472 481 478 
3 495 492 474 
3 474 492 483 
3 493 496 484 
3 490 491 480 
3 480 491 481 
3 485 64 499 
3 499 488 482 
3 486 490 480 
3 484 496 485 
3 482 488 489 
3 483 492 493 
3 488 494 489 
3 489 494 486 
3 490 498 491 
3 478 495 487 
3 485 496 64 
3 494 490 486 
3 491 498 481 
3 481 498 478 
3 492 68 493 
3 68 496 493 
3 499 500 488 
3 488 501 494 
3 494 497 490 
3 490 497 498 
3 495 69 492 
3 498 67 478 
3 488 500 501 
3 497 66 498 
3 478 69 495 
3 68 70 496 
3 496 70 64 
3 64 500 499 
3 501 65 494 
3 494 65 497 
3 65 66 497 
3 66 67 498 
3 67 69 478 
3 492 69 68 
