ply
format ascii 1.0
comment VCGLIB generated
element vertex 502
property float x
property float y
property float z
property float nx
property float ny
property float nz
element face 1000
property list uchar int vertex_indices
end_header
19.2632 19.30103 -3.74241 0.3010007 -0.1888746 -0.9347326 
18.12347 20.00331 -4.000155 0.02256905 -0.01703633 -0.9996001 
-16.54323 -19.32078 -3.992702 0.03947124 -0.03087424 -0.9987436 
-15.86215 -18.92413 -3.968206 0.1717925 -0.1296247 -0.9765679 
18.65375 19.63998 -3.933023 0.1500491 -0.1043853 -0.9831526 
-11.50375 -14.7979 -3.866885 0.2361078 -0.2001856 -0.9508832 
20.16096 18.88884 -3.219675 0.5392959 -0.3058223 -0.7846226 
19.41458 18.82403 -3.550187 0.3751744 -0.2968745 -0.8781286 
19.59369 18.51272 -3.34854 0.4151655 -0.3578719 -0.8364002 
19.77566 18.43862 -3.218533 0.4444917 -0.3884027 -0.8071992 
20.67303 19.08174 -3.025656 0.4914326 -0.4258965 -0.759675 
20.11904 18.13794 -2.824434 -0.4237936 0.4041153 0.8106108 
20.64118 17.98098 -2.221939 0.6339223 -0.4994856 -0.5904714 
21.06536 18.09627 -1.80831 0.7305074 -0.4738106 -0.491795 
20.88723 17.73528 -1.577052 0.6990764 -0.6094648 -0.3739583 
21.1761 17.8536 -1.210776 0.7722527 -0.5675959 -0.2854131 
21.35142 17.79358 -0.3572479 0.8477752 -0.5275524 -0.05445824 
20.70036 17.16786 -0.8354036 0.7380911 -0.6455667 -0.1961253 
21.21074 17.66451 0.5268592 0.7808238 -0.6075317 0.1456685 
20.98226 17.3551 0.03399149 0.7590036 -0.6509678 0.01242711 
20.94933 17.33204 0.2879201 0.7526016 -0.6557845 0.0594766 
20.94878 17.41921 0.7332233 0.7385299 -0.6421072 0.2056014 
20.87823 17.44575 1.043898 0.7376003 -0.6224214 0.2617964 
20.97068 17.73527 1.424933 0.7165632 -0.5962111 0.3620353 
-14.28804 -21.86952 1.649991 0.6779099 -0.6070563 0.4146333 
20.4917 17.48931 1.857873 0.6764272 -0.5811821 0.4524086 
20.51917 17.76939 2.14554 0.6545637 -0.550483 0.5181839 
20.34919 17.93648 2.479384 0.6390204 -0.4918302 0.5914018 
20.27383 18.00244 2.601389 0.6384774 -0.4768014 0.6041582 
20.35357 18.26928 2.733181 0.5515357 -0.4536674 0.6999959 
-15.09605 -21.3849 2.937774 0.5192278 -0.4376553 0.7340711 
19.99503 18.2763 2.999492 0.5063708 -0.4319779 0.7463134 
20.02507 18.62397 3.170776 0.4748311 -0.3760675 0.7956813 
19.68217 18.5609 3.325928 0.4138772 -0.3464106 0.8418464 
-15.80909 -21.10997 3.465465 0.371806 -0.3226172 0.8704472 
19.53494 19.02106 3.569263 0.4173596 -0.2654052 0.8691208 
19.37339 19.27723 3.702542 0.3091582 -0.1880172 0.9322396 
18.68562 19.56977 3.922232 0.1656765 -0.1197818 0.9788787 
18.03622 19.65507 3.993506 0.05228003 -0.03621697 0.9979755 
17.7184 20.20722 -3.988081 -0.06677855 0.04842794 -0.9965919 
17.94641 20.16064 3.997929 -0.03939449 0.03782742 0.9985074 
17.02218 19.64343 3.970704 -0.08685032 0.08149866 0.9928822 
17.42541 20.51487 3.926055 -0.1591987 0.09821008 0.9823495 
16.99467 20.54411 3.84565 -0.2472276 0.1732441 0.953344 
-17.39976 -17.83662 3.759806 -0.2747362 0.159605 0.9481805 
16.40926 20.63001 3.66412 -0.3048621 0.2706729 0.9131239 
16.38385 21.05139 3.517781 -0.3934011 0.2647043 0.8804359 
16.02678 20.9799 3.39033 -0.396432 0.3543502 0.8469225 
15.79103 21.01628 3.254734 -0.4492373 0.3717234 0.8124085 
15.66902 21.1292 3.129361 -0.4904656 0.3773616 0.78552 
15.43986 21.17105 2.959416 -0.5124796 0.4052562 0.7570549 
15.01886 21.05888 2.72206 -0.5007762 0.4024443 0.7663301 
15.81085 21.74623 2.956656 -0.559916 0.3516491 0.7502246 
-8.99649 -5.648997 2.434266 -0.5317311 0.4646051 0.7080989 
14.92719 21.60981 2.16005 -0.6031151 0.594077 0.5322825 
14.72031 21.71728 1.763273 -0.6851066 0.5457245 0.4825078 
14.47605 21.77305 1.216071 -0.7548823 0.5964308 0.272806 
14.26098 21.69837 0.7707192 -0.7220867 0.663884 0.1945477 
14.71558 22.51523 -0.2973921 -0.880707 0.4457101 -0.1603047 
14.38888 21.91092 0.4826615 -0.7322351 0.6628429 0.1564324 
13.83253 21.31587 0.2424603 -0.8058285 0.5583805 -0.1971084 
14.23666 21.78119 0.01019032 -0.8031018 0.5473686 -0.2354041 
14.31438 21.8551 -0.2921447 -0.7895239 0.6049722 -0.1032503 
14.44945 21.94206 -0.6600273 -0.7845194 0.5957837 -0.1719623 
14.4301 21.76904 -1.102858 -0.7720179 0.5967603 -0.2187818 
11.5804 18.34433 -1.511943 -0.6875059 0.6127639 -0.3896871 
13.56752 19.73394 -2.479263 -0.5887018 0.5231456 -0.6162375 
-19.94122 -18.28154 -2.670026 -0.6180388 0.423975 -0.6620222 
15.43907 21.38748 -2.822152 -0.5622481 0.4377929 -0.70158 
15.57516 21.179 -3.042367 -0.4671049 0.4410331 -0.7663569 
16.0723 21.18147 -3.324305 -0.4242011 0.3377263 -0.8402346 
15.83674 20.71787 -3.408892 -0.3811188 0.3422986 -0.8588248 
16.15813 20.73337 -3.540853 -0.3440409 0.3139059 -0.8849288 
16.57516 20.56967 -3.732085 -0.2764732 0.24557 -0.9291167 
14.97066 21.88624 -1.90469 -0.7195554 0.4851327 -0.4968765 
16.96284 20.56254 -3.833385 -0.297586 0.1878173 -0.936038 
-23.8003 30.00094 -1.445992 -0.8557533 -0.3853711 -0.3452177 
-23.93687 30.00004 1.17555 -0.9030406 -0.24536 0.3525848 
-15.84855 30.00011 0.7355358 0.7619323 -0.6274087 0.1606783 
-17.13 30.00018 -2.82851 0.5764397 -0.5932682 -0.5619165 
-15.99332 -20.78128 3.649727 0.277039 -0.3065338 0.9106516 
-15.49303 -21.15365 3.298152 0.4150555 -0.3919818 0.8210233 
-15.41763 -21.40987 3.130093 0.483941 -0.3873982 0.7846807 
-16.91222 -20.38285 -3.940599 0.2293845 -0.1713923 -0.9581271 
-16.25177 -20.6627 -3.760989 0.3611989 -0.2949333 -0.8846183 
-15.99652 -21.01407 -3.576622 0.3360329 -0.2787654 -0.8996509 
-15.69163 -21.15802 -3.393517 0.3613485 -0.3840935 -0.8496466 
-15.2688 -21.47081 -3.003354 0.5101258 -0.4797354 -0.7138807 
-13.96985 -20.39777 -2.752387 0.5629743 -0.5225908 -0.6402803 
16.69397 13.79187 -2.45942 0.564587 -0.4983349 -0.6579543 
-14.35097 -21.80284 -1.841302 0.6255311 -0.6336768 -0.4551534 
-14.71702 -21.85323 -2.246418 0.6247719 -0.5288811 -0.5744082 
-14.22376 -21.84311 -1.58039 0.6365591 -0.6671209 -0.3869655 
-14.07026 -21.87237 -1.22457 0.697733 -0.6364797 -0.3287283 
-14.33502 -22.30266 -0.9085339 0.7707993 -0.5746903 -0.2749533 
-13.91006 -21.92445 -0.5455375 0.7396958 -0.6564001 -0.1482867 
-13.93294 -22.00172 -0.1248927 0.7735754 -0.6291079 -0.07618633 
-13.91792 -21.98759 0.03713353 0.6952724 -0.7182331 0.02715693 
-13.99324 -22.0404 0.4264633 0.6022762 -0.7949501 0.07292256 
-13.97173 -21.95117 0.7176107 0.7050565 -0.685303 0.1823597 
-14.05349 -21.93501 1.039133 0.7111524 -0.6618087 0.2372162 
-14.40221 -22.15796 1.394907 0.7037832 -0.6563815 0.2717585 
-14.30382 -21.72764 1.869307 0.6770961 -0.4066431 0.6133371 
-14.76423 -21.96259 2.190478 0.6692402 -0.3267079 0.6673675 
14.73652 11.49309 2.378344 0.5711113 -0.5024962 0.6490989 
-14.7819 -21.54573 2.577617 0.5463271 -0.4480919 0.7076301 
-15.07652 -22.1489 2.501433 0.6176729 -0.3615783 0.6983848 
-14.87584 -21.45477 2.726751 0.573838 -0.4529874 0.6822847 
-18.24635 -22.74182 -3.974917 0.2608362 -0.1585658 -0.9522716 
-16.3862 -20.60661 3.806931 0.2266249 -0.3015806 0.9261158 
-16.8495 -20.5149 3.916733 0.03239734 -0.4619266 0.8863263 
-17.23652 -20.33657 3.979746 0.06715134 -0.1361086 0.9884155 
21.03338 -29.90604 -3.76733 0.3594405 0.4442314 -0.8206468 
19.83192 -29.98216 4.039546 -0.05433962 0.4705531 0.880697 
17.22618 -30.14745 3.353346 -0.4921648 0.6045884 0.6262959 
15.55647 -30.25345 0.779784 -0.8779452 0.4486139 0.1672054 
20.31781 18.65092 3.002364 0.6366592 -0.3066004 0.7075742 
22.53722 22.69374 2.453276 0.7895176 -0.2123992 0.5758026 
23.13469 21.99406 0.3758396 0.9540131 -0.2892333 0.07876005 
17.49198 25.36778 -3.382478 -0.5524493 0.09693784 -0.8278905 
20.00657 23.22181 3.975441 0.1321085 -0.03437936 0.9906389 
15.8439 25.80948 -0.8970632 -0.9789852 0.1733295 -0.1074471 
18.56412 23.97811 -3.908438 -0.2177364 0.06196918 -0.9740383 
21.03474 21.74807 3.397829 0.4849066 -0.1628868 0.8592633 
24.00761 27.60658 0.7531182 0.9760079 -0.05231345 0.2113571 
16.07269 28.98024 -0.9446244 -0.9763455 -0.01445778 -0.2157325 
23.87629 29.1361 -1.267534 0.9536283 0.02189233 -0.3001896 
23.3078 32.53853 1.985525 0.8665652 0.1402431 0.4789536 
15.39744 33.06967 -0.1758007 -0.9599491 -0.276455 -0.0455011 
16.51665 36.26526 -3.550881 -0.4146796 -0.2060493 -0.886332 
21.0281 39.53746 -1.870353 0.7618946 0.4055096 -0.5050529 
17.48593 28.05249 -3.143284 -0.6764462 0.010611 -0.7364156 
16.26736 22.33521 -3.150539 -0.5629051 0.2263676 -0.7949186 
17.39021 32.82415 -3.355723 -0.5529122 -0.1336903 -0.8224445 
16.51295 32.1683 -2.482808 -0.8154879 -0.1691419 -0.5535075 
14.24283 37.07396 -1.945975 -0.7604329 -0.4145015 -0.4999303 
19.95299 23.95484 -4.002703 0.1180836 -0.03224793 -0.9924799 
16.27952 25.01794 -2.217964 -0.8232031 0.1906412 -0.5347827 
22.37517 27.88961 3.359526 0.5890883 -0.02952038 0.8075292 
21.34207 18.20086 1.448694 0.8214359 -0.4382046 0.3649929 
20.42486 31.32152 -4.008752 0.1475942 0.02310039 -0.9887782 
23.0456 25.75272 -2.463996 0.7666075 -0.09373573 -0.6352373 
16.34357 32.14914 2.258692 -0.8951523 -0.174995 0.4099743 
23.07845 30.60726 -2.64008 0.7377173 0.04981211 -0.6732697 
19.1886 38.97685 -3.707828 0.4277207 0.203783 -0.8806404 
19.09293 30.97335 -3.90741 -0.3013064 -0.03310553 -0.9529525 
16.80684 26.2443 2.512445 -0.7608373 0.08475591 0.643384 
23.72959 32.61917 -0.04532863 0.9868444 0.1575075 -0.03646272 
21.57407 33.28299 -3.49168 0.4920035 0.1008307 -0.8647345 
21.51143 32.93258 3.560394 0.5000436 0.09837046 0.860395 
22.24933 20.31996 -1.455788 0.8857 -0.3404504 -0.3156407 
17.33006 33.33353 3.40273 -0.5217232 -0.09470103 0.8478423 
17.22016 22.81473 3.599641 -0.4699508 0.1442768 0.8708217 
21.85756 36.38852 2.60026 0.7264122 0.2554086 0.6380373 
21.25066 23.16943 -3.55732 0.4756233 -0.1237868 -0.8708957 
19.05766 29.36553 3.853489 -0.27945 0.005966965 0.9601417 
21.66839 27.64812 -3.658482 0.4482851 -0.01744658 -0.8937204 
15.60744 23.98507 1.429157 -0.8879408 0.3062269 0.3431998 
20.35956 30.44886 4.018924 0.1339693 0.01323658 0.9908971 
16.15993 28.22843 1.028917 -0.9751601 0.06804456 0.2107909 
22.49764 37.52246 0.06053849 0.9328491 0.3530566 0.07171869 
22.60155 34.70771 -2.338875 0.8226562 0.2182788 -0.5249677 
23.42766 24.03297 -1.10139 0.9423465 -0.1773042 -0.2838069 
18.0322 27.8128 3.476798 -0.5247663 0.03641591 0.850467 
19.61713 37.77893 3.728139 0.3536166 0.1654711 0.9206381 
20.35945 39.97237 2.453088 0.7130331 0.4122587 0.5671213 
22.0576 22.06399 -2.685421 0.7437391 -0.2360744 -0.6253968 
-5.928286 -53.25919 0.4755014 -0.221412 -0.9629622 0.153885 
-14.78898 -23.32356 0.5422341 0.8733451 -0.4845386 0.04990817 
-18.48833 -19.54672 -3.860691 -0.1981263 0.1397907 -0.970157 
-19.62045 -18.60175 -3.101945 -0.5039359 0.3402838 -0.7938864 
-21.34212 -19.37311 -1.702701 -0.8112056 0.427001 -0.3995192 
-11.60246 -41.25226 0.9473484 0.6496105 0.7415793 0.1675303 
14.1243 -36.59142 -0.3881527 -0.9024834 0.4300316 -0.02442601 
15.22231 -32.61618 -0.1571015 -0.9749421 0.2138245 -0.06137487 
21.85916 -39.12494 0.4352491 0.9189175 -0.3844407 0.08829403 
16.75124 -30.17767 -2.863513 -0.396881 0.883849 -0.2475815 
19.22738 -43.79946 0.0347148 0.8190153 -0.5734913 0.01794074 
14.77411 -36.60591 -2.039752 -0.8217684 0.2984073 -0.4854378 
16.94746 -46.26079 -1.395455 0.6729444 -0.6250907 -0.395484 
12.08565 -40.18913 0.9436309 -0.7362456 0.595315 0.3217802 
11.53861 -40.72714 -0.6560137 -0.7477805 0.603287 -0.2772531 
15.98305 -47.56515 0.6050558 0.6817387 -0.7209172 0.1245423 
10.95885 -42.01794 -2.151262 -0.5828356 0.6516102 -0.4854964 
15.88499 -37.01566 -3.266975 -0.5470087 0.2540818 -0.7976364 
11.95911 -50.38158 -0.9530761 0.508495 -0.8280101 -0.2362881 
8.180723 -43.39152 -0.003516945 -0.5642662 0.8245986 -0.04050764 
6.759872 -44.37649 -1.018865 -0.4580986 0.8287709 -0.3213789 
18.87099 -30.04317 -3.977025 -0.1665653 0.2854155 -0.9438189 
18.08847 -37.62314 -4.042914 -0.05228556 0.02263651 -0.9983757 
4.781435 -45.06186 0.1230264 -0.3626277 0.9318706 -0.01087515 
-2.533484 -45.72326 0.7453256 0.1252156 0.9883474 0.08654771 
-4.104078 -53.34202 -1.643706 -0.1479892 -0.9219547 -0.3579089 
-4.811208 -45.27288 0.2083703 0.3291489 0.9435385 -0.0373624 
-12.07216 -50.80566 0.5407953 -0.4898534 -0.8660371 0.1001179 
-8.759182 -52.34421 -0.6664342 -0.3556997 -0.9276832 -0.113498 
-8.680811 -43.48129 0.3424221 0.517093 0.8556153 0.02317914 
-12.02567 -41.11238 -1.447772 0.7124705 0.6541184 -0.2539983 
8.392154 -52.29298 -0.5637448 0.3643166 -0.9212905 -0.1360042 
3.035049 -46.22627 2.132118 -0.1500777 0.8467597 0.5103673 
-13.49934 -38.97692 0.9233549 0.7894344 0.5678201 0.2331817 
-17.62822 -46.58511 -0.1183059 -0.715668 -0.698054 -0.02323719 
-7.385144 -44.90007 2.085829 0.3701972 0.8281105 0.4209359 
-21.89465 -40.45681 0.3131698 -0.9009323 -0.4310073 0.05053457 
-19.7997 -43.89112 0.07174181 -0.8206707 -0.5678509 0.06360067 
-14.29915 -37.91312 -1.241732 0.8243203 0.4726148 -0.3116592 
9.160027 -43.38982 2.010793 -0.4708696 0.7445405 0.4732243 
11.73985 -42.4426 3.09427 -0.4822416 0.5074286 0.7141144 
-14.21937 -40.27073 3.04651 0.5470412 0.3690669 0.7513558 
-4.075489 -46.71511 2.896524 0.1431362 0.7036818 0.6959482 
-22.78643 -37.4589 -1.550341 -0.8895525 -0.2898288 -0.3531226 
14.52659 -38.42675 2.839939 -0.5717482 0.3284227 0.7518262 
-10.31088 -44.76534 3.426525 0.3520895 0.492451 0.7959428 
16.00975 -33.83832 2.504682 -0.8219922 0.2182438 0.5260215 
-15.58165 -34.53601 -0.7510919 0.95258 0.2601669 -0.1578119 
10.89718 -45.4426 3.941891 -0.204613 0.2418564 0.948493 
-24.0033 -33.37932 -0.4657651 -0.9797211 -0.1431005 -0.1402453 
1.456738 -48.04581 3.660767 -0.03047026 0.4205775 0.9067448 
15.46882 -40.08586 3.80722 -0.235813 0.1495768 0.9602182 
7.668477 -46.33332 3.612414 -0.2302827 0.4661336 0.8542185 
-17.62112 -36.45499 3.761544 0.3883725 0.1545927 0.9084426 
-19.06238 -32.78467 3.898618 0.282244 0.0252681 0.9590099 
-16.23977 -30.85948 1.041866 0.968016 0.05708367 0.2443084 
-24.11595 -30.24699 -1.086108 -0.9633855 -0.009042311 -0.2679674 
-5.569448 -47.96748 3.809566 0.07486221 0.2898093 0.9541521 
-14.4236 -43.40859 4.053504 0.1019713 0.07991473 0.9915723 
17.62523 -33.55775 3.69061 -0.4039097 0.1093988 0.9082339 
4.440829 -49.38559 4.038227 -0.01633219 0.03002119 0.9994158 
17.13062 -40.09456 4.018145 0.02722463 -0.03090017 0.9991516 
-22.43587 -21.42792 1.388694 -0.8992679 0.3282322 0.2891036 
-19.67994 -36.87031 3.988711 -0.1582629 -0.05627995 0.9857918 
11.0452 -46.75499 4.015449 0.03189531 -0.05790769 0.9978123 
-14.98887 -48.80836 -0.9595175 -0.5885589 -0.7911869 -0.1661976 
-23.70343 -25.26253 -0.8852755 -0.96961 0.1954745 -0.1471266 
-16.15972 -28.80673 -0.08427827 0.9905464 -0.08768478 -0.1054951 
0.01480702 -46.64077 -2.312025 -0.01926737 0.8359297 -0.5484982 
1.586576 -45.69157 -0.07592321 -0.1196249 0.9898851 -0.07627276 
4.61571 -45.89526 -2.417902 -0.2627147 0.8108183 -0.5230246 
-16.54395 -31.63842 -1.846124 0.9024848 0.09102489 -0.4209938 
-23.38998 -28.72166 -2.515225 -0.8002237 0.06626998 -0.5960287 
20.86395 -38.52 -2.805488 0.6759731 -0.2723558 -0.6847502 
-21.03066 -40.95164 -2.01192 -0.80997 -0.4468357 -0.3798505 
22.1499 -37.18266 -1.60195 0.8854422 -0.2819896 -0.3694237 
22.97379 -29.78301 -2.24076 0.7200505 0.5858554 -0.371888 
-9.851477 -51.15761 -2.457715 -0.3566788 -0.7650245 -0.5362068 
3.725638 -53.41317 -1.152221 0.1753155 -0.940997 -0.2894634 
-18.75994 -44.8432 -1.46581 -0.7172632 -0.5709079 -0.3994967 
1.303302 -53.85343 -0.7310439 0.05378506 -0.9830518 -0.1752609 
-22.30091 -20.53927 -0.1680417 -0.9147097 0.4006567 -0.05273031 
4.886009 -53.26922 0.9135477 0.2010736 -0.9585163 0.2020292 
-24.08006 -29.58909 1.251225 -0.9536054 0.01218198 0.3008127 
-0.6412789 -53.85022 1.075713 -0.02778074 -0.9606673 0.2763087 
-20.56804 -41.17089 2.514005 -0.7316331 -0.4009539 0.5513155 
12.65178 -50.0076 1.022125 0.5120955 -0.8368495 0.1934976 
-8.781862 -51.9608 1.719793 -0.3369395 -0.8748136 0.3480988 
-17.31859 -31.85015 2.899256 0.6642448 0.09439659 0.7415308 
-17.43414 -27.88163 3.007076 0.6540554 -0.07204278 0.7530083 
-15.72224 -35.38376 2.037683 0.8491693 0.3062418 0.4302645 
-16.13152 -25.69876 1.955216 0.8811831 -0.2509034 0.4007042 
-15.44986 -24.91669 -1.065091 0.9375693 -0.3016997 -0.1730353 
-16.14888 -35.6218 -2.627883 0.7173651 0.2343462 -0.6561014 
-4.986477 -45.63925 -1.907242 0.2292776 0.8579212 -0.4597858 
-8.616714 -44.12409 -1.886581 0.4922353 0.7871369 -0.3716449 
8.918519 -44.38382 -2.92678 -0.3734663 0.56556 -0.735299 
-16.0783 -24.42769 -2.457 0.7680414 -0.2649716 -0.5830116 
-15.30756 -38.97412 -3.199007 0.5049244 0.3416824 -0.7926567 
-12.66529 -41.42152 -2.542276 0.5501649 0.5592836 -0.6200972 
-7.566648 -46.2183 -3.3411 0.2546001 0.5375353 -0.8038872 
-16.96329 -28.50167 -2.496844 0.7991655 -0.1237452 -0.588236 
14.5194 -40.54094 -3.626256 -0.310424 0.2741899 -0.910196 
-15.0472 -44.18335 -3.992664 -0.04411749 -0.05150795 -0.9976977 
20.04303 -35.24455 -3.879696 0.253249 -0.06068481 -0.9654959 
-19.42381 -20.86361 -3.843617 -0.3288275 0.1446799 -0.9332417 
-20.58907 -29.67879 -4.012677 -0.01485764 -0.005710734 -0.9998732 
14.68212 -43.86584 -4.021919 0.1191454 -0.1069283 -0.9871022 
11.18986 -47.66666 -3.834712 0.1422998 -0.2283272 -0.963129 
-0.6980453 -50.68988 -3.991569 -0.007767956 -0.1597953 -0.9871196 
-19.17979 -38.87517 -3.931697 -0.210398 -0.1062414 -0.9718258 
-15.95931 -45.29797 -3.548781 -0.3415484 -0.319996 -0.8837122 
-10.2299 -49.09244 -3.775956 -0.1752285 -0.336074 -0.9253914 
6.340302 -50.38177 -3.770767 0.121701 -0.3754528 -0.9188166 
-21.40785 -34.26451 -3.699154 -0.4046172 -0.08744137 -0.9102961 
17.66957 -43.24811 -3.233249 0.5214675 -0.3791398 -0.7644112 
14.30067 -46.99245 -3.203575 0.4075129 -0.4611133 -0.7882307 
10.85106 -49.92066 -2.866169 0.3368586 -0.659885 -0.6716235 
-3.648819 -51.99049 -3.279075 -0.0987589 -0.5855272 -0.8046145 
19.33073 -39.46395 -3.574141 0.3815164 -0.1798571 -0.9066955 
-20.04878 -41.16566 -3.05792 -0.5872127 -0.3274168 -0.7402564 
-22.00798 -21.82935 -2.454648 -0.7383043 0.2675462 -0.6191331 
-21.92407 -27.05991 -3.631489 -0.4824557 0.05310038 -0.8743094 
21.36328 -34.34737 -3.34592 0.5222886 -0.1166604 -0.8447515 
-14.83251 -47.89914 -2.599955 -0.5265638 -0.5930838 -0.6090831 
-22.76721 -33.90574 -2.864212 -0.7382447 -0.1199688 -0.6637788 
1.723212 -52.19921 -3.280964 0.05190465 -0.5720329 -0.8185868 
12.84696 -49.23879 -2.191132 0.5376948 -0.7200578 -0.4386354 
-0.2376483 -53.04081 -2.553983 0.02355604 -0.8136767 -0.5808402 
22.34528 -33.09932 -2.755473 0.7640573 -0.116812 -0.6344852 
19.96106 -42.0101 -1.688914 0.7939668 -0.4590427 -0.3986181 
5.2442 -52.52659 -2.334557 0.1975053 -0.7770943 -0.5975918 
-14.76593 -48.33181 2.227694 -0.530083 -0.6730195 0.5158068 
23.45463 -33.39243 0.1101892 0.9879504 -0.1511178 -0.03342788 
-23.37093 -35.8419 1.208332 -0.9211769 -0.241569 0.305086 
19.7141 -41.99087 2.230398 0.7353036 -0.461437 0.4963916 
1.919657 -52.7116 2.889177 0.1043965 -0.7243916 0.6814384 
23.32588 -29.76129 1.742144 0.7696397 0.5611277 0.3046151 
-23.58232 -25.4341 1.498904 -0.8900748 0.1731341 0.4216532 
21.65472 -36.53898 2.754919 0.7431985 -0.2066918 0.6363447 
-5.466481 -52.29981 2.769403 -0.1820984 -0.7488784 0.637198 
0.8949742 -51.04951 3.858 0.02213778 -0.3590343 0.9330618 
-3.688615 -50.14752 3.995283 -0.01062457 -0.03679655 0.9992663 
-8.788374 -48.10781 4.026255 0.01172597 -0.001484243 0.9999301 
-18.9965 -22.78024 4.018422 -0.02586079 0.009988367 0.9996157 
-17.21183 -23.28942 3.676249 0.4344402 -0.179713 0.88259 
-18.81042 -27.38609 3.827315 0.275335 -0.04484856 0.9603016 
-15.5265 -21.39186 -3.202309 0.4635064 -0.398418 -0.7914701 
-11.19686 -44.22079 -3.45838 0.331231 0.3833759 -0.8621536 
-0.7873979 -48.10609 -3.672467 0.04797827 0.4699665 -0.8813794 
-17.26404 -23.76167 -3.572838 0.4742217 -0.1690202 -0.8640289 
5.884687 -48.20715 -3.990505 -0.07209756 0.2555823 -0.9640952 
-18.35422 -36.40386 -3.975205 0.2367071 0.09210533 -0.9672055 
-12.59691 -44.44896 -3.940797 0.1716799 0.1939658 -0.9658692 
-15.81365 -40.97903 -3.898837 0.2126333 0.1434457 -0.9665456 
11.45463 -45.27549 -4.0081 -0.1054691 0.1346114 -0.9852695 
-18.7569 -30.18631 -3.721721 0.4827694 0.01677448 -0.8755869 
-7.764694 -47.95866 -3.971677 0.07234991 0.145979 -0.9866385 
-20.89471 -18.46501 1.613846 -0.7841616 0.4657623 0.4100685 
13.94157 -48.45052 2.271338 0.4730917 -0.6284117 0.6174812 
-22.82076 -32.33797 3.106287 -0.6472751 -0.08152316 0.7578844 
-0.1245615 -52.73947 2.88821 -0.03012031 -0.6818331 0.7308873 
-10.83149 -50.58073 2.439498 -0.3609385 -0.7118931 0.6024382 
-21.62881 -37.41478 3.075653 -0.5926484 -0.2139708 0.7765206 
-21.63758 -21.94472 2.827839 -0.6889254 0.2579035 0.6773976 
8.893845 -51.46832 2.210759 0.3338922 -0.8020895 0.4951448 
-17.94002 -44.97213 2.509831 -0.6465591 -0.545666 0.5331135 
16.46037 -45.37604 2.846392 0.5511638 -0.4894322 0.6757771 
14.44878 -45.54957 3.748844 0.2822569 -0.3059681 0.9092385 
-17.187 -43.39527 3.742352 -0.3471941 -0.2769083 0.8959788 
18.95396 -40.62292 3.465213 0.4375153 -0.2561847 0.8619453 
21.87474 -29.85373 3.374046 0.4240185 0.5292609 0.7349089 
19.61672 -37.07379 3.861964 0.3363005 -0.1013941 0.9362805 
-21.04374 -32.25702 3.987553 -0.1356837 -0.02300037 0.9904851 
-21.839 -27.69798 3.725046 -0.5328826 0.07315625 0.843021 
-4.803301 -51.43069 3.551143 -0.08695488 -0.419497 0.9035825 
-11.32372 -48.62616 3.685386 -0.2198066 -0.3858229 0.8960055 
8.476934 -50.08911 3.556417 0.1880029 -0.4246119 0.8856409 
-20.1007 -21.09169 3.623427 -0.4258751 0.2060087 0.881017 
-18.43386 -19.08158 -3.777822 -0.2533188 0.2142624 -0.9433563 
17.1913 20.36077 -3.912416 -0.1607656 0.1110586 -0.9807245 
-18.05755 -19.49012 -3.926787 -0.1479886 0.1015418 -0.9837624 
-17.82866 -19.67488 -3.973039 -0.1190561 0.07641223 -0.9899428 
-18.08994 -20.51925 -3.999878 -0.0501332 0.02820224 -0.9983443 
-18.97618 -18.81518 -3.520161 -0.4154724 0.292889 -0.8611612 
-18.91268 -19.16109 -3.656319 -0.3955997 0.2286822 -0.8894972 
-19.06203 -18.61951 -3.40711 -0.444628 0.3199379 -0.8366276 
-17.72061 -16.75603 -3.253089 -0.4393667 0.3885343 -0.8099371 
-20.07411 -17.91024 -2.225204 -0.6812637 0.5010903 -0.5336556 
-19.49178 -18.14545 -2.922499 -0.5176863 0.4489021 -0.7283459 
-20.22251 -17.70708 -1.802586 -0.6936125 0.5609838 -0.4518836 
-20.60821 -17.83053 -1.315154 -0.7536831 0.5589218 -0.3457865 
-20.35342 -17.36239 -0.9025696 -0.7361311 0.6381893 -0.225445 
-20.73026 -17.68495 -0.5166082 -0.8047678 0.579608 -0.1280754 
-20.45683 -17.32967 -0.1551623 -0.7648454 0.6439379 -0.01885301 
-20.46659 -17.34767 0.2340888 -0.7550075 0.6540651 0.04650308 
-20.72965 -17.68589 0.5229695 -0.8074582 0.5806339 0.1042855 
-20.63287 -17.65616 0.8346353 -0.7638538 0.5981013 0.2424913 
-20.36345 -17.52909 1.264746 -0.7338685 0.5940961 0.3293735 
-20.2204 -17.62575 1.700008 -0.7009248 0.5800117 0.4150792 
-20.05064 -17.80771 2.147949 -0.63708 0.5266918 0.5627832 
-19.71172 -18.03826 2.681201 -0.6152054 0.5070509 0.6036735 
-19.81371 -18.44032 2.879263 -0.5788187 0.3992793 0.7110169 
-19.38422 -18.3291 3.100036 -0.4847446 0.3742498 0.790544 
-19.14427 -18.51203 3.323208 -0.4586095 0.3369298 0.8222868 
-19.04253 -18.91952 3.530612 -0.3606977 0.2703754 0.8926334 
-18.61377 -18.84048 3.660537 -0.2821038 0.2330784 0.9306406 
-18.24661 -19.34289 3.873276 -0.2178397 0.1749795 0.9601708 
-18.27361 -19.83063 3.939137 -0.1875574 0.1170747 0.9752517 
-17.74808 -20.2134 4.000956 -0.001802115 0.003087413 0.9999936 
-17.73185 -19.8292 3.989169 -0.06646867 0.0495351 0.9965582 
14.6378 35.53657 1.000139 -0.8987193 -0.3997327 0.1803257 
14.47876 41.74446 -3.972988 -0.1255288 -0.1251041 -0.9841705 
15.93585 41.40321 -4.017533 0.01064074 0.02675573 -0.9995853 
18.97168 43.48796 -0.5017869 0.7558562 0.6272448 -0.187738 
17.49953 42.65666 3.310901 0.4514679 0.3647473 0.8143317 
17.82132 36.91566 4.031042 -0.1639428 -0.06433797 0.9843695 
19.90374 42.3933 0.1350759 0.8303145 0.5564606 0.03048621 
16.51134 45.55142 2.050107 0.6051909 0.6089581 0.5127514 
15.15217 36.62357 2.769397 -0.651905 -0.3455875 0.6749734 
17.38398 42.66932 -3.40492 0.4355096 0.3447196 -0.8315647 
17.35197 45.36823 0.4164202 0.7050305 0.700277 0.1120004 
12.7526 38.32479 -0.03022024 -0.7853288 -0.6176547 0.04196848 
18.1981 43.68318 -2.028724 0.6890552 0.551827 -0.4697763 
15.56492 47.03139 -0.7107555 0.6377726 0.7372503 -0.2229533 
11.44079 41.03344 -2.47507 -0.5709625 -0.6411632 -0.5127489 
14.80398 43.52939 3.961149 0.1264433 0.1210033 0.984566 
13.715 41.46741 3.8965 -0.2928768 -0.2587841 0.920464 
10.94148 41.19225 1.960431 -0.5278815 -0.6393642 0.5590658 
9.532062 41.65791 -0.04564279 -0.5945466 -0.8025361 -0.04950005 
12.6288 41.59844 -3.406329 -0.3586367 -0.3682834 -0.857757 
13.94253 46.92368 -2.872738 0.412837 0.5335977 -0.7381321 
13.15014 46.4269 3.49798 0.3305194 0.4254911 0.8424453 
7.791276 44.86574 -3.449291 -0.2945487 -0.5537859 -0.778821 
8.391557 46.18249 -3.93596 -0.1047034 -0.2563905 -0.9608856 
8.955785 49.2432 -3.30359 0.2532834 0.5746134 -0.778246 
11.34236 49.71965 -1.457637 0.4523295 0.8256816 -0.337117 
13.64662 44.52924 -3.96722 0.1235644 0.1525183 -0.9805458 
12.94214 48.95971 0.7237149 0.5436187 0.8173597 0.1907926 
8.056453 42.85662 -1.486775 -0.4707721 -0.8154893 -0.3366762 
10.63866 49.1658 2.773 0.3534794 0.6681709 0.6546755 
5.917978 43.75542 1.197579 -0.3791205 -0.9056637 0.1898444 
8.00286 46.21835 3.958876 -0.1314751 -0.2591225 0.9568541 
4.912915 44.33935 -1.71021 -0.2257335 -0.8875779 -0.4015592 
8.196785 51.34237 0.8161972 0.3255843 0.9181643 0.2257634 
3.464291 50.79224 -3.35587 0.08446313 0.5777344 -0.8118429 
4.65377 50.90518 3.080948 0.1626306 0.6623058 0.7313702 
6.963698 51.53894 -1.59608 0.2467452 0.8844544 -0.3960522 
3.476784 45.47823 -2.79528 -0.1185104 -0.6201024 -0.7755181 
2.062667 52.73343 0.4797545 0.07186419 0.9909528 0.1133492 
1.015632 52.39471 -1.813556 0.02494826 0.8954285 -0.4445058 
7.987273 48.32613 3.93212 0.09486572 0.2339423 0.9676113 
6.632032 44.80306 2.966249 -0.2011348 -0.6168195 0.760972 
1.475578 46.47798 -3.397712 -0.09328167 -0.5319849 -0.8415999 
7.262583 48.26667 -3.991048 0.08327257 0.1835198 -0.9794826 
2.082453 50.24651 3.685177 0.02618406 0.4035459 0.9145846 
3.315692 52.19021 1.762907 0.1435415 0.8811505 0.4505214 
0.1646459 51.81993 2.718625 0.01125134 0.7047499 0.7093666 
1.545959 44.66111 -0.1817868 -0.1129273 -0.9935331 -0.01180832 
-0.8239825 45.53104 -2.527518 -0.02120475 -0.777824 -0.6281244 
-4.209231 51.00693 -3.171045 -0.1243024 0.6593943 -0.7414501 
0.8377241 48.0099 3.919273 -0.008863874 -0.2597437 0.9656368 
0.3774783 46.69053 3.455436 -0.04056927 -0.5408968 0.84011 
-1.507749 45.11098 1.716256 0.1277754 -0.9428936 0.3076119 
-0.3424886 47.98526 -3.913554 -0.003015072 -0.2992869 -0.9541584 
-3.3378 49.5814 -3.9836 -0.01744899 0.1784241 -0.9837989 
-3.352937 52.06017 2.085449 -0.1336567 0.8931524 0.4294354 
-3.874159 50.57295 3.413334 -0.1056724 0.5669032 0.8169786 
3.046704 44.86014 1.762814 -0.1249999 -0.8667582 0.4828095 
-3.518735 52.02997 -1.938251 -0.1501652 0.8811411 -0.4483757 
-3.107747 45.92175 3.169641 0.07395663 -0.6181592 0.7825661 
-3.641465 44.37573 -0.01403169 0.2878738 -0.9534518 -0.08976847 
-2.417984 44.66945 -0.7092879 0.1014486 -0.9829292 -0.1534878 
-3.967376 52.47328 -0.3190348 -0.1541253 0.9841935 -0.08722713 
-5.924992 46.31283 3.732307 0.1174079 -0.4023111 0.9079434 
-4.824957 45.08958 -2.777486 0.2077096 -0.7589161 -0.6171734 
-6.285707 46.5424 -3.846648 0.09628993 -0.2530273 -0.9626554 
-6.828539 51.20121 2.07837 -0.2396466 0.7851509 0.5710583 
-7.864725 51.43937 0.3742489 -0.3180614 0.9351842 0.1557801 
-9.127113 48.9352 3.46972 -0.2047999 0.4835438 0.8510243 
-6.919855 44.56713 2.850911 0.2728275 -0.6231962 0.7329336 
-7.237555 43.1989 0.9886876 0.4660998 -0.8506196 0.2433049 
-9.139549 49.95596 -2.665433 -0.2729645 0.6424381 -0.7160751 
-11.96584 49.56263 0.7955774 -0.4847983 0.8688331 0.1004981 
-9.987915 49.80104 2.424007 -0.3793789 0.7505535 0.5410556 
-1.007653 49.1842 4.001977 0.03765037 -0.02763058 0.9989089 
-9.3724 50.63393 -1.502903 -0.3550347 0.8580794 -0.3710122 
-4.089306 49.22947 3.962946 -0.04124869 0.2759949 0.9602736 
-8.404976 42.4929 -0.8416211 0.4705467 -0.8393807 -0.272077 
-7.468436 48.16162 -3.98395 -0.1019976 0.2605444 -0.960059 
-9.14941 43.46108 -3.034159 0.3710689 -0.5748094 -0.7293161 
-13.57729 48.13373 -1.780811 -0.523576 0.7542959 -0.3961132 
-9.868508 44.93628 3.879078 0.1678231 -0.3297339 0.9290376 
-11.14879 48.16846 -3.2909 -0.3152583 0.5172527 -0.7956519 
-14.12408 46.23689 3.225584 -0.3862379 0.4856177 0.7842166 
-15.61225 44.35027 -3.510031 -0.3876583 0.3910681 -0.8347375 
-12.20331 42.44312 3.650674 0.2902094 -0.3278089 0.8990661 
-10.69711 41.63087 2.30725 0.5169852 -0.6150587 0.5953395 
-15.01281 47.42702 1.089424 -0.6032568 0.7426445 0.2907925 
-11.28043 40.1911 -0.9558822 0.6567379 -0.7104057 -0.2530199 
-11.49274 44.99287 -4.078412 0.04097485 -0.05333973 -0.9977354 
-16.63112 46.05487 -1.125406 -0.6718262 0.6764255 -0.3018247 
-17.76119 43.29425 2.820481 -0.5651652 0.4656322 0.6810102 
-13.01673 45.20562 3.904401 -0.1364717 0.1845428 0.9733033 
-12.29471 44.47163 4.008027 0.04671816 -0.06303707 0.9969171 
-13.97667 39.09845 -2.964539 0.5878243 -0.3904245 -0.7085417 
-11.98969 39.6348 1.144699 0.7186502 -0.6389115 0.2744704 
-19.1354 43.23465 0.715459 -0.7802777 0.6065825 0.1523954 
-16.50974 39.60435 -4.080721 0.02832762 -0.01234918 -0.9995224 
-16.54357 41.9396 3.877848 -0.2892817 0.233085 0.9284328 
-18.37147 38.08397 3.999823 -0.118501 0.05157289 0.9916137 
-15.55875 39.77017 3.911318 0.2161634 -0.1466434 0.9652818 
-21.13784 40.29686 -0.1493545 -0.8875029 0.4607173 -0.00884894 
-20.43627 40.14786 2.258141 -0.7648173 0.4021935 0.5032842 
-14.69055 37.92245 3.017445 0.589678 -0.3844246 0.7102799 
-12.99483 38.0413 -0.6585876 0.8120806 -0.5403733 -0.2202767 
-19.63704 33.36002 4.006088 0.009832149 -0.01392868 0.9998546 
-19.23132 39.69083 -3.493795 -0.4316579 0.2307195 -0.872032 
-19.90486 41.34858 -2.117185 -0.7318636 0.4622008 -0.5007457 
-22.57095 36.13528 -1.592577 -0.89485 0.290711 -0.3387192 
-19.80155 37.87255 3.613165 -0.4448773 0.2096066 0.8707176 
-14.46741 35.64765 -1.024397 0.8721417 -0.4252124 -0.2419986 
-17.7046 34.39498 3.713936 0.3738844 -0.1442857 0.9161835 
-22.56695 33.72443 -2.716715 -0.6725387 0.1622773 -0.7220511 
-16.25649 34.43333 -2.882154 0.6664878 -0.2336231 -0.7079649 
-20.40499 33.60635 -3.9436 -0.2386006 0.07654193 -0.9680966 
-22.59028 34.53311 2.495092 -0.7480426 0.1891589 0.6361219 
-23.39204 34.5976 0.6849169 -0.9560873 0.2661487 0.1227271 
-21.58262 30.00008 3.74997 -0.2736894 -0.6996208 0.6600187 
-18.10115 34.20122 -3.914623 0.3005745 -0.107807 -0.9476458 
-16.40136 33.32615 2.656525 0.7090436 -0.2383186 0.6636728 
-15.31028 33.94365 0.7744929 0.9095604 -0.3704818 0.1882635 
-19.25455 30.00089 3.987327 0.3145205 -0.361019 0.8779193 
-15.68274 32.84818 -1.202168 0.9029039 -0.2911903 -0.3161847 
-20.53042 29.9999 -4.182294 -0.1841748 -0.493436 -0.8500592 
3 2 1 3 
3 1 4 3 
3 0 5 4 
3 0 6 7 
3 7 6 8 
3 8 6 9 
3 9 6 10 
3 10 6 11 
3 11 6 88 
3 88 6 89 
3 6 12 89 
3 15 16 17 
3 16 18 19 
3 16 118 139 
3 19 18 20 
3 21 18 22 
3 22 18 23 
3 24 23 25 
3 25 23 26 
3 23 139 26 
3 26 139 104 
3 104 139 27 
3 139 116 27 
3 27 116 28 
3 116 29 28 
3 30 29 31 
3 29 32 31 
3 32 35 33 
3 33 35 34 
3 37 109 36 
3 120 38 37 
3 18 16 139 
3 35 32 116 
3 12 6 13 
3 13 15 14 
3 139 23 18 
3 116 32 29 
3 53 51 52 
3 40 42 41 
3 43 46 44 
3 44 46 45 
3 45 46 372 
3 52 47 46 
3 47 52 48 
3 48 52 49 
3 49 52 50 
3 50 52 51 
3 53 52 54 
3 52 55 54 
3 57 56 59 
3 56 58 59 
3 59 58 60 
3 60 58 61 
3 61 58 62 
3 62 58 63 
3 63 58 64 
3 64 58 65 
3 58 74 65 
3 355 74 66 
3 66 74 67 
3 74 68 67 
3 68 70 69 
3 69 70 354 
3 71 70 72 
3 72 70 352 
3 70 75 352 
3 352 75 73 
3 58 137 74 
3 68 132 70 
3 55 157 56 
3 157 58 56 
3 74 132 68 
3 347 75 122 
3 42 152 43 
3 43 152 46 
3 52 157 55 
3 39 347 122 
3 76 501 495 
3 77 76 495 
3 495 493 77 
3 78 499 495 
3 79 78 495 
3 495 501 79 
3 350 2 108 
3 2 3 108 
3 3 83 108 
3 83 5 108 
3 5 84 108 
3 108 84 85 
3 317 85 314 
3 85 86 314 
3 87 88 314 
3 88 89 91 
3 90 92 91 
3 91 92 94 
3 92 93 94 
3 17 95 94 
3 95 16 94 
3 16 96 94 
3 94 96 168 
3 96 97 168 
3 97 98 101 
3 98 99 101 
3 99 100 101 
3 101 23 24 
3 24 102 106 
3 102 103 106 
3 103 104 106 
3 104 105 106 
3 105 107 106 
3 107 30 106 
3 106 30 82 
3 314 88 91 
3 97 101 168 
3 101 24 106 
3 106 82 312 
3 314 91 317 
3 81 34 82 
3 80 109 34 
3 312 109 111 
3 110 111 109 
3 111 38 376 
3 112 188 176 
3 243 112 176 
3 304 243 176 
3 338 304 176 
3 113 338 176 
3 176 114 113 
3 115 114 176 
3 1 39 122 
3 40 38 120 
3 52 146 157 
3 121 137 58 
3 37 36 120 
3 118 16 150 
3 123 116 117 
3 58 157 121 
3 118 117 139 
3 75 132 122 
3 122 132 119 
3 162 118 150 
3 131 119 137 
3 138 120 123 
3 120 36 123 
3 35 123 36 
3 139 117 116 
3 134 125 128 
3 127 147 160 
3 132 75 70 
3 161 160 147 
3 131 134 133 
3 134 135 133 
3 133 135 129 
3 127 138 124 
3 1 122 136 
3 137 132 74 
3 122 119 145 
3 42 40 120 
3 4 1 136 
3 145 131 133 
3 132 137 119 
3 138 149 158 
3 136 122 145 
3 138 123 117 
3 131 137 125 
3 137 121 125 
3 42 120 155 
3 4 136 0 
3 159 121 157 
3 120 138 158 
3 380 144 140 
3 140 148 156 
3 155 120 158 
3 126 124 162 
3 162 124 118 
3 141 166 154 
3 166 13 6 
3 136 154 0 
3 134 131 125 
3 383 151 155 
3 155 151 163 
3 152 42 155 
3 124 117 118 
3 148 143 156 
3 156 141 154 
3 166 150 13 
3 144 148 140 
3 143 141 156 
3 6 0 154 
3 159 125 121 
3 129 380 145 
3 145 140 136 
3 146 159 157 
3 155 163 152 
3 149 138 127 
3 143 126 141 
3 144 130 161 
3 136 156 154 
3 146 142 159 
3 164 383 158 
3 380 140 145 
3 151 146 163 
3 149 127 153 
3 166 162 150 
3 136 140 156 
3 383 386 151 
3 135 134 128 
3 152 52 46 
3 124 138 117 
3 143 161 126 
3 166 6 154 
3 13 150 15 
3 386 378 142 
3 153 127 160 
3 141 162 166 
3 125 142 128 
3 128 142 378 
3 152 146 52 
3 149 153 164 
3 144 161 148 
3 150 16 15 
3 125 159 142 
3 151 142 146 
3 164 153 165 
3 126 147 124 
3 128 378 135 
3 383 155 158 
3 116 123 35 
3 161 147 126 
3 148 161 143 
3 119 131 145 
3 133 129 145 
3 386 142 151 
3 163 146 152 
3 158 149 164 
3 153 160 165 
3 130 160 161 
3 147 127 124 
3 126 162 141 
3 243 304 300 
3 34 312 82 
3 358 171 360 
3 248 363 360 
3 363 325 364 
3 192 247 251 
3 254 195 167 
3 174 176 178 
3 173 174 178 
3 300 175 242 
3 115 176 174 
3 302 182 177 
3 180 173 181 
3 173 178 181 
3 175 302 177 
3 177 182 179 
3 177 297 175 
3 178 176 184 
3 182 326 253 
3 183 181 184 
3 183 186 181 
3 253 185 182 
3 186 180 181 
3 187 186 183 
3 176 188 184 
3 190 206 186 
3 189 184 188 
3 198 253 332 
3 190 186 187 
3 269 183 184 
3 187 183 263 
3 249 245 198 
3 185 253 198 
3 198 332 249 
3 181 178 184 
3 245 249 247 
3 237 187 263 
3 251 247 249 
3 190 237 236 
3 261 193 191 
3 192 251 167 
3 237 190 187 
3 191 235 261 
3 192 167 195 
3 193 261 262 
3 194 195 254 
3 194 232 244 
3 196 193 262 
3 299 232 194 
3 174 173 213 
3 206 180 186 
3 213 173 180 
3 206 190 199 
3 190 236 199 
3 202 193 196 
3 191 193 202 
3 244 195 194 
3 115 174 213 
3 232 299 201 
3 202 196 172 
3 199 236 191 
3 172 197 200 
3 201 333 204 
3 207 211 180 
3 115 213 114 
3 191 202 209 
3 172 200 212 
3 211 213 180 
3 199 191 209 
3 207 180 206 
3 212 200 208 
3 202 172 212 
3 208 200 257 
3 204 203 241 
3 209 202 212 
3 246 204 241 
3 246 201 204 
3 257 200 205 
3 207 206 219 
3 205 200 197 
3 217 199 209 
3 226 114 213 
3 226 213 211 
3 301 210 203 
3 208 257 220 
3 214 257 205 
3 206 199 219 
3 257 255 220 
3 219 199 217 
3 211 207 215 
3 208 220 225 
3 218 226 211 
3 224 209 212 
3 257 214 222 
3 210 301 216 
3 218 211 215 
3 207 219 215 
3 222 238 234 
3 217 209 224 
3 212 208 225 
3 220 255 221 
3 250 223 216 
3 301 250 216 
3 238 222 214 
3 310 224 212 
3 214 205 260 
3 262 197 172 
3 223 250 233 
3 233 250 305 
3 310 212 225 
3 222 234 258 
3 114 226 113 
3 226 218 228 
3 215 219 227 
3 219 217 227 
3 113 226 228 
3 218 215 231 
3 225 220 230 
3 221 313 340 
3 305 229 233 
3 229 248 233 
3 228 218 231 
3 309 217 224 
3 313 311 340 
3 227 217 309 
3 224 310 309 
3 230 220 221 
3 230 221 340 
3 258 168 101 
3 179 182 294 
3 182 185 294 
3 241 203 210 
3 233 248 288 
3 234 238 268 
3 172 196 262 
3 235 191 236 
3 91 94 264 
3 94 259 264 
3 259 234 268 
3 297 179 282 
3 287 246 241 
3 284 198 298 
3 283 179 294 
3 298 245 295 
3 233 288 239 
3 242 297 240 
3 292 223 239 
3 239 223 233 
3 300 242 296 
3 294 185 284 
3 245 247 295 
3 247 192 295 
3 244 192 195 
3 232 201 291 
3 291 201 246 
3 243 300 296 
3 292 210 216 
3 216 223 292 
3 185 198 284 
3 298 198 245 
3 244 232 291 
3 242 175 297 
3 288 248 171 
3 204 252 203 
3 204 333 252 
3 300 306 175 
3 201 299 333 
3 215 227 231 
3 255 256 221 
3 312 256 258 
3 106 312 258 
3 256 255 222 
3 258 256 222 
3 106 258 101 
3 257 222 255 
3 259 168 258 
3 234 259 258 
3 168 259 94 
3 266 197 262 
3 235 236 237 
3 238 214 260 
3 205 197 266 
3 316 261 235 
3 268 264 259 
3 265 260 205 
3 265 205 266 
3 267 262 261 
3 266 262 267 
3 238 260 323 
3 91 264 317 
3 268 238 323 
3 315 266 267 
3 263 183 269 
3 317 264 268 
3 265 266 315 
3 267 261 316 
3 265 315 320 
3 235 237 318 
3 318 316 235 
3 350 108 273 
3 277 273 319 
3 324 276 279 
3 276 318 280 
3 188 271 189 
3 324 279 270 
3 270 277 319 
3 273 272 350 
3 112 271 188 
3 272 169 350 
3 322 275 318 
3 274 275 322 
3 277 281 273 
3 189 286 274 
3 273 289 272 
3 318 275 280 
3 273 281 289 
3 270 278 277 
3 274 283 275 
3 279 278 270 
3 272 352 169 
3 282 283 274 
3 112 290 271 
3 271 286 189 
3 274 286 282 
3 280 293 276 
3 276 285 279 
3 283 284 275 
3 293 285 276 
3 278 287 277 
3 275 284 280 
3 277 287 281 
3 292 289 281 
3 112 296 290 
3 271 290 286 
3 289 288 272 
3 243 296 112 
3 244 291 279 
3 290 240 286 
3 285 244 279 
3 279 291 278 
3 287 292 281 
3 290 296 240 
3 240 282 286 
3 283 294 284 
3 280 284 298 
3 298 293 280 
3 291 287 278 
3 292 239 289 
3 285 192 244 
3 293 295 285 
3 287 210 292 
3 239 288 289 
3 282 179 283 
3 293 298 295 
3 285 295 192 
3 241 210 287 
3 291 246 287 
3 296 242 240 
3 325 248 229 
3 179 297 177 
3 251 307 167 
3 254 329 194 
3 329 299 194 
3 301 327 250 
3 306 302 175 
3 302 334 182 
3 249 303 251 
3 307 254 167 
3 203 252 301 
3 300 304 306 
3 332 303 249 
3 328 307 251 
3 182 334 326 
3 301 252 330 
3 301 330 327 
3 305 331 229 
3 229 331 325 
3 253 326 332 
3 303 328 251 
3 250 341 305 
3 113 228 339 
3 227 309 308 
3 340 311 341 
3 111 376 311 
3 111 311 312 
3 34 109 312 
3 312 313 256 
3 256 313 221 
3 318 237 263 
3 263 269 322 
3 317 268 323 
3 260 265 319 
3 318 263 322 
3 323 260 319 
3 321 265 320 
3 267 316 324 
3 108 85 317 
3 319 265 321 
3 320 315 324 
3 315 267 324 
3 317 323 273 
3 108 317 273 
3 322 269 274 
3 274 269 189 
3 273 323 319 
3 324 316 276 
3 276 316 318 
3 319 321 270 
3 270 321 320 
3 320 324 270 
3 352 272 170 
3 272 288 170 
3 170 288 67 
3 288 171 67 
3 171 248 360 
3 248 325 363 
3 369 325 331 
3 297 282 240 
3 328 342 307 
3 254 307 329 
3 327 341 250 
3 332 344 303 
3 329 343 299 
3 338 306 304 
3 337 334 302 
3 326 344 332 
3 306 337 302 
3 305 341 331 
3 331 345 369 
3 299 336 333 
3 334 335 326 
3 307 343 329 
3 341 345 331 
3 307 342 343 
3 299 343 336 
3 327 340 341 
3 334 337 335 
3 326 335 344 
3 328 303 308 
3 308 342 328 
3 333 336 252 
3 252 336 330 
3 338 339 306 
3 344 308 303 
3 306 339 337 
3 336 230 330 
3 345 375 372 
3 113 339 338 
3 330 230 327 
3 335 231 344 
3 230 340 327 
3 339 228 337 
3 337 228 335 
3 308 309 342 
3 342 310 343 
3 344 227 308 
3 341 311 345 
3 343 225 336 
3 231 227 344 
3 342 309 310 
3 345 311 375 
3 228 231 335 
3 343 310 225 
3 336 225 230 
3 375 311 377 
3 312 311 313 
3 269 184 189 
3 346 75 169 
3 169 75 347 
3 348 347 349 
3 347 39 349 
3 349 39 350 
3 351 72 352 
3 352 73 346 
3 73 75 346 
3 70 71 353 
3 353 71 351 
3 351 71 72 
3 70 353 354 
3 67 68 356 
3 68 69 356 
3 356 69 170 
3 170 69 354 
3 355 357 74 
3 74 357 65 
3 65 358 64 
3 358 359 64 
3 64 359 63 
3 359 360 63 
3 63 360 62 
3 360 361 62 
3 62 361 61 
3 361 362 61 
3 61 362 60 
3 60 362 59 
3 362 363 59 
3 59 363 57 
3 363 364 57 
3 57 364 56 
3 364 365 56 
3 365 366 56 
3 56 366 55 
3 366 367 55 
3 55 367 54 
3 54 367 53 
3 53 368 51 
3 368 369 51 
3 51 369 50 
3 369 370 50 
3 50 370 49 
3 49 370 48 
3 370 371 48 
3 48 371 47 
3 371 372 47 
3 47 372 46 
3 372 373 45 
3 45 373 44 
3 44 374 43 
3 43 374 42 
3 374 375 42 
3 42 375 41 
3 376 40 377 
3 40 41 377 
3 376 38 40 
3 38 111 37 
3 111 110 37 
3 110 109 37 
3 109 80 36 
3 36 80 35 
3 80 34 35 
3 34 81 33 
3 33 81 32 
3 81 82 32 
3 32 82 31 
3 82 30 31 
3 30 107 29 
3 29 107 28 
3 107 105 28 
3 28 105 27 
3 105 104 27 
3 104 103 26 
3 103 102 26 
3 26 102 25 
3 25 102 24 
3 23 101 22 
3 101 100 22 
3 22 100 21 
3 100 99 21 
3 21 99 18 
3 99 98 18 
3 18 98 20 
3 98 97 20 
3 20 97 19 
3 97 96 19 
3 19 96 16 
3 16 95 17 
3 17 94 15 
3 94 93 15 
3 15 93 14 
3 93 92 14 
3 14 92 13 
3 92 90 13 
3 13 90 12 
3 90 91 12 
3 12 91 89 
3 11 88 10 
3 88 87 10 
3 87 314 10 
3 10 314 9 
3 9 314 8 
3 314 86 8 
3 8 86 7 
3 86 85 7 
3 7 85 0 
3 85 84 0 
3 3 4 83 
3 0 84 5 
3 5 83 4 
3 39 1 350 
3 1 2 350 
3 169 349 350 
3 169 348 349 
3 347 348 169 
3 352 346 169 
3 354 353 170 
3 170 353 352 
3 353 351 352 
3 356 170 67 
3 66 67 355 
3 355 358 357 
3 357 358 65 
3 358 360 359 
3 360 363 361 
3 361 363 362 
3 364 325 365 
3 365 325 366 
3 366 325 367 
3 367 325 53 
3 369 368 325 
3 325 368 53 
3 369 345 370 
3 370 345 371 
3 345 372 371 
3 373 372 44 
3 372 375 44 
3 374 44 375 
3 355 67 171 
3 377 41 375 
3 311 376 377 
3 355 171 358 
3 160 130 384 
3 144 387 130 
3 160 384 165 
3 165 382 164 
3 383 394 386 
3 397 129 135 
3 129 379 380 
3 380 387 144 
3 387 390 130 
3 130 390 384 
3 390 381 384 
3 382 393 164 
3 393 383 164 
3 378 389 135 
3 397 379 129 
3 384 385 165 
3 385 382 165 
3 388 384 381 
3 386 389 378 
3 388 385 384 
3 393 394 383 
3 394 395 386 
3 395 389 386 
3 135 392 397 
3 379 404 380 
3 390 391 381 
3 381 391 388 
3 389 392 135 
3 380 404 387 
3 382 399 393 
3 396 392 389 
3 387 398 390 
3 390 398 391 
3 385 399 382 
3 409 395 394 
3 395 396 389 
3 404 398 387 
3 391 405 388 
3 405 385 388 
3 397 401 379 
3 401 404 379 
3 385 407 399 
3 398 403 391 
3 405 407 385 
3 393 409 394 
3 419 395 409 
3 396 406 392 
3 406 400 392 
3 392 400 397 
3 404 421 398 
3 421 402 398 
3 403 405 391 
3 418 409 393 
3 398 402 403 
3 407 418 399 
3 399 418 393 
3 419 408 395 
3 402 414 403 
3 405 411 407 
3 395 408 396 
3 410 400 406 
3 400 401 397 
3 414 411 403 
3 403 411 405 
3 396 408 406 
3 435 408 419 
3 408 410 406 
3 411 413 407 
3 413 418 407 
3 409 428 419 
3 410 415 400 
3 421 404 401 
3 421 412 402 
3 402 412 414 
3 416 423 411 
3 423 413 411 
3 415 401 400 
3 414 416 411 
3 415 420 401 
3 420 431 401 
3 418 428 409 
3 435 425 408 
3 425 410 408 
3 431 421 401 
3 412 417 414 
3 417 416 414 
3 413 422 418 
3 422 452 418 
3 429 419 428 
3 419 429 435 
3 425 426 410 
3 426 415 410 
3 431 432 421 
3 452 428 418 
3 421 432 412 
3 416 424 423 
3 423 424 413 
3 413 424 422 
3 435 430 425 
3 426 420 415 
3 432 427 412 
3 412 427 417 
3 424 454 422 
3 454 452 422 
3 430 439 425 
3 439 426 425 
3 427 436 417 
3 417 440 416 
3 433 424 416 
3 424 434 454 
3 430 438 439 
3 436 440 417 
3 440 433 416 
3 433 434 424 
3 435 437 430 
3 428 437 429 
3 429 437 435 
3 426 431 420 
3 439 442 426 
3 444 434 433 
3 452 441 428 
3 428 441 437 
3 447 430 437 
3 442 431 426 
3 456 427 432 
3 427 453 436 
3 453 440 436 
3 440 445 433 
3 445 444 433 
3 442 443 431 
3 449 453 427 
3 453 445 440 
3 451 446 444 
3 444 446 434 
3 446 454 434 
3 441 447 437 
3 447 448 430 
3 448 438 430 
3 438 442 439 
3 443 432 431 
3 445 451 444 
3 456 449 427 
3 460 453 449 
3 453 450 445 
3 445 450 451 
3 459 441 452 
3 448 455 438 
3 438 455 442 
3 442 457 443 
3 443 456 432 
3 456 460 449 
3 457 467 443 
3 460 458 453 
3 446 470 454 
3 459 447 441 
3 447 464 448 
3 455 457 442 
3 453 458 450 
3 458 465 450 
3 470 471 454 
3 454 471 452 
3 452 471 459 
3 467 460 456 
3 450 465 451 
3 465 461 451 
3 451 461 446 
3 461 470 446 
3 467 456 443 
3 462 458 460 
3 458 468 465 
3 459 463 447 
3 467 462 460 
3 462 468 458 
3 464 473 448 
3 473 466 448 
3 470 477 471 
3 463 464 447 
3 448 466 455 
3 465 469 461 
3 459 471 463 
3 455 466 457 
3 466 472 457 
3 472 467 457 
3 475 462 467 
3 469 476 461 
3 461 476 470 
3 476 477 470 
3 462 485 468 
3 468 474 465 
3 465 474 469 
3 477 478 471 
3 471 478 463 
3 482 472 466 
3 484 485 462 
3 485 474 468 
3 478 481 463 
3 481 464 463 
3 481 473 464 
3 472 475 467 
3 475 484 462 
3 474 480 469 
3 473 482 466 
3 482 488 472 
3 485 479 474 
3 479 480 474 
3 477 483 478 
3 481 498 473 
3 480 487 469 
3 469 487 476 
3 498 482 473 
3 487 477 476 
3 483 489 478 
3 478 489 481 
3 496 492 475 
3 498 488 482 
3 472 496 475 
3 475 492 484 
3 485 486 479 
3 479 494 480 
3 494 493 480 
3 493 487 480 
3 489 497 481 
3 481 497 498 
3 500 472 488 
3 491 496 472 
3 484 490 485 
3 490 486 485 
3 486 494 479 
3 472 500 491 
3 499 489 483 
3 492 490 484 
3 493 495 487 
3 495 477 487 
3 495 483 477 
3 498 500 488 
3 500 79 491 
3 490 76 486 
3 76 494 486 
3 79 496 491 
3 501 492 496 
3 498 78 500 
3 501 496 79 
3 79 500 78 
3 498 497 78 
3 78 497 499 
3 497 489 499 
3 483 495 499 
3 493 494 77 
3 494 76 77 
3 76 490 501 
3 490 492 501 
