ply
format ascii 1.0
comment VCGLIB generated
element vertex 384
property float x
property float y
property float z
property float nx
property float ny
property float nz
element face 764
property list uchar int vertex_indices
end_header
37.79974 -15.69527 5 0.3713267 -1.699718 1.173836 
37.79974 -15.69527 -5 0.3713268 -1.699718 -1.173836 
38.44579 -14.03862 -5 2.950311 -1.077316 -3.098145 
38.44579 -14.03862 5 2.950312 -1.077316 3.098145 
39.01928 -12.35548 -5 2.99432 -0.9481534 -3.098143 
39.01928 -12.35548 5 2.99432 -0.9481533 3.098143 
39.51912 -10.64901 -5 3.032677 -0.8172015 -3.098146 
39.51912 -10.64901 5 3.032677 -0.8172016 3.098145 
39.94436 -8.922446 -5 3.06531 -0.6847066 -3.098143 
39.94436 -8.922446 5 3.06531 -0.6847064 3.098142 
40.29421 -7.17904 -5 3.092158 -0.5509142 -3.098142 
40.29421 -7.17904 5 3.092158 -0.5509142 3.098143 
40.568 -5.422083 -5 3.113169 -0.4160837 -3.098144 
40.568 -5.422083 5 3.113169 -0.4160837 3.098143 
40.76522 -3.654892 -5 3.128303 -0.2804747 -3.098147 
40.76522 -3.654892 5 3.128304 -0.2804747 3.098147 
40.88551 -1.880802 -5 3.137533 -0.1443334 -3.098142 
40.88551 -1.880802 5 3.137533 -0.1443334 3.098142 
40.92861 -0.1031627 -5 3.140841 -0.007915737 -3.098145 
40.92861 -0.1031627 5 3.140841 -0.007915746 3.098145 
40.89447 1.674672 -5 3.138221 0.128512 -3.098145 
40.89447 1.674672 5 3.138221 0.128512 3.098145 
40.78313 3.449345 -5 3.129677 0.2647005 -3.098143 
40.78313 3.449345 5 3.129677 0.2647005 3.098142 
40.59482 5.217508 -5 3.115226 0.4003903 -3.098144 
40.59482 5.217508 5 3.115226 0.4003903 3.098144 
40.32989 6.975822 -5 3.094895 0.5353217 -3.098144 
40.32989 6.975822 5 3.094895 0.5353217 3.098144 
39.98883 8.720971 -5 3.068723 0.6692423 -3.098145 
39.98883 8.720971 5 3.068723 0.6692423 3.098145 
39.5723 10.44966 -5 3.036758 0.8019028 -3.098142 
39.5723 10.44966 5 3.036758 0.8019028 3.098142 
39.08107 12.15862 -5 2.999062 0.9330468 -3.098146 
39.08107 12.15862 5 2.999062 0.9330468 3.098146 
38.51608 13.84464 -5 2.955705 1.062428 -3.098143 
38.51608 13.84464 5 2.955705 1.062428 3.098143 
37.87838 15.50452 -5 2.906769 1.189808 -3.098144 
37.87838 15.50452 5 2.906769 1.189808 3.098144 
37.1692 17.13514 -5 2.852345 1.314943 -3.098142 
37.1692 17.13514 5 2.852345 1.314943 3.098142 
36.38985 18.73341 -5 2.792538 1.437594 -3.098146 
36.38985 18.73341 5 2.792538 1.437594 3.098146 
35.54182 20.29633 -5 2.727463 1.557528 -3.098145 
35.54182 20.29633 5 2.727463 1.557527 3.098145 
34.62671 21.82093 -5 2.657236 1.674528 -3.09814 
34.62671 21.82093 5 2.657236 1.674528 3.09814 
33.64623 23.30435 -5 2.581993 1.788367 -3.098145 
33.64623 23.30435 5 2.581993 1.788367 3.098145 
32.60225 24.74379 -5 2.501881 1.898825 -3.098145 
32.60225 24.74379 5 2.501881 1.898826 3.098145 
31.49674 26.13652 -5 2.417045 2.005702 -3.098144 
31.49674 26.13652 5 2.417045 2.005702 3.098144 
30.33177 27.47991 -5 2.327645 2.108795 -3.098142 
30.33177 27.47991 5 2.327645 2.108794 3.098142 
29.10955 28.77144 -5 2.233851 2.207907 -3.098144 
29.10955 28.77144 5 2.233852 2.207907 3.098144 
27.83239 30.00866 -5 2.135844 2.30285 -3.098145 
27.83239 30.00866 5 2.135844 2.30285 3.098145 
26.5027 31.18924 -5 2.033804 2.393446 -3.098144 
26.5027 31.18924 5 2.033804 2.393446 3.098144 
25.12298 32.31096 -5 1.927925 2.479527 -3.098144 
25.12298 32.31096 5 1.927925 2.479527 3.098144 
23.69584 33.37168 -5 1.818407 2.560926 -3.098143 
23.69584 33.37168 5 1.818407 2.560926 3.098143 
22.22398 34.36942 -5 1.705457 2.637492 -3.098145 
22.22398 34.36942 5 1.705457 2.637492 3.098145 
20.71017 35.30228 -5 1.589288 2.70908 -3.098143 
20.71017 35.30228 5 1.589288 2.70908 3.098143 
19.15726 36.16851 -5 1.470121 2.775553 -3.098146 
19.15726 36.16851 5 1.470121 2.775553 3.098146 
17.5682 36.96648 -5 1.348176 2.836788 -3.098141 
17.5682 36.96648 5 1.348176 2.836788 3.098141 
15.94598 37.69466 -5 1.223685 2.892671 -3.098145 
15.94598 37.69466 5 1.223684 2.892671 3.098144 
14.29366 38.3517 -5 1.096891 2.94309 -3.098146 
14.29366 38.3517 5 1.096891 2.94309 3.098146 
12.61436 38.93636 -5 0.9680218 2.987956 -3.098141 
12.61436 38.93636 5 0.9680218 2.987956 3.098141 
10.91125 39.44752 -5 0.8373201 3.027184 -3.098143 
10.91125 39.44752 5 0.8373201 3.027184 3.098143 
9.187552 39.88422 -5 0.705047 3.060695 -3.098147 
9.187552 39.88422 5 0.705047 3.060695 3.098147 
7.446507 40.24564 -5 0.571443 3.08843 -3.098143 
7.446507 40.24564 5 0.5714429 3.08843 3.098143 
5.691408 40.5311 -5 0.4367575 3.110336 -3.098145 
5.691408 40.5311 5 0.4367575 3.110336 3.098145 
3.925566 40.74006 -5 0.3012463 3.126371 -3.098142 
3.925566 40.74006 5 0.3012463 3.126371 3.098142 
2.152314 40.87211 -5 0.1651657 3.136505 -3.098145 
2.152314 40.87211 5 0.1651657 3.136505 3.098145 
0.375 40.92702 -5 0.02877838 3.140719 -3.098145 
0.375 40.92702 5 0.02877839 3.140719 3.098145 
-1.403022 40.90469 -5 -0.1076696 3.139005 -3.098141 
-1.403022 40.90469 5 -0.1076696 3.139005 3.098141 
-3.178396 40.80514 -5 -0.2439086 3.131367 -3.098149 
-3.178396 40.80514 5 -0.2439086 3.131366 3.098149 
-4.947771 40.62858 -5 -0.3796894 3.117817 -3.098139 
-4.947771 40.62858 5 -0.3796893 3.117817 3.098139 
-6.707806 40.37533 -5 -0.5147557 3.098382 -3.098147 
-6.707806 40.37533 5 -0.5147557 3.098382 3.098147 
-8.45518 40.04587 -5 -0.6488448 3.073101 -3.098143 
-8.45518 40.04587 5 -0.6488448 3.073101 3.098143 
-10.1866 39.64083 -5 -0.7817108 3.042018 -3.098146 
-10.1866 39.64083 5 -0.7817107 3.042018 3.098146 
-11.89878 39.16096 -5 -0.9131039 3.005193 -3.098141 
-11.89878 39.16096 5 -0.9131039 3.005193 3.098141 
-13.58851 38.60718 -5 -1.042778 2.962695 -3.098143 
-13.58851 38.60718 5 -1.042778 2.962695 3.098143 
-15.2526 37.98053 -5 -1.170478 2.914606 -3.098145 
-15.2526 37.98053 5 -1.170478 2.914606 3.098145 
-16.88789 37.28218 -5 -1.295968 2.861016 -3.098144 
-16.88789 37.28218 5 -1.295967 2.861016 3.098144 
-18.4913 36.51347 -5 -1.419014 2.802025 -3.098143 
-18.4913 36.51347 5 -1.419014 2.802026 3.098143 
-20.05982 35.67584 -5 -1.539381 2.737746 -3.098144 
-20.05982 35.67584 5 -1.539381 2.737746 3.098145 
-21.59047 34.77087 -5 -1.656843 2.668299 -3.098143 
-21.59047 34.77087 5 -1.656843 2.668299 3.098143 
-23.08037 33.80027 -5 -1.771175 2.593817 -3.098147 
-23.08037 33.80027 5 -1.771175 2.593817 3.098147 
-24.5267 32.76588 -5 -1.882167 2.514437 -3.09814 
-24.5267 32.76588 5 -1.882167 2.514437 3.09814 
-25.92674 31.66964 -5 -1.989606 2.430312 -3.098147 
-25.92674 31.66964 5 -1.989606 2.430312 3.098147 
-27.27785 30.51362 -5 -2.093288 2.3416 -3.098141 
-27.27785 30.51362 5 -2.093288 2.3416 3.098141 
-28.57747 29.30001 -5 -2.193021 2.248467 -3.098145 
-28.57747 29.30001 5 -2.193021 2.248467 3.098145 
-29.82314 28.03109 -5 -2.288613 2.151093 -3.098144 
-29.82314 28.03109 5 -2.288612 2.151093 3.098144 
-31.01253 26.70927 -5 -2.379888 2.049654 -3.098142 
-31.01253 26.70927 5 -2.379888 2.049654 3.098142 
-32.14338 25.33703 -5 -2.466667 1.944351 -3.098148 
-32.14338 25.33703 5 -2.466667 1.944351 3.098148 
-33.21356 23.91697 -5 -2.54879 1.835379 -3.098143 
-33.21356 23.91697 5 -2.54879 1.835379 3.098142 
-34.22105 22.45176 -5 -2.626106 1.722938 -3.098144 
-34.22105 22.45176 5 -2.626106 1.722938 3.098144 
-35.16395 20.94418 -5 -2.698465 1.607243 -3.098142 
-35.16395 20.94418 5 -2.698465 1.607243 3.098141 
-36.04047 19.39706 -5 -2.76573 1.488517 -3.098145 
-36.04047 19.39706 5 -2.76573 1.488517 3.098145 
-36.84897 17.81334 -5 -2.827772 1.366987 -3.098146 
-36.84897 17.81334 5 -2.827772 1.366987 3.098146 
-37.58792 16.19599 -5 -2.884477 1.242876 -3.098144 
-37.58792 16.19599 5 -2.884477 1.242876 3.098144 
-38.25592 14.54807 -5 -2.93574 1.116413 -3.098142 
-38.25592 14.54807 5 -2.93574 1.116412 3.098142 
-38.85172 12.87269 -5 -2.981462 0.9878433 -3.098145 
-38.85172 12.87269 5 -2.981462 0.9878434 3.098145 
-39.37418 11.17302 -5 -3.021554 0.8574138 -3.098144 
-39.37418 11.17302 5 -3.021554 0.8574138 3.098145 
-39.82232 9.452252 -5 -3.055945 0.7253603 -3.098142 
-39.82232 9.452252 5 -3.055945 0.7253602 3.098141 
-40.19529 7.713646 -5 -3.084567 0.5919385 -3.098145 
-40.19529 7.713646 5 -3.084567 0.5919385 3.098145 
-40.4924 5.960482 -5 -3.107367 0.4574045 -3.098145 
-40.4924 5.960482 5 -3.107367 0.4574045 3.098145 
-40.71308 4.196066 -5 -3.124301 0.3220078 -3.098145 
-40.71308 4.196066 5 -3.124301 0.3220079 3.098145 
-40.85692 2.423731 -5 -3.135339 0.185998 -3.098141 
-40.85692 2.423731 5 -3.135339 0.185998 3.098142 
-40.92363 0.6468207 -5 -3.140459 0.04963429 -3.098144 
-40.92363 0.6468207 5 -3.140459 0.0496343 3.098144 
-40.91311 -1.13131 -5 -3.139651 -0.08681706 -3.098145 
-40.91311 -1.13131 5 -3.139651 -0.08681704 3.098145 
-40.82536 -2.907306 -5 -3.132917 -0.2231066 -3.098142 
-40.82536 -2.907306 5 -3.132917 -0.2231066 3.098142 
-40.66055 -4.677814 -5 -3.12027 -0.3589717 -3.098147 
-40.66055 -4.677814 5 -3.12027 -0.3589717 3.098147 
-40.41899 -6.439493 -5 -3.101733 -0.4941625 -3.09814 
-40.41899 -6.439493 5 -3.101733 -0.4941625 3.09814 
-40.10115 -8.189018 -5 -3.077342 -0.6284235 -3.098146 
-40.10115 -8.189018 5 -3.077342 -0.6284235 3.098145 
-39.70761 -9.923085 -5 -3.047143 -0.7614917 -3.098144 
-39.70761 -9.923085 5 -3.047142 -0.7614918 3.098144 
-39.23913 -11.63842 -5 -3.011191 -0.8931274 -3.098142 
-39.23913 -11.63842 5 -3.011191 -0.8931274 3.098143 
-38.69658 -13.33179 -5 -2.969556 -1.023075 -3.098146 
-38.69658 -13.33179 5 -2.969556 -1.023075 3.098146 
-38.08099 -15 -5 -1.473664 -2.114593 -1.924305 
-38.08099 -15 5 -1.473664 -2.114593 1.924305 
6.387201 38.54921 5 -0.5135266 -3.098588 3.184548 
4.706786 38.79026 5 -0.3783367 -3.117981 3.185043 
4.706786 38.79026 1 -0.3575467 -3.120808 3.107179 
-5.450423 38.69278 -5 0.4382316 -3.110131 -3.184332 
-3.764656 38.893 -5 0.3026066 -3.12624 -3.185039 
-3.764656 38.893 -1 0.2958501 -3.127026 -3.101076 
3.017486 38.95809 1 -0.2425483 -3.131472 3.098145 
3.017486 38.95809 5 -0.2425484 -3.131472 3.185041 
1.322491 39.05239 1 -0.1063011 -3.139052 3.098142 
1.322491 39.05239 5 -0.1063011 -3.139052 3.185044 
-0.375 39.07298 1 0.03014383 -3.140707 3.098146 
-0.375 39.07298 5 0.03014382 -3.140707 3.185039 
-2.071783 39.01981 1 0.1665322 -3.136433 3.098141 
-2.071783 39.01981 5 0.1665322 -3.136433 3.185044 
-3.764656 38.893 1 0.2935306 -3.127291 3.103963 
-3.764656 38.893 5 0.3008659 -3.126445 3.182744 
-5 38.75356 1 -0.9745398 -4.674264 1.682449 
-5.450423 38.69278 5 0.4398964 -3.109933 3.182409 
-5 38.75356 -1 -0.9769359 -4.67453 -1.679041 
-2.071783 39.01981 -1 0.1665322 -3.136433 -3.098141 
-2.071783 39.01981 -5 0.1665323 -3.136433 -3.185044 
-0.375 39.07298 -1 0.03014382 -3.140707 -3.098146 
-0.375 39.07298 -5 0.03014383 -3.140707 -3.185039 
1.322491 39.05239 -1 -0.1063011 -3.139052 -3.098142 
1.322491 39.05239 -5 -0.1063011 -3.139052 -3.185044 
3.017486 38.95809 -1 -0.2425484 -3.131472 -3.098145 
3.017486 38.95809 -5 -0.2425483 -3.131472 -3.18504 
4.706786 38.79026 -1 -0.3504055 -3.121733 -3.116084 
4.706786 38.79026 -5 -0.377027 -3.118169 -3.183059 
5 38.75356 -1 0.9177963 -4.666677 -1.694785 
6.387201 38.54921 -5 -0.514667 -3.098424 -3.183402 
5 38.75356 1 0.9251179 -4.667535 1.680804 
-36.08099 -15 5 1.463204 -0.9994509 1.198527 
-36.08099 -15 -5 1.463204 -0.9994509 -1.198527 
-36.69847 -13.41866 5 2.949842 1.078598 3.18504 
-36.69847 -13.41866 -5 2.949843 1.078598 -3.18504 
-37.24667 -11.812 5 2.993908 0.9494529 3.185043 
-37.24667 -11.812 -5 2.993908 0.9494529 -3.185043 
-37.72458 -10.18304 5 3.032322 0.8185177 3.185039 
-37.72458 -10.18304 -5 3.032322 0.8185177 -3.185039 
-38.13128 -8.53486 5 3.065012 0.6860403 3.185041 
-38.13128 -8.53486 -5 3.065012 0.6860402 -3.185041 
-38.466 -6.870571 5 3.091918 0.5522604 3.185044 
-38.466 -6.870571 -5 3.091918 0.5522604 -3.185044 
-38.72812 -5.193314 5 3.112988 0.417439 3.18504 
-38.72812 -5.193314 -5 3.112988 0.4174391 -3.18504 
-38.91714 -3.506254 5 3.128181 0.2818342 3.185041 
-38.91714 -3.506254 -5 3.128181 0.2818342 -3.185041 
-39.03271 -1.812576 5 3.13747 0.1456963 3.185041 
-39.03271 -1.812576 -5 3.13747 0.1456963 -3.185041 
-39.0746 -0.115477 5 3.140838 0.00928317 3.185041 
-39.0746 -0.115477 -5 3.140838 0.009283179 -3.185041 
-39.04274 1.58184 5 3.138277 -0.1271512 3.185043 
-39.04274 1.58184 -5 3.138277 -0.1271511 -3.185043 
-38.93719 3.276171 5 3.129792 -0.2633419 3.185039 
-38.93719 3.276171 -5 3.129792 -0.2633419 -3.185039 
-38.75814 4.964319 5 3.1154 -0.3990315 3.18504 
-38.75814 4.964319 -5 3.115401 -0.3990315 -3.18504 
-38.50594 6.643096 5 3.095129 -0.5339729 3.185042 
-38.50594 6.643096 -5 3.095128 -0.5339729 -3.185042 
-38.18106 8.309335 5 3.069014 -0.6679081 3.185042 
-38.18106 8.309335 -5 3.069014 -0.6679082 -3.185042 
-37.78411 9.959889 5 3.037106 -0.800583 3.185043 
-37.78411 9.959889 -5 3.037106 -0.8005831 -3.185042 
-37.31584 11.59165 5 2.999467 -0.931744 3.18504 
-37.31584 11.59165 -5 2.999466 -0.9317439 -3.18504 
-36.77714 13.20152 5 2.956165 -1.061147 3.185043 
-36.77714 13.20152 -5 2.956166 -1.061147 -3.185043 
-36.16902 14.78648 5 2.907285 -1.188546 3.185039 
-36.16902 14.78648 -5 2.907285 -1.188546 -3.185039 
-35.49263 16.34353 5 2.852918 -1.313699 3.185042 
-35.49263 16.34353 -5 2.852918 -1.313699 -3.185042 
-34.74926 17.86973 5 2.793164 -1.436378 3.185042 
-34.74926 17.86973 -5 2.793164 -1.436378 -3.185042 
-33.94029 19.3622 5 2.728139 -1.556343 3.185041 
-33.94029 19.3622 -5 2.728139 -1.556343 -3.18504 
-33.06726 20.81813 5 2.657963 -1.673374 3.185044 
-33.06726 20.81813 -5 2.657963 -1.673374 -3.185044 
-32.13181 22.23476 5 2.582772 -1.787242 3.185038 
-32.13181 22.23476 -5 2.582772 -1.787242 -3.185038 
-31.13572 23.60942 5 2.502706 -1.897738 3.185044 
-31.13572 23.60942 -5 2.502706 -1.897738 -3.185044 
-30.08086 24.93952 5 2.417916 -2.004652 3.185039 
-30.08086 24.93952 -5 2.417916 -2.004653 -3.185038 
-28.96922 26.22255 5 2.328562 -2.107782 3.185043 
-28.96922 26.22255 -5 2.328562 -2.107782 -3.185044 
-27.8029 27.45608 5 2.234812 -2.206935 3.18504 
-27.8029 27.45608 -5 2.234811 -2.206935 -3.185041 
-26.58411 28.63779 5 2.136845 -2.301921 3.185041 
-26.58411 28.63779 -5 2.136845 -2.301921 -3.185041 
-25.31514 29.76545 5 2.034844 -2.392563 3.185042 
-25.31514 29.76545 -5 2.034844 -2.392563 -3.185042 
-23.99838 30.83692 5 1.929002 -2.478689 3.185041 
-23.99838 30.83692 -5 1.929002 -2.478689 -3.185041 
-22.63633 31.85019 5 1.81952 -2.560136 3.185041 
-22.63633 31.85019 -5 1.81952 -2.560136 -3.185041 
-21.23155 32.80334 5 1.706606 -2.636749 3.18504 
-21.23155 32.80334 -5 1.706606 -2.636749 -3.18504 
-19.7867 33.69458 5 1.590467 -2.708387 3.185044 
-19.7867 33.69458 -5 1.590467 -2.708387 -3.185044 
-18.3045 34.52222 5 1.471326 -2.774914 3.18504 
-18.3045 34.52222 -5 1.471326 -2.774914 -3.18504 
-16.78775 35.28469 5 1.349409 -2.836202 3.185042 
-16.78775 35.28469 -5 1.349409 -2.836202 -3.185042 
-15.23931 35.98057 5 1.224941 -2.892139 3.185043 
-15.23931 35.98057 -5 1.224941 -2.892139 -3.185043 
-13.66211 36.60853 5 1.098167 -2.942614 3.185038 
-13.66211 36.60853 -5 1.098167 -2.942614 -3.185038 
-12.05912 37.1674 5 0.9693182 -2.987536 3.185045 
-12.05912 37.1674 -5 0.9693182 -2.987536 -3.185045 
-10.43337 37.65611 5 0.8386408 -3.026819 3.185037 
-10.43337 37.65611 -5 0.8386408 -3.026819 -3.185037 
-8.787931 38.07375 5 0.7063785 -3.060388 3.185046 
-8.787931 38.07375 -5 0.7063785 -3.060388 -3.185046 
-7.125903 38.41952 5 0.5727824 -3.088182 3.185038 
-7.125903 38.41952 -5 0.5727823 -3.088182 -3.185038 
8.05556 38.2354 5 -0.6475098 -3.073382 3.185046 
8.05556 38.2354 -5 -0.6475098 -3.073382 -3.185046 
9.708715 37.84942 5 -0.7803931 -3.042357 3.185038 
9.708715 37.84942 -5 -0.7803931 -3.042356 -3.185038 
11.34354 37.39201 5 -0.911798 -3.00559 3.185042 
11.34354 37.39201 -5 -0.9117979 -3.00559 -3.185043 
12.95696 36.86401 5 -1.04149 -2.963148 3.185043 
12.95696 36.86401 -5 -1.04149 -2.963148 -3.185043 
14.54593 36.26643 5 -1.169209 -2.915115 3.185039 
14.54593 36.26643 -5 -1.169209 -2.915115 -3.185038 
16.10744 35.6004 5 -1.294723 -2.861579 3.185044 
16.10744 35.6004 -5 -1.294724 -2.861579 -3.185044 
17.63854 34.86718 5 -1.417795 -2.802643 3.185039 
17.63854 34.86718 -5 -1.417795 -2.802643 -3.185039 
19.13635 34.06814 5 -1.538192 -2.738414 3.185046 
19.13635 34.06814 -5 -1.538191 -2.738414 -3.185045 
20.59804 33.2048 5 -1.655685 -2.669017 3.185039 
20.59804 33.2048 -5 -1.655685 -2.669017 -3.185039 
22.02086 32.27878 5 -1.770047 -2.594587 3.185041 
22.02086 32.27878 -5 -1.770047 -2.594587 -3.18504 
23.4021 31.29185 5 -1.881073 -2.515256 3.185043 
23.4021 31.29185 -5 -1.881073 -2.515256 -3.185043 
24.73918 30.24584 5 -1.98855 -2.431177 3.18504 
24.73918 30.24584 -5 -1.988549 -2.431176 -3.18504 
26.02956 29.14275 5 -2.092269 -2.342511 3.18504 
26.02956 29.14275 -5 -2.092269 -2.342511 -3.185041 
27.27082 27.98465 5 -2.192042 -2.249421 3.185043 
27.27082 27.98465 -5 -2.192042 -2.249422 -3.185043 
28.46059 26.77373 5 -2.287678 -2.152086 3.185041 
28.46059 26.77373 -5 -2.287678 -2.152086 -3.185041 
29.59665 25.51227 5 -2.378995 -2.05069 3.185041 
29.59665 25.51227 -5 -2.378995 -2.05069 -3.185041 
30.67685 24.20266 5 -2.465821 -1.945424 3.185041 
30.67685 24.20266 -5 -2.465821 -1.945423 -3.185041 
31.69914 22.84737 5 -2.547994 -1.836483 3.185042 
31.69914 22.84737 -5 -2.547994 -1.836483 -3.185042 
32.6616 21.44896 5 -2.625357 -1.724078 3.18504 
32.6616 21.44896 -5 -2.625358 -1.724078 -3.18504 
33.56242 20.01005 5 -2.697764 -1.60842 3.185042 
33.56242 20.01005 -5 -2.697764 -1.60842 -3.185042 
34.39988 18.53338 5 -2.765081 -1.489723 3.185042 
34.39988 18.53338 -5 -2.765081 -1.489723 -3.185042 
35.17241 17.02173 5 -2.827177 -1.368218 3.185039 
35.17241 17.02173 -5 -2.827177 -1.368219 -3.185039 
35.87856 15.47795 5 -2.883937 -1.244128 3.185045 
35.87856 15.47795 -5 -2.883937 -1.244128 -3.185045 
36.51699 13.90496 5 -2.935256 -1.117687 3.18504 
36.51699 13.90496 -5 -2.935255 -1.117687 -3.18504 
37.08649 12.30572 5 -2.981032 -0.9891379 3.185043 
37.08649 12.30572 -5 -2.981032 -0.9891379 -3.185043 
37.58598 10.68325 5 -3.021183 -0.8587214 3.18504 
37.58598 10.68325 -5 -3.021183 -0.8587214 -3.18504 
38.01454 9.040616 5 -3.055629 -0.7266885 3.18504 
38.01454 9.040616 -5 -3.055629 -0.7266886 -3.18504 
38.37134 7.38092 5 -3.084309 -0.5932828 3.185041 
38.37134 7.38092 -5 -3.084309 -0.5932828 -3.185042 
38.65572 5.707293 5 -3.107167 -0.4587578 3.18504 
38.65572 5.707293 -5 -3.107168 -0.4587579 -3.18504 
38.86714 4.022892 5 -3.124161 -0.3233648 3.185043 
38.86714 4.022892 -5 -3.124161 -0.3233648 -3.185043 
39.00519 2.330899 5 -3.135258 -0.1873576 3.185042 
39.00519 2.330899 -5 -3.135258 -0.1873576 -3.185042 
39.06962 0.6345065 5 -3.140437 -0.05100095 3.18504 
39.06962 0.6345065 -5 -3.140437 -0.05100095 -3.18504 
39.06031 -1.063084 5 -3.139688 0.08545105 3.185042 
39.06031 -1.063084 -5 -3.139688 0.08545104 -3.185041 
38.97727 -2.758668 5 -3.133014 0.2217442 3.185042 
38.97727 -2.758668 -5 -3.133014 0.2217442 -3.185042 
38.82066 -4.449045 5 -3.120426 0.3576138 3.185039 
38.82066 -4.449045 -5 -3.120426 0.3576138 -3.185039 
38.59079 -6.131024 5 -3.101948 0.4928162 3.185047 
38.59079 -6.131024 -5 -3.101948 0.4928162 -3.185047 
38.28806 -7.801431 5 -3.077615 0.6270834 3.185035 
38.28806 -7.801431 -5 -3.077615 0.6270834 -3.185035 
37.91307 -9.457113 5 -3.047474 0.7601646 3.185045 
37.91307 -9.457113 -5 -3.047474 0.7601646 -3.185045 
37.46652 -11.09494 5 -3.011578 0.8918226 3.185043 
37.46652 -11.09494 -5 -3.011578 0.8918226 -3.185043 
36.94925 -12.71183 5 -2.970001 1.021784 3.185036 
36.94925 -12.71183 -5 -2.970001 1.021784 -3.185036 
36.36224 -14.30473 5 -2.566027 -0.5858557 1.986517 
36.36224 -14.30473 -5 -2.566027 -0.5858557 -1.986517 
-5 25 1 -1.570796 -1.570796 1.570797 
5 25 1 1.570796 -1.570796 1.570796 
-5 25 -1 -1.570796 -1.570796 -1.570797 
5 25 -1 1.570796 -1.570796 -1.570796 
3 0 1 2 
3 0 2 3 
3 2 4 3 
3 3 4 5 
3 4 6 5 
3 5 6 7 
3 6 8 7 
3 7 8 9 
3 8 10 9 
3 9 10 11 
3 10 12 11 
3 11 12 13 
3 12 14 13 
3 13 14 15 
3 14 16 15 
3 15 16 17 
3 16 18 17 
3 17 18 19 
3 18 20 19 
3 19 20 21 
3 20 22 21 
3 21 22 23 
3 22 24 23 
3 23 24 25 
3 24 26 25 
3 25 26 27 
3 26 28 27 
3 27 28 29 
3 28 30 29 
3 29 30 31 
3 30 32 31 
3 31 32 33 
3 32 34 33 
3 33 34 35 
3 34 36 35 
3 35 36 37 
3 36 38 37 
3 37 38 39 
3 38 40 39 
3 39 40 41 
3 40 42 41 
3 41 42 43 
3 42 44 43 
3 43 44 45 
3 44 46 45 
3 45 46 47 
3 46 48 47 
3 47 48 49 
3 48 50 49 
3 49 50 51 
3 50 52 51 
3 51 52 53 
3 52 54 53 
3 53 54 55 
3 54 56 55 
3 55 56 57 
3 56 58 57 
3 57 58 59 
3 58 60 59 
3 59 60 61 
3 60 62 61 
3 61 62 63 
3 62 64 63 
3 63 64 65 
3 64 66 65 
3 65 66 67 
3 66 68 67 
3 67 68 69 
3 68 70 69 
3 69 70 71 
3 70 72 71 
3 71 72 73 
3 72 74 73 
3 73 74 75 
3 74 76 75 
3 75 76 77 
3 76 78 77 
3 77 78 79 
3 78 80 79 
3 79 80 81 
3 80 82 81 
3 81 82 83 
3 82 84 83 
3 83 84 85 
3 84 86 85 
3 85 86 87 
3 86 88 87 
3 87 88 89 
3 88 90 89 
3 89 90 91 
3 90 92 91 
3 91 92 93 
3 92 94 93 
3 93 94 95 
3 94 96 95 
3 95 96 97 
3 96 98 97 
3 97 98 99 
3 98 100 99 
3 99 100 101 
3 100 102 101 
3 101 102 103 
3 102 104 103 
3 103 104 105 
3 104 106 105 
3 105 106 107 
3 106 108 107 
3 107 108 109 
3 108 110 109 
3 109 110 111 
3 110 112 111 
3 111 112 113 
3 112 114 113 
3 113 114 115 
3 114 116 115 
3 115 116 117 
3 116 118 117 
3 117 118 119 
3 118 120 119 
3 119 120 121 
3 120 122 121 
3 121 122 123 
3 122 124 123 
3 123 124 125 
3 124 126 125 
3 125 126 127 
3 126 128 127 
3 127 128 129 
3 128 130 129 
3 129 130 131 
3 130 132 131 
3 131 132 133 
3 132 134 133 
3 133 134 135 
3 134 136 135 
3 135 136 137 
3 136 138 137 
3 137 138 139 
3 138 140 139 
3 139 140 141 
3 140 142 141 
3 141 142 143 
3 142 144 143 
3 143 144 145 
3 144 146 145 
3 145 146 147 
3 146 148 147 
3 147 148 149 
3 148 150 149 
3 149 150 151 
3 150 152 151 
3 151 152 153 
3 152 154 153 
3 153 154 155 
3 154 156 155 
3 155 156 157 
3 156 158 157 
3 157 158 159 
3 158 160 159 
3 159 160 161 
3 160 162 161 
3 161 162 163 
3 162 164 163 
3 163 164 165 
3 164 166 165 
3 165 166 167 
3 166 168 167 
3 167 168 169 
3 168 170 169 
3 169 170 171 
3 170 172 171 
3 171 172 173 
3 172 174 173 
3 173 174 175 
3 174 176 175 
3 175 176 177 
3 176 178 177 
3 177 178 179 
3 178 180 179 
3 179 180 181 
3 182 183 184 
3 185 186 187 
3 184 183 188 
3 183 189 188 
3 188 189 190 
3 189 191 190 
3 190 191 192 
3 191 193 192 
3 192 193 194 
3 193 195 194 
3 194 195 196 
3 195 197 196 
3 196 197 198 
3 197 199 198 
3 198 199 200 
3 187 186 201 
3 186 202 201 
3 201 202 203 
3 202 204 203 
3 203 204 205 
3 204 206 205 
3 205 206 207 
3 206 208 207 
3 207 208 209 
3 208 210 209 
3 209 210 211 
3 210 212 211 
3 211 212 213 
3 214 215 216 
3 215 217 216 
3 216 217 218 
3 217 219 218 
3 218 219 220 
3 219 221 220 
3 220 221 222 
3 221 223 222 
3 222 223 224 
3 223 225 224 
3 224 225 226 
3 225 227 226 
3 226 227 228 
3 227 229 228 
3 228 229 230 
3 229 231 230 
3 230 231 232 
3 231 233 232 
3 232 233 234 
3 233 235 234 
3 234 235 236 
3 235 237 236 
3 236 237 238 
3 237 239 238 
3 238 239 240 
3 239 241 240 
3 240 241 242 
3 241 243 242 
3 242 243 244 
3 243 245 244 
3 244 245 246 
3 245 247 246 
3 246 247 248 
3 247 249 248 
3 248 249 250 
3 249 251 250 
3 250 251 252 
3 251 253 252 
3 252 253 254 
3 253 255 254 
3 254 255 256 
3 255 257 256 
3 256 257 258 
3 257 259 258 
3 258 259 260 
3 259 261 260 
3 260 261 262 
3 261 263 262 
3 262 263 264 
3 263 265 264 
3 264 265 266 
3 265 267 266 
3 266 267 268 
3 267 269 268 
3 268 269 270 
3 269 271 270 
3 270 271 272 
3 271 273 272 
3 272 273 274 
3 273 275 274 
3 274 275 276 
3 275 277 276 
3 276 277 278 
3 277 279 278 
3 278 279 280 
3 279 281 280 
3 280 281 282 
3 281 283 282 
3 282 283 284 
3 283 285 284 
3 284 285 286 
3 285 287 286 
3 286 287 288 
3 287 289 288 
3 288 289 290 
3 289 291 290 
3 290 291 292 
3 291 293 292 
3 292 293 294 
3 293 295 294 
3 294 295 296 
3 295 297 296 
3 296 297 199 
3 297 185 199 
3 199 185 200 
3 185 187 200 
3 184 213 182 
3 213 212 182 
3 182 212 298 
3 212 299 298 
3 298 299 300 
3 299 301 300 
3 300 301 302 
3 301 303 302 
3 302 303 304 
3 303 305 304 
3 304 305 306 
3 305 307 306 
3 306 307 308 
3 307 309 308 
3 308 309 310 
3 309 311 310 
3 310 311 312 
3 311 313 312 
3 312 313 314 
3 313 315 314 
3 314 315 316 
3 315 317 316 
3 316 317 318 
3 317 319 318 
3 318 319 320 
3 319 321 320 
3 320 321 322 
3 321 323 322 
3 322 323 324 
3 323 325 324 
3 324 325 326 
3 325 327 326 
3 326 327 328 
3 327 329 328 
3 328 329 330 
3 329 331 330 
3 330 331 332 
3 331 333 332 
3 332 333 334 
3 333 335 334 
3 334 335 336 
3 335 337 336 
3 336 337 338 
3 337 339 338 
3 338 339 340 
3 339 341 340 
3 340 341 342 
3 341 343 342 
3 342 343 344 
3 343 345 344 
3 344 345 346 
3 345 347 346 
3 346 347 348 
3 347 349 348 
3 348 349 350 
3 349 351 350 
3 350 351 352 
3 351 353 352 
3 352 353 354 
3 353 355 354 
3 354 355 356 
3 355 357 356 
3 356 357 358 
3 357 359 358 
3 358 359 360 
3 359 361 360 
3 360 361 362 
3 361 363 362 
3 362 363 364 
3 363 365 364 
3 364 365 366 
3 365 367 366 
3 366 367 368 
3 367 369 368 
3 368 369 370 
3 369 371 370 
3 370 371 372 
3 371 373 372 
3 372 373 374 
3 373 375 374 
3 374 375 376 
3 375 377 376 
3 376 377 378 
3 377 379 378 
3 215 180 217 
3 180 178 217 
3 217 178 219 
3 178 176 219 
3 219 176 221 
3 176 174 221 
3 221 174 223 
3 174 172 223 
3 223 172 225 
3 172 170 225 
3 225 170 227 
3 170 168 227 
3 227 168 229 
3 168 166 229 
3 229 166 231 
3 166 164 231 
3 231 164 233 
3 164 162 233 
3 233 162 235 
3 162 160 235 
3 235 160 237 
3 160 158 237 
3 237 158 239 
3 158 156 239 
3 239 156 241 
3 156 154 241 
3 241 154 243 
3 154 152 243 
3 243 152 245 
3 152 150 245 
3 245 150 247 
3 150 148 247 
3 247 148 249 
3 148 146 249 
3 249 146 251 
3 146 144 251 
3 251 144 253 
3 144 142 253 
3 253 142 255 
3 142 140 255 
3 255 140 257 
3 140 138 257 
3 257 138 259 
3 138 136 259 
3 259 136 261 
3 136 134 261 
3 261 134 263 
3 134 132 263 
3 263 132 265 
3 132 130 265 
3 265 130 267 
3 130 128 267 
3 267 128 269 
3 128 126 269 
3 269 126 271 
3 126 124 271 
3 271 124 273 
3 124 122 273 
3 273 122 275 
3 122 120 275 
3 275 120 277 
3 120 118 277 
3 277 118 279 
3 118 116 279 
3 279 116 281 
3 116 114 281 
3 281 114 283 
3 114 112 283 
3 283 112 285 
3 112 110 285 
3 285 110 287 
3 110 108 287 
3 287 108 289 
3 108 106 289 
3 289 106 291 
3 106 104 291 
3 291 104 293 
3 104 102 293 
3 293 102 295 
3 102 100 295 
3 295 100 297 
3 100 98 297 
3 297 98 185 
3 98 96 185 
3 185 96 186 
3 96 94 186 
3 186 94 202 
3 94 92 202 
3 202 92 204 
3 92 90 204 
3 204 90 206 
3 90 88 206 
3 206 88 208 
3 88 86 208 
3 208 86 210 
3 86 84 210 
3 210 84 212 
3 84 82 212 
3 212 82 299 
3 82 80 299 
3 299 80 301 
3 80 78 301 
3 301 78 303 
3 78 76 303 
3 303 76 305 
3 76 74 305 
3 305 74 307 
3 74 72 307 
3 307 72 309 
3 72 70 309 
3 309 70 311 
3 70 68 311 
3 311 68 313 
3 68 66 313 
3 313 66 315 
3 66 64 315 
3 315 64 317 
3 64 62 317 
3 317 62 319 
3 62 60 319 
3 319 60 321 
3 60 58 321 
3 321 58 323 
3 58 56 323 
3 323 56 325 
3 56 54 325 
3 325 54 327 
3 54 52 327 
3 327 52 329 
3 52 50 329 
3 329 50 331 
3 50 48 331 
3 331 48 333 
3 48 46 333 
3 333 46 335 
3 46 44 335 
3 335 44 337 
3 44 42 337 
3 337 42 339 
3 42 40 339 
3 339 40 341 
3 40 38 341 
3 341 38 343 
3 38 36 343 
3 343 36 345 
3 36 34 345 
3 345 34 347 
3 34 32 347 
3 347 32 349 
3 32 30 349 
3 349 30 351 
3 30 28 351 
3 351 28 353 
3 28 26 353 
3 353 26 355 
3 26 24 355 
3 355 24 357 
3 24 22 357 
3 357 22 359 
3 22 20 359 
3 359 20 361 
3 20 18 361 
3 361 18 363 
3 18 16 363 
3 363 16 365 
3 16 14 365 
3 365 14 367 
3 14 12 367 
3 367 12 369 
3 12 10 369 
3 369 10 371 
3 10 8 371 
3 371 8 373 
3 8 6 373 
3 373 6 375 
3 6 4 375 
3 375 4 377 
3 4 2 377 
3 377 2 379 
3 2 1 379 
3 196 198 380 
3 381 213 184 
3 196 380 194 
3 184 188 381 
3 188 190 381 
3 381 190 380 
3 190 192 380 
3 380 192 194 
3 378 0 376 
3 0 3 376 
3 376 3 374 
3 3 5 374 
3 374 5 372 
3 5 7 372 
3 372 7 370 
3 7 9 370 
3 370 9 368 
3 9 11 368 
3 368 11 366 
3 11 13 366 
3 366 13 364 
3 13 15 364 
3 364 15 362 
3 15 17 362 
3 362 17 360 
3 17 19 360 
3 360 19 358 
3 19 21 358 
3 358 21 356 
3 21 23 356 
3 356 23 354 
3 23 25 354 
3 354 25 352 
3 25 27 352 
3 352 27 350 
3 27 29 350 
3 350 29 348 
3 29 31 348 
3 348 31 346 
3 31 33 346 
3 346 33 344 
3 33 35 344 
3 344 35 342 
3 35 37 342 
3 342 37 340 
3 37 39 340 
3 340 39 338 
3 39 41 338 
3 338 41 336 
3 41 43 336 
3 336 43 334 
3 43 45 334 
3 334 45 332 
3 45 47 332 
3 332 47 330 
3 47 49 330 
3 330 49 328 
3 49 51 328 
3 328 51 326 
3 51 53 326 
3 326 53 324 
3 53 55 324 
3 324 55 322 
3 55 57 322 
3 322 57 320 
3 57 59 320 
3 320 59 318 
3 59 61 318 
3 318 61 316 
3 61 63 316 
3 316 63 314 
3 63 65 314 
3 314 65 312 
3 65 67 312 
3 312 67 310 
3 67 69 310 
3 310 69 308 
3 69 71 308 
3 308 71 306 
3 71 73 306 
3 306 73 304 
3 73 75 304 
3 304 75 302 
3 75 77 302 
3 302 77 300 
3 77 79 300 
3 300 79 298 
3 79 81 298 
3 298 81 182 
3 81 83 182 
3 182 83 183 
3 83 85 183 
3 183 85 189 
3 85 87 189 
3 189 87 191 
3 87 89 191 
3 191 89 193 
3 89 91 193 
3 193 91 195 
3 91 93 195 
3 195 93 197 
3 93 95 197 
3 197 95 199 
3 95 97 199 
3 199 97 296 
3 97 99 296 
3 296 99 294 
3 99 101 294 
3 294 101 292 
3 101 103 292 
3 292 103 290 
3 103 105 290 
3 290 105 288 
3 105 107 288 
3 288 107 286 
3 107 109 286 
3 286 109 284 
3 109 111 284 
3 284 111 282 
3 111 113 282 
3 282 113 280 
3 113 115 280 
3 280 115 278 
3 115 117 278 
3 278 117 276 
3 117 119 276 
3 276 119 274 
3 119 121 274 
3 274 121 272 
3 121 123 272 
3 272 123 270 
3 123 125 270 
3 270 125 268 
3 125 127 268 
3 268 127 266 
3 127 129 266 
3 266 129 264 
3 129 131 264 
3 264 131 262 
3 131 133 262 
3 262 133 260 
3 133 135 260 
3 260 135 258 
3 135 137 258 
3 258 137 256 
3 137 139 256 
3 256 139 254 
3 139 141 254 
3 254 141 252 
3 141 143 252 
3 252 143 250 
3 143 145 250 
3 250 145 248 
3 145 147 248 
3 248 147 246 
3 147 149 246 
3 246 149 244 
3 149 151 244 
3 244 151 242 
3 151 153 242 
3 242 153 240 
3 153 155 240 
3 240 155 238 
3 155 157 238 
3 238 157 236 
3 157 159 236 
3 236 159 234 
3 159 161 234 
3 234 161 232 
3 161 163 232 
3 232 163 230 
3 163 165 230 
3 230 165 228 
3 165 167 228 
3 228 167 226 
3 167 169 226 
3 226 169 224 
3 169 171 224 
3 224 171 222 
3 171 173 222 
3 222 173 220 
3 173 175 220 
3 220 175 218 
3 175 177 218 
3 218 177 216 
3 177 179 216 
3 216 179 214 
3 179 181 214 
3 380 382 381 
3 382 383 381 
3 382 380 200 
3 380 198 200 
3 209 211 383 
3 200 187 382 
3 187 201 382 
3 201 203 382 
3 203 205 382 
3 382 205 383 
3 205 207 383 
3 383 207 209 
3 180 215 181 
3 215 214 181 
3 379 1 378 
3 1 0 378 
3 381 383 213 
3 383 211 213 
