ply
format ascii 1.0
comment VCGLIB generated
element vertex 364
property float x
property float y
property float z
property float nx
property float ny
property float nz
element face 724
property list uchar int vertex_indices
end_header
-36.08099 -15 5 1.463204 -0.9994509 1.198527 
-36.08099 -15 -5 1.463204 -0.9994509 -1.198527 
-36.69847 -13.41866 5 2.949842 1.078598 3.18504 
-36.69847 -13.41866 -5 2.949843 1.078598 -3.18504 
-37.24667 -11.812 5 2.993908 0.9494529 3.185043 
-37.24667 -11.812 -5 2.993908 0.9494529 -3.185043 
-37.72458 -10.18304 5 3.032322 0.8185177 3.185039 
-37.72458 -10.18304 -5 3.032322 0.8185177 -3.185039 
-38.13128 -8.53486 5 3.065012 0.6860403 3.185041 
-38.13128 -8.53486 -5 3.065012 0.6860402 -3.185041 
-38.466 -6.870571 5 3.091918 0.5522604 3.185044 
-38.466 -6.870571 -5 3.091918 0.5522604 -3.185044 
-38.72812 -5.193314 5 3.112988 0.417439 3.18504 
-38.72812 -5.193314 -5 3.112988 0.4174391 -3.18504 
-38.91714 -3.506254 5 3.128181 0.2818342 3.185041 
-38.91714 -3.506254 -5 3.128181 0.2818342 -3.185041 
-39.03271 -1.812576 5 3.13747 0.1456963 3.185041 
-39.03271 -1.812576 -5 3.13747 0.1456963 -3.185041 
-39.0746 -0.115477 5 3.140838 0.00928317 3.185041 
-39.0746 -0.115477 -5 3.140838 0.009283179 -3.185041 
-39.04274 1.58184 5 3.138277 -0.1271512 3.185043 
-39.04274 1.58184 -5 3.138277 -0.1271511 -3.185043 
-38.93719 3.276171 5 3.129792 -0.2633419 3.185039 
-38.93719 3.276171 -5 3.129792 -0.2633419 -3.185039 
-38.75814 4.964319 5 3.1154 -0.3990315 3.18504 
-38.75814 4.964319 -5 3.115401 -0.3990315 -3.18504 
-38.50594 6.643096 5 3.095129 -0.5339729 3.185042 
-38.50594 6.643096 -5 3.095128 -0.5339729 -3.185042 
-38.18106 8.309335 5 3.069014 -0.6679081 3.185042 
-38.18106 8.309335 -5 3.069014 -0.6679082 -3.185042 
-37.78411 9.959889 5 3.037106 -0.800583 3.185043 
-37.78411 9.959889 -5 3.037106 -0.8005831 -3.185042 
-37.31584 11.59165 5 2.999467 -0.931744 3.18504 
-37.31584 11.59165 -5 2.999466 -0.9317439 -3.18504 
-36.77714 13.20152 5 2.956165 -1.061147 3.185043 
-36.77714 13.20152 -5 2.956166 -1.061147 -3.185043 
-36.16902 14.78648 5 2.907285 -1.188546 3.185039 
-36.16902 14.78648 -5 2.907285 -1.188546 -3.185039 
-35.49263 16.34353 5 2.852918 -1.313699 3.185042 
-35.49263 16.34353 -5 2.852918 -1.313699 -3.185042 
-34.74926 17.86973 5 2.793164 -1.436378 3.185042 
-34.74926 17.86973 -5 2.793164 -1.436378 -3.185042 
-33.94029 19.3622 5 2.728139 -1.556343 3.185041 
-33.94029 19.3622 -5 2.728139 -1.556343 -3.18504 
-33.06726 20.81813 5 2.657963 -1.673374 3.185044 
-33.06726 20.81813 -5 2.657963 -1.673374 -3.185044 
-32.13181 22.23476 5 2.582772 -1.787242 3.185038 
-32.13181 22.23476 -5 2.582772 -1.787242 -3.185038 
-31.13572 23.60942 5 2.502706 -1.897738 3.185044 
-31.13572 23.60942 -5 2.502706 -1.897738 -3.185044 
-30.08086 24.93952 5 2.417916 -2.004652 3.185039 
-30.08086 24.93952 -5 2.417916 -2.004653 -3.185038 
-28.96922 26.22255 5 2.328562 -2.107782 3.185043 
-28.96922 26.22255 -5 2.328562 -2.107782 -3.185044 
-27.8029 27.45608 5 2.234812 -2.206935 3.18504 
-27.8029 27.45608 -5 2.234811 -2.206935 -3.185041 
-26.58411 28.63779 5 2.136845 -2.301921 3.185041 
-26.58411 28.63779 -5 2.136845 -2.301921 -3.185041 
-25.31514 29.76545 5 2.034844 -2.392563 3.185042 
-25.31514 29.76545 -5 2.034844 -2.392563 -3.185042 
-23.99838 30.83692 5 1.929002 -2.478689 3.185041 
-23.99838 30.83692 -5 1.929002 -2.478689 -3.185041 
-22.63633 31.85019 5 1.81952 -2.560136 3.185041 
-22.63633 31.85019 -5 1.81952 -2.560136 -3.185041 
-21.23155 32.80334 5 1.706606 -2.636749 3.18504 
-21.23155 32.80334 -5 1.706606 -2.636749 -3.18504 
-19.7867 33.69458 5 1.590467 -2.708387 3.185044 
-19.7867 33.69458 -5 1.590467 -2.708387 -3.185044 
-18.3045 34.52222 5 1.471326 -2.774914 3.18504 
-18.3045 34.52222 -5 1.471326 -2.774914 -3.18504 
-16.78775 35.28469 5 1.349409 -2.836202 3.185042 
-16.78775 35.28469 -5 1.349409 -2.836202 -3.185042 
-15.23931 35.98057 5 1.224941 -2.892139 3.185043 
-15.23931 35.98057 -5 1.224941 -2.892139 -3.185043 
-13.66211 36.60853 5 1.098167 -2.942614 3.185038 
-13.66211 36.60853 -5 1.098167 -2.942614 -3.185038 
-12.05912 37.1674 5 0.9693182 -2.987536 3.185045 
-12.05912 37.1674 -5 0.9693182 -2.987536 -3.185045 
-10.43337 37.65611 5 0.8386408 -3.026819 3.185037 
-10.43337 37.65611 -5 0.8386408 -3.026819 -3.185037 
-8.787931 38.07375 5 0.7063785 -3.060388 3.185046 
-8.787931 38.07375 -5 0.7063785 -3.060388 -3.185046 
-7.125903 38.41952 5 0.5727824 -3.088182 3.185038 
-7.125903 38.41952 -5 0.5727823 -3.088182 -3.185038 
-5.450423 38.69278 5 0.438109 -3.110146 3.185044 
-5.450423 38.69278 -5 0.438109 -3.110146 -3.185043 
-3.764656 38.893 5 0.3026066 -3.12624 3.185039 
-3.764656 38.893 -5 0.3026066 -3.12624 -3.185039 
-2.071783 39.01981 5 0.1665323 -3.136434 3.185044 
-2.071783 39.01981 -5 0.1665322 -3.136433 -3.185044 
-0.375 39.07298 5 0.03014382 -3.140707 3.185039 
-0.375 39.07298 -5 0.03014383 -3.140707 -3.185039 
1.322491 39.05239 5 -0.1063011 -3.139052 3.185044 
1.322491 39.05239 -5 -0.1063011 -3.139052 -3.185044 
3.017486 38.95809 5 -0.2425484 -3.131472 3.185041 
3.017486 38.95809 -5 -0.2425483 -3.131472 -3.18504 
4.706786 38.79026 5 -0.3783366 -3.117981 3.185043 
4.706786 38.79026 -5 -0.3783367 -3.117981 -3.185043 
6.387201 38.54921 5 -0.5134053 -3.098607 3.185037 
6.387201 38.54921 -5 -0.5134053 -3.098607 -3.185037 
8.05556 38.2354 5 -0.6475098 -3.073382 3.185046 
8.05556 38.2354 -5 -0.6475098 -3.073382 -3.185046 
9.708715 37.84942 5 -0.7803931 -3.042357 3.185038 
9.708715 37.84942 -5 -0.7803931 -3.042356 -3.185038 
11.34354 37.39201 5 -0.911798 -3.00559 3.185042 
11.34354 37.39201 -5 -0.9117979 -3.00559 -3.185043 
12.95696 36.86401 5 -1.04149 -2.963148 3.185043 
12.95696 36.86401 -5 -1.04149 -2.963148 -3.185043 
14.54593 36.26643 5 -1.169209 -2.915115 3.185039 
14.54593 36.26643 -5 -1.169209 -2.915115 -3.185038 
16.10744 35.6004 5 -1.294723 -2.861579 3.185044 
16.10744 35.6004 -5 -1.294724 -2.861579 -3.185044 
17.63854 34.86718 5 -1.417795 -2.802643 3.185039 
17.63854 34.86718 -5 -1.417795 -2.802643 -3.185039 
19.13635 34.06814 5 -1.538192 -2.738414 3.185046 
19.13635 34.06814 -5 -1.538191 -2.738414 -3.185045 
20.59804 33.2048 5 -1.655685 -2.669017 3.185039 
20.59804 33.2048 -5 -1.655685 -2.669017 -3.185039 
22.02086 32.27878 5 -1.770047 -2.594587 3.185041 
22.02086 32.27878 -5 -1.770047 -2.594587 -3.18504 
23.4021 31.29185 5 -1.881073 -2.515256 3.185043 
23.4021 31.29185 -5 -1.881073 -2.515256 -3.185043 
24.73918 30.24584 5 -1.98855 -2.431177 3.18504 
24.73918 30.24584 -5 -1.988549 -2.431176 -3.18504 
26.02956 29.14275 5 -2.092269 -2.342511 3.18504 
26.02956 29.14275 -5 -2.092269 -2.342511 -3.185041 
27.27082 27.98465 5 -2.192042 -2.249421 3.185043 
27.27082 27.98465 -5 -2.192042 -2.249422 -3.185043 
28.46059 26.77373 5 -2.287678 -2.152086 3.185041 
28.46059 26.77373 -5 -2.287678 -2.152086 -3.185041 
29.59665 25.51227 5 -2.378995 -2.05069 3.185041 
29.59665 25.51227 -5 -2.378995 -2.05069 -3.185041 
30.67685 24.20266 5 -2.465821 -1.945424 3.185041 
30.67685 24.20266 -5 -2.465821 -1.945423 -3.185041 
31.69914 22.84737 5 -2.547994 -1.836483 3.185042 
31.69914 22.84737 -5 -2.547994 -1.836483 -3.185042 
32.6616 21.44896 5 -2.625357 -1.724078 3.18504 
32.6616 21.44896 -5 -2.625358 -1.724078 -3.18504 
33.56242 20.01005 5 -2.697764 -1.60842 3.185042 
33.56242 20.01005 -5 -2.697764 -1.60842 -3.185042 
34.39988 18.53338 5 -2.765081 -1.489723 3.185042 
34.39988 18.53338 -5 -2.765081 -1.489723 -3.185042 
35.17241 17.02173 5 -2.827177 -1.368218 3.185039 
35.17241 17.02173 -5 -2.827177 -1.368219 -3.185039 
35.87856 15.47795 5 -2.883937 -1.244128 3.185045 
35.87856 15.47795 -5 -2.883937 -1.244128 -3.185045 
36.51699 13.90496 5 -2.935256 -1.117687 3.18504 
36.51699 13.90496 -5 -2.935255 -1.117687 -3.18504 
37.08649 12.30572 5 -2.981032 -0.9891379 3.185043 
37.08649 12.30572 -5 -2.981032 -0.9891379 -3.185043 
37.58598 10.68325 5 -3.021183 -0.8587214 3.18504 
37.58598 10.68325 -5 -3.021183 -0.8587214 -3.18504 
38.01454 9.040616 5 -3.055629 -0.7266885 3.18504 
38.01454 9.040616 -5 -3.055629 -0.7266886 -3.18504 
38.37134 7.38092 5 -3.084309 -0.5932828 3.185041 
38.37134 7.38092 -5 -3.084309 -0.5932828 -3.185042 
38.65572 5.707293 5 -3.107167 -0.4587578 3.18504 
38.65572 5.707293 -5 -3.107168 -0.4587579 -3.18504 
38.86714 4.022892 5 -3.124161 -0.3233648 3.185043 
38.86714 4.022892 -5 -3.124161 -0.3233648 -3.185043 
39.00519 2.330899 5 -3.135258 -0.1873576 3.185042 
39.00519 2.330899 -5 -3.135258 -0.1873576 -3.185042 
39.06962 0.6345065 5 -3.140437 -0.05100095 3.18504 
39.06962 0.6345065 -5 -3.140437 -0.05100095 -3.18504 
39.06031 -1.063084 5 -3.139688 0.08545105 3.185042 
39.06031 -1.063084 -5 -3.139688 0.08545104 -3.185041 
38.97727 -2.758668 5 -3.133014 0.2217442 3.185042 
38.97727 -2.758668 -5 -3.133014 0.2217442 -3.185042 
38.82066 -4.449045 5 -3.120426 0.3576138 3.185039 
38.82066 -4.449045 -5 -3.120426 0.3576138 -3.185039 
38.59079 -6.131024 5 -3.101948 0.4928162 3.185047 
38.59079 -6.131024 -5 -3.101948 0.4928162 -3.185047 
38.28806 -7.801431 5 -3.077615 0.6270834 3.185035 
38.28806 -7.801431 -5 -3.077615 0.6270834 -3.185035 
37.91307 -9.457113 5 -3.047474 0.7601646 3.185045 
37.91307 -9.457113 -5 -3.047474 0.7601646 -3.185045 
37.46652 -11.09494 5 -3.011578 0.8918226 3.185043 
37.46652 -11.09494 -5 -3.011578 0.8918226 -3.185043 
36.94925 -12.71183 5 -2.970001 1.021784 3.185036 
36.94925 -12.71183 -5 -2.970001 1.021784 -3.185036 
36.36224 -14.30473 5 -2.566027 -0.5858557 1.986517 
36.36224 -14.30473 -5 -2.566027 -0.5858557 -1.986517 
37.79974 -15.69527 5 0.3713267 -1.699718 1.173836 
38.44579 -14.03862 5 2.950312 -1.077316 3.098145 
39.01928 -12.35548 5 2.99432 -0.9481533 3.098143 
39.51912 -10.64901 5 3.032677 -0.8172016 3.098145 
39.94436 -8.922446 5 3.06531 -0.6847064 3.098142 
40.29421 -7.17904 5 3.092158 -0.5509142 3.098143 
40.568 -5.422083 5 3.113169 -0.4160837 3.098143 
40.76522 -3.654892 5 3.128304 -0.2804747 3.098147 
40.88551 -1.880802 5 3.137533 -0.1443334 3.098142 
40.92861 -0.1031627 5 3.140841 -0.007915746 3.098145 
40.89447 1.674672 5 3.138221 0.128512 3.098145 
40.78313 3.449345 5 3.129677 0.2647005 3.098142 
40.59482 5.217508 5 3.115226 0.4003903 3.098144 
40.32989 6.975822 5 3.094895 0.5353217 3.098144 
39.98883 8.720971 5 3.068723 0.6692423 3.098145 
39.5723 10.44966 5 3.036758 0.8019028 3.098142 
39.08107 12.15862 5 2.999062 0.9330468 3.098146 
38.51608 13.84464 5 2.955705 1.062428 3.098143 
37.87838 15.50452 5 2.906769 1.189808 3.098144 
37.1692 17.13514 5 2.852345 1.314943 3.098142 
36.38985 18.73341 5 2.792538 1.437594 3.098146 
35.54182 20.29633 5 2.727463 1.557527 3.098145 
34.62671 21.82093 5 2.657236 1.674528 3.09814 
33.64623 23.30435 5 2.581993 1.788367 3.098145 
32.60225 24.74379 5 2.501881 1.898826 3.098145 
31.49674 26.13652 5 2.417045 2.005702 3.098144 
30.33177 27.47991 5 2.327645 2.108794 3.098142 
29.10955 28.77144 5 2.233852 2.207907 3.098144 
27.83239 30.00866 5 2.135844 2.30285 3.098145 
26.5027 31.18924 5 2.033804 2.393446 3.098144 
25.12298 32.31096 5 1.927925 2.479527 3.098144 
23.69584 33.37168 5 1.818407 2.560926 3.098143 
22.22398 34.36942 5 1.705457 2.637492 3.098145 
20.71017 35.30228 5 1.589288 2.70908 3.098143 
19.15726 36.16851 5 1.470121 2.775553 3.098146 
17.5682 36.96648 5 1.348176 2.836788 3.098141 
15.94598 37.69466 5 1.223684 2.892671 3.098144 
14.29366 38.3517 5 1.096891 2.94309 3.098146 
12.61436 38.93636 5 0.9680218 2.987956 3.098141 
10.91125 39.44752 5 0.8373201 3.027184 3.098143 
9.187552 39.88422 5 0.705047 3.060695 3.098147 
7.446507 40.24564 5 0.5714429 3.08843 3.098143 
5.691408 40.5311 5 0.4367575 3.110336 3.098145 
3.925566 40.74006 5 0.3012463 3.126371 3.098142 
2.152314 40.87211 5 0.1651657 3.136505 3.098145 
0.375 40.92702 5 0.02877839 3.140719 3.098145 
-1.403022 40.90469 5 -0.1076696 3.139005 3.098141 
-3.178396 40.80514 5 -0.2439086 3.131366 3.098149 
-4.947771 40.62858 5 -0.3796893 3.117817 3.098139 
-6.707806 40.37533 5 -0.5147557 3.098382 3.098147 
-8.45518 40.04587 5 -0.6488448 3.073101 3.098143 
-10.1866 39.64083 5 -0.7817107 3.042018 3.098146 
-11.89878 39.16096 5 -0.9131039 3.005193 3.098141 
-13.58851 38.60718 5 -1.042778 2.962695 3.098143 
-15.2526 37.98053 5 -1.170478 2.914606 3.098145 
-16.88789 37.28218 5 -1.295967 2.861016 3.098144 
-18.4913 36.51347 5 -1.419014 2.802026 3.098143 
-20.05982 35.67584 5 -1.539381 2.737746 3.098145 
-21.59047 34.77087 5 -1.656843 2.668299 3.098143 
-23.08037 33.80027 5 -1.771175 2.593817 3.098147 
-24.5267 32.76588 5 -1.882167 2.514437 3.09814 
-25.92674 31.66964 5 -1.989606 2.430312 3.098147 
-27.27785 30.51362 5 -2.093288 2.3416 3.098141 
-28.57747 29.30001 5 -2.193021 2.248467 3.098145 
-29.82314 28.03109 5 -2.288612 2.151093 3.098144 
-31.01253 26.70927 5 -2.379888 2.049654 3.098142 
-32.14338 25.33703 5 -2.466667 1.944351 3.098148 
-33.21356 23.91697 5 -2.54879 1.835379 3.098142 
-34.22105 22.45176 5 -2.626106 1.722938 3.098144 
-35.16395 20.94418 5 -2.698465 1.607243 3.098141 
-36.04047 19.39706 5 -2.76573 1.488517 3.098145 
-36.84897 17.81334 5 -2.827772 1.366987 3.098146 
-37.58792 16.19599 5 -2.884477 1.242876 3.098144 
-38.25592 14.54807 5 -2.93574 1.116412 3.098142 
-38.85172 12.87269 5 -2.981462 0.9878434 3.098145 
-39.37418 11.17302 5 -3.021554 0.8574138 3.098145 
-39.82232 9.452252 5 -3.055945 0.7253602 3.098141 
-40.19529 7.713646 5 -3.084567 0.5919385 3.098145 
-40.4924 5.960482 5 -3.107367 0.4574045 3.098145 
-40.71308 4.196066 5 -3.124301 0.3220079 3.098145 
-40.85692 2.423731 5 -3.135339 0.185998 3.098142 
-40.92363 0.6468207 5 -3.140459 0.0496343 3.098144 
-40.91311 -1.13131 5 -3.139651 -0.08681704 3.098145 
-40.82536 -2.907306 5 -3.132917 -0.2231066 3.098142 
-40.66055 -4.677814 5 -3.12027 -0.3589717 3.098147 
-40.41899 -6.439493 5 -3.101733 -0.4941625 3.09814 
-40.10115 -8.189018 5 -3.077342 -0.6284235 3.098145 
-39.70761 -9.923085 5 -3.047142 -0.7614918 3.098144 
-39.23913 -11.63842 5 -3.011191 -0.8931274 3.098143 
-38.69658 -13.33179 5 -2.969556 -1.023075 3.098146 
-38.08099 -15 5 -1.473664 -2.114593 1.924305 
37.79974 -15.69527 -5 0.3713268 -1.699718 -1.173836 
38.44579 -14.03862 -5 2.950311 -1.077316 -3.098145 
39.01928 -12.35548 -5 2.99432 -0.9481534 -3.098143 
39.51912 -10.64901 -5 3.032677 -0.8172015 -3.098146 
39.94436 -8.922446 -5 3.06531 -0.6847066 -3.098143 
40.29421 -7.17904 -5 3.092158 -0.5509142 -3.098142 
40.568 -5.422083 -5 3.113169 -0.4160837 -3.098144 
40.76522 -3.654892 -5 3.128303 -0.2804747 -3.098147 
40.88551 -1.880802 -5 3.137533 -0.1443334 -3.098142 
40.92861 -0.1031627 -5 3.140841 -0.007915737 -3.098145 
40.89447 1.674672 -5 3.138221 0.128512 -3.098145 
40.78313 3.449345 -5 3.129677 0.2647005 -3.098143 
40.59482 5.217508 -5 3.115226 0.4003903 -3.098144 
40.32989 6.975822 -5 3.094895 0.5353217 -3.098144 
39.98883 8.720971 -5 3.068723 0.6692423 -3.098145 
39.5723 10.44966 -5 3.036758 0.8019028 -3.098142 
39.08107 12.15862 -5 2.999062 0.9330468 -3.098146 
38.51608 13.84464 -5 2.955705 1.062428 -3.098143 
37.87838 15.50452 -5 2.906769 1.189808 -3.098144 
37.1692 17.13514 -5 2.852345 1.314943 -3.098142 
36.38985 18.73341 -5 2.792538 1.437594 -3.098146 
35.54182 20.29633 -5 2.727463 1.557528 -3.098145 
34.62671 21.82093 -5 2.657236 1.674528 -3.09814 
33.64623 23.30435 -5 2.581993 1.788367 -3.098145 
32.60225 24.74379 -5 2.501881 1.898825 -3.098145 
31.49674 26.13652 -5 2.417045 2.005702 -3.098144 
30.33177 27.47991 -5 2.327645 2.108795 -3.098142 
29.10955 28.77144 -5 2.233851 2.207907 -3.098144 
27.83239 30.00866 -5 2.135844 2.30285 -3.098145 
26.5027 31.18924 -5 2.033804 2.393446 -3.098144 
25.12298 32.31096 -5 1.927925 2.479527 -3.098144 
23.69584 33.37168 -5 1.818407 2.560926 -3.098143 
22.22398 34.36942 -5 1.705457 2.637492 -3.098145 
20.71017 35.30228 -5 1.589288 2.70908 -3.098143 
19.15726 36.16851 -5 1.470121 2.775553 -3.098146 
17.5682 36.96648 -5 1.348176 2.836788 -3.098141 
15.94598 37.69466 -5 1.223685 2.892671 -3.098145 
14.29366 38.3517 -5 1.096891 2.94309 -3.098146 
12.61436 38.93636 -5 0.9680218 2.987956 -3.098141 
10.91125 39.44752 -5 0.8373201 3.027184 -3.098143 
9.187552 39.88422 -5 0.705047 3.060695 -3.098147 
7.446507 40.24564 -5 0.571443 3.08843 -3.098143 
5.691408 40.5311 -5 0.4367575 3.110336 -3.098145 
3.925566 40.74006 -5 0.3012463 3.126371 -3.098142 
2.152314 40.87211 -5 0.1651657 3.136505 -3.098145 
0.375 40.92702 -5 0.02877838 3.140719 -3.098145 
-1.403022 40.90469 -5 -0.1076696 3.139005 -3.098141 
-3.178396 40.80514 -5 -0.2439086 3.131367 -3.098149 
-4.947771 40.62858 -5 -0.3796894 3.117817 -3.098139 
-6.707806 40.37533 -5 -0.5147557 3.098382 -3.098147 
-8.45518 40.04587 -5 -0.6488448 3.073101 -3.098143 
-10.1866 39.64083 -5 -0.7817108 3.042018 -3.098146 
-11.89878 39.16096 -5 -0.9131039 3.005193 -3.098141 
-13.58851 38.60718 -5 -1.042778 2.962695 -3.098143 
-15.2526 37.98053 -5 -1.170478 2.914606 -3.098145 
-16.88789 37.28218 -5 -1.295968 2.861016 -3.098144 
-18.4913 36.51347 -5 -1.419014 2.802025 -3.098143 
-20.05982 35.67584 -5 -1.539381 2.737746 -3.098144 
-21.59047 34.77087 -5 -1.656843 2.668299 -3.098143 
-23.08037 33.80027 -5 -1.771175 2.593817 -3.098147 
-24.5267 32.76588 -5 -1.882167 2.514437 -3.09814 
-25.92674 31.66964 -5 -1.989606 2.430312 -3.098147 
-27.27785 30.51362 -5 -2.093288 2.3416 -3.098141 
-28.57747 29.30001 -5 -2.193021 2.248467 -3.098145 
-29.82314 28.03109 -5 -2.288613 2.151093 -3.098144 
-31.01253 26.70927 -5 -2.379888 2.049654 -3.098142 
-32.14338 25.33703 -5 -2.466667 1.944351 -3.098148 
-33.21356 23.91697 -5 -2.54879 1.835379 -3.098143 
-34.22105 22.45176 -5 -2.626106 1.722938 -3.098144 
-35.16395 20.94418 -5 -2.698465 1.607243 -3.098142 
-36.04047 19.39706 -5 -2.76573 1.488517 -3.098145 
-36.84897 17.81334 -5 -2.827772 1.366987 -3.098146 
-37.58792 16.19599 -5 -2.884477 1.242876 -3.098144 
-38.25592 14.54807 -5 -2.93574 1.116413 -3.098142 
-38.85172 12.87269 -5 -2.981462 0.9878433 -3.098145 
-39.37418 11.17302 -5 -3.021554 0.8574138 -3.098144 
-39.82232 9.452252 -5 -3.055945 0.7253603 -3.098142 
-40.19529 7.713646 -5 -3.084567 0.5919385 -3.098145 
-40.4924 5.960482 -5 -3.107367 0.4574045 -3.098145 
-40.71308 4.196066 -5 -3.124301 0.3220078 -3.098145 
-40.85692 2.423731 -5 -3.135339 0.185998 -3.098141 
-40.92363 0.6468207 -5 -3.140459 0.04963429 -3.098144 
-40.91311 -1.13131 -5 -3.139651 -0.08681706 -3.098145 
-40.82536 -2.907306 -5 -3.132917 -0.2231066 -3.098142 
-40.66055 -4.677814 -5 -3.12027 -0.3589717 -3.098147 
-40.41899 -6.439493 -5 -3.101733 -0.4941625 -3.09814 
-40.10115 -8.189018 -5 -3.077342 -0.6284235 -3.098146 
-39.70761 -9.923085 -5 -3.047143 -0.7614917 -3.098144 
-39.23913 -11.63842 -5 -3.011191 -0.8931274 -3.098142 
-38.69658 -13.33179 -5 -2.969556 -1.023075 -3.098146 
-38.08099 -15 -5 -1.473664 -2.114593 -1.924305 
3 0 1 2 
3 1 3 2 
3 2 3 4 
3 3 5 4 
3 4 5 6 
3 5 7 6 
3 6 7 8 
3 7 9 8 
3 8 9 10 
3 9 11 10 
3 10 11 12 
3 11 13 12 
3 12 13 14 
3 13 15 14 
3 14 15 16 
3 15 17 16 
3 16 17 18 
3 17 19 18 
3 18 19 20 
3 19 21 20 
3 20 21 22 
3 21 23 22 
3 22 23 24 
3 23 25 24 
3 24 25 26 
3 25 27 26 
3 26 27 28 
3 27 29 28 
3 28 29 30 
3 29 31 30 
3 30 31 32 
3 31 33 32 
3 32 33 34 
3 33 35 34 
3 34 35 36 
3 35 37 36 
3 36 37 38 
3 37 39 38 
3 38 39 40 
3 39 41 40 
3 40 41 42 
3 41 43 42 
3 42 43 44 
3 43 45 44 
3 44 45 46 
3 45 47 46 
3 46 47 48 
3 47 49 48 
3 48 49 50 
3 49 51 50 
3 50 51 52 
3 51 53 52 
3 52 53 54 
3 53 55 54 
3 54 55 56 
3 55 57 56 
3 56 57 58 
3 57 59 58 
3 58 59 60 
3 59 61 60 
3 60 61 62 
3 61 63 62 
3 62 63 64 
3 63 65 64 
3 64 65 66 
3 65 67 66 
3 66 67 68 
3 67 69 68 
3 68 69 70 
3 69 71 70 
3 70 71 72 
3 71 73 72 
3 72 73 74 
3 73 75 74 
3 74 75 76 
3 75 77 76 
3 76 77 78 
3 77 79 78 
3 78 79 80 
3 79 81 80 
3 80 81 82 
3 81 83 82 
3 82 83 84 
3 83 85 84 
3 84 85 86 
3 85 87 86 
3 86 87 88 
3 87 89 88 
3 88 89 90 
3 89 91 90 
3 90 91 92 
3 91 93 92 
3 92 93 94 
3 93 95 94 
3 94 95 96 
3 95 97 96 
3 96 97 98 
3 97 99 98 
3 98 99 100 
3 99 101 100 
3 100 101 102 
3 101 103 102 
3 102 103 104 
3 103 105 104 
3 104 105 106 
3 105 107 106 
3 106 107 108 
3 107 109 108 
3 108 109 110 
3 109 111 110 
3 110 111 112 
3 111 113 112 
3 112 113 114 
3 113 115 114 
3 114 115 116 
3 115 117 116 
3 116 117 118 
3 117 119 118 
3 118 119 120 
3 119 121 120 
3 120 121 122 
3 121 123 122 
3 122 123 124 
3 123 125 124 
3 124 125 126 
3 125 127 126 
3 126 127 128 
3 127 129 128 
3 128 129 130 
3 129 131 130 
3 130 131 132 
3 131 133 132 
3 132 133 134 
3 133 135 134 
3 134 135 136 
3 135 137 136 
3 136 137 138 
3 137 139 138 
3 138 139 140 
3 139 141 140 
3 140 141 142 
3 141 143 142 
3 142 143 144 
3 143 145 144 
3 144 145 146 
3 145 147 146 
3 146 147 148 
3 147 149 148 
3 148 149 150 
3 149 151 150 
3 150 151 152 
3 151 153 152 
3 152 153 154 
3 153 155 154 
3 154 155 156 
3 155 157 156 
3 156 157 158 
3 157 159 158 
3 158 159 160 
3 159 161 160 
3 160 161 162 
3 161 163 162 
3 162 163 164 
3 163 165 164 
3 164 165 166 
3 165 167 166 
3 166 167 168 
3 167 169 168 
3 168 169 170 
3 169 171 170 
3 170 171 172 
3 171 173 172 
3 172 173 174 
3 173 175 174 
3 174 175 176 
3 175 177 176 
3 176 177 178 
3 177 179 178 
3 178 179 180 
3 179 181 180 
3 180 182 178 
3 182 183 178 
3 178 183 176 
3 183 184 176 
3 176 184 174 
3 184 185 174 
3 174 185 172 
3 185 186 172 
3 172 186 170 
3 186 187 170 
3 170 187 168 
3 187 188 168 
3 168 188 166 
3 188 189 166 
3 166 189 164 
3 189 190 164 
3 164 190 162 
3 190 191 162 
3 162 191 160 
3 191 192 160 
3 160 192 158 
3 192 193 158 
3 158 193 156 
3 193 194 156 
3 156 194 154 
3 194 195 154 
3 154 195 152 
3 195 196 152 
3 152 196 150 
3 196 197 150 
3 150 197 148 
3 197 198 148 
3 148 198 146 
3 198 199 146 
3 146 199 144 
3 199 200 144 
3 144 200 142 
3 200 201 142 
3 142 201 140 
3 201 202 140 
3 140 202 138 
3 202 203 138 
3 138 203 136 
3 203 204 136 
3 136 204 134 
3 204 205 134 
3 134 205 132 
3 205 206 132 
3 132 206 130 
3 206 207 130 
3 130 207 128 
3 207 208 128 
3 128 208 126 
3 208 209 126 
3 126 209 124 
3 209 210 124 
3 124 210 122 
3 210 211 122 
3 122 211 120 
3 211 212 120 
3 120 212 118 
3 212 213 118 
3 118 213 116 
3 213 214 116 
3 116 214 114 
3 214 215 114 
3 114 215 112 
3 215 216 112 
3 112 216 110 
3 216 217 110 
3 110 217 108 
3 217 218 108 
3 108 218 106 
3 218 219 106 
3 106 219 104 
3 219 220 104 
3 104 220 102 
3 220 221 102 
3 102 221 100 
3 221 222 100 
3 100 222 98 
3 222 223 98 
3 98 223 96 
3 223 224 96 
3 96 224 94 
3 224 225 94 
3 94 225 92 
3 225 226 92 
3 92 226 90 
3 226 227 90 
3 90 227 88 
3 227 228 88 
3 88 228 86 
3 228 229 86 
3 86 229 84 
3 229 230 84 
3 84 230 82 
3 230 231 82 
3 82 231 80 
3 231 232 80 
3 80 232 78 
3 232 233 78 
3 78 233 76 
3 233 234 76 
3 76 234 74 
3 234 235 74 
3 74 235 72 
3 235 236 72 
3 72 236 70 
3 236 237 70 
3 70 237 68 
3 237 238 68 
3 68 238 66 
3 238 239 66 
3 66 239 64 
3 239 240 64 
3 64 240 62 
3 240 241 62 
3 62 241 60 
3 241 242 60 
3 60 242 58 
3 242 243 58 
3 58 243 56 
3 243 244 56 
3 56 244 54 
3 244 245 54 
3 54 245 52 
3 245 246 52 
3 52 246 50 
3 246 247 50 
3 50 247 48 
3 247 248 48 
3 48 248 46 
3 248 249 46 
3 46 249 44 
3 249 250 44 
3 44 250 42 
3 250 251 42 
3 42 251 40 
3 251 252 40 
3 40 252 38 
3 252 253 38 
3 38 253 36 
3 253 254 36 
3 36 254 34 
3 254 255 34 
3 34 255 32 
3 255 256 32 
3 32 256 30 
3 256 257 30 
3 30 257 28 
3 257 258 28 
3 28 258 26 
3 258 259 26 
3 26 259 24 
3 259 260 24 
3 24 260 22 
3 260 261 22 
3 22 261 20 
3 261 262 20 
3 20 262 18 
3 262 263 18 
3 18 263 16 
3 263 264 16 
3 16 264 14 
3 264 265 14 
3 14 265 12 
3 265 266 12 
3 12 266 10 
3 266 267 10 
3 10 267 8 
3 267 268 8 
3 8 268 6 
3 268 269 6 
3 6 269 4 
3 269 270 4 
3 4 270 2 
3 270 271 2 
3 2 271 0 
3 271 272 0 
3 182 273 274 
3 182 274 183 
3 274 275 183 
3 183 275 184 
3 275 276 184 
3 184 276 185 
3 276 277 185 
3 185 277 186 
3 277 278 186 
3 186 278 187 
3 278 279 187 
3 187 279 188 
3 279 280 188 
3 188 280 189 
3 280 281 189 
3 189 281 190 
3 281 282 190 
3 190 282 191 
3 282 283 191 
3 191 283 192 
3 283 284 192 
3 192 284 193 
3 284 285 193 
3 193 285 194 
3 285 286 194 
3 194 286 195 
3 286 287 195 
3 195 287 196 
3 287 288 196 
3 196 288 197 
3 288 289 197 
3 197 289 198 
3 289 290 198 
3 198 290 199 
3 290 291 199 
3 199 291 200 
3 291 292 200 
3 200 292 201 
3 292 293 201 
3 201 293 202 
3 293 294 202 
3 202 294 203 
3 294 295 203 
3 203 295 204 
3 295 296 204 
3 204 296 205 
3 296 297 205 
3 205 297 206 
3 297 298 206 
3 206 298 207 
3 298 299 207 
3 207 299 208 
3 299 300 208 
3 208 300 209 
3 300 301 209 
3 209 301 210 
3 301 302 210 
3 210 302 211 
3 302 303 211 
3 211 303 212 
3 303 304 212 
3 212 304 213 
3 304 305 213 
3 213 305 214 
3 305 306 214 
3 214 306 215 
3 306 307 215 
3 215 307 216 
3 307 308 216 
3 216 308 217 
3 308 309 217 
3 217 309 218 
3 309 310 218 
3 218 310 219 
3 310 311 219 
3 219 311 220 
3 311 312 220 
3 220 312 221 
3 312 313 221 
3 221 313 222 
3 313 314 222 
3 222 314 223 
3 314 315 223 
3 223 315 224 
3 315 316 224 
3 224 316 225 
3 316 317 225 
3 225 317 226 
3 317 318 226 
3 226 318 227 
3 318 319 227 
3 227 319 228 
3 319 320 228 
3 228 320 229 
3 320 321 229 
3 229 321 230 
3 321 322 230 
3 230 322 231 
3 322 323 231 
3 231 323 232 
3 323 324 232 
3 232 324 233 
3 324 325 233 
3 233 325 234 
3 325 326 234 
3 234 326 235 
3 326 327 235 
3 235 327 236 
3 327 328 236 
3 236 328 237 
3 328 329 237 
3 237 329 238 
3 329 330 238 
3 238 330 239 
3 330 331 239 
3 239 331 240 
3 331 332 240 
3 240 332 241 
3 332 333 241 
3 241 333 242 
3 333 334 242 
3 242 334 243 
3 334 335 243 
3 243 335 244 
3 335 336 244 
3 244 336 245 
3 336 337 245 
3 245 337 246 
3 337 338 246 
3 246 338 247 
3 338 339 247 
3 247 339 248 
3 339 340 248 
3 248 340 249 
3 340 341 249 
3 249 341 250 
3 341 342 250 
3 250 342 251 
3 342 343 251 
3 251 343 252 
3 343 344 252 
3 252 344 253 
3 344 345 253 
3 253 345 254 
3 345 346 254 
3 254 346 255 
3 346 347 255 
3 255 347 256 
3 347 348 256 
3 256 348 257 
3 348 349 257 
3 257 349 258 
3 349 350 258 
3 258 350 259 
3 350 351 259 
3 259 351 260 
3 351 352 260 
3 260 352 261 
3 352 353 261 
3 261 353 262 
3 353 354 262 
3 262 354 263 
3 354 355 263 
3 263 355 264 
3 355 356 264 
3 264 356 265 
3 356 357 265 
3 265 357 266 
3 357 358 266 
3 266 358 267 
3 358 359 267 
3 267 359 268 
3 359 360 268 
3 268 360 269 
3 360 361 269 
3 269 361 270 
3 361 362 270 
3 270 362 271 
3 362 363 271 
3 271 363 272 
3 1 363 3 
3 363 362 3 
3 3 362 5 
3 362 361 5 
3 5 361 7 
3 361 360 7 
3 7 360 9 
3 360 359 9 
3 9 359 11 
3 359 358 11 
3 11 358 13 
3 358 357 13 
3 13 357 15 
3 357 356 15 
3 15 356 17 
3 356 355 17 
3 17 355 19 
3 355 354 19 
3 19 354 21 
3 354 353 21 
3 21 353 23 
3 353 352 23 
3 23 352 25 
3 352 351 25 
3 25 351 27 
3 351 350 27 
3 27 350 29 
3 350 349 29 
3 29 349 31 
3 349 348 31 
3 31 348 33 
3 348 347 33 
3 33 347 35 
3 347 346 35 
3 35 346 37 
3 346 345 37 
3 37 345 39 
3 345 344 39 
3 39 344 41 
3 344 343 41 
3 41 343 43 
3 343 342 43 
3 43 342 45 
3 342 341 45 
3 45 341 47 
3 341 340 47 
3 47 340 49 
3 340 339 49 
3 49 339 51 
3 339 338 51 
3 51 338 53 
3 338 337 53 
3 53 337 55 
3 337 336 55 
3 55 336 57 
3 336 335 57 
3 57 335 59 
3 335 334 59 
3 59 334 61 
3 334 333 61 
3 61 333 63 
3 333 332 63 
3 63 332 65 
3 332 331 65 
3 65 331 67 
3 331 330 67 
3 67 330 69 
3 330 329 69 
3 69 329 71 
3 329 328 71 
3 71 328 73 
3 328 327 73 
3 73 327 75 
3 327 326 75 
3 75 326 77 
3 326 325 77 
3 77 325 79 
3 325 324 79 
3 79 324 81 
3 324 323 81 
3 81 323 83 
3 323 322 83 
3 83 322 85 
3 322 321 85 
3 85 321 87 
3 321 320 87 
3 87 320 89 
3 320 319 89 
3 89 319 91 
3 319 318 91 
3 91 318 93 
3 318 317 93 
3 93 317 95 
3 317 316 95 
3 95 316 97 
3 316 315 97 
3 97 315 99 
3 315 314 99 
3 99 314 101 
3 314 313 101 
3 101 313 103 
3 313 312 103 
3 103 312 105 
3 312 311 105 
3 105 311 107 
3 311 310 107 
3 107 310 109 
3 310 309 109 
3 109 309 111 
3 309 308 111 
3 111 308 113 
3 308 307 113 
3 113 307 115 
3 307 306 115 
3 115 306 117 
3 306 305 117 
3 117 305 119 
3 305 304 119 
3 119 304 121 
3 304 303 121 
3 121 303 123 
3 303 302 123 
3 123 302 125 
3 302 301 125 
3 125 301 127 
3 301 300 127 
3 127 300 129 
3 300 299 129 
3 129 299 131 
3 299 298 131 
3 131 298 133 
3 298 297 133 
3 133 297 135 
3 297 296 135 
3 135 296 137 
3 296 295 137 
3 137 295 139 
3 295 294 139 
3 139 294 141 
3 294 293 141 
3 141 293 143 
3 293 292 143 
3 143 292 145 
3 292 291 145 
3 145 291 147 
3 291 290 147 
3 147 290 149 
3 290 289 149 
3 149 289 151 
3 289 288 151 
3 151 288 153 
3 288 287 153 
3 153 287 155 
3 287 286 155 
3 155 286 157 
3 286 285 157 
3 157 285 159 
3 285 284 159 
3 159 284 161 
3 284 283 161 
3 161 283 163 
3 283 282 163 
3 163 282 165 
3 282 281 165 
3 165 281 167 
3 281 280 167 
3 167 280 169 
3 280 279 169 
3 169 279 171 
3 279 278 171 
3 171 278 173 
3 278 277 173 
3 173 277 175 
3 277 276 175 
3 175 276 177 
3 276 275 177 
3 177 275 179 
3 275 274 179 
3 179 274 181 
3 274 273 181 
3 363 1 272 
3 1 0 272 
3 181 273 180 
3 273 182 180 
