ply
format ascii 1.0
comment VCGLIB generated
element vertex 372
property float x
property float y
property float z
property float nx
property float ny
property float nz
element face 736
property list uchar int vertex_indices
end_header
5 25 -1 1.570796 -1.570796 -1.570796 
-5 25 -1 -1.570796 -1.570796 -1.570796 
5 40 -1 1.570796 1.570796 -1.570796 
-5 40 -1 -1.570796 1.570796 -1.570796 
5 40 1 1.570796 1.570796 1.570796 
5 25 1 1.570796 -1.570796 1.570796 
-5 40 1 -1.570796 1.570796 1.570796 
-5 25 1 -1.570796 -1.570796 1.570796 
-32.08099 -15 1 1.437056 -0.936548 1.155157 
-32.08099 -15 -1 1.437056 -0.9365479 -1.155157 
-32.70224 -13.5924 1 2.900303 1.205483 3.185039 
-32.70224 -13.5924 -1 2.900303 1.205483 -3.185039 
-33.26176 -12.15915 1 2.949924 1.078376 3.18504 
-33.26176 -12.15915 -1 2.949924 1.078376 -3.18504 
-33.75851 -10.70295 1 2.99398 0.9492257 3.185044 
-33.75851 -10.70295 -1 2.99398 0.9492257 -3.185045 
-34.19153 -9.226545 1 3.032385 0.8182842 3.18504 
-34.19153 -9.226545 -1 3.032385 0.8182842 -3.18504 
-34.56002 -7.732727 1 3.065065 0.6858 3.185043 
-34.56002 -7.732727 -1 3.065065 0.6858 -3.185043 
-34.86327 -6.224312 1 3.09196 0.5520228 3.185039 
-34.86327 -6.224312 -1 3.09196 0.5520227 -3.185039 
-35.10073 -4.704149 1 3.113019 0.4172055 3.185042 
-35.10073 -4.704149 -1 3.113019 0.4172056 -3.185042 
-35.27193 -3.175107 1 3.128203 0.2815942 3.185043 
-35.27193 -3.175107 -1 3.128203 0.2815942 -3.185042 
-35.37655 -1.640072 1 3.137482 0.145453 3.185041 
-35.37655 -1.640072 -1 3.137482 0.145453 -3.18504 
-35.4144 -0.1019417 1 3.140838 0.009039205 3.185042 
-35.4144 -0.1019417 -1 3.140839 0.00903921 -3.185041 
-35.3854 1.436381 1 3.138267 -0.1273902 3.18504 
-35.3854 1.436381 -1 3.138267 -0.1273901 -3.18504 
-35.28962 2.971993 1 3.129772 -0.2635781 3.185041 
-35.28962 2.971993 -1 3.129772 -0.2635781 -3.185041 
-35.12723 4.501995 1 3.115369 -0.3992752 3.185044 
-35.12723 4.501995 -1 3.115369 -0.3992751 -3.185045 
-34.89853 6.0235 1 3.095087 -0.5342129 3.185038 
-34.89853 6.0235 -1 3.095087 -0.5342129 -3.185037 
-34.60397 7.533636 1 3.068963 -0.668142 3.185044 
-34.60397 7.533636 -1 3.068963 -0.668142 -3.185044 
-34.24408 9.029552 1 3.037045 -0.8008133 3.185039 
-34.24408 9.029552 -1 3.037045 -0.8008133 -3.18504 
-33.81957 10.50842 1 2.999395 -0.9319732 3.185044 
-33.81957 10.50842 -1 2.999395 -0.9319732 -3.185044 
-33.33121 11.96746 1 2.956083 -1.061376 3.18504 
-33.33121 11.96746 -1 2.956083 -1.061376 -3.185041 
-32.77995 13.40391 1 2.907195 -1.188767 3.185039 
-32.77995 13.40391 -1 2.907195 -1.188767 -3.185038 
-32.16682 14.81506 1 2.852818 -1.313917 3.185042 
-32.16682 14.81506 -1 2.852818 -1.313917 -3.185043 
-31.49297 16.19825 1 2.793053 -1.436594 3.185043 
-31.49297 16.19825 -1 2.793053 -1.436594 -3.185043 
-30.75967 17.55086 1 2.728018 -1.556556 3.185041 
-30.75967 17.55086 -1 2.728018 -1.556556 -3.185041 
-29.96832 18.87034 1 2.657836 -1.673576 3.18504 
-29.96832 18.87034 -1 2.657836 -1.673576 -3.18504 
-29.1204 20.15421 1 2.582635 -1.78744 3.185042 
-29.1204 20.15421 -1 2.582635 -1.78744 -3.185043 
-28.21752 21.40004 1 2.50256 -1.89793 3.18504 
-28.21752 21.40004 -1 2.50256 -1.89793 -3.18504 
-27.26138 22.60547 1 2.417763 -2.004837 3.185042 
-27.26138 22.60547 -1 2.417763 -2.004837 -3.185042 
-26.25378 23.76824 1 2.3284 -2.107962 3.185042 
-26.25378 23.76824 -1 2.3284 -2.107962 -3.185041 
-25.19663 24.88614 1 2.234643 -2.207107 3.185041 
-25.19663 24.88614 -1 2.234643 -2.207106 -3.185041 
-24.09192 25.95707 1 2.13667 -2.302084 3.18504 
-24.09192 25.95707 -1 2.13667 -2.302084 -3.18504 
-22.94173 26.97901 1 2.034661 -2.392718 3.185043 
-22.94173 26.97901 -1 2.034661 -2.392718 -3.185043 
-21.74825 27.95002 1 1.928812 -2.478837 3.185041 
-21.74825 27.95002 -1 1.928812 -2.478837 -3.18504 
-20.51371 28.86828 1 1.819323 -2.560276 3.185042 
-20.51371 28.86828 -1 1.819323 -2.560275 -3.185041 
-19.24046 29.73205 1 1.706402 -2.636881 3.18504 
-19.24046 29.73205 -1 1.706402 -2.636881 -3.18504 
-17.93089 30.5397 1 1.590256 -2.708511 3.185045 
-17.93089 30.5397 -1 1.590256 -2.708511 -3.185045 
-16.58747 31.28971 1 1.47111 -2.775028 3.185039 
-16.58747 31.28971 -1 1.47111 -2.775029 -3.18504 
-15.21274 31.98066 1 1.349194 -2.836305 3.18504 
-15.21274 31.98066 -1 1.349194 -2.836305 -3.18504 
-13.80931 32.61124 1 1.224725 -2.89223 3.185044 
-13.80931 32.61124 -1 1.224725 -2.89223 -3.185044 
-12.3798 33.18027 1 1.097943 -2.942698 3.18504 
-12.3798 33.18027 -1 1.097943 -2.942698 -3.185041 
-10.92693 33.68668 1 0.9690883 -2.98761 3.185044 
-10.92693 33.68668 -1 0.9690882 -2.98761 -3.185044 
-9.453436 34.1295 1 0.838407 -3.026883 3.185039 
-9.453436 34.1295 -1 0.838407 -3.026883 -3.185039 
-7.962097 34.5079 1 0.7061447 -3.060442 3.185043 
-7.962097 34.5079 -1 0.7061447 -3.060442 -3.185043 
-6.455729 34.82117 1 0.572547 -3.088226 3.18504 
-6.455729 34.82117 -1 0.572547 -3.088226 -3.18504 
-4.937178 35.06871 1 0.4378701 -3.110179 3.185042 
-4.937178 35.06871 -1 0.4378701 -3.11018 -3.185042 
-3.409306 35.25006 1 0.3023637 -3.126264 3.185042 
-3.409306 35.25006 -1 0.3023637 -3.126263 -3.185042 
-1.875 35.36488 1 0.1662887 -3.136446 3.18504 
-1.875 35.36488 -1 0.1662887 -3.136446 -3.18504 
-0.3371547 35.41294 1 0.02990222 -3.140709 3.185041 
-0.3371547 35.41294 -1 0.02990222 -3.140709 -3.185041 
1.201327 35.39417 1 -0.1065427 -3.139044 3.185041 
1.201327 35.39417 -1 -0.1065427 -3.139044 -3.185041 
2.737541 35.30858 1 -0.242789 -3.131454 3.185042 
2.737541 35.30858 -1 -0.242789 -3.131454 -3.185042 
4.268588 35.15635 1 -0.378572 -3.117953 3.185039 
4.268588 35.15635 -1 -0.378572 -3.117953 -3.185038 
5.791578 34.93777 1 -0.5136421 -3.098567 3.185043 
5.791578 34.93777 -1 -0.5136421 -3.098567 -3.185043 
7.303637 34.65324 1 -0.6477499 -3.073332 3.185043 
7.303637 34.65324 -1 -0.6477498 -3.073331 -3.185043 
8.80191 34.3033 1 -0.7806276 -3.042296 3.185038 
8.80191 34.3033 -1 -0.7806276 -3.042296 -3.185039 
10.28357 33.88861 1 -0.9120297 -3.00552 3.185041 
10.28357 33.88861 -1 -0.9120297 -3.00552 -3.185041 
11.74582 33.40997 1 -1.041714 -2.963069 3.185041 
11.74582 33.40997 -1 -1.041714 -2.963069 -3.185041 
13.1859 32.86826 1 -1.169434 -2.915025 3.185043 
13.1859 32.86826 -1 -1.169434 -2.915025 -3.185043 
14.60109 32.2645 1 -1.294944 -2.86148 3.185039 
14.60109 32.2645 -1 -1.294944 -2.86148 -3.185039 
15.98872 31.59986 1 -1.418008 -2.802535 3.185042 
15.98872 31.59986 -1 -1.418008 -2.802535 -3.185042 
17.34617 30.87556 1 -1.538401 -2.738297 3.185042 
17.34617 30.87556 -1 -1.538401 -2.738297 -3.185043 
18.67088 30.09299 1 -1.655889 -2.668891 3.185041 
18.67088 30.09299 -1 -1.655889 -2.668891 -3.185041 
19.96035 29.25362 1 -1.770248 -2.59445 3.18504 
19.96035 29.25362 -1 -1.770248 -2.59445 -3.18504 
21.21215 28.35903 1 -1.881266 -2.515111 3.185041 
21.21215 28.35903 -1 -1.881266 -2.515111 -3.185041 
22.42391 27.41092 1 -1.988734 -2.431025 3.185041 
22.42391 27.41092 -1 -1.988734 -2.431025 -3.185042 
23.59334 26.41107 1 -2.092449 -2.34235 3.185041 
23.59334 26.41107 -1 -2.092449 -2.34235 -3.185041 
24.71824 25.36136 1 -2.192215 -2.249253 3.185042 
24.71824 25.36136 -1 -2.192215 -2.249253 -3.185042 
25.79648 24.26379 1 -2.287843 -2.151911 3.18504 
25.79648 24.26379 -1 -2.287843 -2.151911 -3.185041 
26.82604 23.12042 1 -2.379152 -2.050508 3.18504 
26.82604 23.12042 -1 -2.379152 -2.050508 -3.185041 
27.80496 21.93341 1 -2.465971 -1.945233 3.185043 
27.80496 21.93341 -1 -2.465971 -1.945233 -3.185042 
28.7314 20.705 1 -2.548136 -1.836287 3.18504 
28.7314 20.705 -1 -2.548136 -1.836287 -3.18504 
29.6036 19.43751 1 -2.625489 -1.723878 3.18504 
29.6036 19.43751 -1 -2.625489 -1.723878 -3.18504 
30.41994 18.13333 1 -2.697888 -1.608212 3.185042 
30.41994 18.13333 -1 -2.697888 -1.608212 -3.185043 
31.17885 16.79492 1 -2.765196 -1.489509 3.185042 
31.17885 16.79492 -1 -2.765196 -1.489509 -3.185042 
31.87891 15.42482 1 -2.827283 -1.367997 3.18504 
31.87891 15.42482 -1 -2.827283 -1.367997 -3.18504 
32.5188 14.0256 1 -2.884032 -1.243909 3.185038 
32.5188 14.0256 -1 -2.884032 -1.243909 -3.185038 
33.09732 12.59991 1 -2.935339 -1.117465 3.185045 
33.09732 12.59991 -1 -2.935339 -1.117466 -3.185045 
33.61336 11.15043 1 -2.981107 -0.9889113 3.18504 
33.61336 11.15043 -1 -2.981107 -0.9889112 -3.18504 
34.06596 9.679908 1 -3.021247 -0.8584948 3.185042 
34.06596 9.679908 -1 -3.021247 -0.8584949 -3.185042 
34.45426 8.191115 1 -3.055685 -0.726455 3.185041 
34.45426 8.191115 -1 -3.055685 -0.7264549 -3.185041 
34.77752 6.686862 1 -3.084355 -0.5930439 3.185042 
34.77752 6.686862 -1 -3.084355 -0.5930439 -3.185042 
35.03514 5.169988 1 -3.107203 -0.458515 3.18504 
35.03514 5.169988 -1 -3.107203 -0.458515 -3.18504 
35.22664 3.643355 1 -3.124186 -0.3231215 3.185042 
35.22664 3.643355 -1 -3.124186 -0.3231216 -3.185041 
35.35164 2.109845 1 -3.135273 -0.1871167 3.185042 
35.35164 2.109845 -1 -3.135273 -0.1871167 -3.185042 
35.40992 0.5723528 1 -3.140441 -0.05076134 3.18504 
35.40992 0.5723528 -1 -3.140441 -0.05076134 -3.18504 
35.40136 -0.9662196 1 -3.139682 0.08569139 3.185043 
35.40136 -0.9662196 -1 -3.139682 0.08569139 -3.185042 
35.32598 -2.502968 1 -3.132997 0.2219844 3.185041 
35.32598 -2.502968 -1 -3.132997 0.2219844 -3.185041 
35.18393 -4.034993 1 -3.120398 0.3578568 3.185042 
35.18393 -4.034993 -1 -3.120399 0.3578569 -3.185042 
34.97546 -5.559401 1 -3.10191 0.4930556 3.185042 
34.97546 -5.559401 -1 -3.10191 0.4930555 -3.185042 
34.70098 -7.073316 1 -3.077567 0.6273196 3.18504 
34.70098 -7.073316 -1 -3.077567 0.6273196 -3.185039 
34.361 -8.57388 1 -3.047415 0.7603998 3.185042 
34.361 -8.57388 -1 -3.047415 0.7603997 -3.185042 
33.95617 -10.05826 1 -3.01151 0.8920503 3.185043 
33.95617 -10.05826 -1 -3.01151 0.8920504 -3.185043 
33.48724 -11.52366 1 -2.588188 -0.6502669 2.029885 
33.48724 -11.52366 -1 -2.588189 -0.6502672 -2.029885 
40.67474 -18.47634 1 0.3518112 -1.747435 1.206658 
41.43888 -16.6922 1 2.913371 -1.17355 3.098145 
42.1248 -14.87654 1 2.961594 -1.0459 3.098142 
42.7312 -13.03281 1 3.004229 -0.9162736 3.098145 
43.25696 -11.16448 1 3.041192 -0.7849218 3.098144 
43.70107 -9.275071 1 3.072414 -0.6520878 3.098145 
44.06269 -7.368159 1 3.097838 -0.5180194 3.098142 
44.34114 -5.44734 1 3.117415 -0.3829722 3.098144 
44.53589 -3.516239 1 3.131108 -0.2472117 3.098148 
44.6466 -1.578501 1 3.13889 -0.1109819 3.098141 
44.67302 0.3622162 1 3.140748 0.02546706 3.098142 
44.61513 2.30225 1 3.136678 0.1618635 3.098145 
44.47302 4.237938 1 3.126687 0.2979512 3.098144 
44.24697 6.165627 1 3.110795 0.4334741 3.098146 
43.93742 8.081679 1 3.089032 0.5681819 3.098142 
43.54492 9.982476 1 3.061437 0.7018212 3.098143 
43.07024 11.86443 1 3.028064 0.8341331 3.098144 
42.51426 13.72399 1 2.988975 0.9648704 3.098144 
41.87803 15.55765 1 2.944245 1.093787 3.098144 
41.16276 17.36194 1 2.893959 1.220635 3.098146 
40.3698 19.13346 1 2.83821 1.345181 3.098142 
39.50063 20.86887 1 2.777102 1.467191 3.098145 
38.55692 22.56489 1 2.710753 1.586432 3.098142 
37.54042 24.21832 1 2.639287 1.702678 3.098145 
36.45306 25.82603 1 2.562844 1.815704 3.098146 
35.29691 27.385 1 2.481559 1.925308 3.098141 
34.07413 28.89228 1 2.39559 2.031279 3.098145 
32.78703 30.34502 1 2.3051 2.133415 3.098142 
31.43805 31.74049 1 2.210259 2.231524 3.098145 
30.02973 33.07605 1 2.11125 2.325418 3.098146 
28.56473 34.34918 1 2.008252 2.414927 3.098141 
27.04581 35.55748 1 1.901461 2.499878 3.098144 
25.47585 36.69865 1 1.791085 2.580109 3.098144 
23.8578 37.77057 1 1.677328 2.65547 3.098143 
22.19471 38.77118 1 1.560405 2.725818 3.098145 
20.48974 39.69862 1 1.440536 2.791022 3.098143 
18.74609 40.55113 1 1.317947 2.850959 3.098144 
16.96706 41.3271 1 1.192873 2.905512 3.098145 
15.156 42.02506 1 1.065547 2.954582 3.098143 
13.31633 42.6437 1 0.9362084 2.998076 3.098144 
11.45154 43.18185 1 0.8051034 3.035911 3.098143 
9.565121 43.6385 1 0.6724795 3.068015 3.098144 
7.660653 44.01278 1 0.5385839 3.094329 3.098142 
5.741725 44.30398 1 0.4036725 3.114803 3.098145 
3.81196 44.51156 1 0.2680014 3.129396 3.098144 
1.875 44.63512 1 0.1318242 3.138083 3.098145 
-0.06549911 44.67444 1 -0.004603148 3.140848 3.098143 
-2.005875 44.62944 1 -0.1410243 3.137684 3.098142 
-3.942464 44.50019 1 -0.2771768 3.128597 3.098145 
-5.871612 44.28695 1 -0.4128046 3.113605 3.098144 
-7.789678 43.99012 1 -0.5476573 3.092736 3.098143 
-9.69304 43.61026 1 -0.681473 3.066031 3.098146 
-11.57811 43.14809 1 -0.8140011 3.033537 3.098143 
-13.44132 42.60447 1 -0.9449946 2.995318 3.098145 
-15.27916 41.98044 1 -1.074204 2.951446 3.098144 
-17.08817 41.27717 1 -1.201391 2.902 3.098142 
-18.86491 40.49598 1 -1.326302 2.847081 3.098148 
-20.60606 39.63837 1 -1.448713 2.786786 3.098141 
-22.30831 38.70593 1 -1.568393 2.72123 3.098146 
-23.96845 37.70044 1 -1.685106 2.650541 3.098145 
-25.58335 36.62379 1 -1.798643 2.574845 3.098141 
-27.14996 35.47802 1 -1.908785 2.494291 3.098146 
-28.66533 34.26527 1 -2.015323 2.409029 3.098142 
-30.12659 32.98785 1 -2.118059 2.319218 3.098144 
-31.53099 31.64817 1 -2.216794 2.225033 3.098146 
-32.87587 30.24875 1 -2.311347 2.126646 3.098141 
-34.1587 28.79224 1 -2.401537 2.024245 3.098145 
-35.37706 27.28138 1 -2.487191 1.918027 3.098145 
-36.52864 25.71903 1 -2.568156 1.808182 3.09814 
-37.61127 24.10813 1 -2.64427 1.694929 3.098147 
-38.62292 22.45173 1 -2.715394 1.578476 3.098141 
-39.56166 20.75296 1 -2.781394 1.459039 3.098144 
-40.42572 19.01501 1 -2.842141 1.336855 3.098147 
-41.21349 17.24117 1 -2.897524 1.212146 3.098142 
-41.92347 15.43479 1 -2.947441 1.085145 3.098143 
-42.55431 13.59927 1 -2.991792 0.9560997 3.098145 
-43.10484 11.73809 1 -3.030496 0.825251 3.098144 
-43.57401 9.854748 1 -3.063482 0.6928403 3.098143 
-43.96092 7.952807 1 -3.090684 0.5591236 3.098145 
-44.26487 6.035856 1 -3.112052 0.4243541 3.098144 
-44.48526 4.107512 1 -3.127548 0.288782 3.098145 
-44.62169 2.171416 1 -3.137139 0.1526603 3.098141 
-44.67389 0.2312209 1 -3.140809 0.01625459 3.098147 
-44.64177 -1.709411 1 -3.138551 -0.120182 3.098141 
-44.52539 -3.646816 1 -3.130369 -0.2563933 3.098145 
-44.32497 -5.577337 1 -3.116279 -0.3921136 3.098146 
-44.04089 -7.497332 1 -3.096306 -0.5270992 3.098143 
-43.67368 -9.403175 1 -3.070489 -0.6610937 3.098143 
-43.22403 -11.29127 1 -3.038876 -0.7938377 3.098144 
-42.6928 -13.15805 1 -3.001528 -0.9250816 3.098144 
-42.08099 -15 1 -1.490714 -2.065945 1.891487 
40.67474 -18.47634 -1 0.3518115 -1.747434 -1.206658 
41.43888 -16.6922 -1 2.913371 -1.17355 -3.098145 
42.1248 -14.87654 -1 2.961594 -1.0459 -3.098142 
42.7312 -13.03281 -1 3.004229 -0.9162737 -3.098145 
43.25696 -11.16448 -1 3.041191 -0.7849217 -3.098145 
43.70107 -9.275071 -1 3.072414 -0.6520879 -3.098144 
44.06269 -7.368159 -1 3.097838 -0.5180194 -3.098142 
44.34114 -5.44734 -1 3.117415 -0.3829722 -3.098144 
44.53589 -3.516239 -1 3.131108 -0.2472117 -3.098149 
44.6466 -1.578501 -1 3.13889 -0.1109819 -3.098142 
44.67302 0.3622162 -1 3.140748 0.02546706 -3.098141 
44.61513 2.30225 -1 3.136678 0.1618635 -3.098145 
44.47302 4.237938 -1 3.126687 0.2979512 -3.098144 
44.24697 6.165627 -1 3.110795 0.4334741 -3.098145 
43.93742 8.081679 -1 3.089032 0.5681819 -3.098142 
43.54492 9.982476 -1 3.061437 0.7018211 -3.098144 
43.07024 11.86443 -1 3.028064 0.8341331 -3.098144 
42.51426 13.72399 -1 2.988975 0.9648705 -3.098144 
41.87803 15.55765 -1 2.944245 1.093787 -3.098144 
41.16276 17.36194 -1 2.893959 1.220635 -3.098146 
40.3698 19.13346 -1 2.83821 1.345181 -3.098141 
39.50063 20.86887 -1 2.777102 1.467191 -3.098145 
38.55692 22.56489 -1 2.710753 1.586432 -3.098142 
37.54042 24.21832 -1 2.639287 1.702677 -3.098145 
36.45306 25.82603 -1 2.562844 1.815704 -3.098146 
35.29691 27.385 -1 2.481559 1.925308 -3.098141 
34.07413 28.89228 -1 2.39559 2.031279 -3.098145 
32.78703 30.34502 -1 2.3051 2.133415 -3.098142 
31.43805 31.74049 -1 2.210259 2.231524 -3.098145 
30.02973 33.07605 -1 2.11125 2.325418 -3.098146 
28.56473 34.34918 -1 2.008252 2.414927 -3.098141 
27.04581 35.55748 -1 1.901461 2.499878 -3.098145 
25.47585 36.69865 -1 1.791085 2.580109 -3.098144 
23.8578 37.77057 -1 1.677328 2.65547 -3.098144 
22.19471 38.77118 -1 1.560405 2.725818 -3.098145 
20.48974 39.69862 -1 1.440536 2.791022 -3.098143 
18.74609 40.55113 -1 1.317947 2.850958 -3.098144 
16.96706 41.3271 -1 1.192873 2.905512 -3.098145 
15.156 42.02506 -1 1.065547 2.954582 -3.098144 
13.31633 42.6437 -1 0.9362085 2.998076 -3.098144 
11.45154 43.18185 -1 0.8051034 3.035911 -3.098143 
9.565121 43.6385 -1 0.6724795 3.068016 -3.098144 
7.660653 44.01278 -1 0.5385839 3.094329 -3.098142 
5.741725 44.30398 -1 0.4036724 3.114803 -3.098144 
3.81196 44.51156 -1 0.2680014 3.129396 -3.098144 
1.875 44.63512 -1 0.1318242 3.138084 -3.098144 
-0.06549911 44.67444 -1 -0.004603151 3.140848 -3.098144 
-2.005875 44.62944 -1 -0.1410243 3.137684 -3.098142 
-3.942464 44.50019 -1 -0.2771769 3.128597 -3.098145 
-5.871612 44.28695 -1 -0.4128046 3.113605 -3.098144 
-7.789678 43.99012 -1 -0.5476573 3.092736 -3.098142 
-9.69304 43.61026 -1 -0.681473 3.066031 -3.098147 
-11.57811 43.14809 -1 -0.8140011 3.033537 -3.098143 
-13.44132 42.60447 -1 -0.9449946 2.995318 -3.098145 
-15.27916 41.98044 -1 -1.074204 2.951446 -3.098144 
-17.08817 41.27717 -1 -1.201391 2.902 -3.098143 
-18.86491 40.49598 -1 -1.326302 2.847081 -3.098148 
-20.60606 39.63837 -1 -1.448713 2.786786 -3.09814 
-22.30831 38.70593 -1 -1.568393 2.72123 -3.098145 
-23.96845 37.70044 -1 -1.685106 2.650541 -3.098145 
-25.58335 36.62379 -1 -1.798643 2.574845 -3.098142 
-27.14996 35.47802 -1 -1.908785 2.494291 -3.098146 
-28.66533 34.26527 -1 -2.015323 2.409029 -3.098142 
-30.12659 32.98785 -1 -2.118059 2.319218 -3.098144 
-31.53099 31.64817 -1 -2.216794 2.225033 -3.098145 
-32.87587 30.24875 -1 -2.311347 2.126647 -3.098142 
-34.1587 28.79224 -1 -2.401536 2.024245 -3.098145 
-35.37706 27.28138 -1 -2.487191 1.918027 -3.098145 
-36.52864 25.71903 -1 -2.568156 1.808182 -3.09814 
-37.61127 24.10813 -1 -2.64427 1.694929 -3.098148 
-38.62292 22.45173 -1 -2.715394 1.578476 -3.098141 
-39.56166 20.75296 -1 -2.781394 1.459039 -3.098144 
-40.42572 19.01501 -1 -2.842141 1.336855 -3.098146 
-41.21349 17.24117 -1 -2.897524 1.212146 -3.098142 
-41.92347 15.43479 -1 -2.947441 1.085145 -3.098143 
-42.55431 13.59927 -1 -2.991792 0.9560997 -3.098145 
-43.10484 11.73809 -1 -3.030496 0.825251 -3.098144 
-43.57401 9.854748 -1 -3.063481 0.6928403 -3.098143 
-43.96092 7.952807 -1 -3.090684 0.5591236 -3.098145 
-44.26487 6.035856 -1 -3.112053 0.4243541 -3.098144 
-44.48526 4.107512 -1 -3.127547 0.288782 -3.098145 
-44.62169 2.171416 -1 -3.137139 0.1526603 -3.098141 
-44.67389 0.2312209 -1 -3.140809 0.01625458 -3.098147 
-44.64177 -1.709411 -1 -3.138551 -0.120182 -3.098141 
-44.52539 -3.646816 -1 -3.130369 -0.2563933 -3.098145 
-44.32497 -5.577337 -1 -3.116279 -0.3921136 -3.098145 
-44.04089 -7.497332 -1 -3.096306 -0.5270991 -3.098142 
-43.67368 -9.403175 -1 -3.070489 -0.6610937 -3.098143 
-43.22403 -11.29127 -1 -3.038876 -0.7938377 -3.098144 
-42.6928 -13.15805 -1 -3.001528 -0.9250816 -3.098144 
-42.08099 -15 -1 -1.490714 -2.065945 -1.891487 
3 0 1 2 
3 1 3 2 
3 4 5 2 
3 5 0 2 
3 6 7 4 
3 7 5 4 
3 3 1 6 
3 1 7 6 
3 7 1 5 
3 1 0 5 
3 3 6 2 
3 6 4 2 
3 8 9 10 
3 9 11 10 
3 10 11 12 
3 11 13 12 
3 12 13 14 
3 13 15 14 
3 14 15 16 
3 15 17 16 
3 16 17 18 
3 17 19 18 
3 18 19 20 
3 19 21 20 
3 20 21 22 
3 21 23 22 
3 22 23 24 
3 23 25 24 
3 24 25 26 
3 25 27 26 
3 26 27 28 
3 27 29 28 
3 28 29 30 
3 29 31 30 
3 30 31 32 
3 31 33 32 
3 32 33 34 
3 33 35 34 
3 34 35 36 
3 35 37 36 
3 36 37 38 
3 37 39 38 
3 38 39 40 
3 39 41 40 
3 40 41 42 
3 41 43 42 
3 42 43 44 
3 43 45 44 
3 44 45 46 
3 45 47 46 
3 46 47 48 
3 47 49 48 
3 48 49 50 
3 49 51 50 
3 50 51 52 
3 51 53 52 
3 52 53 54 
3 53 55 54 
3 54 55 56 
3 55 57 56 
3 56 57 58 
3 57 59 58 
3 58 59 60 
3 59 61 60 
3 60 61 62 
3 61 63 62 
3 62 63 64 
3 63 65 64 
3 64 65 66 
3 65 67 66 
3 66 67 68 
3 67 69 68 
3 68 69 70 
3 69 71 70 
3 70 71 72 
3 71 73 72 
3 72 73 74 
3 73 75 74 
3 74 75 76 
3 75 77 76 
3 76 77 78 
3 77 79 78 
3 78 79 80 
3 79 81 80 
3 80 81 82 
3 81 83 82 
3 82 83 84 
3 83 85 84 
3 84 85 86 
3 85 87 86 
3 86 87 88 
3 87 89 88 
3 88 89 90 
3 89 91 90 
3 90 91 92 
3 91 93 92 
3 92 93 94 
3 93 95 94 
3 94 95 96 
3 95 97 96 
3 96 97 98 
3 97 99 98 
3 98 99 100 
3 99 101 100 
3 100 101 102 
3 101 103 102 
3 102 103 104 
3 103 105 104 
3 104 105 106 
3 105 107 106 
3 106 107 108 
3 107 109 108 
3 108 109 110 
3 109 111 110 
3 110 111 112 
3 111 113 112 
3 112 113 114 
3 113 115 114 
3 114 115 116 
3 115 117 116 
3 116 117 118 
3 117 119 118 
3 118 119 120 
3 119 121 120 
3 120 121 122 
3 121 123 122 
3 122 123 124 
3 123 125 124 
3 124 125 126 
3 125 127 126 
3 126 127 128 
3 127 129 128 
3 128 129 130 
3 129 131 130 
3 130 131 132 
3 131 133 132 
3 132 133 134 
3 133 135 134 
3 134 135 136 
3 135 137 136 
3 136 137 138 
3 137 139 138 
3 138 139 140 
3 139 141 140 
3 140 141 142 
3 141 143 142 
3 142 143 144 
3 143 145 144 
3 144 145 146 
3 145 147 146 
3 146 147 148 
3 147 149 148 
3 148 149 150 
3 149 151 150 
3 150 151 152 
3 151 153 152 
3 152 153 154 
3 153 155 154 
3 154 155 156 
3 155 157 156 
3 156 157 158 
3 157 159 158 
3 158 159 160 
3 159 161 160 
3 160 161 162 
3 161 163 162 
3 162 163 164 
3 163 165 164 
3 164 165 166 
3 165 167 166 
3 166 167 168 
3 167 169 168 
3 168 169 170 
3 169 171 170 
3 170 171 172 
3 171 173 172 
3 172 173 174 
3 173 175 174 
3 174 175 176 
3 175 177 176 
3 176 177 178 
3 177 179 178 
3 178 179 180 
3 179 181 180 
3 180 181 182 
3 181 183 182 
3 182 183 184 
3 183 185 184 
3 184 185 186 
3 185 187 186 
3 186 187 188 
3 187 189 188 
3 190 191 188 
3 191 192 188 
3 188 192 186 
3 192 193 186 
3 186 193 184 
3 193 194 184 
3 184 194 182 
3 194 195 182 
3 182 195 180 
3 195 196 180 
3 180 196 178 
3 196 197 178 
3 178 197 176 
3 197 198 176 
3 176 198 174 
3 198 199 174 
3 174 199 172 
3 199 200 172 
3 172 200 170 
3 200 201 170 
3 170 201 168 
3 201 202 168 
3 168 202 166 
3 202 203 166 
3 166 203 164 
3 203 204 164 
3 164 204 162 
3 204 205 162 
3 162 205 160 
3 205 206 160 
3 160 206 158 
3 206 207 158 
3 158 207 156 
3 207 208 156 
3 156 208 154 
3 208 209 154 
3 154 209 152 
3 209 210 152 
3 152 210 150 
3 210 211 150 
3 150 211 148 
3 211 212 148 
3 148 212 146 
3 212 213 146 
3 146 213 144 
3 213 214 144 
3 144 214 142 
3 214 215 142 
3 142 215 140 
3 215 216 140 
3 140 216 138 
3 216 217 138 
3 138 217 136 
3 217 218 136 
3 136 218 134 
3 218 219 134 
3 134 219 132 
3 219 220 132 
3 132 220 130 
3 220 221 130 
3 130 221 128 
3 221 222 128 
3 128 222 126 
3 222 223 126 
3 126 223 124 
3 223 224 124 
3 124 224 122 
3 224 225 122 
3 122 225 120 
3 225 226 120 
3 120 226 118 
3 226 227 118 
3 118 227 116 
3 227 228 116 
3 116 228 114 
3 228 229 114 
3 114 229 112 
3 229 230 112 
3 112 230 110 
3 230 231 110 
3 110 231 108 
3 231 232 108 
3 108 232 106 
3 232 233 106 
3 106 233 104 
3 233 234 104 
3 104 234 102 
3 234 235 102 
3 102 235 100 
3 235 236 100 
3 100 236 98 
3 236 237 98 
3 98 237 96 
3 237 238 96 
3 96 238 94 
3 238 239 94 
3 94 239 92 
3 239 240 92 
3 92 240 90 
3 240 241 90 
3 90 241 88 
3 241 242 88 
3 88 242 86 
3 242 243 86 
3 86 243 84 
3 243 244 84 
3 84 244 82 
3 244 245 82 
3 82 245 80 
3 245 246 80 
3 80 246 78 
3 246 247 78 
3 78 247 76 
3 247 248 76 
3 76 248 74 
3 248 249 74 
3 74 249 72 
3 249 250 72 
3 72 250 70 
3 250 251 70 
3 70 251 68 
3 251 252 68 
3 68 252 66 
3 252 253 66 
3 66 253 64 
3 253 254 64 
3 64 254 62 
3 254 255 62 
3 62 255 60 
3 255 256 60 
3 60 256 58 
3 256 257 58 
3 58 257 56 
3 257 258 56 
3 56 258 54 
3 258 259 54 
3 54 259 52 
3 259 260 52 
3 52 260 50 
3 260 261 50 
3 50 261 48 
3 261 262 48 
3 48 262 46 
3 262 263 46 
3 46 263 44 
3 263 264 44 
3 44 264 42 
3 264 265 42 
3 42 265 40 
3 265 266 40 
3 40 266 38 
3 266 267 38 
3 38 267 36 
3 267 268 36 
3 36 268 34 
3 268 269 34 
3 34 269 32 
3 269 270 32 
3 32 270 30 
3 270 271 30 
3 30 271 28 
3 271 272 28 
3 28 272 26 
3 272 273 26 
3 26 273 24 
3 273 274 24 
3 24 274 22 
3 274 275 22 
3 22 275 20 
3 275 276 20 
3 20 276 18 
3 276 277 18 
3 18 277 16 
3 277 278 16 
3 16 278 14 
3 278 279 14 
3 14 279 12 
3 279 280 12 
3 12 280 10 
3 280 8 10 
3 190 281 282 
3 190 282 191 
3 282 283 191 
3 191 283 192 
3 283 284 192 
3 192 284 193 
3 284 285 193 
3 193 285 194 
3 285 286 194 
3 194 286 195 
3 286 287 195 
3 195 287 196 
3 287 288 196 
3 196 288 197 
3 288 289 197 
3 197 289 198 
3 289 290 198 
3 198 290 199 
3 290 291 199 
3 199 291 200 
3 291 292 200 
3 200 292 201 
3 292 293 201 
3 201 293 202 
3 293 294 202 
3 202 294 203 
3 294 295 203 
3 203 295 204 
3 295 296 204 
3 204 296 205 
3 296 297 205 
3 205 297 206 
3 297 298 206 
3 206 298 207 
3 298 299 207 
3 207 299 208 
3 299 300 208 
3 208 300 209 
3 300 301 209 
3 209 301 210 
3 301 302 210 
3 210 302 211 
3 302 303 211 
3 211 303 212 
3 303 304 212 
3 212 304 213 
3 304 305 213 
3 213 305 214 
3 305 306 214 
3 214 306 215 
3 306 307 215 
3 215 307 216 
3 307 308 216 
3 216 308 217 
3 308 309 217 
3 217 309 218 
3 309 310 218 
3 218 310 219 
3 310 311 219 
3 219 311 220 
3 311 312 220 
3 220 312 221 
3 312 313 221 
3 221 313 222 
3 313 314 222 
3 222 314 223 
3 314 315 223 
3 223 315 224 
3 315 316 224 
3 224 316 225 
3 316 317 225 
3 225 317 226 
3 317 318 226 
3 226 318 227 
3 318 319 227 
3 227 319 228 
3 319 320 228 
3 228 320 229 
3 320 321 229 
3 229 321 230 
3 321 322 230 
3 230 322 231 
3 322 323 231 
3 231 323 232 
3 323 324 232 
3 232 324 233 
3 324 325 233 
3 233 325 234 
3 325 326 234 
3 234 326 235 
3 326 327 235 
3 235 327 236 
3 327 328 236 
3 236 328 237 
3 328 329 237 
3 237 329 238 
3 329 330 238 
3 238 330 239 
3 330 331 239 
3 239 331 240 
3 331 332 240 
3 240 332 241 
3 332 333 241 
3 241 333 242 
3 333 334 242 
3 242 334 243 
3 334 335 243 
3 243 335 244 
3 335 336 244 
3 244 336 245 
3 336 337 245 
3 245 337 246 
3 337 338 246 
3 246 338 247 
3 338 339 247 
3 247 339 248 
3 339 340 248 
3 248 340 249 
3 340 341 249 
3 249 341 250 
3 341 342 250 
3 250 342 251 
3 342 343 251 
3 251 343 252 
3 343 344 252 
3 252 344 253 
3 344 345 253 
3 253 345 254 
3 345 346 254 
3 254 346 255 
3 346 347 255 
3 255 347 256 
3 347 348 256 
3 256 348 257 
3 348 349 257 
3 257 349 258 
3 349 350 258 
3 258 350 259 
3 350 351 259 
3 259 351 260 
3 351 352 260 
3 260 352 261 
3 352 353 261 
3 261 353 262 
3 353 354 262 
3 262 354 263 
3 354 355 263 
3 263 355 264 
3 355 356 264 
3 264 356 265 
3 356 357 265 
3 265 357 266 
3 357 358 266 
3 266 358 267 
3 358 359 267 
3 267 359 268 
3 359 360 268 
3 268 360 269 
3 360 361 269 
3 269 361 270 
3 361 362 270 
3 270 362 271 
3 362 363 271 
3 271 363 272 
3 363 364 272 
3 272 364 273 
3 364 365 273 
3 273 365 274 
3 365 366 274 
3 274 366 275 
3 366 367 275 
3 275 367 276 
3 367 368 276 
3 276 368 277 
3 368 369 277 
3 277 369 278 
3 369 370 278 
3 278 370 279 
3 370 371 279 
3 279 371 280 
3 187 283 189 
3 283 282 189 
3 189 282 281 
3 9 371 11 
3 371 13 11 
3 13 371 15 
3 371 370 15 
3 15 370 17 
3 370 369 17 
3 17 369 19 
3 369 368 19 
3 19 368 21 
3 368 367 21 
3 21 367 23 
3 367 366 23 
3 23 366 25 
3 366 365 25 
3 25 365 27 
3 365 364 27 
3 27 364 29 
3 364 363 29 
3 29 363 31 
3 363 362 31 
3 31 362 33 
3 362 361 33 
3 33 361 35 
3 361 360 35 
3 35 360 37 
3 360 359 37 
3 37 359 39 
3 359 358 39 
3 39 358 41 
3 358 357 41 
3 41 357 43 
3 357 356 43 
3 43 356 45 
3 356 355 45 
3 45 355 47 
3 355 354 47 
3 47 354 49 
3 354 353 49 
3 49 353 51 
3 353 352 51 
3 51 352 53 
3 352 351 53 
3 53 351 55 
3 351 350 55 
3 55 350 57 
3 350 349 57 
3 57 349 59 
3 349 348 59 
3 59 348 61 
3 348 347 61 
3 61 347 63 
3 347 346 63 
3 63 346 65 
3 346 345 65 
3 65 345 67 
3 345 344 67 
3 67 344 69 
3 344 343 69 
3 69 343 71 
3 343 342 71 
3 71 342 73 
3 342 341 73 
3 73 341 75 
3 341 340 75 
3 75 340 77 
3 340 339 77 
3 77 339 79 
3 339 338 79 
3 79 338 81 
3 338 337 81 
3 81 337 83 
3 337 336 83 
3 83 336 85 
3 336 335 85 
3 85 335 87 
3 335 334 87 
3 87 334 89 
3 334 333 89 
3 89 333 91 
3 333 332 91 
3 91 332 93 
3 332 331 93 
3 93 331 95 
3 331 330 95 
3 95 330 97 
3 330 329 97 
3 97 329 99 
3 329 328 99 
3 99 328 101 
3 328 327 101 
3 101 327 103 
3 327 326 103 
3 103 326 105 
3 326 325 105 
3 105 325 107 
3 325 324 107 
3 107 324 109 
3 324 323 109 
3 109 323 111 
3 323 322 111 
3 111 322 113 
3 322 321 113 
3 113 321 115 
3 321 320 115 
3 115 320 117 
3 320 319 117 
3 117 319 119 
3 319 318 119 
3 119 318 121 
3 318 317 121 
3 121 317 123 
3 317 316 123 
3 123 316 125 
3 316 315 125 
3 125 315 127 
3 315 314 127 
3 127 314 129 
3 314 313 129 
3 129 313 131 
3 313 312 131 
3 131 312 133 
3 312 311 133 
3 133 311 135 
3 311 310 135 
3 135 310 137 
3 310 309 137 
3 137 309 139 
3 309 308 139 
3 139 308 141 
3 308 307 141 
3 141 307 143 
3 307 306 143 
3 143 306 145 
3 306 305 145 
3 145 305 147 
3 305 304 147 
3 147 304 149 
3 304 303 149 
3 149 303 151 
3 303 302 151 
3 151 302 153 
3 302 301 153 
3 153 301 155 
3 301 300 155 
3 155 300 157 
3 300 299 157 
3 157 299 159 
3 299 298 159 
3 159 298 161 
3 298 297 161 
3 161 297 163 
3 297 296 163 
3 163 296 165 
3 296 295 165 
3 165 295 167 
3 295 294 167 
3 167 294 169 
3 294 293 169 
3 169 293 171 
3 293 292 171 
3 171 292 173 
3 292 291 173 
3 173 291 175 
3 291 290 175 
3 175 290 177 
3 290 289 177 
3 177 289 179 
3 289 288 179 
3 179 288 181 
3 288 287 181 
3 181 287 183 
3 287 286 183 
3 183 286 185 
3 286 285 185 
3 185 285 187 
3 285 284 187 
3 187 284 283 
3 371 9 280 
3 9 8 280 
3 189 281 188 
3 281 190 188 
