ply
format ascii 1.0
comment VCGLIB generated
element vertex 308
property float x
property float y
property float z
property float nx
property float ny
property float nz
element face 612
property list uchar int vertex_indices
end_header
-14 39 -5 1.570796 -1.570796 -4.712389 
15 39 -5 1.570796 -1.570796 -1.570797 
-14 39 5 1.570796 -1.570796 4.712389 
15 39 5 1.570796 -1.570796 1.570796 
-1.656132e-14 -55 5 -1.604597 1.570432 1.592316 
-1.730622e-14 -57 5 -1.536998 -1.570433 1.549278 
1.1616 -54.975 5 -0.1351265 3.137957 3.184623 
1.247645 -56.97315 5 0.1351274 -3.137958 3.098558 
2.32105 -54.90005 5 -0.2700003 3.129239 3.184631 
2.492979 -56.89265 5 0.2700003 -3.129239 3.098558 
3.476201 -54.77529 5 -0.4043791 3.114725 3.184626 
3.733697 -56.75864 5 0.4043787 -3.114725 3.098555 
4.624915 -54.60094 5 -0.5380099 3.094444 3.184632 
4.967501 -56.57138 5 0.538008 -3.094444 3.098558 
5.765065 -54.37734 5 -0.6706451 3.068431 3.184627 
6.192107 -56.33122 5 0.6706386 -3.068433 3.098556 
6.894539 -54.10489 5 -0.8020281 3.036739 3.184625 
7.405246 -56.03859 5 0.8020349 -3.036738 3.098554 
8.011246 -53.7841 5 -0.9319351 2.999422 3.184633 
8.604671 -55.69403 5 0.9319382 -2.999421 3.098562 
9.113118 -53.41557 5 -1.060114 2.956551 3.184624 
9.788164 -55.2982 5 1.060113 -2.956552 3.098555 
10.19812 -52.99997 5 -1.186329 2.908205 3.184632 
10.95353 -54.85182 5 1.186333 -2.908204 3.098556 
11.26423 -52.53807 5 -1.310348 2.854475 3.184623 
12.09861 -54.35571 5 1.310346 -2.854476 3.098562 
12.30948 -52.03075 5 -1.431937 2.795459 3.184631 
13.22129 -53.8108 5 1.431937 -2.795459 3.098553 
13.33194 -51.47892 5 -1.550884 2.731263 3.18463 
14.31949 -53.21809 5 1.550883 -2.731263 3.098558 
14.32971 -50.88361 5 -1.666953 2.662011 3.184627 
15.39117 -52.57869 5 1.666952 -2.662012 3.098556 
15.30095 -50.24592 5 -1.779935 2.58783 3.184629 
16.43435 -51.89377 5 1.779937 -2.587829 3.098556 
16.24385 -49.56704 5 -1.889621 2.508858 3.184627 
17.4471 -51.1646 5 1.889619 -2.508859 3.098561 
17.15667 -48.84823 5 -1.995804 2.425242 3.184627 
18.42754 -50.39254 5 1.995806 -2.425242 3.098554 
18.03773 -48.09081 5 -2.0983 2.337129 3.184633 
19.37385 -49.57901 5 2.098302 -2.337127 3.098556 
18.88537 -47.29618 5 -2.196908 2.24469 3.184625 
20.28429 -48.72552 5 2.196904 -2.244693 3.098562 
19.69805 -46.46582 5 -2.291441 2.148099 3.184628 
21.15717 -47.83366 5 2.29144 -2.148101 3.098555 
20.47426 -45.60127 5 -2.381736 2.047527 3.184628 
21.99087 -46.90507 5 2.381737 -2.047527 3.098556 
21.21255 -44.70413 5 -2.467621 1.943164 3.184628 
22.78385 -45.94147 5 2.46762 -1.943164 3.098559 
21.91155 -43.77605 5 -2.548934 1.835203 3.184628 
23.53463 -44.94465 5 2.548935 -1.835202 3.098555 
22.56999 -42.81876 5 -2.625529 1.723843 3.184628 
24.24184 -43.91645 5 2.625531 -1.72384 3.098558 
23.18663 -41.83403 5 -2.697261 1.609291 3.184627 
24.90415 -42.85877 5 2.697262 -1.60929 3.098557 
23.76033 -40.82368 5 -2.763999 1.491758 3.18463 
25.52036 -41.77358 5 2.764 -1.491758 3.098557 
24.29003 -39.78959 5 -2.82562 1.371461 3.184628 
26.0893 -40.66288 5 2.825618 -1.371465 3.098558 
24.77476 -38.73366 5 -2.882008 1.248626 3.184629 
26.60993 -39.52874 5 2.882007 -1.248628 3.098555 
25.2136 -37.65785 5 -2.933058 1.123481 3.184626 
27.08128 -38.37325 5 2.933057 -1.123481 3.098559 
25.60576 -36.56416 5 -2.978675 0.9962577 3.184628 
27.50249 -37.19855 5 2.978677 -0.9962541 3.098555 
25.9505 -35.45462 5 -3.018779 0.8671846 3.18463 
27.87276 -36.00681 5 3.018779 -0.8671838 3.098561 
26.24719 -34.33126 5 -3.053293 0.7365037 3.184629 
28.19143 -34.80025 5 3.053292 -0.7365071 3.098554 
26.49527 -33.19619 5 -3.082152 0.6044625 3.184628 
28.45789 -33.5811 5 3.082152 -0.604462 3.098558 
26.69429 -32.05149 5 -3.105303 0.471305 3.184627 
28.67165 -32.3516 5 3.105304 -0.4713036 3.098558 
26.84388 -30.8993 5 -3.122704 0.3372723 3.184629 
28.83232 -31.11406 5 3.122705 -0.3372715 3.098557 
26.94376 -29.74173 5 -3.134323 0.2026124 3.184629 
28.9396 -29.87074 5 3.134324 -0.2026118 3.098556 
26.99375 -28.58093 5 -3.140138 0.06757874 3.184628 
28.99329 -28.62397 5 3.140139 -0.06757809 3.098558 
26.99375 -27.41907 5 -3.140138 -0.06757863 3.184628 
28.99329 -27.37603 5 3.140139 0.06757809 3.098558 
26.94376 -26.25827 5 -3.134323 -0.2026125 3.184629 
28.9396 -26.12926 5 3.134324 0.2026118 3.098556 
26.84388 -25.1007 5 -3.122705 -0.3372722 3.184628 
28.83232 -24.88594 5 3.122705 0.3372712 3.098557 
26.69429 -23.9485 5 -3.105303 -0.4713055 3.184628 
28.67165 -23.64839 5 3.105303 0.4713041 3.098557 
26.49527 -22.80381 5 -3.082152 -0.6044618 3.184625 
28.45789 -22.41891 5 3.082152 0.6044623 3.098558 
26.24719 -21.66873 5 -3.053293 -0.736504 3.184631 
28.19143 -21.19975 5 3.053292 0.7365066 3.098554 
25.9505 -20.54538 5 -3.018778 -0.867186 3.184628 
27.87276 -19.99319 5 3.01878 0.8671839 3.098561 
25.60576 -19.43584 5 -2.978676 -0.9962561 3.184628 
27.50249 -18.80145 5 2.978677 0.996254 3.098555 
25.2136 -18.34215 5 -2.933057 -1.123482 3.184628 
27.08128 -17.62675 5 2.933057 1.123483 3.098558 
24.77476 -17.26634 5 -2.882007 -1.248628 3.184628 
26.60993 -16.47126 5 2.882007 1.248627 3.098558 
24.29003 -16.21042 5 -2.82562 -1.371461 3.184628 
26.0893 -15.33711 5 2.82562 1.371462 3.098557 
23.76033 -15.17632 5 -2.764001 -1.491755 3.184628 
25.52036 -14.22642 5 2.763999 1.491759 3.098555 
23.18663 -14.16597 5 -2.697262 -1.60929 3.18463 
24.90415 -13.14123 5 2.697261 1.609292 3.098559 
22.56999 -13.18124 5 -2.625528 -1.723844 3.184628 
24.24184 -12.08355 5 2.625531 1.723841 3.098558 
21.91155 -12.22395 5 -2.548935 -1.835203 3.184628 
23.53463 -11.05535 5 2.548935 1.835202 3.098556 
21.21255 -11.29587 5 -2.467621 -1.943163 3.184628 
22.78385 -10.05853 5 2.46762 1.943164 3.098558 
20.47426 -10.39873 5 -2.381736 -2.047527 3.184629 
21.99087 -9.09493 5 2.381737 2.047526 3.098557 
19.69805 -9.534176 5 -2.291442 -2.1481 3.184628 
21.15717 -8.166336 5 2.291442 2.148099 3.098557 
18.88537 -8.703818 5 -2.196906 -2.244692 3.184628 
20.28429 -7.274472 5 2.196905 2.244693 3.098558 
18.03773 -7.909194 5 -2.098299 -2.337131 3.18463 
19.37385 -6.420986 5 2.098298 2.337131 3.098556 
17.15667 -7.151772 5 -1.995806 -2.425241 3.184627 
18.42754 -5.607459 5 1.995806 2.425241 3.098559 
16.24385 -6.432957 5 -1.889621 -2.508858 3.184628 
17.4471 -4.835398 5 1.889621 2.508858 3.098557 
15.30095 -5.754079 5 -1.779934 -2.587831 3.184628 
16.43435 -4.106233 5 1.779934 2.587831 3.098557 
14.32971 -5.116395 5 -1.666952 -2.662012 3.184628 
15.39117 -3.421313 5 1.666951 2.662012 3.098557 
13.33194 -4.521086 5 -1.550883 -2.731263 3.184628 
14.31949 -2.781908 5 1.550882 2.731263 3.098557 
12.30948 -3.969255 5 -1.431941 -2.795457 3.184628 
13.22129 -2.1892 5 1.431942 2.795457 3.098557 
11.26423 -3.461924 5 -1.310349 -2.854474 3.184628 
12.09861 -1.644289 5 1.310349 2.854474 3.098557 
10.19812 -3.000031 5 -1.18633 -2.908205 3.184628 
10.95353 -1.148182 5 1.18633 2.908205 3.098557 
9.113118 -2.584433 5 -1.060114 -2.956551 3.184628 
9.788164 -0.7017978 5 1.060114 2.956551 3.098557 
8.011246 -2.215898 5 -0.9319352 -2.999422 3.184628 
8.604671 -0.3059641 5 0.9319352 2.999422 3.098557 
6.894539 -1.895109 5 -0.8020304 -3.036739 3.184628 
7.405246 0.03858659 5 0.8020306 3.036739 3.098557 
5.765065 -1.622661 5 -0.6706403 -3.068432 3.184628 
6.192107 0.3312163 5 0.6706405 3.068432 3.098557 
4.624915 -1.399057 5 -0.5380086 -3.094444 3.184628 
4.967501 0.5713831 5 0.5380087 3.094444 3.098557 
3.476201 -1.224712 5 -0.4043808 -3.114725 3.184628 
3.733697 0.7586423 5 0.4043807 3.114725 3.098557 
2.32105 -1.099949 5 -0.270004 -3.129238 3.184628 
2.492979 0.8926471 5 0.2700039 3.129239 3.098557 
1.1616 -1.024999 5 -0.135127 -3.137957 3.184628 
1.247645 0.9731493 5 0.135127 3.137958 3.098557 
0 -1 5 -0.03379726 -3.141229 3.16311 
0 1 5 0.03379745 3.141229 3.120075 
-16 -1 5 -1.570796 -1.570796 1.570796 
-14 1 5 1.570796 1.570796 4.712389 
-16 41 5 -1.570796 1.570796 1.570796 
15 41 5 1.570796 1.570796 1.570797 
-16 41 -5 -1.570796 1.570796 -1.570797 
15 41 -5 1.570796 1.570796 -1.570796 
-16 -1 -5 -1.570796 -1.570796 -1.570796 
-14 1 -5 1.570796 1.570796 -4.712389 
0 -1 -5 -0.03379725 -3.141229 -3.16311 
0 1 -5 0.03379746 3.141229 -3.120075 
1.1616 -1.024999 -5 -0.135127 -3.137957 -3.184628 
1.247645 0.9731493 -5 0.1351271 3.137958 -3.098557 
2.32105 -1.099949 -5 -0.270004 -3.129238 -3.184628 
2.492979 0.8926471 -5 0.2700039 3.129239 -3.098557 
3.476201 -1.224712 -5 -0.4043808 -3.114725 -3.184628 
3.733697 0.7586423 -5 0.4043807 3.114725 -3.098557 
4.624915 -1.399057 -5 -0.5380086 -3.094444 -3.184628 
4.967501 0.5713831 -5 0.5380087 3.094444 -3.098557 
5.765065 -1.622661 -5 -0.6706403 -3.068432 -3.184628 
6.192107 0.3312163 -5 0.6706405 3.068432 -3.098557 
6.894539 -1.895109 -5 -0.8020304 -3.036739 -3.184628 
7.405246 0.03858659 -5 0.8020306 3.036739 -3.098557 
8.011246 -2.215898 -5 -0.9319351 -2.999422 -3.184628 
8.604671 -0.3059641 -5 0.9319352 2.999422 -3.098557 
9.113118 -2.584433 -5 -1.060114 -2.956551 -3.184628 
9.788164 -0.7017978 -5 1.060114 2.956551 -3.098557 
10.19812 -3.000031 -5 -1.18633 -2.908205 -3.184628 
10.95353 -1.148182 -5 1.18633 2.908205 -3.098557 
11.26423 -3.461924 -5 -1.310349 -2.854474 -3.184628 
12.09861 -1.644289 -5 1.310349 2.854474 -3.098557 
12.30948 -3.969255 -5 -1.431941 -2.795457 -3.184628 
13.22129 -2.1892 -5 1.431942 2.795457 -3.098557 
13.33194 -4.521086 -5 -1.550883 -2.731263 -3.184628 
14.31949 -2.781908 -5 1.550882 2.731264 -3.098557 
14.32971 -5.116395 -5 -1.666952 -2.662012 -3.184628 
15.39117 -3.421313 -5 1.666951 2.662012 -3.098557 
15.30095 -5.754079 -5 -1.779935 -2.587831 -3.184628 
16.43435 -4.106233 -5 1.779934 2.587831 -3.098557 
16.24385 -6.432957 -5 -1.889621 -2.508858 -3.184628 
17.4471 -4.835398 -5 1.889621 2.508859 -3.098557 
17.15667 -7.151772 -5 -1.995806 -2.425241 -3.184627 
18.42754 -5.607459 -5 1.995806 2.425241 -3.098559 
18.03773 -7.909194 -5 -2.098299 -2.337131 -3.18463 
19.37385 -6.420986 -5 2.098298 2.337132 -3.098556 
18.88537 -8.703818 -5 -2.196906 -2.244692 -3.184628 
20.28429 -7.274472 -5 2.196905 2.244693 -3.098558 
19.69805 -9.534176 -5 -2.291441 -2.148099 -3.184627 
21.15717 -8.166336 -5 2.291442 2.148099 -3.098557 
20.47426 -10.39873 -5 -2.381736 -2.047527 -3.184629 
21.99087 -9.09493 -5 2.381737 2.047526 -3.098557 
21.21255 -11.29587 -5 -2.467621 -1.943163 -3.184628 
22.78385 -10.05853 -5 2.46762 1.943164 -3.098558 
21.91155 -12.22395 -5 -2.548934 -1.835203 -3.184628 
23.53463 -11.05535 -5 2.548935 1.835202 -3.098556 
22.56999 -13.18124 -5 -2.625528 -1.723844 -3.184628 
24.24184 -12.08355 -5 2.625531 1.723841 -3.098557 
23.18663 -14.16597 -5 -2.697262 -1.60929 -3.18463 
24.90415 -13.14123 -5 2.697261 1.609292 -3.098559 
23.76033 -15.17632 -5 -2.764001 -1.491755 -3.184628 
25.52036 -14.22642 -5 2.763999 1.491759 -3.098555 
24.29003 -16.21042 -5 -2.82562 -1.371461 -3.184628 
26.0893 -15.33711 -5 2.82562 1.371462 -3.098557 
24.77476 -17.26634 -5 -2.882007 -1.248628 -3.184628 
26.60993 -16.47126 -5 2.882007 1.248628 -3.098557 
25.2136 -18.34215 -5 -2.933057 -1.123482 -3.184628 
27.08128 -17.62675 -5 2.933057 1.123483 -3.098558 
25.60576 -19.43584 -5 -2.978676 -0.9962561 -3.184627 
27.50249 -18.80145 -5 2.978677 0.996254 -3.098554 
25.9505 -20.54538 -5 -3.018778 -0.8671859 -3.184628 
27.87276 -19.99319 -5 3.018779 0.8671838 -3.098561 
26.24719 -21.66873 -5 -3.053293 -0.7365041 -3.184631 
28.19143 -21.19975 -5 3.053292 0.7365066 -3.098554 
26.49527 -22.80381 -5 -3.082152 -0.6044618 -3.184626 
28.45789 -22.41891 -5 3.082152 0.6044623 -3.098558 
26.69429 -23.9485 -5 -3.105303 -0.4713055 -3.184628 
28.67165 -23.64839 -5 3.105303 0.4713041 -3.098557 
26.84388 -25.1007 -5 -3.122704 -0.3372722 -3.184628 
28.83232 -24.88594 -5 3.122705 0.3372711 -3.098557 
26.94376 -26.25827 -5 -3.134324 -0.2026126 -3.184629 
28.9396 -26.12926 -5 3.134324 0.2026118 -3.098556 
26.99375 -27.41907 -5 -3.140138 -0.06757863 -3.184628 
28.99329 -27.37603 -5 3.140139 0.06757809 -3.098558 
26.99375 -28.58093 -5 -3.140138 0.06757873 -3.184628 
28.99329 -28.62397 -5 3.140139 -0.06757809 -3.098558 
26.94376 -29.74173 -5 -3.134323 0.2026124 -3.184629 
28.9396 -29.87074 -5 3.134324 -0.2026118 -3.098556 
26.84388 -30.8993 -5 -3.122704 0.3372723 -3.184629 
28.83232 -31.11406 -5 3.122705 -0.3372715 -3.098557 
26.69429 -32.05149 -5 -3.105303 0.471305 -3.184627 
28.67165 -32.3516 -5 3.105303 -0.4713035 -3.098558 
26.49527 -33.19619 -5 -3.082152 0.6044626 -3.184627 
28.45789 -33.5811 -5 3.082152 -0.604462 -3.098557 
26.24719 -34.33126 -5 -3.053293 0.7365036 -3.184629 
28.19143 -34.80025 -5 3.053292 -0.7365071 -3.098554 
25.9505 -35.45462 -5 -3.018779 0.8671848 -3.18463 
27.87276 -36.00681 -5 3.01878 -0.8671839 -3.098561 
25.60576 -36.56416 -5 -2.978675 0.9962577 -3.184628 
27.50249 -37.19855 -5 2.978677 -0.996254 -3.098555 
25.2136 -37.65785 -5 -2.933058 1.123481 -3.184627 
27.08128 -38.37325 -5 2.933057 -1.123482 -3.098559 
24.77476 -38.73366 -5 -2.882008 1.248626 -3.184629 
26.60993 -39.52874 -5 2.882006 -1.248628 -3.098554 
24.29003 -39.78959 -5 -2.82562 1.371461 -3.184628 
26.0893 -40.66288 -5 2.825619 -1.371465 -3.098558 
23.76033 -40.82368 -5 -2.764 1.491758 -3.18463 
25.52036 -41.77358 -5 2.764 -1.491758 -3.098557 
23.18663 -41.83403 -5 -2.697261 1.609291 -3.184627 
24.90415 -42.85877 -5 2.697262 -1.60929 -3.098557 
22.56999 -42.81876 -5 -2.625529 1.723842 -3.184629 
24.24184 -43.91645 -5 2.625531 -1.72384 -3.098558 
21.91155 -43.77605 -5 -2.548935 1.835203 -3.184628 
23.53463 -44.94465 -5 2.548935 -1.835202 -3.098555 
21.21255 -44.70413 -5 -2.46762 1.943164 -3.184628 
22.78385 -45.94147 -5 2.46762 -1.943164 -3.098559 
20.47426 -45.60127 -5 -2.381736 2.047527 -3.184628 
21.99087 -46.90507 -5 2.381737 -2.047527 -3.098556 
19.69805 -46.46582 -5 -2.291441 2.148099 -3.184628 
21.15717 -47.83366 -5 2.291439 -2.148101 -3.098555 
18.88537 -47.29618 -5 -2.196908 2.24469 -3.184625 
20.28429 -48.72552 -5 2.196905 -2.244693 -3.098561 
18.03773 -48.09081 -5 -2.0983 2.337129 -3.184634 
19.37385 -49.57901 -5 2.098302 -2.337128 -3.098556 
17.15667 -48.84823 -5 -1.995804 2.425242 -3.184627 
18.42754 -50.39254 -5 1.995805 -2.425241 -3.098554 
16.24385 -49.56704 -5 -1.889621 2.508858 -3.184627 
17.4471 -51.1646 -5 1.88962 -2.508859 -3.098561 
15.30095 -50.24592 -5 -1.779935 2.58783 -3.184629 
16.43435 -51.89377 -5 1.779937 -2.587829 -3.098556 
14.32971 -50.88361 -5 -1.666954 2.662011 -3.184627 
15.39117 -52.57869 -5 1.666952 -2.662012 -3.098556 
13.33194 -51.47892 -5 -1.550884 2.731263 -3.18463 
14.31949 -53.21809 -5 1.550883 -2.731263 -3.098558 
12.30948 -52.03075 -5 -1.431937 2.795459 -3.18463 
13.22129 -53.8108 -5 1.431937 -2.795459 -3.098553 
11.26423 -52.53807 -5 -1.310348 2.854474 -3.184623 
12.09861 -54.35571 -5 1.310346 -2.854475 -3.098563 
10.19812 -52.99997 -5 -1.186329 2.908205 -3.184632 
10.95353 -54.85182 -5 1.186333 -2.908204 -3.098557 
9.113118 -53.41557 -5 -1.060115 2.956551 -3.184624 
9.788164 -55.2982 -5 1.060113 -2.956552 -3.098555 
8.011246 -53.7841 -5 -0.931935 2.999422 -3.184633 
8.604671 -55.69403 -5 0.9319382 -2.999421 -3.098562 
6.894539 -54.10489 -5 -0.8020281 3.036739 -3.184625 
7.405246 -56.03859 -5 0.8020349 -3.036738 -3.098554 
5.765065 -54.37734 -5 -0.6706452 3.068432 -3.184627 
6.192107 -56.33122 -5 0.6706386 -3.068433 -3.098556 
4.624915 -54.60094 -5 -0.5380098 3.094443 -3.184631 
4.967501 -56.57138 -5 0.538008 -3.094444 -3.098558 
3.476201 -54.77529 -5 -0.4043791 3.114725 -3.184626 
3.733697 -56.75864 -5 0.4043787 -3.114725 -3.098555 
2.32105 -54.90005 -5 -0.2700003 3.129239 -3.184631 
2.492979 -56.89265 -5 0.2700003 -3.129239 -3.098558 
1.1616 -54.975 -5 -0.1351265 3.137957 -3.184623 
1.247645 -56.97315 -5 0.1351274 -3.137958 -3.098558 
-1.656132e-14 -55 -5 -1.604597 1.570433 -1.592316 
-1.730622e-14 -57 -5 -1.536998 -1.570433 -1.549278 
3 0 1 2 
3 1 3 2 
3 4 5 6 
3 5 7 6 
3 6 7 8 
3 7 9 8 
3 8 9 10 
3 9 11 10 
3 10 11 12 
3 11 13 12 
3 12 13 14 
3 13 15 14 
3 14 15 16 
3 15 17 16 
3 16 17 18 
3 17 19 18 
3 18 19 20 
3 19 21 20 
3 20 21 22 
3 21 23 22 
3 22 23 24 
3 23 25 24 
3 24 25 26 
3 25 27 26 
3 26 27 28 
3 27 29 28 
3 28 29 30 
3 29 31 30 
3 30 31 32 
3 31 33 32 
3 32 33 34 
3 33 35 34 
3 34 35 36 
3 35 37 36 
3 36 37 38 
3 37 39 38 
3 38 39 40 
3 39 41 40 
3 40 41 42 
3 41 43 42 
3 42 43 44 
3 43 45 44 
3 44 45 46 
3 45 47 46 
3 46 47 48 
3 47 49 48 
3 48 49 50 
3 49 51 50 
3 50 51 52 
3 51 53 52 
3 52 53 54 
3 53 55 54 
3 54 55 56 
3 55 57 56 
3 56 57 58 
3 57 59 58 
3 58 59 60 
3 59 61 60 
3 60 61 62 
3 61 63 62 
3 62 63 64 
3 63 65 64 
3 64 65 66 
3 65 67 66 
3 66 67 68 
3 67 69 68 
3 68 69 70 
3 69 71 70 
3 70 71 72 
3 71 73 72 
3 72 73 74 
3 73 75 74 
3 74 75 76 
3 75 77 76 
3 76 77 78 
3 77 79 78 
3 78 79 80 
3 79 81 80 
3 80 81 82 
3 81 83 82 
3 82 83 84 
3 83 85 84 
3 84 85 86 
3 85 87 86 
3 86 87 88 
3 87 89 88 
3 88 89 90 
3 89 91 90 
3 90 91 92 
3 91 93 92 
3 92 93 94 
3 93 95 94 
3 94 95 96 
3 95 97 96 
3 96 97 98 
3 97 99 98 
3 98 99 100 
3 99 101 100 
3 100 101 102 
3 101 103 102 
3 102 103 104 
3 103 105 104 
3 104 105 106 
3 105 107 106 
3 106 107 108 
3 107 109 108 
3 108 109 110 
3 109 111 110 
3 110 111 112 
3 111 113 112 
3 112 113 114 
3 113 115 114 
3 114 115 116 
3 115 117 116 
3 116 117 118 
3 117 119 118 
3 118 119 120 
3 119 121 120 
3 120 121 122 
3 121 123 122 
3 122 123 124 
3 123 125 124 
3 124 125 126 
3 125 127 126 
3 126 127 128 
3 127 129 128 
3 128 129 130 
3 129 131 130 
3 130 131 132 
3 131 133 132 
3 132 133 134 
3 133 135 134 
3 134 135 136 
3 135 137 136 
3 136 137 138 
3 137 139 138 
3 138 139 140 
3 139 141 140 
3 140 141 142 
3 141 143 142 
3 142 143 144 
3 143 145 144 
3 144 145 146 
3 145 147 146 
3 146 147 148 
3 147 149 148 
3 148 149 150 
3 149 151 150 
3 150 151 152 
3 151 153 152 
3 152 153 154 
3 153 2 154 
3 154 2 155 
3 2 3 155 
3 154 155 156 
3 155 157 156 
3 157 1 156 
3 1 0 156 
3 156 0 158 
3 0 159 158 
3 158 159 160 
3 159 161 160 
3 160 161 162 
3 161 163 162 
3 162 163 164 
3 163 165 164 
3 164 165 166 
3 165 167 166 
3 166 167 168 
3 167 169 168 
3 168 169 170 
3 169 171 170 
3 170 171 172 
3 171 173 172 
3 172 173 174 
3 173 175 174 
3 174 175 176 
3 175 177 176 
3 176 177 178 
3 177 179 178 
3 178 179 180 
3 179 181 180 
3 180 181 182 
3 181 183 182 
3 182 183 184 
3 183 185 184 
3 184 185 186 
3 185 187 186 
3 186 187 188 
3 187 189 188 
3 188 189 190 
3 189 191 190 
3 190 191 192 
3 191 193 192 
3 192 193 194 
3 193 195 194 
3 194 195 196 
3 195 197 196 
3 196 197 198 
3 197 199 198 
3 198 199 200 
3 199 201 200 
3 200 201 202 
3 201 203 202 
3 202 203 204 
3 203 205 204 
3 204 205 206 
3 205 207 206 
3 206 207 208 
3 207 209 208 
3 208 209 210 
3 209 211 210 
3 210 211 212 
3 211 213 212 
3 212 213 214 
3 213 215 214 
3 214 215 216 
3 215 217 216 
3 216 217 218 
3 217 219 218 
3 218 219 220 
3 219 221 220 
3 220 221 222 
3 221 223 222 
3 222 223 224 
3 223 225 224 
3 224 225 226 
3 225 227 226 
3 226 227 228 
3 227 229 228 
3 228 229 230 
3 229 231 230 
3 230 231 232 
3 231 233 232 
3 232 233 234 
3 233 235 234 
3 234 235 236 
3 235 237 236 
3 236 237 238 
3 237 239 238 
3 238 239 240 
3 239 241 240 
3 240 241 242 
3 241 243 242 
3 242 243 244 
3 243 245 244 
3 244 245 246 
3 245 247 246 
3 246 247 248 
3 247 249 248 
3 248 249 250 
3 249 251 250 
3 250 251 252 
3 251 253 252 
3 252 253 254 
3 253 255 254 
3 254 255 256 
3 255 257 256 
3 256 257 258 
3 257 259 258 
3 258 259 260 
3 259 261 260 
3 260 261 262 
3 261 263 262 
3 262 263 264 
3 263 265 264 
3 264 265 266 
3 265 267 266 
3 266 267 268 
3 267 269 268 
3 268 269 270 
3 269 271 270 
3 270 271 272 
3 271 273 272 
3 272 273 274 
3 273 275 274 
3 274 275 276 
3 275 277 276 
3 276 277 278 
3 277 279 278 
3 278 279 280 
3 279 281 280 
3 280 281 282 
3 281 283 282 
3 282 283 284 
3 283 285 284 
3 284 285 286 
3 285 287 286 
3 286 287 288 
3 287 289 288 
3 288 289 290 
3 289 291 290 
3 290 291 292 
3 291 293 292 
3 292 293 294 
3 293 295 294 
3 294 295 296 
3 295 297 296 
3 296 297 298 
3 297 299 298 
3 298 299 300 
3 299 301 300 
3 300 301 302 
3 301 303 302 
3 302 303 304 
3 303 305 304 
3 304 305 306 
3 305 307 306 
3 159 0 153 
3 0 2 153 
3 152 154 158 
3 154 156 158 
3 3 1 155 
3 1 157 155 
3 307 5 306 
3 5 4 306 
3 151 161 153 
3 161 159 153 
3 160 150 158 
3 150 152 158 
3 5 307 305 
3 5 305 7 
3 305 303 7 
3 7 303 9 
3 303 301 9 
3 9 301 11 
3 301 299 11 
3 11 299 13 
3 299 297 13 
3 13 297 15 
3 297 295 15 
3 15 295 17 
3 295 293 17 
3 17 293 19 
3 293 291 19 
3 19 291 21 
3 291 289 21 
3 21 289 23 
3 289 287 23 
3 23 287 25 
3 287 285 25 
3 25 285 27 
3 285 283 27 
3 27 283 29 
3 283 281 29 
3 29 281 31 
3 281 279 31 
3 31 279 33 
3 279 277 33 
3 33 277 35 
3 277 275 35 
3 35 275 37 
3 275 273 37 
3 37 273 39 
3 273 271 39 
3 39 271 41 
3 271 269 41 
3 41 269 43 
3 269 267 43 
3 43 267 45 
3 267 265 45 
3 45 265 47 
3 265 263 47 
3 47 263 49 
3 263 261 49 
3 49 261 51 
3 261 259 51 
3 51 259 53 
3 259 257 53 
3 53 257 55 
3 257 255 55 
3 55 255 57 
3 255 253 57 
3 57 253 59 
3 253 251 59 
3 59 251 61 
3 251 249 61 
3 61 249 63 
3 249 247 63 
3 63 247 65 
3 247 245 65 
3 65 245 67 
3 245 243 67 
3 67 243 69 
3 243 241 69 
3 69 241 71 
3 241 239 71 
3 71 239 73 
3 239 237 73 
3 73 237 75 
3 237 235 75 
3 75 235 77 
3 235 233 77 
3 77 233 79 
3 233 231 79 
3 79 231 81 
3 231 229 81 
3 81 229 83 
3 229 227 83 
3 83 227 85 
3 227 225 85 
3 85 225 87 
3 225 223 87 
3 87 223 89 
3 223 221 89 
3 89 221 91 
3 221 219 91 
3 91 219 93 
3 219 217 93 
3 93 217 95 
3 217 215 95 
3 95 215 97 
3 215 213 97 
3 97 213 99 
3 213 211 99 
3 99 211 101 
3 211 209 101 
3 101 209 103 
3 209 207 103 
3 103 207 105 
3 207 205 105 
3 105 205 107 
3 205 203 107 
3 107 203 109 
3 203 201 109 
3 109 201 111 
3 201 199 111 
3 111 199 113 
3 199 197 113 
3 113 197 115 
3 197 195 115 
3 115 195 117 
3 195 193 117 
3 117 193 119 
3 193 191 119 
3 119 191 121 
3 191 189 121 
3 121 189 123 
3 189 187 123 
3 123 187 125 
3 187 185 125 
3 125 185 127 
3 185 183 127 
3 127 183 129 
3 183 181 129 
3 129 181 131 
3 181 179 131 
3 131 179 133 
3 179 177 133 
3 133 177 135 
3 177 175 135 
3 135 175 137 
3 175 173 137 
3 137 173 139 
3 173 171 139 
3 139 171 141 
3 171 169 141 
3 141 169 143 
3 169 167 143 
3 143 167 145 
3 167 165 145 
3 145 165 147 
3 165 163 147 
3 147 163 149 
3 163 161 149 
3 149 161 151 
3 150 160 148 
3 160 162 148 
3 148 162 146 
3 162 164 146 
3 146 164 144 
3 164 166 144 
3 144 166 142 
3 166 168 142 
3 142 168 140 
3 168 170 140 
3 140 170 138 
3 170 172 138 
3 138 172 136 
3 172 174 136 
3 136 174 134 
3 174 176 134 
3 134 176 132 
3 176 178 132 
3 132 178 130 
3 178 180 130 
3 130 180 128 
3 180 182 128 
3 128 182 126 
3 182 184 126 
3 126 184 124 
3 184 186 124 
3 124 186 122 
3 186 188 122 
3 122 188 120 
3 188 190 120 
3 120 190 118 
3 190 192 118 
3 118 192 116 
3 192 194 116 
3 116 194 114 
3 194 196 114 
3 114 196 112 
3 196 198 112 
3 112 198 110 
3 198 200 110 
3 110 200 108 
3 200 202 108 
3 108 202 106 
3 202 204 106 
3 106 204 104 
3 204 206 104 
3 104 206 102 
3 206 208 102 
3 102 208 100 
3 208 210 100 
3 100 210 98 
3 210 212 98 
3 98 212 96 
3 212 214 96 
3 96 214 94 
3 214 216 94 
3 94 216 92 
3 216 218 92 
3 92 218 90 
3 218 220 90 
3 90 220 88 
3 220 222 88 
3 88 222 86 
3 222 224 86 
3 86 224 84 
3 224 226 84 
3 84 226 82 
3 226 228 82 
3 82 228 80 
3 228 230 80 
3 80 230 78 
3 230 232 78 
3 78 232 76 
3 232 234 76 
3 76 234 74 
3 234 236 74 
3 74 236 72 
3 236 238 72 
3 72 238 70 
3 238 240 70 
3 70 240 68 
3 240 242 68 
3 68 242 66 
3 242 244 66 
3 66 244 64 
3 244 246 64 
3 64 246 62 
3 246 248 62 
3 62 248 60 
3 248 250 60 
3 60 250 58 
3 250 252 58 
3 58 252 56 
3 252 254 56 
3 56 254 54 
3 254 256 54 
3 54 256 52 
3 256 258 52 
3 52 258 50 
3 258 260 50 
3 50 260 48 
3 260 262 48 
3 48 262 46 
3 262 264 46 
3 46 264 44 
3 264 266 44 
3 44 266 42 
3 266 268 42 
3 42 268 40 
3 268 270 40 
3 40 270 38 
3 270 272 38 
3 38 272 36 
3 272 274 36 
3 36 274 34 
3 274 276 34 
3 34 276 32 
3 276 278 32 
3 32 278 30 
3 278 280 30 
3 30 280 28 
3 280 282 28 
3 28 282 26 
3 282 284 26 
3 26 284 24 
3 284 286 24 
3 24 286 22 
3 286 288 22 
3 22 288 20 
3 288 290 20 
3 20 290 18 
3 290 292 18 
3 18 292 16 
3 292 294 16 
3 16 294 14 
3 294 296 14 
3 14 296 12 
3 296 298 12 
3 12 298 10 
3 298 300 10 
3 10 300 8 
3 300 302 8 
3 8 302 6 
3 302 304 6 
3 6 304 4 
3 304 306 4 
